<?xml version="1.0" encoding="utf-8" standalone="no"?>
<!DOCTYPE svg PUBLIC "-//W3C//DTD SVG 1.1//EN"
  "http://www.w3.org/Graphics/SVG/1.1/DTD/svg11.dtd">
<!-- Created with matplotlib (https://matplotlib.org/) -->
<svg height="288pt" version="1.1" viewBox="0 0 432 288" width="432pt" xmlns="http://www.w3.org/2000/svg" xmlns:xlink="http://www.w3.org/1999/xlink">
 <metadata>
  <rdf:RDF xmlns:cc="http://creativecommons.org/ns#" xmlns:dc="http://purl.org/dc/elements/1.1/" xmlns:rdf="http://www.w3.org/1999/02/22-rdf-syntax-ns#">
   <cc:Work>
    <dc:type rdf:resource="http://purl.org/dc/dcmitype/StillImage"/>
    <dc:date>2022-03-07T11:30:00.160929</dc:date>
    <dc:format>image/svg+xml</dc:format>
    <dc:creator>
     <cc:Agent>
      <dc:title>Matplotlib v3.3.4, https://matplotlib.org/</dc:title>
     </cc:Agent>
    </dc:creator>
   </cc:Work>
  </rdf:RDF>
 </metadata>
 <defs>
  <style type="text/css">*{stroke-linecap:butt;stroke-linejoin:round;}</style>
 </defs>
 <g id="figure_1">
  <g id="patch_1">
   <path d="M 0 288 
L 432 288 
L 432 0 
L 0 0 
z
" style="fill:none;"/>
  </g>
  <g id="axes_1">
   <g id="patch_2">
    <path d="M 54 252 
L 388.8 252 
L 388.8 34.56 
L 54 34.56 
z
" style="fill:none;"/>
   </g>
   <g id="PathCollection_1">
    <defs>
     <path d="M 0 3 
C 0.795609 3 1.55874 2.683901 2.12132 2.12132 
C 2.683901 1.55874 3 0.795609 3 0 
C 3 -0.795609 2.683901 -1.55874 2.12132 -2.12132 
C 1.55874 -2.683901 0.795609 -3 0 -3 
C -0.795609 -3 -1.55874 -2.683901 -2.12132 -2.12132 
C -2.683901 -1.55874 -3 -0.795609 -3 0 
C -3 0.795609 -2.683901 1.55874 -2.12132 2.12132 
C -1.55874 2.683901 -0.795609 3 0 3 
z
" id="mdfc145553c" style="stroke:#000000;"/>
    </defs>
    <g clip-path="url(#pf961b5e54d)">
     <use style="stroke:#000000;" x="118.250292" xlink:href="#mdfc145553c" y="158.249638"/>
     <use style="stroke:#000000;" x="141.878517" xlink:href="#mdfc145553c" y="141.407362"/>
     <use style="stroke:#000000;" x="81.9" xlink:href="#mdfc145553c" y="170.255266"/>
     <use style="stroke:#000000;" x="198.733621" xlink:href="#mdfc145553c" y="182.550408"/>
     <use style="stroke:#000000;" x="195.271721" xlink:href="#mdfc145553c" y="180.711511"/>
     <use style="stroke:#000000;" x="197.051405" xlink:href="#mdfc145553c" y="182.588856"/>
     <use style="stroke:#000000;" x="196.152885" xlink:href="#mdfc145553c" y="180.326237"/>
     <use style="stroke:#000000;" x="229.367568" xlink:href="#mdfc145553c" y="142.706978"/>
     <use style="stroke:#000000;" x="228.932001" xlink:href="#mdfc145553c" y="142.132045"/>
     <use style="stroke:#000000;" x="214.912685" xlink:href="#mdfc145553c" y="163.850066"/>
     <use style="stroke:#000000;" x="229.106723" xlink:href="#mdfc145553c" y="141.747531"/>
     <use style="stroke:#000000;" x="192.242237" xlink:href="#mdfc145553c" y="183.287157"/>
     <use style="stroke:#000000;" x="218.594284" xlink:href="#mdfc145553c" y="136.262395"/>
     <use style="stroke:#000000;" x="222.261473" xlink:href="#mdfc145553c" y="135.826593"/>
     <use style="stroke:#000000;" x="329.022317" xlink:href="#mdfc145553c" y="55.263124"/>
     <use style="stroke:#000000;" x="201.868775" xlink:href="#mdfc145553c" y="130.886028"/>
     <use style="stroke:#000000;" x="204.609819" xlink:href="#mdfc145553c" y="170.759386"/>
     <use style="stroke:#000000;" x="201.362579" xlink:href="#mdfc145553c" y="179.801349"/>
     <use style="stroke:#000000;" x="320.127742" xlink:href="#mdfc145553c" y="52.68"/>
     <use style="stroke:#000000;" x="211.244206" xlink:href="#mdfc145553c" y="126.659922"/>
     <use style="stroke:#000000;" x="195.98804" xlink:href="#mdfc145553c" y="179.180152"/>
     <use style="stroke:#000000;" x="275.665679" xlink:href="#mdfc145553c" y="169.943547"/>
     <use style="stroke:#000000;" x="219.294925" xlink:href="#mdfc145553c" y="161.315283"/>
     <use style="stroke:#000000;" x="182.014328" xlink:href="#mdfc145553c" y="188.382245"/>
     <use style="stroke:#000000;" x="189.097972" xlink:href="#mdfc145553c" y="194.935231"/>
     <use style="stroke:#000000;" x="267.439046" xlink:href="#mdfc145553c" y="158.711582"/>
     <use style="stroke:#000000;" x="281.447565" xlink:href="#mdfc145553c" y="160.136167"/>
     <use style="stroke:#000000;" x="258.010853" xlink:href="#mdfc145553c" y="158.825681"/>
     <use style="stroke:#000000;" x="213.302781" xlink:href="#mdfc145553c" y="165.84095"/>
     <use style="stroke:#000000;" x="251.381529" xlink:href="#mdfc145553c" y="160.096143"/>
     <use style="stroke:#000000;" x="199.037415" xlink:href="#mdfc145553c" y="182.05165"/>
     <use style="stroke:#000000;" x="188.540088" xlink:href="#mdfc145553c" y="182.411492"/>
     <use style="stroke:#000000;" x="184.517691" xlink:href="#mdfc145553c" y="176.780703"/>
     <use style="stroke:#000000;" x="218.884411" xlink:href="#mdfc145553c" y="165.089864"/>
     <use style="stroke:#000000;" x="206.852119" xlink:href="#mdfc145553c" y="185.800406"/>
     <use style="stroke:#000000;" x="152.374494" xlink:href="#mdfc145553c" y="198.179187"/>
     <use style="stroke:#000000;" x="203.983526" xlink:href="#mdfc145553c" y="178.634912"/>
     <use style="stroke:#000000;" x="166.377897" xlink:href="#mdfc145553c" y="190.484832"/>
     <use style="stroke:#000000;" x="220.045801" xlink:href="#mdfc145553c" y="175.513015"/>
     <use style="stroke:#000000;" x="274.127162" xlink:href="#mdfc145553c" y="179.61231"/>
     <use style="stroke:#000000;" x="280.568794" xlink:href="#mdfc145553c" y="169.988797"/>
     <use style="stroke:#000000;" x="241.434837" xlink:href="#mdfc145553c" y="183.398741"/>
     <use style="stroke:#000000;" x="183.698103" xlink:href="#mdfc145553c" y="180.18361"/>
     <use style="stroke:#000000;" x="360.9" xlink:href="#mdfc145553c" y="113.612073"/>
     <use style="stroke:#000000;" x="165.274285" xlink:href="#mdfc145553c" y="181.050409"/>
     <use style="stroke:#000000;" x="357.738147" xlink:href="#mdfc145553c" y="137.527814"/>
     <use style="stroke:#000000;" x="346.899012" xlink:href="#mdfc145553c" y="129.77551"/>
     <use style="stroke:#000000;" x="332.835466" xlink:href="#mdfc145553c" y="136.989558"/>
     <use style="stroke:#000000;" x="339.673316" xlink:href="#mdfc145553c" y="122.857951"/>
     <use style="stroke:#000000;" x="328.862562" xlink:href="#mdfc145553c" y="107.713635"/>
     <use style="stroke:#000000;" x="340.047827" xlink:href="#mdfc145553c" y="149.501891"/>
     <use style="stroke:#000000;" x="340.272107" xlink:href="#mdfc145553c" y="102.370221"/>
     <use style="stroke:#000000;" x="334.551686" xlink:href="#mdfc145553c" y="123.767701"/>
     <use style="stroke:#000000;" x="126.229867" xlink:href="#mdfc145553c" y="185.483954"/>
     <use style="stroke:#000000;" x="117.541368" xlink:href="#mdfc145553c" y="177.091675"/>
     <use style="stroke:#000000;" x="146.949236" xlink:href="#mdfc145553c" y="187.798937"/>
     <use style="stroke:#000000;" x="183.402084" xlink:href="#mdfc145553c" y="192.338163"/>
     <use style="stroke:#000000;" x="188.31312" xlink:href="#mdfc145553c" y="191.496828"/>
     <use style="stroke:#000000;" x="177.058229" xlink:href="#mdfc145553c" y="199.842308"/>
     <use style="stroke:#000000;" x="159.427827" xlink:href="#mdfc145553c" y="200.659244"/>
     <use style="stroke:#000000;" x="105.453683" xlink:href="#mdfc145553c" y="204.978921"/>
     <use style="stroke:#000000;" x="115.714586" xlink:href="#mdfc145553c" y="185.418867"/>
     <use style="stroke:#000000;" x="191.527492" xlink:href="#mdfc145553c" y="194.028244"/>
     <use style="stroke:#000000;" x="203.800869" xlink:href="#mdfc145553c" y="193.309707"/>
     <use style="stroke:#000000;" x="201.212228" xlink:href="#mdfc145553c" y="190.786038"/>
     <use style="stroke:#000000;" x="130.901578" xlink:href="#mdfc145553c" y="200.905297"/>
     <use style="stroke:#000000;" x="119.703191" xlink:href="#mdfc145553c" y="203.951152"/>
     <use style="stroke:#000000;" x="122.238835" xlink:href="#mdfc145553c" y="203.185365"/>
     <use style="stroke:#000000;" x="199.373176" xlink:href="#mdfc145553c" y="192.35036"/>
     <use style="stroke:#000000;" x="178.277748" xlink:href="#mdfc145553c" y="181.248129"/>
     <use style="stroke:#000000;" x="212.7563" xlink:href="#mdfc145553c" y="171.03427"/>
     <use style="stroke:#000000;" x="164.583953" xlink:href="#mdfc145553c" y="185.408339"/>
     <use style="stroke:#000000;" x="168.550788" xlink:href="#mdfc145553c" y="189.065847"/>
     <use style="stroke:#000000;" x="213.785558" xlink:href="#mdfc145553c" y="186.587782"/>
     <use style="stroke:#000000;" x="160.59816" xlink:href="#mdfc145553c" y="189.703378"/>
     <use style="stroke:#000000;" x="182.078199" xlink:href="#mdfc145553c" y="196.794042"/>
     <use style="stroke:#000000;" x="189.610964" xlink:href="#mdfc145553c" y="204.159298"/>
     <use style="stroke:#000000;" x="191.444294" xlink:href="#mdfc145553c" y="196.682272"/>
     <use style="stroke:#000000;" x="190.015596" xlink:href="#mdfc145553c" y="194.774674"/>
     <use style="stroke:#000000;" x="168.005227" xlink:href="#mdfc145553c" y="188.400037"/>
     <use style="stroke:#000000;" x="190.60124" xlink:href="#mdfc145553c" y="182.214072"/>
     <use style="stroke:#000000;" x="194.653162" xlink:href="#mdfc145553c" y="179.493773"/>
     <use style="stroke:#000000;" x="198.951654" xlink:href="#mdfc145553c" y="183.594733"/>
     <use style="stroke:#000000;" x="184.182136" xlink:href="#mdfc145553c" y="182.06239"/>
     <use style="stroke:#000000;" x="175.014376" xlink:href="#mdfc145553c" y="185.782325"/>
     <use style="stroke:#000000;" x="162.086977" xlink:href="#mdfc145553c" y="192.881119"/>
     <use style="stroke:#000000;" x="169.816432" xlink:href="#mdfc145553c" y="188.461422"/>
     <use style="stroke:#000000;" x="197.85193" xlink:href="#mdfc145553c" y="172.788276"/>
     <use style="stroke:#000000;" x="198.380077" xlink:href="#mdfc145553c" y="184.926222"/>
     <use style="stroke:#000000;" x="194.175217" xlink:href="#mdfc145553c" y="186.918261"/>
     <use style="stroke:#000000;" x="142.191929" xlink:href="#mdfc145553c" y="173.092427"/>
     <use style="stroke:#000000;" x="168.452864" xlink:href="#mdfc145553c" y="183.438419"/>
     <use style="stroke:#000000;" x="165.531294" xlink:href="#mdfc145553c" y="181.001133"/>
     <use style="stroke:#000000;" x="248.796301" xlink:href="#mdfc145553c" y="147.1661"/>
     <use style="stroke:#000000;" x="144.808515" xlink:href="#mdfc145553c" y="215.922406"/>
     <use style="stroke:#000000;" x="164.907153" xlink:href="#mdfc145553c" y="201.168763"/>
     <use style="stroke:#000000;" x="169.40663" xlink:href="#mdfc145553c" y="159.741367"/>
     <use style="stroke:#000000;" x="190.921365" xlink:href="#mdfc145553c" y="164.653064"/>
     <use style="stroke:#000000;" x="149.235408" xlink:href="#mdfc145553c" y="202.283307"/>
     <use style="stroke:#000000;" x="170.665428" xlink:href="#mdfc145553c" y="188.403232"/>
     <use style="stroke:#000000;" x="222.939388" xlink:href="#mdfc145553c" y="174.685274"/>
     <use style="stroke:#000000;" x="240.349346" xlink:href="#mdfc145553c" y="166.674667"/>
     <use style="stroke:#000000;" x="259.439" xlink:href="#mdfc145553c" y="162.027023"/>
     <use style="stroke:#000000;" x="221.068813" xlink:href="#mdfc145553c" y="110.085418"/>
     <use style="stroke:#000000;" x="248.820579" xlink:href="#mdfc145553c" y="104.342427"/>
     <use style="stroke:#000000;" x="208.581309" xlink:href="#mdfc145553c" y="191.617554"/>
     <use style="stroke:#000000;" x="196.478224" xlink:href="#mdfc145553c" y="188.744226"/>
     <use style="stroke:#000000;" x="160.258585" xlink:href="#mdfc145553c" y="211.731482"/>
     <use style="stroke:#000000;" x="233.346231" xlink:href="#mdfc145553c" y="151.357024"/>
     <use style="stroke:#000000;" x="147.634366" xlink:href="#mdfc145553c" y="208.557107"/>
     <use style="stroke:#000000;" x="235.227041" xlink:href="#mdfc145553c" y="123.012674"/>
     <use style="stroke:#000000;" x="207.848582" xlink:href="#mdfc145553c" y="130.823669"/>
     <use style="stroke:#000000;" x="227.949565" xlink:href="#mdfc145553c" y="122.174706"/>
     <use style="stroke:#000000;" x="216.432119" xlink:href="#mdfc145553c" y="132.502836"/>
     <use style="stroke:#000000;" x="176.338887" xlink:href="#mdfc145553c" y="177.740283"/>
     <use style="stroke:#000000;" x="184.539663" xlink:href="#mdfc145553c" y="186.212869"/>
     <use style="stroke:#000000;" x="209.065153" xlink:href="#mdfc145553c" y="176.875637"/>
     <use style="stroke:#000000;" x="153.688206" xlink:href="#mdfc145553c" y="233.045697"/>
     <use style="stroke:#000000;" x="154.42243" xlink:href="#mdfc145553c" y="217.411187"/>
     <use style="stroke:#000000;" x="163.51012" xlink:href="#mdfc145553c" y="233.88"/>
     <use style="stroke:#000000;" x="144.544053" xlink:href="#mdfc145553c" y="228.999395"/>
     <use style="stroke:#000000;" x="198.311943" xlink:href="#mdfc145553c" y="222.777683"/>
     <use style="stroke:#000000;" x="183.189848" xlink:href="#mdfc145553c" y="226.580665"/>
     <use style="stroke:#000000;" x="198.346698" xlink:href="#mdfc145553c" y="228.68857"/>
     <use style="stroke:#000000;" x="180.950329" xlink:href="#mdfc145553c" y="220.663209"/>
     <use style="stroke:#000000;" x="187.276784" xlink:href="#mdfc145553c" y="181.41623"/>
     <use style="stroke:#000000;" x="206.328032" xlink:href="#mdfc145553c" y="181.672276"/>
     <use style="stroke:#000000;" x="192.294001" xlink:href="#mdfc145553c" y="178.146455"/>
     <use style="stroke:#000000;" x="209.748534" xlink:href="#mdfc145553c" y="177.08474"/>
     <use style="stroke:#000000;" x="260.942934" xlink:href="#mdfc145553c" y="197.113825"/>
     <use style="stroke:#000000;" x="257.730741" xlink:href="#mdfc145553c" y="197.993077"/>
     <use style="stroke:#000000;" x="199.994497" xlink:href="#mdfc145553c" y="180.092715"/>
     <use style="stroke:#000000;" x="193.610319" xlink:href="#mdfc145553c" y="182.99579"/>
     <use style="stroke:#000000;" x="211.492904" xlink:href="#mdfc145553c" y="142.355751"/>
     <use style="stroke:#000000;" x="238.054738" xlink:href="#mdfc145553c" y="105.380445"/>
     <use style="stroke:#000000;" x="243.101303" xlink:href="#mdfc145553c" y="147.303176"/>
     <use style="stroke:#000000;" x="279.095528" xlink:href="#mdfc145553c" y="96.623825"/>
     <use style="stroke:#000000;" x="260.29049" xlink:href="#mdfc145553c" y="92.417819"/>
     <use style="stroke:#000000;" x="245.516348" xlink:href="#mdfc145553c" y="128.973202"/>
    </g>
   </g>
   <g id="matplotlib.axis_1">
    <g id="xtick_1">
     <g id="line2d_1">
      <defs>
       <path d="M 0 0 
L 0 3.5 
" id="mc10cec0fb8" style="stroke:#000000;stroke-width:0.8;"/>
      </defs>
      <g>
       <use style="stroke:#000000;stroke-width:0.8;" x="59.643124" xlink:href="#mc10cec0fb8" y="252"/>
      </g>
     </g>
     <g id="text_1">
      <!-- −30 -->
      <g transform="translate(49.09078 266.598437)scale(0.1 -0.1)">
       <defs>
        <path d="M 10.59375 35.5 
L 73.1875 35.5 
L 73.1875 27.203125 
L 10.59375 27.203125 
z
" id="DejaVuSans-8722"/>
        <path d="M 40.578125 39.3125 
Q 47.65625 37.796875 51.625 33 
Q 55.609375 28.21875 55.609375 21.1875 
Q 55.609375 10.40625 48.1875 4.484375 
Q 40.765625 -1.421875 27.09375 -1.421875 
Q 22.515625 -1.421875 17.65625 -0.515625 
Q 12.796875 0.390625 7.625 2.203125 
L 7.625 11.71875 
Q 11.71875 9.328125 16.59375 8.109375 
Q 21.484375 6.890625 26.8125 6.890625 
Q 36.078125 6.890625 40.9375 10.546875 
Q 45.796875 14.203125 45.796875 21.1875 
Q 45.796875 27.640625 41.28125 31.265625 
Q 36.765625 34.90625 28.71875 34.90625 
L 20.21875 34.90625 
L 20.21875 43.015625 
L 29.109375 43.015625 
Q 36.375 43.015625 40.234375 45.921875 
Q 44.09375 48.828125 44.09375 54.296875 
Q 44.09375 59.90625 40.109375 62.90625 
Q 36.140625 65.921875 28.71875 65.921875 
Q 24.65625 65.921875 20.015625 65.03125 
Q 15.375 64.15625 9.8125 62.3125 
L 9.8125 71.09375 
Q 15.4375 72.65625 20.34375 73.4375 
Q 25.25 74.21875 29.59375 74.21875 
Q 40.828125 74.21875 47.359375 69.109375 
Q 53.90625 64.015625 53.90625 55.328125 
Q 53.90625 49.265625 50.4375 45.09375 
Q 46.96875 40.921875 40.578125 39.3125 
z
" id="DejaVuSans-51"/>
        <path d="M 31.78125 66.40625 
Q 24.171875 66.40625 20.328125 58.90625 
Q 16.5 51.421875 16.5 36.375 
Q 16.5 21.390625 20.328125 13.890625 
Q 24.171875 6.390625 31.78125 6.390625 
Q 39.453125 6.390625 43.28125 13.890625 
Q 47.125 21.390625 47.125 36.375 
Q 47.125 51.421875 43.28125 58.90625 
Q 39.453125 66.40625 31.78125 66.40625 
z
M 31.78125 74.21875 
Q 44.046875 74.21875 50.515625 64.515625 
Q 56.984375 54.828125 56.984375 36.375 
Q 56.984375 17.96875 50.515625 8.265625 
Q 44.046875 -1.421875 31.78125 -1.421875 
Q 19.53125 -1.421875 13.0625 8.265625 
Q 6.59375 17.96875 6.59375 36.375 
Q 6.59375 54.828125 13.0625 64.515625 
Q 19.53125 74.21875 31.78125 74.21875 
z
" id="DejaVuSans-48"/>
       </defs>
       <use xlink:href="#DejaVuSans-8722"/>
       <use x="83.789062" xlink:href="#DejaVuSans-51"/>
       <use x="147.412109" xlink:href="#DejaVuSans-48"/>
      </g>
     </g>
    </g>
    <g id="xtick_2">
     <g id="line2d_2">
      <g>
       <use style="stroke:#000000;stroke-width:0.8;" x="105.362886" xlink:href="#mc10cec0fb8" y="252"/>
      </g>
     </g>
     <g id="text_2">
      <!-- −20 -->
      <g transform="translate(94.810542 266.598437)scale(0.1 -0.1)">
       <defs>
        <path d="M 19.1875 8.296875 
L 53.609375 8.296875 
L 53.609375 0 
L 7.328125 0 
L 7.328125 8.296875 
Q 12.9375 14.109375 22.625 23.890625 
Q 32.328125 33.6875 34.8125 36.53125 
Q 39.546875 41.84375 41.421875 45.53125 
Q 43.3125 49.21875 43.3125 52.78125 
Q 43.3125 58.59375 39.234375 62.25 
Q 35.15625 65.921875 28.609375 65.921875 
Q 23.96875 65.921875 18.8125 64.3125 
Q 13.671875 62.703125 7.8125 59.421875 
L 7.8125 69.390625 
Q 13.765625 71.78125 18.9375 73 
Q 24.125 74.21875 28.421875 74.21875 
Q 39.75 74.21875 46.484375 68.546875 
Q 53.21875 62.890625 53.21875 53.421875 
Q 53.21875 48.921875 51.53125 44.890625 
Q 49.859375 40.875 45.40625 35.40625 
Q 44.1875 33.984375 37.640625 27.21875 
Q 31.109375 20.453125 19.1875 8.296875 
z
" id="DejaVuSans-50"/>
       </defs>
       <use xlink:href="#DejaVuSans-8722"/>
       <use x="83.789062" xlink:href="#DejaVuSans-50"/>
       <use x="147.412109" xlink:href="#DejaVuSans-48"/>
      </g>
     </g>
    </g>
    <g id="xtick_3">
     <g id="line2d_3">
      <g>
       <use style="stroke:#000000;stroke-width:0.8;" x="151.082647" xlink:href="#mc10cec0fb8" y="252"/>
      </g>
     </g>
     <g id="text_3">
      <!-- −10 -->
      <g transform="translate(140.530303 266.598437)scale(0.1 -0.1)">
       <defs>
        <path d="M 12.40625 8.296875 
L 28.515625 8.296875 
L 28.515625 63.921875 
L 10.984375 60.40625 
L 10.984375 69.390625 
L 28.421875 72.90625 
L 38.28125 72.90625 
L 38.28125 8.296875 
L 54.390625 8.296875 
L 54.390625 0 
L 12.40625 0 
z
" id="DejaVuSans-49"/>
       </defs>
       <use xlink:href="#DejaVuSans-8722"/>
       <use x="83.789062" xlink:href="#DejaVuSans-49"/>
       <use x="147.412109" xlink:href="#DejaVuSans-48"/>
      </g>
     </g>
    </g>
    <g id="xtick_4">
     <g id="line2d_4">
      <g>
       <use style="stroke:#000000;stroke-width:0.8;" x="196.802408" xlink:href="#mc10cec0fb8" y="252"/>
      </g>
     </g>
     <g id="text_4">
      <!-- 0 -->
      <g transform="translate(193.621158 266.598437)scale(0.1 -0.1)">
       <use xlink:href="#DejaVuSans-48"/>
      </g>
     </g>
    </g>
    <g id="xtick_5">
     <g id="line2d_5">
      <g>
       <use style="stroke:#000000;stroke-width:0.8;" x="242.522169" xlink:href="#mc10cec0fb8" y="252"/>
      </g>
     </g>
     <g id="text_5">
      <!-- 10 -->
      <g transform="translate(236.159669 266.598437)scale(0.1 -0.1)">
       <use xlink:href="#DejaVuSans-49"/>
       <use x="63.623047" xlink:href="#DejaVuSans-48"/>
      </g>
     </g>
    </g>
    <g id="xtick_6">
     <g id="line2d_6">
      <g>
       <use style="stroke:#000000;stroke-width:0.8;" x="288.241931" xlink:href="#mc10cec0fb8" y="252"/>
      </g>
     </g>
     <g id="text_6">
      <!-- 20 -->
      <g transform="translate(281.879431 266.598437)scale(0.1 -0.1)">
       <use xlink:href="#DejaVuSans-50"/>
       <use x="63.623047" xlink:href="#DejaVuSans-48"/>
      </g>
     </g>
    </g>
    <g id="xtick_7">
     <g id="line2d_7">
      <g>
       <use style="stroke:#000000;stroke-width:0.8;" x="333.961692" xlink:href="#mc10cec0fb8" y="252"/>
      </g>
     </g>
     <g id="text_7">
      <!-- 30 -->
      <g transform="translate(327.599192 266.598437)scale(0.1 -0.1)">
       <use xlink:href="#DejaVuSans-51"/>
       <use x="63.623047" xlink:href="#DejaVuSans-48"/>
      </g>
     </g>
    </g>
    <g id="xtick_8">
     <g id="line2d_8">
      <g>
       <use style="stroke:#000000;stroke-width:0.8;" x="379.681453" xlink:href="#mc10cec0fb8" y="252"/>
      </g>
     </g>
     <g id="text_8">
      <!-- 40 -->
      <g transform="translate(373.318953 266.598437)scale(0.1 -0.1)">
       <defs>
        <path d="M 37.796875 64.3125 
L 12.890625 25.390625 
L 37.796875 25.390625 
z
M 35.203125 72.90625 
L 47.609375 72.90625 
L 47.609375 25.390625 
L 58.015625 25.390625 
L 58.015625 17.1875 
L 47.609375 17.1875 
L 47.609375 0 
L 37.796875 0 
L 37.796875 17.1875 
L 4.890625 17.1875 
L 4.890625 26.703125 
z
" id="DejaVuSans-52"/>
       </defs>
       <use xlink:href="#DejaVuSans-52"/>
       <use x="63.623047" xlink:href="#DejaVuSans-48"/>
      </g>
     </g>
    </g>
    <g id="text_9">
     <!-- ABUW_1645 iModulon Activity -->
     <g transform="translate(146.121094 280.276563)scale(0.1 -0.1)">
      <defs>
       <path d="M 34.1875 63.1875 
L 20.796875 26.90625 
L 47.609375 26.90625 
z
M 28.609375 72.90625 
L 39.796875 72.90625 
L 67.578125 0 
L 57.328125 0 
L 50.6875 18.703125 
L 17.828125 18.703125 
L 11.1875 0 
L 0.78125 0 
z
" id="DejaVuSans-65"/>
       <path d="M 19.671875 34.8125 
L 19.671875 8.109375 
L 35.5 8.109375 
Q 43.453125 8.109375 47.28125 11.40625 
Q 51.125 14.703125 51.125 21.484375 
Q 51.125 28.328125 47.28125 31.5625 
Q 43.453125 34.8125 35.5 34.8125 
z
M 19.671875 64.796875 
L 19.671875 42.828125 
L 34.28125 42.828125 
Q 41.5 42.828125 45.03125 45.53125 
Q 48.578125 48.25 48.578125 53.8125 
Q 48.578125 59.328125 45.03125 62.0625 
Q 41.5 64.796875 34.28125 64.796875 
z
M 9.8125 72.90625 
L 35.015625 72.90625 
Q 46.296875 72.90625 52.390625 68.21875 
Q 58.5 63.53125 58.5 54.890625 
Q 58.5 48.1875 55.375 44.234375 
Q 52.25 40.28125 46.1875 39.3125 
Q 53.46875 37.75 57.5 32.78125 
Q 61.53125 27.828125 61.53125 20.40625 
Q 61.53125 10.640625 54.890625 5.3125 
Q 48.25 0 35.984375 0 
L 9.8125 0 
z
" id="DejaVuSans-66"/>
       <path d="M 8.6875 72.90625 
L 18.609375 72.90625 
L 18.609375 28.609375 
Q 18.609375 16.890625 22.84375 11.734375 
Q 27.09375 6.59375 36.625 6.59375 
Q 46.09375 6.59375 50.34375 11.734375 
Q 54.59375 16.890625 54.59375 28.609375 
L 54.59375 72.90625 
L 64.5 72.90625 
L 64.5 27.390625 
Q 64.5 13.140625 57.4375 5.859375 
Q 50.390625 -1.421875 36.625 -1.421875 
Q 22.796875 -1.421875 15.734375 5.859375 
Q 8.6875 13.140625 8.6875 27.390625 
z
" id="DejaVuSans-85"/>
       <path d="M 3.328125 72.90625 
L 13.28125 72.90625 
L 28.609375 11.28125 
L 43.890625 72.90625 
L 54.984375 72.90625 
L 70.3125 11.28125 
L 85.59375 72.90625 
L 95.609375 72.90625 
L 77.296875 0 
L 64.890625 0 
L 49.515625 63.28125 
L 33.984375 0 
L 21.578125 0 
z
" id="DejaVuSans-87"/>
       <path d="M 50.984375 -16.609375 
L 50.984375 -23.578125 
L -0.984375 -23.578125 
L -0.984375 -16.609375 
z
" id="DejaVuSans-95"/>
       <path d="M 33.015625 40.375 
Q 26.375 40.375 22.484375 35.828125 
Q 18.609375 31.296875 18.609375 23.390625 
Q 18.609375 15.53125 22.484375 10.953125 
Q 26.375 6.390625 33.015625 6.390625 
Q 39.65625 6.390625 43.53125 10.953125 
Q 47.40625 15.53125 47.40625 23.390625 
Q 47.40625 31.296875 43.53125 35.828125 
Q 39.65625 40.375 33.015625 40.375 
z
M 52.59375 71.296875 
L 52.59375 62.3125 
Q 48.875 64.0625 45.09375 64.984375 
Q 41.3125 65.921875 37.59375 65.921875 
Q 27.828125 65.921875 22.671875 59.328125 
Q 17.53125 52.734375 16.796875 39.40625 
Q 19.671875 43.65625 24.015625 45.921875 
Q 28.375 48.1875 33.59375 48.1875 
Q 44.578125 48.1875 50.953125 41.515625 
Q 57.328125 34.859375 57.328125 23.390625 
Q 57.328125 12.15625 50.6875 5.359375 
Q 44.046875 -1.421875 33.015625 -1.421875 
Q 20.359375 -1.421875 13.671875 8.265625 
Q 6.984375 17.96875 6.984375 36.375 
Q 6.984375 53.65625 15.1875 63.9375 
Q 23.390625 74.21875 37.203125 74.21875 
Q 40.921875 74.21875 44.703125 73.484375 
Q 48.484375 72.75 52.59375 71.296875 
z
" id="DejaVuSans-54"/>
       <path d="M 10.796875 72.90625 
L 49.515625 72.90625 
L 49.515625 64.59375 
L 19.828125 64.59375 
L 19.828125 46.734375 
Q 21.96875 47.46875 24.109375 47.828125 
Q 26.265625 48.1875 28.421875 48.1875 
Q 40.625 48.1875 47.75 41.5 
Q 54.890625 34.8125 54.890625 23.390625 
Q 54.890625 11.625 47.5625 5.09375 
Q 40.234375 -1.421875 26.90625 -1.421875 
Q 22.3125 -1.421875 17.546875 -0.640625 
Q 12.796875 0.140625 7.71875 1.703125 
L 7.71875 11.625 
Q 12.109375 9.234375 16.796875 8.0625 
Q 21.484375 6.890625 26.703125 6.890625 
Q 35.15625 6.890625 40.078125 11.328125 
Q 45.015625 15.765625 45.015625 23.390625 
Q 45.015625 31 40.078125 35.4375 
Q 35.15625 39.890625 26.703125 39.890625 
Q 22.75 39.890625 18.8125 39.015625 
Q 14.890625 38.140625 10.796875 36.28125 
z
" id="DejaVuSans-53"/>
       <path id="DejaVuSans-32"/>
       <path d="M 9.421875 54.6875 
L 18.40625 54.6875 
L 18.40625 0 
L 9.421875 0 
z
M 9.421875 75.984375 
L 18.40625 75.984375 
L 18.40625 64.59375 
L 9.421875 64.59375 
z
" id="DejaVuSans-105"/>
       <path d="M 9.8125 72.90625 
L 24.515625 72.90625 
L 43.109375 23.296875 
L 61.8125 72.90625 
L 76.515625 72.90625 
L 76.515625 0 
L 66.890625 0 
L 66.890625 64.015625 
L 48.09375 14.015625 
L 38.1875 14.015625 
L 19.390625 64.015625 
L 19.390625 0 
L 9.8125 0 
z
" id="DejaVuSans-77"/>
       <path d="M 30.609375 48.390625 
Q 23.390625 48.390625 19.1875 42.75 
Q 14.984375 37.109375 14.984375 27.296875 
Q 14.984375 17.484375 19.15625 11.84375 
Q 23.34375 6.203125 30.609375 6.203125 
Q 37.796875 6.203125 41.984375 11.859375 
Q 46.1875 17.53125 46.1875 27.296875 
Q 46.1875 37.015625 41.984375 42.703125 
Q 37.796875 48.390625 30.609375 48.390625 
z
M 30.609375 56 
Q 42.328125 56 49.015625 48.375 
Q 55.71875 40.765625 55.71875 27.296875 
Q 55.71875 13.875 49.015625 6.21875 
Q 42.328125 -1.421875 30.609375 -1.421875 
Q 18.84375 -1.421875 12.171875 6.21875 
Q 5.515625 13.875 5.515625 27.296875 
Q 5.515625 40.765625 12.171875 48.375 
Q 18.84375 56 30.609375 56 
z
" id="DejaVuSans-111"/>
       <path d="M 45.40625 46.390625 
L 45.40625 75.984375 
L 54.390625 75.984375 
L 54.390625 0 
L 45.40625 0 
L 45.40625 8.203125 
Q 42.578125 3.328125 38.25 0.953125 
Q 33.9375 -1.421875 27.875 -1.421875 
Q 17.96875 -1.421875 11.734375 6.484375 
Q 5.515625 14.40625 5.515625 27.296875 
Q 5.515625 40.1875 11.734375 48.09375 
Q 17.96875 56 27.875 56 
Q 33.9375 56 38.25 53.625 
Q 42.578125 51.265625 45.40625 46.390625 
z
M 14.796875 27.296875 
Q 14.796875 17.390625 18.875 11.75 
Q 22.953125 6.109375 30.078125 6.109375 
Q 37.203125 6.109375 41.296875 11.75 
Q 45.40625 17.390625 45.40625 27.296875 
Q 45.40625 37.203125 41.296875 42.84375 
Q 37.203125 48.484375 30.078125 48.484375 
Q 22.953125 48.484375 18.875 42.84375 
Q 14.796875 37.203125 14.796875 27.296875 
z
" id="DejaVuSans-100"/>
       <path d="M 8.5 21.578125 
L 8.5 54.6875 
L 17.484375 54.6875 
L 17.484375 21.921875 
Q 17.484375 14.15625 20.5 10.265625 
Q 23.53125 6.390625 29.59375 6.390625 
Q 36.859375 6.390625 41.078125 11.03125 
Q 45.3125 15.671875 45.3125 23.6875 
L 45.3125 54.6875 
L 54.296875 54.6875 
L 54.296875 0 
L 45.3125 0 
L 45.3125 8.40625 
Q 42.046875 3.421875 37.71875 1 
Q 33.40625 -1.421875 27.6875 -1.421875 
Q 18.265625 -1.421875 13.375 4.4375 
Q 8.5 10.296875 8.5 21.578125 
z
M 31.109375 56 
z
" id="DejaVuSans-117"/>
       <path d="M 9.421875 75.984375 
L 18.40625 75.984375 
L 18.40625 0 
L 9.421875 0 
z
" id="DejaVuSans-108"/>
       <path d="M 54.890625 33.015625 
L 54.890625 0 
L 45.90625 0 
L 45.90625 32.71875 
Q 45.90625 40.484375 42.875 44.328125 
Q 39.84375 48.1875 33.796875 48.1875 
Q 26.515625 48.1875 22.3125 43.546875 
Q 18.109375 38.921875 18.109375 30.90625 
L 18.109375 0 
L 9.078125 0 
L 9.078125 54.6875 
L 18.109375 54.6875 
L 18.109375 46.1875 
Q 21.34375 51.125 25.703125 53.5625 
Q 30.078125 56 35.796875 56 
Q 45.21875 56 50.046875 50.171875 
Q 54.890625 44.34375 54.890625 33.015625 
z
" id="DejaVuSans-110"/>
       <path d="M 48.78125 52.59375 
L 48.78125 44.1875 
Q 44.96875 46.296875 41.140625 47.34375 
Q 37.3125 48.390625 33.40625 48.390625 
Q 24.65625 48.390625 19.8125 42.84375 
Q 14.984375 37.3125 14.984375 27.296875 
Q 14.984375 17.28125 19.8125 11.734375 
Q 24.65625 6.203125 33.40625 6.203125 
Q 37.3125 6.203125 41.140625 7.25 
Q 44.96875 8.296875 48.78125 10.40625 
L 48.78125 2.09375 
Q 45.015625 0.34375 40.984375 -0.53125 
Q 36.96875 -1.421875 32.421875 -1.421875 
Q 20.0625 -1.421875 12.78125 6.34375 
Q 5.515625 14.109375 5.515625 27.296875 
Q 5.515625 40.671875 12.859375 48.328125 
Q 20.21875 56 33.015625 56 
Q 37.15625 56 41.109375 55.140625 
Q 45.0625 54.296875 48.78125 52.59375 
z
" id="DejaVuSans-99"/>
       <path d="M 18.3125 70.21875 
L 18.3125 54.6875 
L 36.8125 54.6875 
L 36.8125 47.703125 
L 18.3125 47.703125 
L 18.3125 18.015625 
Q 18.3125 11.328125 20.140625 9.421875 
Q 21.96875 7.515625 27.59375 7.515625 
L 36.8125 7.515625 
L 36.8125 0 
L 27.59375 0 
Q 17.1875 0 13.234375 3.875 
Q 9.28125 7.765625 9.28125 18.015625 
L 9.28125 47.703125 
L 2.6875 47.703125 
L 2.6875 54.6875 
L 9.28125 54.6875 
L 9.28125 70.21875 
z
" id="DejaVuSans-116"/>
       <path d="M 2.984375 54.6875 
L 12.5 54.6875 
L 29.59375 8.796875 
L 46.6875 54.6875 
L 56.203125 54.6875 
L 35.6875 0 
L 23.484375 0 
z
" id="DejaVuSans-118"/>
       <path d="M 32.171875 -5.078125 
Q 28.375 -14.84375 24.75 -17.8125 
Q 21.140625 -20.796875 15.09375 -20.796875 
L 7.90625 -20.796875 
L 7.90625 -13.28125 
L 13.1875 -13.28125 
Q 16.890625 -13.28125 18.9375 -11.515625 
Q 21 -9.765625 23.484375 -3.21875 
L 25.09375 0.875 
L 2.984375 54.6875 
L 12.5 54.6875 
L 29.59375 11.921875 
L 46.6875 54.6875 
L 56.203125 54.6875 
z
" id="DejaVuSans-121"/>
      </defs>
      <use xlink:href="#DejaVuSans-65"/>
      <use x="68.408203" xlink:href="#DejaVuSans-66"/>
      <use x="137.011719" xlink:href="#DejaVuSans-85"/>
      <use x="210.205078" xlink:href="#DejaVuSans-87"/>
      <use x="309.082031" xlink:href="#DejaVuSans-95"/>
      <use x="359.082031" xlink:href="#DejaVuSans-49"/>
      <use x="422.705078" xlink:href="#DejaVuSans-54"/>
      <use x="486.328125" xlink:href="#DejaVuSans-52"/>
      <use x="549.951172" xlink:href="#DejaVuSans-53"/>
      <use x="613.574219" xlink:href="#DejaVuSans-32"/>
      <use x="645.361328" xlink:href="#DejaVuSans-105"/>
      <use x="673.144531" xlink:href="#DejaVuSans-77"/>
      <use x="759.423828" xlink:href="#DejaVuSans-111"/>
      <use x="820.605469" xlink:href="#DejaVuSans-100"/>
      <use x="884.082031" xlink:href="#DejaVuSans-117"/>
      <use x="947.460938" xlink:href="#DejaVuSans-108"/>
      <use x="975.244141" xlink:href="#DejaVuSans-111"/>
      <use x="1036.425781" xlink:href="#DejaVuSans-110"/>
      <use x="1099.804688" xlink:href="#DejaVuSans-32"/>
      <use x="1131.591797" xlink:href="#DejaVuSans-65"/>
      <use x="1198.25" xlink:href="#DejaVuSans-99"/>
      <use x="1253.230469" xlink:href="#DejaVuSans-116"/>
      <use x="1292.439453" xlink:href="#DejaVuSans-105"/>
      <use x="1320.222656" xlink:href="#DejaVuSans-118"/>
      <use x="1379.402344" xlink:href="#DejaVuSans-105"/>
      <use x="1407.185547" xlink:href="#DejaVuSans-116"/>
      <use x="1446.394531" xlink:href="#DejaVuSans-121"/>
     </g>
    </g>
   </g>
   <g id="matplotlib.axis_2">
    <g id="ytick_1">
     <g id="line2d_9">
      <defs>
       <path d="M 0 0 
L -3.5 0 
" id="m06724fdad1" style="stroke:#000000;stroke-width:0.8;"/>
      </defs>
      <g>
       <use style="stroke:#000000;stroke-width:0.8;" x="54" xlink:href="#m06724fdad1" y="232.453661"/>
      </g>
     </g>
     <g id="text_10">
      <!-- −20 -->
      <g transform="translate(25.895312 236.25288)scale(0.1 -0.1)">
       <use xlink:href="#DejaVuSans-8722"/>
       <use x="83.789062" xlink:href="#DejaVuSans-50"/>
       <use x="147.412109" xlink:href="#DejaVuSans-48"/>
      </g>
     </g>
    </g>
    <g id="ytick_2">
     <g id="line2d_10">
      <g>
       <use style="stroke:#000000;stroke-width:0.8;" x="54" xlink:href="#m06724fdad1" y="206.998957"/>
      </g>
     </g>
     <g id="text_11">
      <!-- −10 -->
      <g transform="translate(25.895312 210.798176)scale(0.1 -0.1)">
       <use xlink:href="#DejaVuSans-8722"/>
       <use x="83.789062" xlink:href="#DejaVuSans-49"/>
       <use x="147.412109" xlink:href="#DejaVuSans-48"/>
      </g>
     </g>
    </g>
    <g id="ytick_3">
     <g id="line2d_11">
      <g>
       <use style="stroke:#000000;stroke-width:0.8;" x="54" xlink:href="#m06724fdad1" y="181.544253"/>
      </g>
     </g>
     <g id="text_12">
      <!-- 0 -->
      <g transform="translate(40.6375 185.343472)scale(0.1 -0.1)">
       <use xlink:href="#DejaVuSans-48"/>
      </g>
     </g>
    </g>
    <g id="ytick_4">
     <g id="line2d_12">
      <g>
       <use style="stroke:#000000;stroke-width:0.8;" x="54" xlink:href="#m06724fdad1" y="156.089549"/>
      </g>
     </g>
     <g id="text_13">
      <!-- 10 -->
      <g transform="translate(34.275 159.888768)scale(0.1 -0.1)">
       <use xlink:href="#DejaVuSans-49"/>
       <use x="63.623047" xlink:href="#DejaVuSans-48"/>
      </g>
     </g>
    </g>
    <g id="ytick_5">
     <g id="line2d_13">
      <g>
       <use style="stroke:#000000;stroke-width:0.8;" x="54" xlink:href="#m06724fdad1" y="130.634845"/>
      </g>
     </g>
     <g id="text_14">
      <!-- 20 -->
      <g transform="translate(34.275 134.434063)scale(0.1 -0.1)">
       <use xlink:href="#DejaVuSans-50"/>
       <use x="63.623047" xlink:href="#DejaVuSans-48"/>
      </g>
     </g>
    </g>
    <g id="ytick_6">
     <g id="line2d_14">
      <g>
       <use style="stroke:#000000;stroke-width:0.8;" x="54" xlink:href="#m06724fdad1" y="105.180141"/>
      </g>
     </g>
     <g id="text_15">
      <!-- 30 -->
      <g transform="translate(34.275 108.979359)scale(0.1 -0.1)">
       <use xlink:href="#DejaVuSans-51"/>
       <use x="63.623047" xlink:href="#DejaVuSans-48"/>
      </g>
     </g>
    </g>
    <g id="ytick_7">
     <g id="line2d_15">
      <g>
       <use style="stroke:#000000;stroke-width:0.8;" x="54" xlink:href="#m06724fdad1" y="79.725436"/>
      </g>
     </g>
     <g id="text_16">
      <!-- 40 -->
      <g transform="translate(34.275 83.524655)scale(0.1 -0.1)">
       <use xlink:href="#DejaVuSans-52"/>
       <use x="63.623047" xlink:href="#DejaVuSans-48"/>
      </g>
     </g>
    </g>
    <g id="ytick_8">
     <g id="line2d_16">
      <g>
       <use style="stroke:#000000;stroke-width:0.8;" x="54" xlink:href="#m06724fdad1" y="54.270732"/>
      </g>
     </g>
     <g id="text_17">
      <!-- 50 -->
      <g transform="translate(34.275 58.069951)scale(0.1 -0.1)">
       <use xlink:href="#DejaVuSans-53"/>
       <use x="63.623047" xlink:href="#DejaVuSans-48"/>
      </g>
     </g>
    </g>
    <g id="text_18">
     <!-- ppGpp iModulon Activity -->
     <g transform="translate(19.815625 204.451094)rotate(-90)scale(0.1 -0.1)">
      <defs>
       <path d="M 18.109375 8.203125 
L 18.109375 -20.796875 
L 9.078125 -20.796875 
L 9.078125 54.6875 
L 18.109375 54.6875 
L 18.109375 46.390625 
Q 20.953125 51.265625 25.265625 53.625 
Q 29.59375 56 35.59375 56 
Q 45.5625 56 51.78125 48.09375 
Q 58.015625 40.1875 58.015625 27.296875 
Q 58.015625 14.40625 51.78125 6.484375 
Q 45.5625 -1.421875 35.59375 -1.421875 
Q 29.59375 -1.421875 25.265625 0.953125 
Q 20.953125 3.328125 18.109375 8.203125 
z
M 48.6875 27.296875 
Q 48.6875 37.203125 44.609375 42.84375 
Q 40.53125 48.484375 33.40625 48.484375 
Q 26.265625 48.484375 22.1875 42.84375 
Q 18.109375 37.203125 18.109375 27.296875 
Q 18.109375 17.390625 22.1875 11.75 
Q 26.265625 6.109375 33.40625 6.109375 
Q 40.53125 6.109375 44.609375 11.75 
Q 48.6875 17.390625 48.6875 27.296875 
z
" id="DejaVuSans-112"/>
       <path d="M 59.515625 10.40625 
L 59.515625 29.984375 
L 43.40625 29.984375 
L 43.40625 38.09375 
L 69.28125 38.09375 
L 69.28125 6.78125 
Q 63.578125 2.734375 56.6875 0.65625 
Q 49.8125 -1.421875 42 -1.421875 
Q 24.90625 -1.421875 15.25 8.5625 
Q 5.609375 18.5625 5.609375 36.375 
Q 5.609375 54.25 15.25 64.234375 
Q 24.90625 74.21875 42 74.21875 
Q 49.125 74.21875 55.546875 72.453125 
Q 61.96875 70.703125 67.390625 67.28125 
L 67.390625 56.78125 
Q 61.921875 61.421875 55.765625 63.765625 
Q 49.609375 66.109375 42.828125 66.109375 
Q 29.4375 66.109375 22.71875 58.640625 
Q 16.015625 51.171875 16.015625 36.375 
Q 16.015625 21.625 22.71875 14.15625 
Q 29.4375 6.6875 42.828125 6.6875 
Q 48.046875 6.6875 52.140625 7.59375 
Q 56.25 8.5 59.515625 10.40625 
z
" id="DejaVuSans-71"/>
      </defs>
      <use xlink:href="#DejaVuSans-112"/>
      <use x="63.476562" xlink:href="#DejaVuSans-112"/>
      <use x="126.953125" xlink:href="#DejaVuSans-71"/>
      <use x="204.443359" xlink:href="#DejaVuSans-112"/>
      <use x="267.919922" xlink:href="#DejaVuSans-112"/>
      <use x="331.396484" xlink:href="#DejaVuSans-32"/>
      <use x="363.183594" xlink:href="#DejaVuSans-105"/>
      <use x="390.966797" xlink:href="#DejaVuSans-77"/>
      <use x="477.246094" xlink:href="#DejaVuSans-111"/>
      <use x="538.427734" xlink:href="#DejaVuSans-100"/>
      <use x="601.904297" xlink:href="#DejaVuSans-117"/>
      <use x="665.283203" xlink:href="#DejaVuSans-108"/>
      <use x="693.066406" xlink:href="#DejaVuSans-111"/>
      <use x="754.248047" xlink:href="#DejaVuSans-110"/>
      <use x="817.626953" xlink:href="#DejaVuSans-32"/>
      <use x="849.414062" xlink:href="#DejaVuSans-65"/>
      <use x="916.072266" xlink:href="#DejaVuSans-99"/>
      <use x="971.052734" xlink:href="#DejaVuSans-116"/>
      <use x="1010.261719" xlink:href="#DejaVuSans-105"/>
      <use x="1038.044922" xlink:href="#DejaVuSans-118"/>
      <use x="1097.224609" xlink:href="#DejaVuSans-105"/>
      <use x="1125.007812" xlink:href="#DejaVuSans-116"/>
      <use x="1164.216797" xlink:href="#DejaVuSans-121"/>
     </g>
    </g>
   </g>
   <g id="LineCollection_1">
    <path clip-path="url(#pf961b5e54d)" d="M 54 181.544253 
L 388.8 181.544253 
" style="fill:none;stroke:#808080;stroke-width:0.5;"/>
   </g>
   <g id="LineCollection_2">
    <path clip-path="url(#pf961b5e54d)" d="M 196.802408 252 
L 196.802408 34.56 
" style="fill:none;stroke:#808080;stroke-width:0.5;"/>
   </g>
   <g id="patch_3">
    <path d="M 54 252 
L 54 34.56 
" style="fill:none;stroke:#000000;stroke-linecap:square;stroke-linejoin:miter;stroke-width:0.8;"/>
   </g>
   <g id="patch_4">
    <path d="M 388.8 252 
L 388.8 34.56 
" style="fill:none;stroke:#000000;stroke-linecap:square;stroke-linejoin:miter;stroke-width:0.8;"/>
   </g>
   <g id="patch_5">
    <path d="M 54 252 
L 388.8 252 
" style="fill:none;stroke:#000000;stroke-linecap:square;stroke-linejoin:miter;stroke-width:0.8;"/>
   </g>
   <g id="patch_6">
    <path d="M 54 34.56 
L 388.8 34.56 
" style="fill:none;stroke:#000000;stroke-linecap:square;stroke-linejoin:miter;stroke-width:0.8;"/>
   </g>
   <g id="line2d_17">
    <path clip-path="url(#pf961b5e54d)" d="M 81.9 222.314996 
L 360.9 108.944597 
" style="fill:none;stroke:#000000;stroke-dasharray:3.7,1.6;stroke-dashoffset:0;"/>
   </g>
   <g id="legend_1">
    <g id="patch_7">
     <path d="M 61 68.435937 
L 179.853125 68.435937 
Q 181.853125 68.435937 181.853125 66.435937 
L 181.853125 41.56 
Q 181.853125 39.56 179.853125 39.56 
L 61 39.56 
Q 59 39.56 59 41.56 
L 59 66.435937 
Q 59 68.435937 61 68.435937 
z
" style="fill:#ffffff;opacity:0.8;stroke:#cccccc;stroke-linejoin:miter;"/>
    </g>
    <g id="line2d_18">
     <path d="M 63 54.297188 
L 83 54.297188 
" style="fill:none;stroke:#000000;stroke-dasharray:3.7,1.6;stroke-dashoffset:0;"/>
    </g>
    <g id="line2d_19"/>
    <g id="text_19">
     <!-- Pearson R = 0.67 -->
     <g transform="translate(91 51.158438)scale(0.1 -0.1)">
      <defs>
       <path d="M 19.671875 64.796875 
L 19.671875 37.40625 
L 32.078125 37.40625 
Q 38.96875 37.40625 42.71875 40.96875 
Q 46.484375 44.53125 46.484375 51.125 
Q 46.484375 57.671875 42.71875 61.234375 
Q 38.96875 64.796875 32.078125 64.796875 
z
M 9.8125 72.90625 
L 32.078125 72.90625 
Q 44.34375 72.90625 50.609375 67.359375 
Q 56.890625 61.8125 56.890625 51.125 
Q 56.890625 40.328125 50.609375 34.8125 
Q 44.34375 29.296875 32.078125 29.296875 
L 19.671875 29.296875 
L 19.671875 0 
L 9.8125 0 
z
" id="DejaVuSans-80"/>
       <path d="M 56.203125 29.59375 
L 56.203125 25.203125 
L 14.890625 25.203125 
Q 15.484375 15.921875 20.484375 11.0625 
Q 25.484375 6.203125 34.421875 6.203125 
Q 39.59375 6.203125 44.453125 7.46875 
Q 49.3125 8.734375 54.109375 11.28125 
L 54.109375 2.78125 
Q 49.265625 0.734375 44.1875 -0.34375 
Q 39.109375 -1.421875 33.890625 -1.421875 
Q 20.796875 -1.421875 13.15625 6.1875 
Q 5.515625 13.8125 5.515625 26.8125 
Q 5.515625 40.234375 12.765625 48.109375 
Q 20.015625 56 32.328125 56 
Q 43.359375 56 49.78125 48.890625 
Q 56.203125 41.796875 56.203125 29.59375 
z
M 47.21875 32.234375 
Q 47.125 39.59375 43.09375 43.984375 
Q 39.0625 48.390625 32.421875 48.390625 
Q 24.90625 48.390625 20.390625 44.140625 
Q 15.875 39.890625 15.1875 32.171875 
z
" id="DejaVuSans-101"/>
       <path d="M 34.28125 27.484375 
Q 23.390625 27.484375 19.1875 25 
Q 14.984375 22.515625 14.984375 16.5 
Q 14.984375 11.71875 18.140625 8.90625 
Q 21.296875 6.109375 26.703125 6.109375 
Q 34.1875 6.109375 38.703125 11.40625 
Q 43.21875 16.703125 43.21875 25.484375 
L 43.21875 27.484375 
z
M 52.203125 31.203125 
L 52.203125 0 
L 43.21875 0 
L 43.21875 8.296875 
Q 40.140625 3.328125 35.546875 0.953125 
Q 30.953125 -1.421875 24.3125 -1.421875 
Q 15.921875 -1.421875 10.953125 3.296875 
Q 6 8.015625 6 15.921875 
Q 6 25.140625 12.171875 29.828125 
Q 18.359375 34.515625 30.609375 34.515625 
L 43.21875 34.515625 
L 43.21875 35.40625 
Q 43.21875 41.609375 39.140625 45 
Q 35.0625 48.390625 27.6875 48.390625 
Q 23 48.390625 18.546875 47.265625 
Q 14.109375 46.140625 10.015625 43.890625 
L 10.015625 52.203125 
Q 14.9375 54.109375 19.578125 55.046875 
Q 24.21875 56 28.609375 56 
Q 40.484375 56 46.34375 49.84375 
Q 52.203125 43.703125 52.203125 31.203125 
z
" id="DejaVuSans-97"/>
       <path d="M 41.109375 46.296875 
Q 39.59375 47.171875 37.8125 47.578125 
Q 36.03125 48 33.890625 48 
Q 26.265625 48 22.1875 43.046875 
Q 18.109375 38.09375 18.109375 28.8125 
L 18.109375 0 
L 9.078125 0 
L 9.078125 54.6875 
L 18.109375 54.6875 
L 18.109375 46.1875 
Q 20.953125 51.171875 25.484375 53.578125 
Q 30.03125 56 36.53125 56 
Q 37.453125 56 38.578125 55.875 
Q 39.703125 55.765625 41.0625 55.515625 
z
" id="DejaVuSans-114"/>
       <path d="M 44.28125 53.078125 
L 44.28125 44.578125 
Q 40.484375 46.53125 36.375 47.5 
Q 32.28125 48.484375 27.875 48.484375 
Q 21.1875 48.484375 17.84375 46.4375 
Q 14.5 44.390625 14.5 40.28125 
Q 14.5 37.15625 16.890625 35.375 
Q 19.28125 33.59375 26.515625 31.984375 
L 29.59375 31.296875 
Q 39.15625 29.25 43.1875 25.515625 
Q 47.21875 21.78125 47.21875 15.09375 
Q 47.21875 7.46875 41.1875 3.015625 
Q 35.15625 -1.421875 24.609375 -1.421875 
Q 20.21875 -1.421875 15.453125 -0.5625 
Q 10.6875 0.296875 5.421875 2 
L 5.421875 11.28125 
Q 10.40625 8.6875 15.234375 7.390625 
Q 20.0625 6.109375 24.8125 6.109375 
Q 31.15625 6.109375 34.5625 8.28125 
Q 37.984375 10.453125 37.984375 14.40625 
Q 37.984375 18.0625 35.515625 20.015625 
Q 33.0625 21.96875 24.703125 23.78125 
L 21.578125 24.515625 
Q 13.234375 26.265625 9.515625 29.90625 
Q 5.8125 33.546875 5.8125 39.890625 
Q 5.8125 47.609375 11.28125 51.796875 
Q 16.75 56 26.8125 56 
Q 31.78125 56 36.171875 55.265625 
Q 40.578125 54.546875 44.28125 53.078125 
z
" id="DejaVuSans-115"/>
       <path d="M 44.390625 34.1875 
Q 47.5625 33.109375 50.5625 29.59375 
Q 53.5625 26.078125 56.59375 19.921875 
L 66.609375 0 
L 56 0 
L 46.6875 18.703125 
Q 43.0625 26.03125 39.671875 28.421875 
Q 36.28125 30.8125 30.421875 30.8125 
L 19.671875 30.8125 
L 19.671875 0 
L 9.8125 0 
L 9.8125 72.90625 
L 32.078125 72.90625 
Q 44.578125 72.90625 50.734375 67.671875 
Q 56.890625 62.453125 56.890625 51.90625 
Q 56.890625 45.015625 53.6875 40.46875 
Q 50.484375 35.9375 44.390625 34.1875 
z
M 19.671875 64.796875 
L 19.671875 38.921875 
L 32.078125 38.921875 
Q 39.203125 38.921875 42.84375 42.21875 
Q 46.484375 45.515625 46.484375 51.90625 
Q 46.484375 58.296875 42.84375 61.546875 
Q 39.203125 64.796875 32.078125 64.796875 
z
" id="DejaVuSans-82"/>
       <path d="M 10.59375 45.40625 
L 73.1875 45.40625 
L 73.1875 37.203125 
L 10.59375 37.203125 
z
M 10.59375 25.484375 
L 73.1875 25.484375 
L 73.1875 17.1875 
L 10.59375 17.1875 
z
" id="DejaVuSans-61"/>
       <path d="M 10.6875 12.40625 
L 21 12.40625 
L 21 0 
L 10.6875 0 
z
" id="DejaVuSans-46"/>
       <path d="M 8.203125 72.90625 
L 55.078125 72.90625 
L 55.078125 68.703125 
L 28.609375 0 
L 18.3125 0 
L 43.21875 64.59375 
L 8.203125 64.59375 
z
" id="DejaVuSans-55"/>
      </defs>
      <use xlink:href="#DejaVuSans-80"/>
      <use x="56.677734" xlink:href="#DejaVuSans-101"/>
      <use x="118.201172" xlink:href="#DejaVuSans-97"/>
      <use x="179.480469" xlink:href="#DejaVuSans-114"/>
      <use x="220.59375" xlink:href="#DejaVuSans-115"/>
      <use x="272.693359" xlink:href="#DejaVuSans-111"/>
      <use x="333.875" xlink:href="#DejaVuSans-110"/>
      <use x="397.253906" xlink:href="#DejaVuSans-32"/>
      <use x="429.041016" xlink:href="#DejaVuSans-82"/>
      <use x="498.523438" xlink:href="#DejaVuSans-32"/>
      <use x="530.310547" xlink:href="#DejaVuSans-61"/>
      <use x="614.099609" xlink:href="#DejaVuSans-32"/>
      <use x="645.886719" xlink:href="#DejaVuSans-48"/>
      <use x="709.509766" xlink:href="#DejaVuSans-46"/>
      <use x="741.296875" xlink:href="#DejaVuSans-54"/>
      <use x="804.919922" xlink:href="#DejaVuSans-55"/>
     </g>
     <!-- p-value &lt; 1e-10 -->
     <g transform="translate(91 62.35625)scale(0.1 -0.1)">
      <defs>
       <path d="M 4.890625 31.390625 
L 31.203125 31.390625 
L 31.203125 23.390625 
L 4.890625 23.390625 
z
" id="DejaVuSans-45"/>
       <path d="M 73.1875 49.21875 
L 22.796875 31.296875 
L 73.1875 13.484375 
L 73.1875 4.59375 
L 10.59375 27.296875 
L 10.59375 35.40625 
L 73.1875 58.109375 
z
" id="DejaVuSans-60"/>
      </defs>
      <use xlink:href="#DejaVuSans-112"/>
      <use x="63.476562" xlink:href="#DejaVuSans-45"/>
      <use x="96.935547" xlink:href="#DejaVuSans-118"/>
      <use x="156.115234" xlink:href="#DejaVuSans-97"/>
      <use x="217.394531" xlink:href="#DejaVuSans-108"/>
      <use x="245.177734" xlink:href="#DejaVuSans-117"/>
      <use x="308.556641" xlink:href="#DejaVuSans-101"/>
      <use x="370.080078" xlink:href="#DejaVuSans-32"/>
      <use x="401.867188" xlink:href="#DejaVuSans-60"/>
      <use x="485.65625" xlink:href="#DejaVuSans-32"/>
      <use x="517.443359" xlink:href="#DejaVuSans-49"/>
      <use x="581.066406" xlink:href="#DejaVuSans-101"/>
      <use x="642.589844" xlink:href="#DejaVuSans-45"/>
      <use x="678.673828" xlink:href="#DejaVuSans-49"/>
      <use x="742.296875" xlink:href="#DejaVuSans-48"/>
     </g>
    </g>
   </g>
  </g>
 </g>
 <defs>
  <clipPath id="pf961b5e54d">
   <rect height="217.44" width="334.8" x="54" y="34.56"/>
  </clipPath>
 </defs>
</svg>
