<?xml version="1.0" encoding="utf-8" standalone="no"?>
<!DOCTYPE svg PUBLIC "-//W3C//DTD SVG 1.1//EN"
  "http://www.w3.org/Graphics/SVG/1.1/DTD/svg11.dtd">
<!-- Created with matplotlib (https://matplotlib.org/) -->
<svg height="288pt" version="1.1" viewBox="0 0 432 288" width="432pt" xmlns="http://www.w3.org/2000/svg" xmlns:xlink="http://www.w3.org/1999/xlink">
 <metadata>
  <rdf:RDF xmlns:cc="http://creativecommons.org/ns#" xmlns:dc="http://purl.org/dc/elements/1.1/" xmlns:rdf="http://www.w3.org/1999/02/22-rdf-syntax-ns#">
   <cc:Work>
    <dc:type rdf:resource="http://purl.org/dc/dcmitype/StillImage"/>
    <dc:date>2022-03-07T11:28:57.800516</dc:date>
    <dc:format>image/svg+xml</dc:format>
    <dc:creator>
     <cc:Agent>
      <dc:title>Matplotlib v3.3.4, https://matplotlib.org/</dc:title>
     </cc:Agent>
    </dc:creator>
   </cc:Work>
  </rdf:RDF>
 </metadata>
 <defs>
  <style type="text/css">*{stroke-linecap:butt;stroke-linejoin:round;}</style>
 </defs>
 <g id="figure_1">
  <g id="patch_1">
   <path d="M 0 288 
L 432 288 
L 432 0 
L 0 0 
z
" style="fill:none;"/>
  </g>
  <g id="axes_1">
   <g id="patch_2">
    <path d="M 54 252 
L 388.8 252 
L 388.8 34.56 
L 54 34.56 
z
" style="fill:none;"/>
   </g>
   <g id="PathCollection_1">
    <defs>
     <path d="M 0 3 
C 0.795609 3 1.55874 2.683901 2.12132 2.12132 
C 2.683901 1.55874 3 0.795609 3 0 
C 3 -0.795609 2.683901 -1.55874 2.12132 -2.12132 
C 1.55874 -2.683901 0.795609 -3 0 -3 
C -0.795609 -3 -1.55874 -2.683901 -2.12132 -2.12132 
C -2.683901 -1.55874 -3 -0.795609 -3 0 
C -3 0.795609 -2.683901 1.55874 -2.12132 2.12132 
C -1.55874 2.683901 -0.795609 3 0 3 
z
" id="m1700d47f4c" style="stroke:#000000;"/>
    </defs>
    <g clip-path="url(#pc92335d7a5)">
     <use style="stroke:#000000;" x="207.416788" xlink:href="#m1700d47f4c" y="189.760438"/>
     <use style="stroke:#000000;" x="200.247086" xlink:href="#m1700d47f4c" y="185.248298"/>
     <use style="stroke:#000000;" x="211.693572" xlink:href="#m1700d47f4c" y="199.17175"/>
     <use style="stroke:#000000;" x="191.644523" xlink:href="#m1700d47f4c" y="174.504357"/>
     <use style="stroke:#000000;" x="188.497282" xlink:href="#m1700d47f4c" y="173.286469"/>
     <use style="stroke:#000000;" x="190.328971" xlink:href="#m1700d47f4c" y="174.809485"/>
     <use style="stroke:#000000;" x="192.896287" xlink:href="#m1700d47f4c" y="169.961913"/>
     <use style="stroke:#000000;" x="197.447081" xlink:href="#m1700d47f4c" y="144.783208"/>
     <use style="stroke:#000000;" x="195.29787" xlink:href="#m1700d47f4c" y="143.698754"/>
     <use style="stroke:#000000;" x="186.433738" xlink:href="#m1700d47f4c" y="162.872067"/>
     <use style="stroke:#000000;" x="193.366309" xlink:href="#m1700d47f4c" y="149.218713"/>
     <use style="stroke:#000000;" x="191.098401" xlink:href="#m1700d47f4c" y="171.674854"/>
     <use style="stroke:#000000;" x="118.355217" xlink:href="#m1700d47f4c" y="81.59244"/>
     <use style="stroke:#000000;" x="117.618981" xlink:href="#m1700d47f4c" y="79.218146"/>
     <use style="stroke:#000000;" x="96.060634" xlink:href="#m1700d47f4c" y="65.680885"/>
     <use style="stroke:#000000;" x="193.166599" xlink:href="#m1700d47f4c" y="111.593271"/>
     <use style="stroke:#000000;" x="191.638012" xlink:href="#m1700d47f4c" y="164.296075"/>
     <use style="stroke:#000000;" x="190.58513" xlink:href="#m1700d47f4c" y="174.606258"/>
     <use style="stroke:#000000;" x="81.9" xlink:href="#m1700d47f4c" y="64.927287"/>
     <use style="stroke:#000000;" x="187.666815" xlink:href="#m1700d47f4c" y="100.313251"/>
     <use style="stroke:#000000;" x="192.889933" xlink:href="#m1700d47f4c" y="166.884371"/>
     <use style="stroke:#000000;" x="189.379292" xlink:href="#m1700d47f4c" y="176.353922"/>
     <use style="stroke:#000000;" x="196.738108" xlink:href="#m1700d47f4c" y="166.296571"/>
     <use style="stroke:#000000;" x="181.607448" xlink:href="#m1700d47f4c" y="169.961146"/>
     <use style="stroke:#000000;" x="194.179741" xlink:href="#m1700d47f4c" y="183.163951"/>
     <use style="stroke:#000000;" x="233.207642" xlink:href="#m1700d47f4c" y="166.88574"/>
     <use style="stroke:#000000;" x="239.105607" xlink:href="#m1700d47f4c" y="174.324036"/>
     <use style="stroke:#000000;" x="249.862452" xlink:href="#m1700d47f4c" y="182.841839"/>
     <use style="stroke:#000000;" x="203.461321" xlink:href="#m1700d47f4c" y="172.648056"/>
     <use style="stroke:#000000;" x="206.950201" xlink:href="#m1700d47f4c" y="174.643294"/>
     <use style="stroke:#000000;" x="198.367746" xlink:href="#m1700d47f4c" y="172.065152"/>
     <use style="stroke:#000000;" x="181.448308" xlink:href="#m1700d47f4c" y="167.723377"/>
     <use style="stroke:#000000;" x="192.362827" xlink:href="#m1700d47f4c" y="171.538958"/>
     <use style="stroke:#000000;" x="177.232418" xlink:href="#m1700d47f4c" y="168.280076"/>
     <use style="stroke:#000000;" x="181.794724" xlink:href="#m1700d47f4c" y="175.817558"/>
     <use style="stroke:#000000;" x="179.189162" xlink:href="#m1700d47f4c" y="182.666947"/>
     <use style="stroke:#000000;" x="184.204309" xlink:href="#m1700d47f4c" y="161.701778"/>
     <use style="stroke:#000000;" x="205.232771" xlink:href="#m1700d47f4c" y="197.857847"/>
     <use style="stroke:#000000;" x="183.088217" xlink:href="#m1700d47f4c" y="159.862043"/>
     <use style="stroke:#000000;" x="234.606447" xlink:href="#m1700d47f4c" y="144.03082"/>
     <use style="stroke:#000000;" x="231.937177" xlink:href="#m1700d47f4c" y="136.957159"/>
     <use style="stroke:#000000;" x="203.836298" xlink:href="#m1700d47f4c" y="180.455561"/>
     <use style="stroke:#000000;" x="161.397801" xlink:href="#m1700d47f4c" y="171.958144"/>
     <use style="stroke:#000000;" x="112.431607" xlink:href="#m1700d47f4c" y="59.918451"/>
     <use style="stroke:#000000;" x="207.291197" xlink:href="#m1700d47f4c" y="167.007962"/>
     <use style="stroke:#000000;" x="149.852533" xlink:href="#m1700d47f4c" y="80.399201"/>
     <use style="stroke:#000000;" x="142.650229" xlink:href="#m1700d47f4c" y="75.22448"/>
     <use style="stroke:#000000;" x="112.607445" xlink:href="#m1700d47f4c" y="52.68"/>
     <use style="stroke:#000000;" x="120.31841" xlink:href="#m1700d47f4c" y="59.129242"/>
     <use style="stroke:#000000;" x="118.03782" xlink:href="#m1700d47f4c" y="78.47145"/>
     <use style="stroke:#000000;" x="121.080893" xlink:href="#m1700d47f4c" y="53.800282"/>
     <use style="stroke:#000000;" x="127.197036" xlink:href="#m1700d47f4c" y="67.896804"/>
     <use style="stroke:#000000;" x="112.292927" xlink:href="#m1700d47f4c" y="60.055056"/>
     <use style="stroke:#000000;" x="288.512629" xlink:href="#m1700d47f4c" y="151.672787"/>
     <use style="stroke:#000000;" x="280.756406" xlink:href="#m1700d47f4c" y="146.168286"/>
     <use style="stroke:#000000;" x="277.390675" xlink:href="#m1700d47f4c" y="161.555111"/>
     <use style="stroke:#000000;" x="227.4903" xlink:href="#m1700d47f4c" y="166.42789"/>
     <use style="stroke:#000000;" x="248.137052" xlink:href="#m1700d47f4c" y="164.174454"/>
     <use style="stroke:#000000;" x="253.089656" xlink:href="#m1700d47f4c" y="173.281018"/>
     <use style="stroke:#000000;" x="260.164967" xlink:href="#m1700d47f4c" y="186.553199"/>
     <use style="stroke:#000000;" x="252.553003" xlink:href="#m1700d47f4c" y="192.443515"/>
     <use style="stroke:#000000;" x="286.049357" xlink:href="#m1700d47f4c" y="155.392109"/>
     <use style="stroke:#000000;" x="247.004912" xlink:href="#m1700d47f4c" y="170.128733"/>
     <use style="stroke:#000000;" x="211.1389" xlink:href="#m1700d47f4c" y="154.515802"/>
     <use style="stroke:#000000;" x="230.911037" xlink:href="#m1700d47f4c" y="172.10087"/>
     <use style="stroke:#000000;" x="270.041251" xlink:href="#m1700d47f4c" y="195.060638"/>
     <use style="stroke:#000000;" x="269.450532" xlink:href="#m1700d47f4c" y="195.089253"/>
     <use style="stroke:#000000;" x="265.180439" xlink:href="#m1700d47f4c" y="195.207875"/>
     <use style="stroke:#000000;" x="176.84233" xlink:href="#m1700d47f4c" y="173.360477"/>
     <use style="stroke:#000000;" x="205.805925" xlink:href="#m1700d47f4c" y="176.583825"/>
     <use style="stroke:#000000;" x="189.877042" xlink:href="#m1700d47f4c" y="169.477365"/>
     <use style="stroke:#000000;" x="198.149879" xlink:href="#m1700d47f4c" y="162.965525"/>
     <use style="stroke:#000000;" x="203.739752" xlink:href="#m1700d47f4c" y="165.748975"/>
     <use style="stroke:#000000;" x="209.822006" xlink:href="#m1700d47f4c" y="172.489958"/>
     <use style="stroke:#000000;" x="217.116219" xlink:href="#m1700d47f4c" y="176.897991"/>
     <use style="stroke:#000000;" x="250.143454" xlink:href="#m1700d47f4c" y="175.498061"/>
     <use style="stroke:#000000;" x="268.152049" xlink:href="#m1700d47f4c" y="183.106055"/>
     <use style="stroke:#000000;" x="253.576851" xlink:href="#m1700d47f4c" y="179.542249"/>
     <use style="stroke:#000000;" x="212.471331" xlink:href="#m1700d47f4c" y="166.720402"/>
     <use style="stroke:#000000;" x="174.689157" xlink:href="#m1700d47f4c" y="169.381586"/>
     <use style="stroke:#000000;" x="186.104049" xlink:href="#m1700d47f4c" y="175.698358"/>
     <use style="stroke:#000000;" x="193.367612" xlink:href="#m1700d47f4c" y="172.107266"/>
     <use style="stroke:#000000;" x="188.315919" xlink:href="#m1700d47f4c" y="174.173846"/>
     <use style="stroke:#000000;" x="197.347599" xlink:href="#m1700d47f4c" y="165.174792"/>
     <use style="stroke:#000000;" x="183.998915" xlink:href="#m1700d47f4c" y="170.621782"/>
     <use style="stroke:#000000;" x="212.899891" xlink:href="#m1700d47f4c" y="168.492867"/>
     <use style="stroke:#000000;" x="193.769874" xlink:href="#m1700d47f4c" y="174.416086"/>
     <use style="stroke:#000000;" x="206.819221" xlink:href="#m1700d47f4c" y="174.476093"/>
     <use style="stroke:#000000;" x="179.099225" xlink:href="#m1700d47f4c" y="171.754275"/>
     <use style="stroke:#000000;" x="186.606852" xlink:href="#m1700d47f4c" y="173.1913"/>
     <use style="stroke:#000000;" x="191.798134" xlink:href="#m1700d47f4c" y="171.399401"/>
     <use style="stroke:#000000;" x="216.331943" xlink:href="#m1700d47f4c" y="182.158384"/>
     <use style="stroke:#000000;" x="222.628737" xlink:href="#m1700d47f4c" y="181.751464"/>
     <use style="stroke:#000000;" x="192.824272" xlink:href="#m1700d47f4c" y="149.055085"/>
     <use style="stroke:#000000;" x="188.859259" xlink:href="#m1700d47f4c" y="197.226027"/>
     <use style="stroke:#000000;" x="198.338518" xlink:href="#m1700d47f4c" y="182.887927"/>
     <use style="stroke:#000000;" x="185.529484" xlink:href="#m1700d47f4c" y="156.136344"/>
     <use style="stroke:#000000;" x="186.885267" xlink:href="#m1700d47f4c" y="147.556925"/>
     <use style="stroke:#000000;" x="206.11822" xlink:href="#m1700d47f4c" y="177.162128"/>
     <use style="stroke:#000000;" x="195.28853" xlink:href="#m1700d47f4c" y="185.09197"/>
     <use style="stroke:#000000;" x="186.395001" xlink:href="#m1700d47f4c" y="161.189141"/>
     <use style="stroke:#000000;" x="197.518606" xlink:href="#m1700d47f4c" y="168.814399"/>
     <use style="stroke:#000000;" x="193.162525" xlink:href="#m1700d47f4c" y="178.326499"/>
     <use style="stroke:#000000;" x="190.993683" xlink:href="#m1700d47f4c" y="156.232573"/>
     <use style="stroke:#000000;" x="198.637965" xlink:href="#m1700d47f4c" y="165.423272"/>
     <use style="stroke:#000000;" x="197.847281" xlink:href="#m1700d47f4c" y="180.222491"/>
     <use style="stroke:#000000;" x="200.561427" xlink:href="#m1700d47f4c" y="174.303982"/>
     <use style="stroke:#000000;" x="197.692672" xlink:href="#m1700d47f4c" y="189.137413"/>
     <use style="stroke:#000000;" x="183.990859" xlink:href="#m1700d47f4c" y="157.143699"/>
     <use style="stroke:#000000;" x="193.086569" xlink:href="#m1700d47f4c" y="195.651607"/>
     <use style="stroke:#000000;" x="182.748767" xlink:href="#m1700d47f4c" y="157.677477"/>
     <use style="stroke:#000000;" x="184.161859" xlink:href="#m1700d47f4c" y="164.656986"/>
     <use style="stroke:#000000;" x="181.178079" xlink:href="#m1700d47f4c" y="152.187276"/>
     <use style="stroke:#000000;" x="183.969278" xlink:href="#m1700d47f4c" y="161.3655"/>
     <use style="stroke:#000000;" x="184.004776" xlink:href="#m1700d47f4c" y="180.338364"/>
     <use style="stroke:#000000;" x="188.184385" xlink:href="#m1700d47f4c" y="203.444152"/>
     <use style="stroke:#000000;" x="193.499146" xlink:href="#m1700d47f4c" y="142.836959"/>
     <use style="stroke:#000000;" x="202.204497" xlink:href="#m1700d47f4c" y="232.639327"/>
     <use style="stroke:#000000;" x="202.287785" xlink:href="#m1700d47f4c" y="200.700333"/>
     <use style="stroke:#000000;" x="337.350832" xlink:href="#m1700d47f4c" y="233.88"/>
     <use style="stroke:#000000;" x="298.92092" xlink:href="#m1700d47f4c" y="207.722549"/>
     <use style="stroke:#000000;" x="348.221861" xlink:href="#m1700d47f4c" y="217.189737"/>
     <use style="stroke:#000000;" x="352.469972" xlink:href="#m1700d47f4c" y="207.825316"/>
     <use style="stroke:#000000;" x="352.054793" xlink:href="#m1700d47f4c" y="212.953211"/>
     <use style="stroke:#000000;" x="360.9" xlink:href="#m1700d47f4c" y="202.818769"/>
     <use style="stroke:#000000;" x="191.81315" xlink:href="#m1700d47f4c" y="172.810658"/>
     <use style="stroke:#000000;" x="189.870382" xlink:href="#m1700d47f4c" y="173.470453"/>
     <use style="stroke:#000000;" x="191.895343" xlink:href="#m1700d47f4c" y="171.729792"/>
     <use style="stroke:#000000;" x="194.000976" xlink:href="#m1700d47f4c" y="176.021381"/>
     <use style="stroke:#000000;" x="187.153684" xlink:href="#m1700d47f4c" y="186.877092"/>
     <use style="stroke:#000000;" x="185.594609" xlink:href="#m1700d47f4c" y="186.817296"/>
     <use style="stroke:#000000;" x="191.185142" xlink:href="#m1700d47f4c" y="172.928306"/>
     <use style="stroke:#000000;" x="190.498389" xlink:href="#m1700d47f4c" y="173.352806"/>
     <use style="stroke:#000000;" x="183.835165" xlink:href="#m1700d47f4c" y="159.48097"/>
     <use style="stroke:#000000;" x="169.834503" xlink:href="#m1700d47f4c" y="136.961419"/>
     <use style="stroke:#000000;" x="174.589732" xlink:href="#m1700d47f4c" y="140.509825"/>
     <use style="stroke:#000000;" x="167.359062" xlink:href="#m1700d47f4c" y="132.459294"/>
     <use style="stroke:#000000;" x="164.021969" xlink:href="#m1700d47f4c" y="123.431261"/>
     <use style="stroke:#000000;" x="163.733455" xlink:href="#m1700d47f4c" y="125.425164"/>
    </g>
   </g>
   <g id="matplotlib.axis_1">
    <g id="xtick_1">
     <g id="line2d_1">
      <defs>
       <path d="M 0 0 
L 0 3.5 
" id="mfb067afba8" style="stroke:#000000;stroke-width:0.8;"/>
      </defs>
      <g>
       <use style="stroke:#000000;stroke-width:0.8;" x="92.708987" xlink:href="#mfb067afba8" y="252"/>
      </g>
     </g>
     <g id="text_1">
      <!-- −20 -->
      <g transform="translate(82.156644 266.598437)scale(0.1 -0.1)">
       <defs>
        <path d="M 10.59375 35.5 
L 73.1875 35.5 
L 73.1875 27.203125 
L 10.59375 27.203125 
z
" id="DejaVuSans-8722"/>
        <path d="M 19.1875 8.296875 
L 53.609375 8.296875 
L 53.609375 0 
L 7.328125 0 
L 7.328125 8.296875 
Q 12.9375 14.109375 22.625 23.890625 
Q 32.328125 33.6875 34.8125 36.53125 
Q 39.546875 41.84375 41.421875 45.53125 
Q 43.3125 49.21875 43.3125 52.78125 
Q 43.3125 58.59375 39.234375 62.25 
Q 35.15625 65.921875 28.609375 65.921875 
Q 23.96875 65.921875 18.8125 64.3125 
Q 13.671875 62.703125 7.8125 59.421875 
L 7.8125 69.390625 
Q 13.765625 71.78125 18.9375 73 
Q 24.125 74.21875 28.421875 74.21875 
Q 39.75 74.21875 46.484375 68.546875 
Q 53.21875 62.890625 53.21875 53.421875 
Q 53.21875 48.921875 51.53125 44.890625 
Q 49.859375 40.875 45.40625 35.40625 
Q 44.1875 33.984375 37.640625 27.21875 
Q 31.109375 20.453125 19.1875 8.296875 
z
" id="DejaVuSans-50"/>
        <path d="M 31.78125 66.40625 
Q 24.171875 66.40625 20.328125 58.90625 
Q 16.5 51.421875 16.5 36.375 
Q 16.5 21.390625 20.328125 13.890625 
Q 24.171875 6.390625 31.78125 6.390625 
Q 39.453125 6.390625 43.28125 13.890625 
Q 47.125 21.390625 47.125 36.375 
Q 47.125 51.421875 43.28125 58.90625 
Q 39.453125 66.40625 31.78125 66.40625 
z
M 31.78125 74.21875 
Q 44.046875 74.21875 50.515625 64.515625 
Q 56.984375 54.828125 56.984375 36.375 
Q 56.984375 17.96875 50.515625 8.265625 
Q 44.046875 -1.421875 31.78125 -1.421875 
Q 19.53125 -1.421875 13.0625 8.265625 
Q 6.59375 17.96875 6.59375 36.375 
Q 6.59375 54.828125 13.0625 64.515625 
Q 19.53125 74.21875 31.78125 74.21875 
z
" id="DejaVuSans-48"/>
       </defs>
       <use xlink:href="#DejaVuSans-8722"/>
       <use x="83.789062" xlink:href="#DejaVuSans-50"/>
       <use x="147.412109" xlink:href="#DejaVuSans-48"/>
      </g>
     </g>
    </g>
    <g id="xtick_2">
     <g id="line2d_2">
      <g>
       <use style="stroke:#000000;stroke-width:0.8;" x="141.775376" xlink:href="#mfb067afba8" y="252"/>
      </g>
     </g>
     <g id="text_2">
      <!-- −10 -->
      <g transform="translate(131.223033 266.598437)scale(0.1 -0.1)">
       <defs>
        <path d="M 12.40625 8.296875 
L 28.515625 8.296875 
L 28.515625 63.921875 
L 10.984375 60.40625 
L 10.984375 69.390625 
L 28.421875 72.90625 
L 38.28125 72.90625 
L 38.28125 8.296875 
L 54.390625 8.296875 
L 54.390625 0 
L 12.40625 0 
z
" id="DejaVuSans-49"/>
       </defs>
       <use xlink:href="#DejaVuSans-8722"/>
       <use x="83.789062" xlink:href="#DejaVuSans-49"/>
       <use x="147.412109" xlink:href="#DejaVuSans-48"/>
      </g>
     </g>
    </g>
    <g id="xtick_3">
     <g id="line2d_3">
      <g>
       <use style="stroke:#000000;stroke-width:0.8;" x="190.841766" xlink:href="#mfb067afba8" y="252"/>
      </g>
     </g>
     <g id="text_3">
      <!-- 0 -->
      <g transform="translate(187.660516 266.598437)scale(0.1 -0.1)">
       <use xlink:href="#DejaVuSans-48"/>
      </g>
     </g>
    </g>
    <g id="xtick_4">
     <g id="line2d_4">
      <g>
       <use style="stroke:#000000;stroke-width:0.8;" x="239.908155" xlink:href="#mfb067afba8" y="252"/>
      </g>
     </g>
     <g id="text_4">
      <!-- 10 -->
      <g transform="translate(233.545655 266.598437)scale(0.1 -0.1)">
       <use xlink:href="#DejaVuSans-49"/>
       <use x="63.623047" xlink:href="#DejaVuSans-48"/>
      </g>
     </g>
    </g>
    <g id="xtick_5">
     <g id="line2d_5">
      <g>
       <use style="stroke:#000000;stroke-width:0.8;" x="288.974544" xlink:href="#mfb067afba8" y="252"/>
      </g>
     </g>
     <g id="text_5">
      <!-- 20 -->
      <g transform="translate(282.612044 266.598437)scale(0.1 -0.1)">
       <use xlink:href="#DejaVuSans-50"/>
       <use x="63.623047" xlink:href="#DejaVuSans-48"/>
      </g>
     </g>
    </g>
    <g id="xtick_6">
     <g id="line2d_6">
      <g>
       <use style="stroke:#000000;stroke-width:0.8;" x="338.040933" xlink:href="#mfb067afba8" y="252"/>
      </g>
     </g>
     <g id="text_6">
      <!-- 30 -->
      <g transform="translate(331.678433 266.598437)scale(0.1 -0.1)">
       <defs>
        <path d="M 40.578125 39.3125 
Q 47.65625 37.796875 51.625 33 
Q 55.609375 28.21875 55.609375 21.1875 
Q 55.609375 10.40625 48.1875 4.484375 
Q 40.765625 -1.421875 27.09375 -1.421875 
Q 22.515625 -1.421875 17.65625 -0.515625 
Q 12.796875 0.390625 7.625 2.203125 
L 7.625 11.71875 
Q 11.71875 9.328125 16.59375 8.109375 
Q 21.484375 6.890625 26.8125 6.890625 
Q 36.078125 6.890625 40.9375 10.546875 
Q 45.796875 14.203125 45.796875 21.1875 
Q 45.796875 27.640625 41.28125 31.265625 
Q 36.765625 34.90625 28.71875 34.90625 
L 20.21875 34.90625 
L 20.21875 43.015625 
L 29.109375 43.015625 
Q 36.375 43.015625 40.234375 45.921875 
Q 44.09375 48.828125 44.09375 54.296875 
Q 44.09375 59.90625 40.109375 62.90625 
Q 36.140625 65.921875 28.71875 65.921875 
Q 24.65625 65.921875 20.015625 65.03125 
Q 15.375 64.15625 9.8125 62.3125 
L 9.8125 71.09375 
Q 15.4375 72.65625 20.34375 73.4375 
Q 25.25 74.21875 29.59375 74.21875 
Q 40.828125 74.21875 47.359375 69.109375 
Q 53.90625 64.015625 53.90625 55.328125 
Q 53.90625 49.265625 50.4375 45.09375 
Q 46.96875 40.921875 40.578125 39.3125 
z
" id="DejaVuSans-51"/>
       </defs>
       <use xlink:href="#DejaVuSans-51"/>
       <use x="63.623047" xlink:href="#DejaVuSans-48"/>
      </g>
     </g>
    </g>
    <g id="xtick_7">
     <g id="line2d_7">
      <g>
       <use style="stroke:#000000;stroke-width:0.8;" x="387.107322" xlink:href="#mfb067afba8" y="252"/>
      </g>
     </g>
     <g id="text_7">
      <!-- 40 -->
      <g transform="translate(380.744822 266.598437)scale(0.1 -0.1)">
       <defs>
        <path d="M 37.796875 64.3125 
L 12.890625 25.390625 
L 37.796875 25.390625 
z
M 35.203125 72.90625 
L 47.609375 72.90625 
L 47.609375 25.390625 
L 58.015625 25.390625 
L 58.015625 17.1875 
L 47.609375 17.1875 
L 47.609375 0 
L 37.796875 0 
L 37.796875 17.1875 
L 4.890625 17.1875 
L 4.890625 26.703125 
z
" id="DejaVuSans-52"/>
       </defs>
       <use xlink:href="#DejaVuSans-52"/>
       <use x="63.623047" xlink:href="#DejaVuSans-48"/>
      </g>
     </g>
    </g>
    <g id="text_8">
     <!-- PaaX iModulon Activity -->
     <g transform="translate(164.457031 280.276563)scale(0.1 -0.1)">
      <defs>
       <path d="M 19.671875 64.796875 
L 19.671875 37.40625 
L 32.078125 37.40625 
Q 38.96875 37.40625 42.71875 40.96875 
Q 46.484375 44.53125 46.484375 51.125 
Q 46.484375 57.671875 42.71875 61.234375 
Q 38.96875 64.796875 32.078125 64.796875 
z
M 9.8125 72.90625 
L 32.078125 72.90625 
Q 44.34375 72.90625 50.609375 67.359375 
Q 56.890625 61.8125 56.890625 51.125 
Q 56.890625 40.328125 50.609375 34.8125 
Q 44.34375 29.296875 32.078125 29.296875 
L 19.671875 29.296875 
L 19.671875 0 
L 9.8125 0 
z
" id="DejaVuSans-80"/>
       <path d="M 34.28125 27.484375 
Q 23.390625 27.484375 19.1875 25 
Q 14.984375 22.515625 14.984375 16.5 
Q 14.984375 11.71875 18.140625 8.90625 
Q 21.296875 6.109375 26.703125 6.109375 
Q 34.1875 6.109375 38.703125 11.40625 
Q 43.21875 16.703125 43.21875 25.484375 
L 43.21875 27.484375 
z
M 52.203125 31.203125 
L 52.203125 0 
L 43.21875 0 
L 43.21875 8.296875 
Q 40.140625 3.328125 35.546875 0.953125 
Q 30.953125 -1.421875 24.3125 -1.421875 
Q 15.921875 -1.421875 10.953125 3.296875 
Q 6 8.015625 6 15.921875 
Q 6 25.140625 12.171875 29.828125 
Q 18.359375 34.515625 30.609375 34.515625 
L 43.21875 34.515625 
L 43.21875 35.40625 
Q 43.21875 41.609375 39.140625 45 
Q 35.0625 48.390625 27.6875 48.390625 
Q 23 48.390625 18.546875 47.265625 
Q 14.109375 46.140625 10.015625 43.890625 
L 10.015625 52.203125 
Q 14.9375 54.109375 19.578125 55.046875 
Q 24.21875 56 28.609375 56 
Q 40.484375 56 46.34375 49.84375 
Q 52.203125 43.703125 52.203125 31.203125 
z
" id="DejaVuSans-97"/>
       <path d="M 6.296875 72.90625 
L 16.890625 72.90625 
L 35.015625 45.796875 
L 53.21875 72.90625 
L 63.8125 72.90625 
L 40.375 37.890625 
L 65.375 0 
L 54.78125 0 
L 34.28125 31 
L 13.625 0 
L 2.984375 0 
L 29 38.921875 
z
" id="DejaVuSans-88"/>
       <path id="DejaVuSans-32"/>
       <path d="M 9.421875 54.6875 
L 18.40625 54.6875 
L 18.40625 0 
L 9.421875 0 
z
M 9.421875 75.984375 
L 18.40625 75.984375 
L 18.40625 64.59375 
L 9.421875 64.59375 
z
" id="DejaVuSans-105"/>
       <path d="M 9.8125 72.90625 
L 24.515625 72.90625 
L 43.109375 23.296875 
L 61.8125 72.90625 
L 76.515625 72.90625 
L 76.515625 0 
L 66.890625 0 
L 66.890625 64.015625 
L 48.09375 14.015625 
L 38.1875 14.015625 
L 19.390625 64.015625 
L 19.390625 0 
L 9.8125 0 
z
" id="DejaVuSans-77"/>
       <path d="M 30.609375 48.390625 
Q 23.390625 48.390625 19.1875 42.75 
Q 14.984375 37.109375 14.984375 27.296875 
Q 14.984375 17.484375 19.15625 11.84375 
Q 23.34375 6.203125 30.609375 6.203125 
Q 37.796875 6.203125 41.984375 11.859375 
Q 46.1875 17.53125 46.1875 27.296875 
Q 46.1875 37.015625 41.984375 42.703125 
Q 37.796875 48.390625 30.609375 48.390625 
z
M 30.609375 56 
Q 42.328125 56 49.015625 48.375 
Q 55.71875 40.765625 55.71875 27.296875 
Q 55.71875 13.875 49.015625 6.21875 
Q 42.328125 -1.421875 30.609375 -1.421875 
Q 18.84375 -1.421875 12.171875 6.21875 
Q 5.515625 13.875 5.515625 27.296875 
Q 5.515625 40.765625 12.171875 48.375 
Q 18.84375 56 30.609375 56 
z
" id="DejaVuSans-111"/>
       <path d="M 45.40625 46.390625 
L 45.40625 75.984375 
L 54.390625 75.984375 
L 54.390625 0 
L 45.40625 0 
L 45.40625 8.203125 
Q 42.578125 3.328125 38.25 0.953125 
Q 33.9375 -1.421875 27.875 -1.421875 
Q 17.96875 -1.421875 11.734375 6.484375 
Q 5.515625 14.40625 5.515625 27.296875 
Q 5.515625 40.1875 11.734375 48.09375 
Q 17.96875 56 27.875 56 
Q 33.9375 56 38.25 53.625 
Q 42.578125 51.265625 45.40625 46.390625 
z
M 14.796875 27.296875 
Q 14.796875 17.390625 18.875 11.75 
Q 22.953125 6.109375 30.078125 6.109375 
Q 37.203125 6.109375 41.296875 11.75 
Q 45.40625 17.390625 45.40625 27.296875 
Q 45.40625 37.203125 41.296875 42.84375 
Q 37.203125 48.484375 30.078125 48.484375 
Q 22.953125 48.484375 18.875 42.84375 
Q 14.796875 37.203125 14.796875 27.296875 
z
" id="DejaVuSans-100"/>
       <path d="M 8.5 21.578125 
L 8.5 54.6875 
L 17.484375 54.6875 
L 17.484375 21.921875 
Q 17.484375 14.15625 20.5 10.265625 
Q 23.53125 6.390625 29.59375 6.390625 
Q 36.859375 6.390625 41.078125 11.03125 
Q 45.3125 15.671875 45.3125 23.6875 
L 45.3125 54.6875 
L 54.296875 54.6875 
L 54.296875 0 
L 45.3125 0 
L 45.3125 8.40625 
Q 42.046875 3.421875 37.71875 1 
Q 33.40625 -1.421875 27.6875 -1.421875 
Q 18.265625 -1.421875 13.375 4.4375 
Q 8.5 10.296875 8.5 21.578125 
z
M 31.109375 56 
z
" id="DejaVuSans-117"/>
       <path d="M 9.421875 75.984375 
L 18.40625 75.984375 
L 18.40625 0 
L 9.421875 0 
z
" id="DejaVuSans-108"/>
       <path d="M 54.890625 33.015625 
L 54.890625 0 
L 45.90625 0 
L 45.90625 32.71875 
Q 45.90625 40.484375 42.875 44.328125 
Q 39.84375 48.1875 33.796875 48.1875 
Q 26.515625 48.1875 22.3125 43.546875 
Q 18.109375 38.921875 18.109375 30.90625 
L 18.109375 0 
L 9.078125 0 
L 9.078125 54.6875 
L 18.109375 54.6875 
L 18.109375 46.1875 
Q 21.34375 51.125 25.703125 53.5625 
Q 30.078125 56 35.796875 56 
Q 45.21875 56 50.046875 50.171875 
Q 54.890625 44.34375 54.890625 33.015625 
z
" id="DejaVuSans-110"/>
       <path d="M 34.1875 63.1875 
L 20.796875 26.90625 
L 47.609375 26.90625 
z
M 28.609375 72.90625 
L 39.796875 72.90625 
L 67.578125 0 
L 57.328125 0 
L 50.6875 18.703125 
L 17.828125 18.703125 
L 11.1875 0 
L 0.78125 0 
z
" id="DejaVuSans-65"/>
       <path d="M 48.78125 52.59375 
L 48.78125 44.1875 
Q 44.96875 46.296875 41.140625 47.34375 
Q 37.3125 48.390625 33.40625 48.390625 
Q 24.65625 48.390625 19.8125 42.84375 
Q 14.984375 37.3125 14.984375 27.296875 
Q 14.984375 17.28125 19.8125 11.734375 
Q 24.65625 6.203125 33.40625 6.203125 
Q 37.3125 6.203125 41.140625 7.25 
Q 44.96875 8.296875 48.78125 10.40625 
L 48.78125 2.09375 
Q 45.015625 0.34375 40.984375 -0.53125 
Q 36.96875 -1.421875 32.421875 -1.421875 
Q 20.0625 -1.421875 12.78125 6.34375 
Q 5.515625 14.109375 5.515625 27.296875 
Q 5.515625 40.671875 12.859375 48.328125 
Q 20.21875 56 33.015625 56 
Q 37.15625 56 41.109375 55.140625 
Q 45.0625 54.296875 48.78125 52.59375 
z
" id="DejaVuSans-99"/>
       <path d="M 18.3125 70.21875 
L 18.3125 54.6875 
L 36.8125 54.6875 
L 36.8125 47.703125 
L 18.3125 47.703125 
L 18.3125 18.015625 
Q 18.3125 11.328125 20.140625 9.421875 
Q 21.96875 7.515625 27.59375 7.515625 
L 36.8125 7.515625 
L 36.8125 0 
L 27.59375 0 
Q 17.1875 0 13.234375 3.875 
Q 9.28125 7.765625 9.28125 18.015625 
L 9.28125 47.703125 
L 2.6875 47.703125 
L 2.6875 54.6875 
L 9.28125 54.6875 
L 9.28125 70.21875 
z
" id="DejaVuSans-116"/>
       <path d="M 2.984375 54.6875 
L 12.5 54.6875 
L 29.59375 8.796875 
L 46.6875 54.6875 
L 56.203125 54.6875 
L 35.6875 0 
L 23.484375 0 
z
" id="DejaVuSans-118"/>
       <path d="M 32.171875 -5.078125 
Q 28.375 -14.84375 24.75 -17.8125 
Q 21.140625 -20.796875 15.09375 -20.796875 
L 7.90625 -20.796875 
L 7.90625 -13.28125 
L 13.1875 -13.28125 
Q 16.890625 -13.28125 18.9375 -11.515625 
Q 21 -9.765625 23.484375 -3.21875 
L 25.09375 0.875 
L 2.984375 54.6875 
L 12.5 54.6875 
L 29.59375 11.921875 
L 46.6875 54.6875 
L 56.203125 54.6875 
z
" id="DejaVuSans-121"/>
      </defs>
      <use xlink:href="#DejaVuSans-80"/>
      <use x="55.802734" xlink:href="#DejaVuSans-97"/>
      <use x="117.082031" xlink:href="#DejaVuSans-97"/>
      <use x="178.361328" xlink:href="#DejaVuSans-88"/>
      <use x="246.867188" xlink:href="#DejaVuSans-32"/>
      <use x="278.654297" xlink:href="#DejaVuSans-105"/>
      <use x="306.4375" xlink:href="#DejaVuSans-77"/>
      <use x="392.716797" xlink:href="#DejaVuSans-111"/>
      <use x="453.898438" xlink:href="#DejaVuSans-100"/>
      <use x="517.375" xlink:href="#DejaVuSans-117"/>
      <use x="580.753906" xlink:href="#DejaVuSans-108"/>
      <use x="608.537109" xlink:href="#DejaVuSans-111"/>
      <use x="669.71875" xlink:href="#DejaVuSans-110"/>
      <use x="733.097656" xlink:href="#DejaVuSans-32"/>
      <use x="764.884766" xlink:href="#DejaVuSans-65"/>
      <use x="831.542969" xlink:href="#DejaVuSans-99"/>
      <use x="886.523438" xlink:href="#DejaVuSans-116"/>
      <use x="925.732422" xlink:href="#DejaVuSans-105"/>
      <use x="953.515625" xlink:href="#DejaVuSans-118"/>
      <use x="1012.695312" xlink:href="#DejaVuSans-105"/>
      <use x="1040.478516" xlink:href="#DejaVuSans-116"/>
      <use x="1079.6875" xlink:href="#DejaVuSans-121"/>
     </g>
    </g>
   </g>
   <g id="matplotlib.axis_2">
    <g id="ytick_1">
     <g id="line2d_8">
      <defs>
       <path d="M 0 0 
L -3.5 0 
" id="m279f68cd87" style="stroke:#000000;stroke-width:0.8;"/>
      </defs>
      <g>
       <use style="stroke:#000000;stroke-width:0.8;" x="54" xlink:href="#m279f68cd87" y="218.262549"/>
      </g>
     </g>
     <g id="text_9">
      <!-- −20 -->
      <g transform="translate(25.895312 222.061768)scale(0.1 -0.1)">
       <use xlink:href="#DejaVuSans-8722"/>
       <use x="83.789062" xlink:href="#DejaVuSans-50"/>
       <use x="147.412109" xlink:href="#DejaVuSans-48"/>
      </g>
     </g>
    </g>
    <g id="ytick_2">
     <g id="line2d_9">
      <g>
       <use style="stroke:#000000;stroke-width:0.8;" x="54" xlink:href="#m279f68cd87" y="173.140556"/>
      </g>
     </g>
     <g id="text_10">
      <!-- 0 -->
      <g transform="translate(40.6375 176.939775)scale(0.1 -0.1)">
       <use xlink:href="#DejaVuSans-48"/>
      </g>
     </g>
    </g>
    <g id="ytick_3">
     <g id="line2d_10">
      <g>
       <use style="stroke:#000000;stroke-width:0.8;" x="54" xlink:href="#m279f68cd87" y="128.018563"/>
      </g>
     </g>
     <g id="text_11">
      <!-- 20 -->
      <g transform="translate(34.275 131.817782)scale(0.1 -0.1)">
       <use xlink:href="#DejaVuSans-50"/>
       <use x="63.623047" xlink:href="#DejaVuSans-48"/>
      </g>
     </g>
    </g>
    <g id="ytick_4">
     <g id="line2d_11">
      <g>
       <use style="stroke:#000000;stroke-width:0.8;" x="54" xlink:href="#m279f68cd87" y="82.89657"/>
      </g>
     </g>
     <g id="text_12">
      <!-- 40 -->
      <g transform="translate(34.275 86.695789)scale(0.1 -0.1)">
       <use xlink:href="#DejaVuSans-52"/>
       <use x="63.623047" xlink:href="#DejaVuSans-48"/>
      </g>
     </g>
    </g>
    <g id="ytick_5">
     <g id="line2d_12">
      <g>
       <use style="stroke:#000000;stroke-width:0.8;" x="54" xlink:href="#m279f68cd87" y="37.774577"/>
      </g>
     </g>
     <g id="text_13">
      <!-- 60 -->
      <g transform="translate(34.275 41.573796)scale(0.1 -0.1)">
       <defs>
        <path d="M 33.015625 40.375 
Q 26.375 40.375 22.484375 35.828125 
Q 18.609375 31.296875 18.609375 23.390625 
Q 18.609375 15.53125 22.484375 10.953125 
Q 26.375 6.390625 33.015625 6.390625 
Q 39.65625 6.390625 43.53125 10.953125 
Q 47.40625 15.53125 47.40625 23.390625 
Q 47.40625 31.296875 43.53125 35.828125 
Q 39.65625 40.375 33.015625 40.375 
z
M 52.59375 71.296875 
L 52.59375 62.3125 
Q 48.875 64.0625 45.09375 64.984375 
Q 41.3125 65.921875 37.59375 65.921875 
Q 27.828125 65.921875 22.671875 59.328125 
Q 17.53125 52.734375 16.796875 39.40625 
Q 19.671875 43.65625 24.015625 45.921875 
Q 28.375 48.1875 33.59375 48.1875 
Q 44.578125 48.1875 50.953125 41.515625 
Q 57.328125 34.859375 57.328125 23.390625 
Q 57.328125 12.15625 50.6875 5.359375 
Q 44.046875 -1.421875 33.015625 -1.421875 
Q 20.359375 -1.421875 13.671875 8.265625 
Q 6.984375 17.96875 6.984375 36.375 
Q 6.984375 53.65625 15.1875 63.9375 
Q 23.390625 74.21875 37.203125 74.21875 
Q 40.921875 74.21875 44.703125 73.484375 
Q 48.484375 72.75 52.59375 71.296875 
z
" id="DejaVuSans-54"/>
       </defs>
       <use xlink:href="#DejaVuSans-54"/>
       <use x="63.623047" xlink:href="#DejaVuSans-48"/>
      </g>
     </g>
    </g>
    <g id="text_14">
     <!-- Translation iModulon Activity -->
     <g transform="translate(19.815625 215.119844)rotate(-90)scale(0.1 -0.1)">
      <defs>
       <path d="M -0.296875 72.90625 
L 61.375 72.90625 
L 61.375 64.59375 
L 35.5 64.59375 
L 35.5 0 
L 25.59375 0 
L 25.59375 64.59375 
L -0.296875 64.59375 
z
" id="DejaVuSans-84"/>
       <path d="M 41.109375 46.296875 
Q 39.59375 47.171875 37.8125 47.578125 
Q 36.03125 48 33.890625 48 
Q 26.265625 48 22.1875 43.046875 
Q 18.109375 38.09375 18.109375 28.8125 
L 18.109375 0 
L 9.078125 0 
L 9.078125 54.6875 
L 18.109375 54.6875 
L 18.109375 46.1875 
Q 20.953125 51.171875 25.484375 53.578125 
Q 30.03125 56 36.53125 56 
Q 37.453125 56 38.578125 55.875 
Q 39.703125 55.765625 41.0625 55.515625 
z
" id="DejaVuSans-114"/>
       <path d="M 44.28125 53.078125 
L 44.28125 44.578125 
Q 40.484375 46.53125 36.375 47.5 
Q 32.28125 48.484375 27.875 48.484375 
Q 21.1875 48.484375 17.84375 46.4375 
Q 14.5 44.390625 14.5 40.28125 
Q 14.5 37.15625 16.890625 35.375 
Q 19.28125 33.59375 26.515625 31.984375 
L 29.59375 31.296875 
Q 39.15625 29.25 43.1875 25.515625 
Q 47.21875 21.78125 47.21875 15.09375 
Q 47.21875 7.46875 41.1875 3.015625 
Q 35.15625 -1.421875 24.609375 -1.421875 
Q 20.21875 -1.421875 15.453125 -0.5625 
Q 10.6875 0.296875 5.421875 2 
L 5.421875 11.28125 
Q 10.40625 8.6875 15.234375 7.390625 
Q 20.0625 6.109375 24.8125 6.109375 
Q 31.15625 6.109375 34.5625 8.28125 
Q 37.984375 10.453125 37.984375 14.40625 
Q 37.984375 18.0625 35.515625 20.015625 
Q 33.0625 21.96875 24.703125 23.78125 
L 21.578125 24.515625 
Q 13.234375 26.265625 9.515625 29.90625 
Q 5.8125 33.546875 5.8125 39.890625 
Q 5.8125 47.609375 11.28125 51.796875 
Q 16.75 56 26.8125 56 
Q 31.78125 56 36.171875 55.265625 
Q 40.578125 54.546875 44.28125 53.078125 
z
" id="DejaVuSans-115"/>
      </defs>
      <use xlink:href="#DejaVuSans-84"/>
      <use x="46.333984" xlink:href="#DejaVuSans-114"/>
      <use x="87.447266" xlink:href="#DejaVuSans-97"/>
      <use x="148.726562" xlink:href="#DejaVuSans-110"/>
      <use x="212.105469" xlink:href="#DejaVuSans-115"/>
      <use x="264.205078" xlink:href="#DejaVuSans-108"/>
      <use x="291.988281" xlink:href="#DejaVuSans-97"/>
      <use x="353.267578" xlink:href="#DejaVuSans-116"/>
      <use x="392.476562" xlink:href="#DejaVuSans-105"/>
      <use x="420.259766" xlink:href="#DejaVuSans-111"/>
      <use x="481.441406" xlink:href="#DejaVuSans-110"/>
      <use x="544.820312" xlink:href="#DejaVuSans-32"/>
      <use x="576.607422" xlink:href="#DejaVuSans-105"/>
      <use x="604.390625" xlink:href="#DejaVuSans-77"/>
      <use x="690.669922" xlink:href="#DejaVuSans-111"/>
      <use x="751.851562" xlink:href="#DejaVuSans-100"/>
      <use x="815.328125" xlink:href="#DejaVuSans-117"/>
      <use x="878.707031" xlink:href="#DejaVuSans-108"/>
      <use x="906.490234" xlink:href="#DejaVuSans-111"/>
      <use x="967.671875" xlink:href="#DejaVuSans-110"/>
      <use x="1031.050781" xlink:href="#DejaVuSans-32"/>
      <use x="1062.837891" xlink:href="#DejaVuSans-65"/>
      <use x="1129.496094" xlink:href="#DejaVuSans-99"/>
      <use x="1184.476562" xlink:href="#DejaVuSans-116"/>
      <use x="1223.685547" xlink:href="#DejaVuSans-105"/>
      <use x="1251.46875" xlink:href="#DejaVuSans-118"/>
      <use x="1310.648438" xlink:href="#DejaVuSans-105"/>
      <use x="1338.431641" xlink:href="#DejaVuSans-116"/>
      <use x="1377.640625" xlink:href="#DejaVuSans-121"/>
     </g>
    </g>
   </g>
   <g id="LineCollection_1">
    <path clip-path="url(#pc92335d7a5)" d="M 54 173.140556 
L 388.8 173.140556 
" style="fill:none;stroke:#808080;stroke-width:0.5;"/>
   </g>
   <g id="LineCollection_2">
    <path clip-path="url(#pc92335d7a5)" d="M 190.841766 252 
L 190.841766 34.56 
" style="fill:none;stroke:#808080;stroke-width:0.5;"/>
   </g>
   <g id="patch_3">
    <path d="M 54 252 
L 54 34.56 
" style="fill:none;stroke:#000000;stroke-linecap:square;stroke-linejoin:miter;stroke-width:0.8;"/>
   </g>
   <g id="patch_4">
    <path d="M 388.8 252 
L 388.8 34.56 
" style="fill:none;stroke:#000000;stroke-linecap:square;stroke-linejoin:miter;stroke-width:0.8;"/>
   </g>
   <g id="patch_5">
    <path d="M 54 252 
L 388.8 252 
" style="fill:none;stroke:#000000;stroke-linecap:square;stroke-linejoin:miter;stroke-width:0.8;"/>
   </g>
   <g id="patch_6">
    <path d="M 54 34.56 
L 388.8 34.56 
" style="fill:none;stroke:#000000;stroke-linecap:square;stroke-linejoin:miter;stroke-width:0.8;"/>
   </g>
   <g id="line2d_13">
    <path clip-path="url(#pc92335d7a5)" d="M 81.9 99.436936 
L 360.9 244.907269 
" style="fill:none;stroke:#000000;stroke-dasharray:3.7,1.6;stroke-dashoffset:0;"/>
   </g>
   <g id="legend_1">
    <g id="patch_7">
     <path d="M 259.339063 68.435937 
L 381.8 68.435937 
Q 383.8 68.435937 383.8 66.435937 
L 383.8 41.56 
Q 383.8 39.56 381.8 39.56 
L 259.339063 39.56 
Q 257.339063 39.56 257.339063 41.56 
L 257.339063 66.435937 
Q 257.339063 68.435937 259.339063 68.435937 
z
" style="fill:#ffffff;opacity:0.8;stroke:#cccccc;stroke-linejoin:miter;"/>
    </g>
    <g id="line2d_14">
     <path d="M 261.339063 54.297188 
L 281.339063 54.297188 
" style="fill:none;stroke:#000000;stroke-dasharray:3.7,1.6;stroke-dashoffset:0;"/>
    </g>
    <g id="line2d_15"/>
    <g id="text_15">
     <!-- Pearson R = -0.68 -->
     <g transform="translate(289.339063 51.158438)scale(0.1 -0.1)">
      <defs>
       <path d="M 56.203125 29.59375 
L 56.203125 25.203125 
L 14.890625 25.203125 
Q 15.484375 15.921875 20.484375 11.0625 
Q 25.484375 6.203125 34.421875 6.203125 
Q 39.59375 6.203125 44.453125 7.46875 
Q 49.3125 8.734375 54.109375 11.28125 
L 54.109375 2.78125 
Q 49.265625 0.734375 44.1875 -0.34375 
Q 39.109375 -1.421875 33.890625 -1.421875 
Q 20.796875 -1.421875 13.15625 6.1875 
Q 5.515625 13.8125 5.515625 26.8125 
Q 5.515625 40.234375 12.765625 48.109375 
Q 20.015625 56 32.328125 56 
Q 43.359375 56 49.78125 48.890625 
Q 56.203125 41.796875 56.203125 29.59375 
z
M 47.21875 32.234375 
Q 47.125 39.59375 43.09375 43.984375 
Q 39.0625 48.390625 32.421875 48.390625 
Q 24.90625 48.390625 20.390625 44.140625 
Q 15.875 39.890625 15.1875 32.171875 
z
" id="DejaVuSans-101"/>
       <path d="M 44.390625 34.1875 
Q 47.5625 33.109375 50.5625 29.59375 
Q 53.5625 26.078125 56.59375 19.921875 
L 66.609375 0 
L 56 0 
L 46.6875 18.703125 
Q 43.0625 26.03125 39.671875 28.421875 
Q 36.28125 30.8125 30.421875 30.8125 
L 19.671875 30.8125 
L 19.671875 0 
L 9.8125 0 
L 9.8125 72.90625 
L 32.078125 72.90625 
Q 44.578125 72.90625 50.734375 67.671875 
Q 56.890625 62.453125 56.890625 51.90625 
Q 56.890625 45.015625 53.6875 40.46875 
Q 50.484375 35.9375 44.390625 34.1875 
z
M 19.671875 64.796875 
L 19.671875 38.921875 
L 32.078125 38.921875 
Q 39.203125 38.921875 42.84375 42.21875 
Q 46.484375 45.515625 46.484375 51.90625 
Q 46.484375 58.296875 42.84375 61.546875 
Q 39.203125 64.796875 32.078125 64.796875 
z
" id="DejaVuSans-82"/>
       <path d="M 10.59375 45.40625 
L 73.1875 45.40625 
L 73.1875 37.203125 
L 10.59375 37.203125 
z
M 10.59375 25.484375 
L 73.1875 25.484375 
L 73.1875 17.1875 
L 10.59375 17.1875 
z
" id="DejaVuSans-61"/>
       <path d="M 4.890625 31.390625 
L 31.203125 31.390625 
L 31.203125 23.390625 
L 4.890625 23.390625 
z
" id="DejaVuSans-45"/>
       <path d="M 10.6875 12.40625 
L 21 12.40625 
L 21 0 
L 10.6875 0 
z
" id="DejaVuSans-46"/>
       <path d="M 31.78125 34.625 
Q 24.75 34.625 20.71875 30.859375 
Q 16.703125 27.09375 16.703125 20.515625 
Q 16.703125 13.921875 20.71875 10.15625 
Q 24.75 6.390625 31.78125 6.390625 
Q 38.8125 6.390625 42.859375 10.171875 
Q 46.921875 13.96875 46.921875 20.515625 
Q 46.921875 27.09375 42.890625 30.859375 
Q 38.875 34.625 31.78125 34.625 
z
M 21.921875 38.8125 
Q 15.578125 40.375 12.03125 44.71875 
Q 8.5 49.078125 8.5 55.328125 
Q 8.5 64.0625 14.71875 69.140625 
Q 20.953125 74.21875 31.78125 74.21875 
Q 42.671875 74.21875 48.875 69.140625 
Q 55.078125 64.0625 55.078125 55.328125 
Q 55.078125 49.078125 51.53125 44.71875 
Q 48 40.375 41.703125 38.8125 
Q 48.828125 37.15625 52.796875 32.3125 
Q 56.78125 27.484375 56.78125 20.515625 
Q 56.78125 9.90625 50.3125 4.234375 
Q 43.84375 -1.421875 31.78125 -1.421875 
Q 19.734375 -1.421875 13.25 4.234375 
Q 6.78125 9.90625 6.78125 20.515625 
Q 6.78125 27.484375 10.78125 32.3125 
Q 14.796875 37.15625 21.921875 38.8125 
z
M 18.3125 54.390625 
Q 18.3125 48.734375 21.84375 45.5625 
Q 25.390625 42.390625 31.78125 42.390625 
Q 38.140625 42.390625 41.71875 45.5625 
Q 45.3125 48.734375 45.3125 54.390625 
Q 45.3125 60.0625 41.71875 63.234375 
Q 38.140625 66.40625 31.78125 66.40625 
Q 25.390625 66.40625 21.84375 63.234375 
Q 18.3125 60.0625 18.3125 54.390625 
z
" id="DejaVuSans-56"/>
      </defs>
      <use xlink:href="#DejaVuSans-80"/>
      <use x="56.677734" xlink:href="#DejaVuSans-101"/>
      <use x="118.201172" xlink:href="#DejaVuSans-97"/>
      <use x="179.480469" xlink:href="#DejaVuSans-114"/>
      <use x="220.59375" xlink:href="#DejaVuSans-115"/>
      <use x="272.693359" xlink:href="#DejaVuSans-111"/>
      <use x="333.875" xlink:href="#DejaVuSans-110"/>
      <use x="397.253906" xlink:href="#DejaVuSans-32"/>
      <use x="429.041016" xlink:href="#DejaVuSans-82"/>
      <use x="498.523438" xlink:href="#DejaVuSans-32"/>
      <use x="530.310547" xlink:href="#DejaVuSans-61"/>
      <use x="614.099609" xlink:href="#DejaVuSans-32"/>
      <use x="645.886719" xlink:href="#DejaVuSans-45"/>
      <use x="681.970703" xlink:href="#DejaVuSans-48"/>
      <use x="745.59375" xlink:href="#DejaVuSans-46"/>
      <use x="777.380859" xlink:href="#DejaVuSans-54"/>
      <use x="841.003906" xlink:href="#DejaVuSans-56"/>
     </g>
     <!-- p-value &lt; 1e-10 -->
     <g transform="translate(289.339063 62.35625)scale(0.1 -0.1)">
      <defs>
       <path d="M 18.109375 8.203125 
L 18.109375 -20.796875 
L 9.078125 -20.796875 
L 9.078125 54.6875 
L 18.109375 54.6875 
L 18.109375 46.390625 
Q 20.953125 51.265625 25.265625 53.625 
Q 29.59375 56 35.59375 56 
Q 45.5625 56 51.78125 48.09375 
Q 58.015625 40.1875 58.015625 27.296875 
Q 58.015625 14.40625 51.78125 6.484375 
Q 45.5625 -1.421875 35.59375 -1.421875 
Q 29.59375 -1.421875 25.265625 0.953125 
Q 20.953125 3.328125 18.109375 8.203125 
z
M 48.6875 27.296875 
Q 48.6875 37.203125 44.609375 42.84375 
Q 40.53125 48.484375 33.40625 48.484375 
Q 26.265625 48.484375 22.1875 42.84375 
Q 18.109375 37.203125 18.109375 27.296875 
Q 18.109375 17.390625 22.1875 11.75 
Q 26.265625 6.109375 33.40625 6.109375 
Q 40.53125 6.109375 44.609375 11.75 
Q 48.6875 17.390625 48.6875 27.296875 
z
" id="DejaVuSans-112"/>
       <path d="M 73.1875 49.21875 
L 22.796875 31.296875 
L 73.1875 13.484375 
L 73.1875 4.59375 
L 10.59375 27.296875 
L 10.59375 35.40625 
L 73.1875 58.109375 
z
" id="DejaVuSans-60"/>
      </defs>
      <use xlink:href="#DejaVuSans-112"/>
      <use x="63.476562" xlink:href="#DejaVuSans-45"/>
      <use x="96.935547" xlink:href="#DejaVuSans-118"/>
      <use x="156.115234" xlink:href="#DejaVuSans-97"/>
      <use x="217.394531" xlink:href="#DejaVuSans-108"/>
      <use x="245.177734" xlink:href="#DejaVuSans-117"/>
      <use x="308.556641" xlink:href="#DejaVuSans-101"/>
      <use x="370.080078" xlink:href="#DejaVuSans-32"/>
      <use x="401.867188" xlink:href="#DejaVuSans-60"/>
      <use x="485.65625" xlink:href="#DejaVuSans-32"/>
      <use x="517.443359" xlink:href="#DejaVuSans-49"/>
      <use x="581.066406" xlink:href="#DejaVuSans-101"/>
      <use x="642.589844" xlink:href="#DejaVuSans-45"/>
      <use x="678.673828" xlink:href="#DejaVuSans-49"/>
      <use x="742.296875" xlink:href="#DejaVuSans-48"/>
     </g>
    </g>
   </g>
  </g>
 </g>
 <defs>
  <clipPath id="pc92335d7a5">
   <rect height="217.44" width="334.8" x="54" y="34.56"/>
  </clipPath>
 </defs>
</svg>
