<?xml version="1.0" encoding="utf-8" standalone="no"?>
<!DOCTYPE svg PUBLIC "-//W3C//DTD SVG 1.1//EN"
  "http://www.w3.org/Graphics/SVG/1.1/DTD/svg11.dtd">
<!-- Created with matplotlib (https://matplotlib.org/) -->
<svg height="360pt" version="1.1" viewBox="0 0 504 360" width="504pt" xmlns="http://www.w3.org/2000/svg" xmlns:xlink="http://www.w3.org/1999/xlink">
 <metadata>
  <rdf:RDF xmlns:cc="http://creativecommons.org/ns#" xmlns:dc="http://purl.org/dc/elements/1.1/" xmlns:rdf="http://www.w3.org/1999/02/22-rdf-syntax-ns#">
   <cc:Work>
    <dc:type rdf:resource="http://purl.org/dc/dcmitype/StillImage"/>
    <dc:date>2022-03-12T15:27:17.698332</dc:date>
    <dc:format>image/svg+xml</dc:format>
    <dc:creator>
     <cc:Agent>
      <dc:title>Matplotlib v3.3.4, https://matplotlib.org/</dc:title>
     </cc:Agent>
    </dc:creator>
   </cc:Work>
  </rdf:RDF>
 </metadata>
 <defs>
  <style type="text/css">*{stroke-linecap:butt;stroke-linejoin:round;}</style>
 </defs>
 <g id="figure_1">
  <g id="patch_1">
   <path d="M 0 360 
L 504 360 
L 504 0 
L 0 0 
z
" style="fill:none;"/>
  </g>
  <g id="axes_1">
   <g id="patch_2">
    <path d="M 63 315 
L 453.6 315 
L 453.6 43.2 
L 63 43.2 
z
" style="fill:none;"/>
   </g>
   <g id="patch_3">
    <path clip-path="url(#pc3e0741ba5)" d="M 67.6872 144.797903 
L 73.9368 144.797903 
L 73.9368 302.645455 
L 67.6872 302.645455 
z
" style="fill:#1f77b4;"/>
   </g>
   <g id="patch_4">
    <path clip-path="url(#pc3e0741ba5)" d="M 75.4992 144.797903 
L 81.7488 144.797903 
L 81.7488 181.906753 
L 75.4992 181.906753 
z
" style="fill:#1f77b4;"/>
   </g>
   <g id="patch_5">
    <path clip-path="url(#pc3e0741ba5)" d="M 83.3112 144.797903 
L 89.5608 144.797903 
L 89.5608 178.89848 
L 83.3112 178.89848 
z
" style="fill:#1f77b4;"/>
   </g>
   <g id="patch_6">
    <path clip-path="url(#pc3e0741ba5)" d="M 91.1232 144.797903 
L 97.3728 144.797903 
L 97.3728 175.246686 
L 91.1232 175.246686 
z
" style="fill:#1f77b4;"/>
   </g>
   <g id="patch_7">
    <path clip-path="url(#pc3e0741ba5)" d="M 98.9352 144.797903 
L 105.1848 144.797903 
L 105.1848 174.123918 
L 98.9352 174.123918 
z
" style="fill:#1f77b4;"/>
   </g>
   <g id="patch_8">
    <path clip-path="url(#pc3e0741ba5)" d="M 106.7472 144.797903 
L 112.9968 144.797903 
L 112.9968 173.126443 
L 106.7472 173.126443 
z
" style="fill:#1f77b4;"/>
   </g>
   <g id="patch_9">
    <path clip-path="url(#pc3e0741ba5)" d="M 114.5592 144.797903 
L 120.8088 144.797903 
L 120.8088 170.398872 
L 114.5592 170.398872 
z
" style="fill:#1f77b4;"/>
   </g>
   <g id="patch_10">
    <path clip-path="url(#pc3e0741ba5)" d="M 122.3712 144.797903 
L 128.6208 144.797903 
L 128.6208 168.89599 
L 122.3712 168.89599 
z
" style="fill:#1f77b4;"/>
   </g>
   <g id="patch_11">
    <path clip-path="url(#pc3e0741ba5)" d="M 130.1832 144.797903 
L 136.4328 144.797903 
L 136.4328 167.096994 
L 130.1832 167.096994 
z
" style="fill:#1f77b4;"/>
   </g>
   <g id="patch_12">
    <path clip-path="url(#pc3e0741ba5)" d="M 137.9952 144.797903 
L 144.2448 144.797903 
L 144.2448 166.819733 
L 137.9952 166.819733 
z
" style="fill:#1f77b4;"/>
   </g>
   <g id="patch_13">
    <path clip-path="url(#pc3e0741ba5)" d="M 145.8072 144.797903 
L 152.0568 144.797903 
L 152.0568 165.561272 
L 145.8072 165.561272 
z
" style="fill:#1f77b4;"/>
   </g>
   <g id="patch_14">
    <path clip-path="url(#pc3e0741ba5)" d="M 153.6192 144.797903 
L 159.8688 144.797903 
L 159.8688 165.084814 
L 153.6192 165.084814 
z
" style="fill:#1f77b4;"/>
   </g>
   <g id="patch_15">
    <path clip-path="url(#pc3e0741ba5)" d="M 161.4312 144.797903 
L 167.6808 144.797903 
L 167.6808 160.668552 
L 161.4312 160.668552 
z
" style="fill:#1f77b4;"/>
   </g>
   <g id="patch_16">
    <path clip-path="url(#pc3e0741ba5)" d="M 169.2432 144.797903 
L 175.4928 144.797903 
L 175.4928 160.408571 
L 169.2432 160.408571 
z
" style="fill:#1f77b4;"/>
   </g>
   <g id="patch_17">
    <path clip-path="url(#pc3e0741ba5)" d="M 177.0552 144.797903 
L 183.3048 144.797903 
L 183.3048 156.619572 
L 177.0552 156.619572 
z
" style="fill:#1f77b4;"/>
   </g>
   <g id="patch_18">
    <path clip-path="url(#pc3e0741ba5)" d="M 184.8672 144.797903 
L 191.1168 144.797903 
L 191.1168 155.192259 
L 184.8672 155.192259 
z
" style="fill:#1f77b4;"/>
   </g>
   <g id="patch_19">
    <path clip-path="url(#pc3e0741ba5)" d="M 192.6792 144.797903 
L 198.9288 144.797903 
L 198.9288 155.062672 
L 192.6792 155.062672 
z
" style="fill:#1f77b4;"/>
   </g>
   <g id="patch_20">
    <path clip-path="url(#pc3e0741ba5)" d="M 200.4912 144.797903 
L 206.7408 144.797903 
L 206.7408 154.932242 
L 200.4912 154.932242 
z
" style="fill:#1f77b4;"/>
   </g>
   <g id="patch_21">
    <path clip-path="url(#pc3e0741ba5)" d="M 208.3032 144.797903 
L 214.5528 144.797903 
L 214.5528 153.227015 
L 208.3032 153.227015 
z
" style="fill:#1f77b4;"/>
   </g>
   <g id="patch_22">
    <path clip-path="url(#pc3e0741ba5)" d="M 216.1152 144.797903 
L 222.3648 144.797903 
L 222.3648 151.946957 
L 216.1152 151.946957 
z
" style="fill:#1f77b4;"/>
   </g>
   <g id="patch_23">
    <path clip-path="url(#pc3e0741ba5)" d="M 223.9272 144.797903 
L 230.1768 144.797903 
L 230.1768 149.837443 
L 223.9272 149.837443 
z
" style="fill:#1f77b4;"/>
   </g>
   <g id="patch_24">
    <path clip-path="url(#pc3e0741ba5)" d="M 231.7392 144.797903 
L 237.9888 144.797903 
L 237.9888 149.39637 
L 231.7392 149.39637 
z
" style="fill:#1f77b4;"/>
   </g>
   <g id="patch_25">
    <path clip-path="url(#pc3e0741ba5)" d="M 239.5512 144.797903 
L 245.8008 144.797903 
L 245.8008 149.088792 
L 239.5512 149.088792 
z
" style="fill:#1f77b4;"/>
   </g>
   <g id="patch_26">
    <path clip-path="url(#pc3e0741ba5)" d="M 247.3632 144.797903 
L 253.6128 144.797903 
L 253.6128 149.058406 
L 247.3632 149.058406 
z
" style="fill:#1f77b4;"/>
   </g>
   <g id="patch_27">
    <path clip-path="url(#pc3e0741ba5)" d="M 255.1752 144.797903 
L 261.4248 144.797903 
L 261.4248 149.043546 
L 255.1752 149.043546 
z
" style="fill:#1f77b4;"/>
   </g>
   <g id="patch_28">
    <path clip-path="url(#pc3e0741ba5)" d="M 262.9872 144.797903 
L 269.2368 144.797903 
L 269.2368 148.490842 
L 262.9872 148.490842 
z
" style="fill:#1f77b4;"/>
   </g>
   <g id="patch_29">
    <path clip-path="url(#pc3e0741ba5)" d="M 270.7992 144.797903 
L 277.0488 144.797903 
L 277.0488 147.097747 
L 270.7992 147.097747 
z
" style="fill:#1f77b4;"/>
   </g>
   <g id="patch_30">
    <path clip-path="url(#pc3e0741ba5)" d="M 278.6112 144.797903 
L 284.8608 144.797903 
L 284.8608 146.90249 
L 278.6112 146.90249 
z
" style="fill:#1f77b4;"/>
   </g>
   <g id="patch_31">
    <path clip-path="url(#pc3e0741ba5)" d="M 286.4232 144.797903 
L 292.6728 144.797903 
L 292.6728 146.862166 
L 286.4232 146.862166 
z
" style="fill:#1f77b4;"/>
   </g>
   <g id="patch_32">
    <path clip-path="url(#pc3e0741ba5)" d="M 294.2352 144.797903 
L 300.4848 144.797903 
L 300.4848 145.285354 
L 294.2352 145.285354 
z
" style="fill:#1f77b4;"/>
   </g>
   <g id="patch_33">
    <path clip-path="url(#pc3e0741ba5)" d="M 302.0472 144.797903 
L 308.2968 144.797903 
L 308.2968 144.987215 
L 302.0472 144.987215 
z
" style="fill:#1f77b4;"/>
   </g>
   <g id="patch_34">
    <path clip-path="url(#pc3e0741ba5)" d="M 309.8592 144.797903 
L 316.1088 144.797903 
L 316.1088 144.0043 
L 309.8592 144.0043 
z
" style="fill:#1f77b4;"/>
   </g>
   <g id="patch_35">
    <path clip-path="url(#pc3e0741ba5)" d="M 317.6712 144.797903 
L 323.9208 144.797903 
L 323.9208 143.527981 
L 317.6712 143.527981 
z
" style="fill:#1f77b4;"/>
   </g>
   <g id="patch_36">
    <path clip-path="url(#pc3e0741ba5)" d="M 325.4832 144.797903 
L 331.7328 144.797903 
L 331.7328 143.433289 
L 325.4832 143.433289 
z
" style="fill:#1f77b4;"/>
   </g>
   <g id="patch_37">
    <path clip-path="url(#pc3e0741ba5)" d="M 333.2952 144.797903 
L 339.5448 144.797903 
L 339.5448 143.233541 
L 333.2952 143.233541 
z
" style="fill:#1f77b4;"/>
   </g>
   <g id="patch_38">
    <path clip-path="url(#pc3e0741ba5)" d="M 341.1072 144.797903 
L 347.3568 144.797903 
L 347.3568 142.734288 
L 341.1072 142.734288 
z
" style="fill:#1f77b4;"/>
   </g>
   <g id="patch_39">
    <path clip-path="url(#pc3e0741ba5)" d="M 348.9192 144.797903 
L 355.1688 144.797903 
L 355.1688 141.439544 
L 348.9192 141.439544 
z
" style="fill:#1f77b4;"/>
   </g>
   <g id="patch_40">
    <path clip-path="url(#pc3e0741ba5)" d="M 356.7312 144.797903 
L 362.9808 144.797903 
L 362.9808 140.319942 
L 356.7312 140.319942 
z
" style="fill:#1f77b4;"/>
   </g>
   <g id="patch_41">
    <path clip-path="url(#pc3e0741ba5)" d="M 364.5432 144.797903 
L 370.7928 144.797903 
L 370.7928 136.97498 
L 364.5432 136.97498 
z
" style="fill:#1f77b4;"/>
   </g>
   <g id="patch_42">
    <path clip-path="url(#pc3e0741ba5)" d="M 372.3552 144.797903 
L 378.6048 144.797903 
L 378.6048 136.474295 
L 372.3552 136.474295 
z
" style="fill:#1f77b4;"/>
   </g>
   <g id="patch_43">
    <path clip-path="url(#pc3e0741ba5)" d="M 380.1672 144.797903 
L 386.4168 144.797903 
L 386.4168 134.382402 
L 380.1672 134.382402 
z
" style="fill:#1f77b4;"/>
   </g>
   <g id="patch_44">
    <path clip-path="url(#pc3e0741ba5)" d="M 387.9792 144.797903 
L 394.2288 144.797903 
L 394.2288 133.812473 
L 387.9792 133.812473 
z
" style="fill:#1f77b4;"/>
   </g>
   <g id="patch_45">
    <path clip-path="url(#pc3e0741ba5)" d="M 395.7912 144.797903 
L 402.0408 144.797903 
L 402.0408 132.872161 
L 395.7912 132.872161 
z
" style="fill:#1f77b4;"/>
   </g>
   <g id="patch_46">
    <path clip-path="url(#pc3e0741ba5)" d="M 403.6032 144.797903 
L 409.8528 144.797903 
L 409.8528 128.692584 
L 403.6032 128.692584 
z
" style="fill:#1f77b4;"/>
   </g>
   <g id="patch_47">
    <path clip-path="url(#pc3e0741ba5)" d="M 411.4152 144.797903 
L 417.6648 144.797903 
L 417.6648 119.913659 
L 411.4152 119.913659 
z
" style="fill:#1f77b4;"/>
   </g>
   <g id="patch_48">
    <path clip-path="url(#pc3e0741ba5)" d="M 419.2272 144.797903 
L 425.4768 144.797903 
L 425.4768 113.144268 
L 419.2272 113.144268 
z
" style="fill:#1f77b4;"/>
   </g>
   <g id="patch_49">
    <path clip-path="url(#pc3e0741ba5)" d="M 427.0392 144.797903 
L 433.2888 144.797903 
L 433.2888 89.797459 
L 427.0392 89.797459 
z
" style="fill:#1f77b4;"/>
   </g>
   <g id="patch_50">
    <path clip-path="url(#pc3e0741ba5)" d="M 434.8512 144.797903 
L 441.1008 144.797903 
L 441.1008 81.020511 
L 434.8512 81.020511 
z
" style="fill:#1f77b4;"/>
   </g>
   <g id="patch_51">
    <path clip-path="url(#pc3e0741ba5)" d="M 442.6632 144.797903 
L 448.9128 144.797903 
L 448.9128 55.554545 
L 442.6632 55.554545 
z
" style="fill:#1f77b4;"/>
   </g>
   <g id="patch_52">
    <path clip-path="url(#pc3e0741ba5)" d="M 67.6872 144.797903 
L 73.9368 144.797903 
L 73.9368 302.645455 
L 67.6872 302.645455 
z
" style="fill:#7f7f7f;"/>
   </g>
   <g id="patch_53">
    <path clip-path="url(#pc3e0741ba5)" d="M 75.4992 144.797903 
L 81.7488 144.797903 
L 81.7488 181.906753 
L 75.4992 181.906753 
z
" style="fill:#7f7f7f;"/>
   </g>
   <g id="patch_54">
    <path clip-path="url(#pc3e0741ba5)" d="M 83.3112 144.797903 
L 89.5608 144.797903 
L 89.5608 178.89848 
L 83.3112 178.89848 
z
" style="fill:#7f7f7f;"/>
   </g>
   <g id="patch_55">
    <path clip-path="url(#pc3e0741ba5)" d="M 91.1232 144.797903 
L 97.3728 144.797903 
L 97.3728 175.246686 
L 91.1232 175.246686 
z
" style="fill:#7f7f7f;"/>
   </g>
   <g id="patch_56">
    <path clip-path="url(#pc3e0741ba5)" d="M 98.9352 144.797903 
L 105.1848 144.797903 
L 105.1848 174.123918 
L 98.9352 174.123918 
z
" style="fill:#7f7f7f;"/>
   </g>
   <g id="patch_57">
    <path clip-path="url(#pc3e0741ba5)" d="M 106.7472 144.797903 
L 112.9968 144.797903 
L 112.9968 173.126443 
L 106.7472 173.126443 
z
" style="fill:#7f7f7f;"/>
   </g>
   <g id="patch_58">
    <path clip-path="url(#pc3e0741ba5)" d="M 114.5592 144.797903 
L 120.8088 144.797903 
L 120.8088 170.398872 
L 114.5592 170.398872 
z
" style="fill:#7f7f7f;"/>
   </g>
   <g id="patch_59">
    <path clip-path="url(#pc3e0741ba5)" d="M 122.3712 144.797903 
L 128.6208 144.797903 
L 128.6208 168.89599 
L 122.3712 168.89599 
z
" style="fill:#7f7f7f;"/>
   </g>
   <g id="patch_60">
    <path clip-path="url(#pc3e0741ba5)" d="M 130.1832 144.797903 
L 136.4328 144.797903 
L 136.4328 167.096994 
L 130.1832 167.096994 
z
" style="fill:#7f7f7f;"/>
   </g>
   <g id="patch_61">
    <path clip-path="url(#pc3e0741ba5)" d="M 137.9952 144.797903 
L 144.2448 144.797903 
L 144.2448 166.819733 
L 137.9952 166.819733 
z
" style="fill:#7f7f7f;"/>
   </g>
   <g id="patch_62">
    <path clip-path="url(#pc3e0741ba5)" d="M 145.8072 144.797903 
L 152.0568 144.797903 
L 152.0568 165.561272 
L 145.8072 165.561272 
z
" style="fill:#7f7f7f;"/>
   </g>
   <g id="patch_63">
    <path clip-path="url(#pc3e0741ba5)" d="M 153.6192 144.797903 
L 159.8688 144.797903 
L 159.8688 165.084814 
L 153.6192 165.084814 
z
" style="fill:#7f7f7f;"/>
   </g>
   <g id="patch_64">
    <path clip-path="url(#pc3e0741ba5)" d="M 161.4312 144.797903 
L 167.6808 144.797903 
L 167.6808 160.668552 
L 161.4312 160.668552 
z
" style="fill:#7f7f7f;"/>
   </g>
   <g id="patch_65">
    <path clip-path="url(#pc3e0741ba5)" d="M 169.2432 144.797903 
L 175.4928 144.797903 
L 175.4928 160.408571 
L 169.2432 160.408571 
z
" style="fill:#7f7f7f;"/>
   </g>
   <g id="patch_66">
    <path clip-path="url(#pc3e0741ba5)" d="M 177.0552 144.797903 
L 183.3048 144.797903 
L 183.3048 156.619572 
L 177.0552 156.619572 
z
" style="fill:#7f7f7f;"/>
   </g>
   <g id="patch_67">
    <path clip-path="url(#pc3e0741ba5)" d="M 184.8672 144.797903 
L 191.1168 144.797903 
L 191.1168 155.192259 
L 184.8672 155.192259 
z
" style="fill:#7f7f7f;"/>
   </g>
   <g id="patch_68">
    <path clip-path="url(#pc3e0741ba5)" d="M 192.6792 144.797903 
L 198.9288 144.797903 
L 198.9288 155.062672 
L 192.6792 155.062672 
z
" style="fill:#7f7f7f;"/>
   </g>
   <g id="patch_69">
    <path clip-path="url(#pc3e0741ba5)" d="M 200.4912 144.797903 
L 206.7408 144.797903 
L 206.7408 154.932242 
L 200.4912 154.932242 
z
" style="fill:#7f7f7f;"/>
   </g>
   <g id="patch_70">
    <path clip-path="url(#pc3e0741ba5)" d="M 208.3032 144.797903 
L 214.5528 144.797903 
L 214.5528 153.227015 
L 208.3032 153.227015 
z
" style="fill:#7f7f7f;"/>
   </g>
   <g id="patch_71">
    <path clip-path="url(#pc3e0741ba5)" d="M 216.1152 144.797903 
L 222.3648 144.797903 
L 222.3648 151.946957 
L 216.1152 151.946957 
z
" style="fill:#7f7f7f;"/>
   </g>
   <g id="patch_72">
    <path clip-path="url(#pc3e0741ba5)" d="M 223.9272 144.797903 
L 230.1768 144.797903 
L 230.1768 149.837443 
L 223.9272 149.837443 
z
" style="fill:#7f7f7f;"/>
   </g>
   <g id="patch_73">
    <path clip-path="url(#pc3e0741ba5)" d="M 231.7392 144.797903 
L 237.9888 144.797903 
L 237.9888 149.39637 
L 231.7392 149.39637 
z
" style="fill:#7f7f7f;"/>
   </g>
   <g id="patch_74">
    <path clip-path="url(#pc3e0741ba5)" d="M 239.5512 144.797903 
L 245.8008 144.797903 
L 245.8008 149.088792 
L 239.5512 149.088792 
z
" style="fill:#7f7f7f;"/>
   </g>
   <g id="patch_75">
    <path clip-path="url(#pc3e0741ba5)" d="M 247.3632 144.797903 
L 253.6128 144.797903 
L 253.6128 149.058406 
L 247.3632 149.058406 
z
" style="fill:#7f7f7f;"/>
   </g>
   <g id="patch_76">
    <path clip-path="url(#pc3e0741ba5)" d="M 255.1752 144.797903 
L 261.4248 144.797903 
L 261.4248 149.043546 
L 255.1752 149.043546 
z
" style="fill:#7f7f7f;"/>
   </g>
   <g id="patch_77">
    <path clip-path="url(#pc3e0741ba5)" d="M 262.9872 144.797903 
L 269.2368 144.797903 
L 269.2368 148.490842 
L 262.9872 148.490842 
z
" style="fill:#7f7f7f;"/>
   </g>
   <g id="patch_78">
    <path clip-path="url(#pc3e0741ba5)" d="M 270.7992 144.797903 
L 277.0488 144.797903 
L 277.0488 147.097747 
L 270.7992 147.097747 
z
" style="fill:#7f7f7f;"/>
   </g>
   <g id="patch_79">
    <path clip-path="url(#pc3e0741ba5)" d="M 278.6112 144.797903 
L 284.8608 144.797903 
L 284.8608 146.90249 
L 278.6112 146.90249 
z
" style="fill:#7f7f7f;"/>
   </g>
   <g id="patch_80">
    <path clip-path="url(#pc3e0741ba5)" d="M 286.4232 144.797903 
L 292.6728 144.797903 
L 292.6728 146.862166 
L 286.4232 146.862166 
z
" style="fill:#7f7f7f;"/>
   </g>
   <g id="patch_81">
    <path clip-path="url(#pc3e0741ba5)" d="M 294.2352 144.797903 
L 300.4848 144.797903 
L 300.4848 145.285354 
L 294.2352 145.285354 
z
" style="fill:#7f7f7f;"/>
   </g>
   <g id="patch_82">
    <path clip-path="url(#pc3e0741ba5)" d="M 302.0472 144.797903 
L 308.2968 144.797903 
L 308.2968 144.987215 
L 302.0472 144.987215 
z
" style="fill:#7f7f7f;"/>
   </g>
   <g id="patch_83">
    <path clip-path="url(#pc3e0741ba5)" d="M 309.8592 144.797903 
L 316.1088 144.797903 
L 316.1088 144.0043 
L 309.8592 144.0043 
z
" style="fill:#7f7f7f;"/>
   </g>
   <g id="patch_84">
    <path clip-path="url(#pc3e0741ba5)" d="M 317.6712 144.797903 
L 323.9208 144.797903 
L 323.9208 143.527981 
L 317.6712 143.527981 
z
" style="fill:#7f7f7f;"/>
   </g>
   <g id="patch_85">
    <path clip-path="url(#pc3e0741ba5)" d="M 325.4832 144.797903 
L 331.7328 144.797903 
L 331.7328 143.433289 
L 325.4832 143.433289 
z
" style="fill:#7f7f7f;"/>
   </g>
   <g id="patch_86">
    <path clip-path="url(#pc3e0741ba5)" d="M 333.2952 144.797903 
L 339.5448 144.797903 
L 339.5448 143.233541 
L 333.2952 143.233541 
z
" style="fill:#7f7f7f;"/>
   </g>
   <g id="patch_87">
    <path clip-path="url(#pc3e0741ba5)" d="M 341.1072 144.797903 
L 347.3568 144.797903 
L 347.3568 142.734288 
L 341.1072 142.734288 
z
" style="fill:#7f7f7f;"/>
   </g>
   <g id="patch_88">
    <path clip-path="url(#pc3e0741ba5)" d="M 348.9192 144.797903 
L 355.1688 144.797903 
L 355.1688 141.439544 
L 348.9192 141.439544 
z
" style="fill:#7f7f7f;"/>
   </g>
   <g id="patch_89">
    <path clip-path="url(#pc3e0741ba5)" d="M 356.7312 144.797903 
L 362.9808 144.797903 
L 362.9808 140.319942 
L 356.7312 140.319942 
z
" style="fill:#7f7f7f;"/>
   </g>
   <g id="patch_90">
    <path clip-path="url(#pc3e0741ba5)" d="M 364.5432 144.797903 
L 370.7928 144.797903 
L 370.7928 136.97498 
L 364.5432 136.97498 
z
" style="fill:#7f7f7f;"/>
   </g>
   <g id="patch_91">
    <path clip-path="url(#pc3e0741ba5)" d="M 372.3552 144.797903 
L 378.6048 144.797903 
L 378.6048 136.474295 
L 372.3552 136.474295 
z
" style="fill:#7f7f7f;"/>
   </g>
   <g id="patch_92">
    <path clip-path="url(#pc3e0741ba5)" d="M 380.1672 144.797903 
L 386.4168 144.797903 
L 386.4168 134.382402 
L 380.1672 134.382402 
z
" style="fill:#7f7f7f;"/>
   </g>
   <g id="patch_93">
    <path clip-path="url(#pc3e0741ba5)" d="M 387.9792 144.797903 
L 394.2288 144.797903 
L 394.2288 133.812473 
L 387.9792 133.812473 
z
" style="fill:#7f7f7f;"/>
   </g>
   <g id="patch_94">
    <path clip-path="url(#pc3e0741ba5)" d="M 395.7912 144.797903 
L 402.0408 144.797903 
L 402.0408 132.872161 
L 395.7912 132.872161 
z
" style="fill:#7f7f7f;"/>
   </g>
   <g id="patch_95">
    <path clip-path="url(#pc3e0741ba5)" d="M 403.6032 144.797903 
L 409.8528 144.797903 
L 409.8528 128.692584 
L 403.6032 128.692584 
z
" style="fill:#7f7f7f;"/>
   </g>
   <g id="patch_96">
    <path clip-path="url(#pc3e0741ba5)" d="M 411.4152 144.797903 
L 417.6648 144.797903 
L 417.6648 119.913659 
L 411.4152 119.913659 
z
" style="fill:#7f7f7f;"/>
   </g>
   <g id="patch_97">
    <path clip-path="url(#pc3e0741ba5)" d="M 419.2272 144.797903 
L 425.4768 144.797903 
L 425.4768 113.144268 
L 419.2272 113.144268 
z
" style="fill:#7f7f7f;"/>
   </g>
   <g id="patch_98">
    <path clip-path="url(#pc3e0741ba5)" d="M 427.0392 144.797903 
L 433.2888 144.797903 
L 433.2888 89.797459 
L 427.0392 89.797459 
z
" style="fill:#7f7f7f;"/>
   </g>
   <g id="patch_99">
    <path clip-path="url(#pc3e0741ba5)" d="M 434.8512 144.797903 
L 441.1008 144.797903 
L 441.1008 81.020511 
L 434.8512 81.020511 
z
" style="fill:#7f7f7f;"/>
   </g>
   <g id="patch_100">
    <path clip-path="url(#pc3e0741ba5)" d="M 442.6632 144.797903 
L 448.9128 144.797903 
L 448.9128 55.554545 
L 442.6632 55.554545 
z
" style="fill:#7f7f7f;"/>
   </g>
   <g id="matplotlib.axis_1">
    <g id="text_1">
     <!-- iModulons -->
     <g transform="translate(220.308984 330.397656)scale(0.15 -0.15)">
      <defs>
       <path d="M 9.421875 54.6875 
L 18.40625 54.6875 
L 18.40625 0 
L 9.421875 0 
z
M 9.421875 75.984375 
L 18.40625 75.984375 
L 18.40625 64.59375 
L 9.421875 64.59375 
z
" id="DejaVuSans-105"/>
       <path d="M 9.8125 72.90625 
L 24.515625 72.90625 
L 43.109375 23.296875 
L 61.8125 72.90625 
L 76.515625 72.90625 
L 76.515625 0 
L 66.890625 0 
L 66.890625 64.015625 
L 48.09375 14.015625 
L 38.1875 14.015625 
L 19.390625 64.015625 
L 19.390625 0 
L 9.8125 0 
z
" id="DejaVuSans-77"/>
       <path d="M 30.609375 48.390625 
Q 23.390625 48.390625 19.1875 42.75 
Q 14.984375 37.109375 14.984375 27.296875 
Q 14.984375 17.484375 19.15625 11.84375 
Q 23.34375 6.203125 30.609375 6.203125 
Q 37.796875 6.203125 41.984375 11.859375 
Q 46.1875 17.53125 46.1875 27.296875 
Q 46.1875 37.015625 41.984375 42.703125 
Q 37.796875 48.390625 30.609375 48.390625 
z
M 30.609375 56 
Q 42.328125 56 49.015625 48.375 
Q 55.71875 40.765625 55.71875 27.296875 
Q 55.71875 13.875 49.015625 6.21875 
Q 42.328125 -1.421875 30.609375 -1.421875 
Q 18.84375 -1.421875 12.171875 6.21875 
Q 5.515625 13.875 5.515625 27.296875 
Q 5.515625 40.765625 12.171875 48.375 
Q 18.84375 56 30.609375 56 
z
" id="DejaVuSans-111"/>
       <path d="M 45.40625 46.390625 
L 45.40625 75.984375 
L 54.390625 75.984375 
L 54.390625 0 
L 45.40625 0 
L 45.40625 8.203125 
Q 42.578125 3.328125 38.25 0.953125 
Q 33.9375 -1.421875 27.875 -1.421875 
Q 17.96875 -1.421875 11.734375 6.484375 
Q 5.515625 14.40625 5.515625 27.296875 
Q 5.515625 40.1875 11.734375 48.09375 
Q 17.96875 56 27.875 56 
Q 33.9375 56 38.25 53.625 
Q 42.578125 51.265625 45.40625 46.390625 
z
M 14.796875 27.296875 
Q 14.796875 17.390625 18.875 11.75 
Q 22.953125 6.109375 30.078125 6.109375 
Q 37.203125 6.109375 41.296875 11.75 
Q 45.40625 17.390625 45.40625 27.296875 
Q 45.40625 37.203125 41.296875 42.84375 
Q 37.203125 48.484375 30.078125 48.484375 
Q 22.953125 48.484375 18.875 42.84375 
Q 14.796875 37.203125 14.796875 27.296875 
z
" id="DejaVuSans-100"/>
       <path d="M 8.5 21.578125 
L 8.5 54.6875 
L 17.484375 54.6875 
L 17.484375 21.921875 
Q 17.484375 14.15625 20.5 10.265625 
Q 23.53125 6.390625 29.59375 6.390625 
Q 36.859375 6.390625 41.078125 11.03125 
Q 45.3125 15.671875 45.3125 23.6875 
L 45.3125 54.6875 
L 54.296875 54.6875 
L 54.296875 0 
L 45.3125 0 
L 45.3125 8.40625 
Q 42.046875 3.421875 37.71875 1 
Q 33.40625 -1.421875 27.6875 -1.421875 
Q 18.265625 -1.421875 13.375 4.4375 
Q 8.5 10.296875 8.5 21.578125 
z
M 31.109375 56 
z
" id="DejaVuSans-117"/>
       <path d="M 9.421875 75.984375 
L 18.40625 75.984375 
L 18.40625 0 
L 9.421875 0 
z
" id="DejaVuSans-108"/>
       <path d="M 54.890625 33.015625 
L 54.890625 0 
L 45.90625 0 
L 45.90625 32.71875 
Q 45.90625 40.484375 42.875 44.328125 
Q 39.84375 48.1875 33.796875 48.1875 
Q 26.515625 48.1875 22.3125 43.546875 
Q 18.109375 38.921875 18.109375 30.90625 
L 18.109375 0 
L 9.078125 0 
L 9.078125 54.6875 
L 18.109375 54.6875 
L 18.109375 46.1875 
Q 21.34375 51.125 25.703125 53.5625 
Q 30.078125 56 35.796875 56 
Q 45.21875 56 50.046875 50.171875 
Q 54.890625 44.34375 54.890625 33.015625 
z
" id="DejaVuSans-110"/>
       <path d="M 44.28125 53.078125 
L 44.28125 44.578125 
Q 40.484375 46.53125 36.375 47.5 
Q 32.28125 48.484375 27.875 48.484375 
Q 21.1875 48.484375 17.84375 46.4375 
Q 14.5 44.390625 14.5 40.28125 
Q 14.5 37.15625 16.890625 35.375 
Q 19.28125 33.59375 26.515625 31.984375 
L 29.59375 31.296875 
Q 39.15625 29.25 43.1875 25.515625 
Q 47.21875 21.78125 47.21875 15.09375 
Q 47.21875 7.46875 41.1875 3.015625 
Q 35.15625 -1.421875 24.609375 -1.421875 
Q 20.21875 -1.421875 15.453125 -0.5625 
Q 10.6875 0.296875 5.421875 2 
L 5.421875 11.28125 
Q 10.40625 8.6875 15.234375 7.390625 
Q 20.0625 6.109375 24.8125 6.109375 
Q 31.15625 6.109375 34.5625 8.28125 
Q 37.984375 10.453125 37.984375 14.40625 
Q 37.984375 18.0625 35.515625 20.015625 
Q 33.0625 21.96875 24.703125 23.78125 
L 21.578125 24.515625 
Q 13.234375 26.265625 9.515625 29.90625 
Q 5.8125 33.546875 5.8125 39.890625 
Q 5.8125 47.609375 11.28125 51.796875 
Q 16.75 56 26.8125 56 
Q 31.78125 56 36.171875 55.265625 
Q 40.578125 54.546875 44.28125 53.078125 
z
" id="DejaVuSans-115"/>
      </defs>
      <use xlink:href="#DejaVuSans-105"/>
      <use x="27.783203" xlink:href="#DejaVuSans-77"/>
      <use x="114.0625" xlink:href="#DejaVuSans-111"/>
      <use x="175.244141" xlink:href="#DejaVuSans-100"/>
      <use x="238.720703" xlink:href="#DejaVuSans-117"/>
      <use x="302.099609" xlink:href="#DejaVuSans-108"/>
      <use x="329.882812" xlink:href="#DejaVuSans-111"/>
      <use x="391.064453" xlink:href="#DejaVuSans-110"/>
      <use x="454.443359" xlink:href="#DejaVuSans-115"/>
     </g>
    </g>
   </g>
   <g id="matplotlib.axis_2">
    <g id="ytick_1">
     <g id="line2d_1">
      <defs>
       <path d="M 0 0 
L -3.5 0 
" id="m50a0d27ef4" style="stroke:#000000;stroke-width:0.8;"/>
      </defs>
      <g>
       <use style="stroke:#000000;stroke-width:0.8;" x="63" xlink:href="#m50a0d27ef4" y="284.683427"/>
      </g>
     </g>
     <g id="text_2">
      <!-- −30 -->
      <g transform="translate(34.895313 288.482646)scale(0.1 -0.1)">
       <defs>
        <path d="M 10.59375 35.5 
L 73.1875 35.5 
L 73.1875 27.203125 
L 10.59375 27.203125 
z
" id="DejaVuSans-8722"/>
        <path d="M 40.578125 39.3125 
Q 47.65625 37.796875 51.625 33 
Q 55.609375 28.21875 55.609375 21.1875 
Q 55.609375 10.40625 48.1875 4.484375 
Q 40.765625 -1.421875 27.09375 -1.421875 
Q 22.515625 -1.421875 17.65625 -0.515625 
Q 12.796875 0.390625 7.625 2.203125 
L 7.625 11.71875 
Q 11.71875 9.328125 16.59375 8.109375 
Q 21.484375 6.890625 26.8125 6.890625 
Q 36.078125 6.890625 40.9375 10.546875 
Q 45.796875 14.203125 45.796875 21.1875 
Q 45.796875 27.640625 41.28125 31.265625 
Q 36.765625 34.90625 28.71875 34.90625 
L 20.21875 34.90625 
L 20.21875 43.015625 
L 29.109375 43.015625 
Q 36.375 43.015625 40.234375 45.921875 
Q 44.09375 48.828125 44.09375 54.296875 
Q 44.09375 59.90625 40.109375 62.90625 
Q 36.140625 65.921875 28.71875 65.921875 
Q 24.65625 65.921875 20.015625 65.03125 
Q 15.375 64.15625 9.8125 62.3125 
L 9.8125 71.09375 
Q 15.4375 72.65625 20.34375 73.4375 
Q 25.25 74.21875 29.59375 74.21875 
Q 40.828125 74.21875 47.359375 69.109375 
Q 53.90625 64.015625 53.90625 55.328125 
Q 53.90625 49.265625 50.4375 45.09375 
Q 46.96875 40.921875 40.578125 39.3125 
z
" id="DejaVuSans-51"/>
        <path d="M 31.78125 66.40625 
Q 24.171875 66.40625 20.328125 58.90625 
Q 16.5 51.421875 16.5 36.375 
Q 16.5 21.390625 20.328125 13.890625 
Q 24.171875 6.390625 31.78125 6.390625 
Q 39.453125 6.390625 43.28125 13.890625 
Q 47.125 21.390625 47.125 36.375 
Q 47.125 51.421875 43.28125 58.90625 
Q 39.453125 66.40625 31.78125 66.40625 
z
M 31.78125 74.21875 
Q 44.046875 74.21875 50.515625 64.515625 
Q 56.984375 54.828125 56.984375 36.375 
Q 56.984375 17.96875 50.515625 8.265625 
Q 44.046875 -1.421875 31.78125 -1.421875 
Q 19.53125 -1.421875 13.0625 8.265625 
Q 6.59375 17.96875 6.59375 36.375 
Q 6.59375 54.828125 13.0625 64.515625 
Q 19.53125 74.21875 31.78125 74.21875 
z
" id="DejaVuSans-48"/>
       </defs>
       <use xlink:href="#DejaVuSans-8722"/>
       <use x="83.789062" xlink:href="#DejaVuSans-51"/>
       <use x="147.412109" xlink:href="#DejaVuSans-48"/>
      </g>
     </g>
    </g>
    <g id="ytick_2">
     <g id="line2d_2">
      <g>
       <use style="stroke:#000000;stroke-width:0.8;" x="63" xlink:href="#m50a0d27ef4" y="238.054919"/>
      </g>
     </g>
     <g id="text_3">
      <!-- −20 -->
      <g transform="translate(34.895313 241.854138)scale(0.1 -0.1)">
       <defs>
        <path d="M 19.1875 8.296875 
L 53.609375 8.296875 
L 53.609375 0 
L 7.328125 0 
L 7.328125 8.296875 
Q 12.9375 14.109375 22.625 23.890625 
Q 32.328125 33.6875 34.8125 36.53125 
Q 39.546875 41.84375 41.421875 45.53125 
Q 43.3125 49.21875 43.3125 52.78125 
Q 43.3125 58.59375 39.234375 62.25 
Q 35.15625 65.921875 28.609375 65.921875 
Q 23.96875 65.921875 18.8125 64.3125 
Q 13.671875 62.703125 7.8125 59.421875 
L 7.8125 69.390625 
Q 13.765625 71.78125 18.9375 73 
Q 24.125 74.21875 28.421875 74.21875 
Q 39.75 74.21875 46.484375 68.546875 
Q 53.21875 62.890625 53.21875 53.421875 
Q 53.21875 48.921875 51.53125 44.890625 
Q 49.859375 40.875 45.40625 35.40625 
Q 44.1875 33.984375 37.640625 27.21875 
Q 31.109375 20.453125 19.1875 8.296875 
z
" id="DejaVuSans-50"/>
       </defs>
       <use xlink:href="#DejaVuSans-8722"/>
       <use x="83.789062" xlink:href="#DejaVuSans-50"/>
       <use x="147.412109" xlink:href="#DejaVuSans-48"/>
      </g>
     </g>
    </g>
    <g id="ytick_3">
     <g id="line2d_3">
      <g>
       <use style="stroke:#000000;stroke-width:0.8;" x="63" xlink:href="#m50a0d27ef4" y="191.426411"/>
      </g>
     </g>
     <g id="text_4">
      <!-- −10 -->
      <g transform="translate(34.895313 195.22563)scale(0.1 -0.1)">
       <defs>
        <path d="M 12.40625 8.296875 
L 28.515625 8.296875 
L 28.515625 63.921875 
L 10.984375 60.40625 
L 10.984375 69.390625 
L 28.421875 72.90625 
L 38.28125 72.90625 
L 38.28125 8.296875 
L 54.390625 8.296875 
L 54.390625 0 
L 12.40625 0 
z
" id="DejaVuSans-49"/>
       </defs>
       <use xlink:href="#DejaVuSans-8722"/>
       <use x="83.789062" xlink:href="#DejaVuSans-49"/>
       <use x="147.412109" xlink:href="#DejaVuSans-48"/>
      </g>
     </g>
    </g>
    <g id="ytick_4">
     <g id="line2d_4">
      <g>
       <use style="stroke:#000000;stroke-width:0.8;" x="63" xlink:href="#m50a0d27ef4" y="144.797903"/>
      </g>
     </g>
     <g id="text_5">
      <!-- 0 -->
      <g transform="translate(49.6375 148.597122)scale(0.1 -0.1)">
       <use xlink:href="#DejaVuSans-48"/>
      </g>
     </g>
    </g>
    <g id="ytick_5">
     <g id="line2d_5">
      <g>
       <use style="stroke:#000000;stroke-width:0.8;" x="63" xlink:href="#m50a0d27ef4" y="98.169395"/>
      </g>
     </g>
     <g id="text_6">
      <!-- 10 -->
      <g transform="translate(43.275 101.968614)scale(0.1 -0.1)">
       <use xlink:href="#DejaVuSans-49"/>
       <use x="63.623047" xlink:href="#DejaVuSans-48"/>
      </g>
     </g>
    </g>
    <g id="ytick_6">
     <g id="line2d_6">
      <g>
       <use style="stroke:#000000;stroke-width:0.8;" x="63" xlink:href="#m50a0d27ef4" y="51.540887"/>
      </g>
     </g>
     <g id="text_7">
      <!-- 20 -->
      <g transform="translate(43.275 55.340105)scale(0.1 -0.1)">
       <use xlink:href="#DejaVuSans-50"/>
       <use x="63.623047" xlink:href="#DejaVuSans-48"/>
      </g>
     </g>
    </g>
    <g id="text_8">
     <!-- Differential Actvity -->
     <g transform="translate(27.775781 249.188672)rotate(-90)scale(0.15 -0.15)">
      <defs>
       <path d="M 19.671875 64.796875 
L 19.671875 8.109375 
L 31.59375 8.109375 
Q 46.6875 8.109375 53.6875 14.9375 
Q 60.6875 21.78125 60.6875 36.53125 
Q 60.6875 51.171875 53.6875 57.984375 
Q 46.6875 64.796875 31.59375 64.796875 
z
M 9.8125 72.90625 
L 30.078125 72.90625 
Q 51.265625 72.90625 61.171875 64.09375 
Q 71.09375 55.28125 71.09375 36.53125 
Q 71.09375 17.671875 61.125 8.828125 
Q 51.171875 0 30.078125 0 
L 9.8125 0 
z
" id="DejaVuSans-68"/>
       <path d="M 37.109375 75.984375 
L 37.109375 68.5 
L 28.515625 68.5 
Q 23.6875 68.5 21.796875 66.546875 
Q 19.921875 64.59375 19.921875 59.515625 
L 19.921875 54.6875 
L 34.71875 54.6875 
L 34.71875 47.703125 
L 19.921875 47.703125 
L 19.921875 0 
L 10.890625 0 
L 10.890625 47.703125 
L 2.296875 47.703125 
L 2.296875 54.6875 
L 10.890625 54.6875 
L 10.890625 58.5 
Q 10.890625 67.625 15.140625 71.796875 
Q 19.390625 75.984375 28.609375 75.984375 
z
" id="DejaVuSans-102"/>
       <path d="M 56.203125 29.59375 
L 56.203125 25.203125 
L 14.890625 25.203125 
Q 15.484375 15.921875 20.484375 11.0625 
Q 25.484375 6.203125 34.421875 6.203125 
Q 39.59375 6.203125 44.453125 7.46875 
Q 49.3125 8.734375 54.109375 11.28125 
L 54.109375 2.78125 
Q 49.265625 0.734375 44.1875 -0.34375 
Q 39.109375 -1.421875 33.890625 -1.421875 
Q 20.796875 -1.421875 13.15625 6.1875 
Q 5.515625 13.8125 5.515625 26.8125 
Q 5.515625 40.234375 12.765625 48.109375 
Q 20.015625 56 32.328125 56 
Q 43.359375 56 49.78125 48.890625 
Q 56.203125 41.796875 56.203125 29.59375 
z
M 47.21875 32.234375 
Q 47.125 39.59375 43.09375 43.984375 
Q 39.0625 48.390625 32.421875 48.390625 
Q 24.90625 48.390625 20.390625 44.140625 
Q 15.875 39.890625 15.1875 32.171875 
z
" id="DejaVuSans-101"/>
       <path d="M 41.109375 46.296875 
Q 39.59375 47.171875 37.8125 47.578125 
Q 36.03125 48 33.890625 48 
Q 26.265625 48 22.1875 43.046875 
Q 18.109375 38.09375 18.109375 28.8125 
L 18.109375 0 
L 9.078125 0 
L 9.078125 54.6875 
L 18.109375 54.6875 
L 18.109375 46.1875 
Q 20.953125 51.171875 25.484375 53.578125 
Q 30.03125 56 36.53125 56 
Q 37.453125 56 38.578125 55.875 
Q 39.703125 55.765625 41.0625 55.515625 
z
" id="DejaVuSans-114"/>
       <path d="M 18.3125 70.21875 
L 18.3125 54.6875 
L 36.8125 54.6875 
L 36.8125 47.703125 
L 18.3125 47.703125 
L 18.3125 18.015625 
Q 18.3125 11.328125 20.140625 9.421875 
Q 21.96875 7.515625 27.59375 7.515625 
L 36.8125 7.515625 
L 36.8125 0 
L 27.59375 0 
Q 17.1875 0 13.234375 3.875 
Q 9.28125 7.765625 9.28125 18.015625 
L 9.28125 47.703125 
L 2.6875 47.703125 
L 2.6875 54.6875 
L 9.28125 54.6875 
L 9.28125 70.21875 
z
" id="DejaVuSans-116"/>
       <path d="M 34.28125 27.484375 
Q 23.390625 27.484375 19.1875 25 
Q 14.984375 22.515625 14.984375 16.5 
Q 14.984375 11.71875 18.140625 8.90625 
Q 21.296875 6.109375 26.703125 6.109375 
Q 34.1875 6.109375 38.703125 11.40625 
Q 43.21875 16.703125 43.21875 25.484375 
L 43.21875 27.484375 
z
M 52.203125 31.203125 
L 52.203125 0 
L 43.21875 0 
L 43.21875 8.296875 
Q 40.140625 3.328125 35.546875 0.953125 
Q 30.953125 -1.421875 24.3125 -1.421875 
Q 15.921875 -1.421875 10.953125 3.296875 
Q 6 8.015625 6 15.921875 
Q 6 25.140625 12.171875 29.828125 
Q 18.359375 34.515625 30.609375 34.515625 
L 43.21875 34.515625 
L 43.21875 35.40625 
Q 43.21875 41.609375 39.140625 45 
Q 35.0625 48.390625 27.6875 48.390625 
Q 23 48.390625 18.546875 47.265625 
Q 14.109375 46.140625 10.015625 43.890625 
L 10.015625 52.203125 
Q 14.9375 54.109375 19.578125 55.046875 
Q 24.21875 56 28.609375 56 
Q 40.484375 56 46.34375 49.84375 
Q 52.203125 43.703125 52.203125 31.203125 
z
" id="DejaVuSans-97"/>
       <path id="DejaVuSans-32"/>
       <path d="M 34.1875 63.1875 
L 20.796875 26.90625 
L 47.609375 26.90625 
z
M 28.609375 72.90625 
L 39.796875 72.90625 
L 67.578125 0 
L 57.328125 0 
L 50.6875 18.703125 
L 17.828125 18.703125 
L 11.1875 0 
L 0.78125 0 
z
" id="DejaVuSans-65"/>
       <path d="M 48.78125 52.59375 
L 48.78125 44.1875 
Q 44.96875 46.296875 41.140625 47.34375 
Q 37.3125 48.390625 33.40625 48.390625 
Q 24.65625 48.390625 19.8125 42.84375 
Q 14.984375 37.3125 14.984375 27.296875 
Q 14.984375 17.28125 19.8125 11.734375 
Q 24.65625 6.203125 33.40625 6.203125 
Q 37.3125 6.203125 41.140625 7.25 
Q 44.96875 8.296875 48.78125 10.40625 
L 48.78125 2.09375 
Q 45.015625 0.34375 40.984375 -0.53125 
Q 36.96875 -1.421875 32.421875 -1.421875 
Q 20.0625 -1.421875 12.78125 6.34375 
Q 5.515625 14.109375 5.515625 27.296875 
Q 5.515625 40.671875 12.859375 48.328125 
Q 20.21875 56 33.015625 56 
Q 37.15625 56 41.109375 55.140625 
Q 45.0625 54.296875 48.78125 52.59375 
z
" id="DejaVuSans-99"/>
       <path d="M 2.984375 54.6875 
L 12.5 54.6875 
L 29.59375 8.796875 
L 46.6875 54.6875 
L 56.203125 54.6875 
L 35.6875 0 
L 23.484375 0 
z
" id="DejaVuSans-118"/>
       <path d="M 32.171875 -5.078125 
Q 28.375 -14.84375 24.75 -17.8125 
Q 21.140625 -20.796875 15.09375 -20.796875 
L 7.90625 -20.796875 
L 7.90625 -13.28125 
L 13.1875 -13.28125 
Q 16.890625 -13.28125 18.9375 -11.515625 
Q 21 -9.765625 23.484375 -3.21875 
L 25.09375 0.875 
L 2.984375 54.6875 
L 12.5 54.6875 
L 29.59375 11.921875 
L 46.6875 54.6875 
L 56.203125 54.6875 
z
" id="DejaVuSans-121"/>
      </defs>
      <use xlink:href="#DejaVuSans-68"/>
      <use x="77.001953" xlink:href="#DejaVuSans-105"/>
      <use x="104.785156" xlink:href="#DejaVuSans-102"/>
      <use x="139.990234" xlink:href="#DejaVuSans-102"/>
      <use x="175.195312" xlink:href="#DejaVuSans-101"/>
      <use x="236.71875" xlink:href="#DejaVuSans-114"/>
      <use x="275.582031" xlink:href="#DejaVuSans-101"/>
      <use x="337.105469" xlink:href="#DejaVuSans-110"/>
      <use x="400.484375" xlink:href="#DejaVuSans-116"/>
      <use x="439.693359" xlink:href="#DejaVuSans-105"/>
      <use x="467.476562" xlink:href="#DejaVuSans-97"/>
      <use x="528.755859" xlink:href="#DejaVuSans-108"/>
      <use x="556.539062" xlink:href="#DejaVuSans-32"/>
      <use x="588.326172" xlink:href="#DejaVuSans-65"/>
      <use x="654.984375" xlink:href="#DejaVuSans-99"/>
      <use x="709.964844" xlink:href="#DejaVuSans-116"/>
      <use x="749.173828" xlink:href="#DejaVuSans-118"/>
      <use x="808.353516" xlink:href="#DejaVuSans-105"/>
      <use x="836.136719" xlink:href="#DejaVuSans-116"/>
      <use x="875.345703" xlink:href="#DejaVuSans-121"/>
     </g>
    </g>
   </g>
   <g id="line2d_7">
    <path clip-path="url(#pc3e0741ba5)" d="M 63 144.797903 
L 453.6 144.797903 
" style="fill:none;stroke:#000000;stroke-linecap:square;stroke-width:1.5;"/>
   </g>
   <g id="patch_101">
    <path d="M 63 315 
L 63 43.2 
" style="fill:none;stroke:#000000;stroke-linecap:square;stroke-linejoin:miter;stroke-width:0.8;"/>
   </g>
   <g id="patch_102">
    <path d="M 453.6 315 
L 453.6 43.2 
" style="fill:none;stroke:#000000;stroke-linecap:square;stroke-linejoin:miter;stroke-width:0.8;"/>
   </g>
   <g id="patch_103">
    <path d="M 63 315 
L 453.6 315 
" style="fill:none;stroke:#000000;stroke-linecap:square;stroke-linejoin:miter;stroke-width:0.8;"/>
   </g>
   <g id="patch_104">
    <path d="M 63 43.2 
L 453.6 43.2 
" style="fill:none;stroke:#000000;stroke-linecap:square;stroke-linejoin:miter;stroke-width:0.8;"/>
   </g>
   <g id="text_9">
    <!-- gacA::tn  -->
    <g transform="translate(224.689453 37.2)scale(0.15 -0.15)">
     <defs>
      <path d="M 45.40625 27.984375 
Q 45.40625 37.75 41.375 43.109375 
Q 37.359375 48.484375 30.078125 48.484375 
Q 22.859375 48.484375 18.828125 43.109375 
Q 14.796875 37.75 14.796875 27.984375 
Q 14.796875 18.265625 18.828125 12.890625 
Q 22.859375 7.515625 30.078125 7.515625 
Q 37.359375 7.515625 41.375 12.890625 
Q 45.40625 18.265625 45.40625 27.984375 
z
M 54.390625 6.78125 
Q 54.390625 -7.171875 48.1875 -13.984375 
Q 42 -20.796875 29.203125 -20.796875 
Q 24.46875 -20.796875 20.265625 -20.09375 
Q 16.0625 -19.390625 12.109375 -17.921875 
L 12.109375 -9.1875 
Q 16.0625 -11.328125 19.921875 -12.34375 
Q 23.78125 -13.375 27.78125 -13.375 
Q 36.625 -13.375 41.015625 -8.765625 
Q 45.40625 -4.15625 45.40625 5.171875 
L 45.40625 9.625 
Q 42.625 4.78125 38.28125 2.390625 
Q 33.9375 0 27.875 0 
Q 17.828125 0 11.671875 7.65625 
Q 5.515625 15.328125 5.515625 27.984375 
Q 5.515625 40.671875 11.671875 48.328125 
Q 17.828125 56 27.875 56 
Q 33.9375 56 38.28125 53.609375 
Q 42.625 51.21875 45.40625 46.390625 
L 45.40625 54.6875 
L 54.390625 54.6875 
z
" id="DejaVuSans-103"/>
      <path d="M 11.71875 12.40625 
L 22.015625 12.40625 
L 22.015625 0 
L 11.71875 0 
z
M 11.71875 51.703125 
L 22.015625 51.703125 
L 22.015625 39.3125 
L 11.71875 39.3125 
z
" id="DejaVuSans-58"/>
     </defs>
     <use xlink:href="#DejaVuSans-103"/>
     <use x="63.476562" xlink:href="#DejaVuSans-97"/>
     <use x="124.755859" xlink:href="#DejaVuSans-99"/>
     <use x="179.736328" xlink:href="#DejaVuSans-65"/>
     <use x="246.394531" xlink:href="#DejaVuSans-58"/>
     <use x="280.085938" xlink:href="#DejaVuSans-58"/>
     <use x="313.777344" xlink:href="#DejaVuSans-116"/>
     <use x="352.986328" xlink:href="#DejaVuSans-110"/>
     <use x="416.365234" xlink:href="#DejaVuSans-32"/>
    </g>
   </g>
  </g>
 </g>
 <defs>
  <clipPath id="pc3e0741ba5">
   <rect height="271.8" width="390.6" x="63" y="43.2"/>
  </clipPath>
 </defs>
</svg>
