<?xml version="1.0" encoding="utf-8" standalone="no"?>
<!DOCTYPE svg PUBLIC "-//W3C//DTD SVG 1.1//EN"
  "http://www.w3.org/Graphics/SVG/1.1/DTD/svg11.dtd">
<!-- Created with matplotlib (https://matplotlib.org/) -->
<svg height="504pt" version="1.1" viewBox="0 0 720 504" width="720pt" xmlns="http://www.w3.org/2000/svg" xmlns:xlink="http://www.w3.org/1999/xlink">
 <metadata>
  <rdf:RDF xmlns:cc="http://creativecommons.org/ns#" xmlns:dc="http://purl.org/dc/elements/1.1/" xmlns:rdf="http://www.w3.org/1999/02/22-rdf-syntax-ns#">
   <cc:Work>
    <dc:type rdf:resource="http://purl.org/dc/dcmitype/StillImage"/>
    <dc:date>2022-03-12T15:26:50.854464</dc:date>
    <dc:format>image/svg+xml</dc:format>
    <dc:creator>
     <cc:Agent>
      <dc:title>Matplotlib v3.3.4, https://matplotlib.org/</dc:title>
     </cc:Agent>
    </dc:creator>
   </cc:Work>
  </rdf:RDF>
 </metadata>
 <defs>
  <style type="text/css">*{stroke-linecap:butt;stroke-linejoin:round;}</style>
 </defs>
 <g id="figure_1">
  <g id="patch_1">
   <path d="M 0 504 
L 720 504 
L 720 0 
L 0 0 
z
" style="fill:none;"/>
  </g>
  <g id="axes_1">
   <g id="patch_2">
    <path d="M 90 441 
L 266.210526 441 
L 266.210526 60.48 
L 90 60.48 
z
" style="fill:none;"/>
   </g>
   <g id="LineCollection_1">
    <path clip-path="url(#p3679c12f34)" d="M 90 265.544486 
L 310.263158 265.544486 
" style="fill:none;stroke:#808080;stroke-width:1.5;"/>
   </g>
   <g id="patch_3">
    <path clip-path="url(#p3679c12f34)" d="M 110.557895 265.544486 
L 157.547368 265.544486 
L 157.547368 213.741055 
L 110.557895 213.741055 
z
" style="fill:#b9dccc;"/>
   </g>
   <g id="patch_4">
    <path clip-path="url(#p3679c12f34)" d="M 169.294737 265.544486 
L 216.284211 265.544486 
L 216.284211 190.749698 
L 169.294737 190.749698 
z
" style="fill:#b9dccc;"/>
   </g>
   <g id="patch_5">
    <path clip-path="url(#p3679c12f34)" d="M 228.031579 265.544486 
L 275.021053 265.544486 
L 275.021053 265.544486 
L 228.031579 265.544486 
z
" style="fill:#b9dccc;"/>
   </g>
   <g id="matplotlib.axis_1">
    <g id="xtick_1">
     <g id="line2d_1">
      <defs>
       <path d="M 0 0 
L 0 3.5 
" id="m0ffaf76def" style="stroke:#808080;stroke-width:0.8;"/>
      </defs>
      <g>
       <use style="fill:#808080;stroke:#808080;stroke-width:0.8;" x="134.052632" xlink:href="#m0ffaf76def" y="441"/>
      </g>
     </g>
     <g id="text_1">
      <!-- AV-T/vector -->
      <g transform="translate(88.668309 497.771479)rotate(-45)scale(0.12 -0.12)">
       <defs>
        <path d="M -0.140625 0 
L 27.34375 71.578125 
L 37.546875 71.578125 
L 66.84375 0 
L 56.0625 0 
L 47.703125 21.6875 
L 17.78125 21.6875 
L 9.90625 0 
z
M 20.515625 29.390625 
L 44.78125 29.390625 
L 37.3125 49.21875 
Q 33.890625 58.25 32.234375 64.0625 
Q 30.859375 57.171875 28.375 50.390625 
z
" id="ArialMT-65"/>
        <path d="M 28.171875 0 
L 0.4375 71.578125 
L 10.6875 71.578125 
L 29.296875 19.578125 
Q 31.546875 13.328125 33.0625 7.859375 
Q 34.71875 13.71875 36.921875 19.578125 
L 56.25 71.578125 
L 65.921875 71.578125 
L 37.890625 0 
z
" id="ArialMT-86"/>
        <path d="M 3.171875 21.484375 
L 3.171875 30.328125 
L 30.171875 30.328125 
L 30.171875 21.484375 
z
" id="ArialMT-45"/>
        <path d="M 25.921875 0 
L 25.921875 63.140625 
L 2.34375 63.140625 
L 2.34375 71.578125 
L 59.078125 71.578125 
L 59.078125 63.140625 
L 35.40625 63.140625 
L 35.40625 0 
z
" id="ArialMT-84"/>
        <path d="M 0 -1.21875 
L 20.75 72.796875 
L 27.78125 72.796875 
L 7.078125 -1.21875 
z
" id="ArialMT-47"/>
        <path d="M 21 0 
L 1.265625 51.859375 
L 10.546875 51.859375 
L 21.6875 20.796875 
Q 23.484375 15.765625 25 10.359375 
Q 26.171875 14.453125 28.265625 20.21875 
L 39.796875 51.859375 
L 48.828125 51.859375 
L 29.203125 0 
z
" id="ArialMT-118"/>
        <path d="M 42.09375 16.703125 
L 51.171875 15.578125 
Q 49.03125 7.625 43.21875 3.21875 
Q 37.40625 -1.171875 28.375 -1.171875 
Q 17 -1.171875 10.328125 5.828125 
Q 3.65625 12.84375 3.65625 25.484375 
Q 3.65625 38.578125 10.390625 45.796875 
Q 17.140625 53.03125 27.875 53.03125 
Q 38.28125 53.03125 44.875 45.953125 
Q 51.46875 38.875 51.46875 26.03125 
Q 51.46875 25.25 51.421875 23.6875 
L 12.75 23.6875 
Q 13.234375 15.140625 17.578125 10.59375 
Q 21.921875 6.0625 28.421875 6.0625 
Q 33.25 6.0625 36.671875 8.59375 
Q 40.09375 11.140625 42.09375 16.703125 
z
M 13.234375 30.90625 
L 42.1875 30.90625 
Q 41.609375 37.453125 38.875 40.71875 
Q 34.671875 45.796875 27.984375 45.796875 
Q 21.921875 45.796875 17.796875 41.75 
Q 13.671875 37.703125 13.234375 30.90625 
z
" id="ArialMT-101"/>
        <path d="M 40.4375 19 
L 49.078125 17.875 
Q 47.65625 8.9375 41.8125 3.875 
Q 35.984375 -1.171875 27.484375 -1.171875 
Q 16.84375 -1.171875 10.375 5.78125 
Q 3.90625 12.75 3.90625 25.734375 
Q 3.90625 34.125 6.6875 40.421875 
Q 9.46875 46.734375 15.15625 49.875 
Q 20.84375 53.03125 27.546875 53.03125 
Q 35.984375 53.03125 41.359375 48.75 
Q 46.734375 44.484375 48.25 36.625 
L 39.703125 35.296875 
Q 38.484375 40.53125 35.375 43.15625 
Q 32.28125 45.796875 27.875 45.796875 
Q 21.234375 45.796875 17.078125 41.03125 
Q 12.9375 36.28125 12.9375 25.984375 
Q 12.9375 15.53125 16.9375 10.796875 
Q 20.953125 6.0625 27.390625 6.0625 
Q 32.5625 6.0625 36.03125 9.234375 
Q 39.5 12.40625 40.4375 19 
z
" id="ArialMT-99"/>
        <path d="M 25.78125 7.859375 
L 27.046875 0.09375 
Q 23.34375 -0.6875 20.40625 -0.6875 
Q 15.625 -0.6875 12.984375 0.828125 
Q 10.359375 2.34375 9.28125 4.8125 
Q 8.203125 7.28125 8.203125 15.1875 
L 8.203125 45.015625 
L 1.765625 45.015625 
L 1.765625 51.859375 
L 8.203125 51.859375 
L 8.203125 64.703125 
L 16.9375 69.96875 
L 16.9375 51.859375 
L 25.78125 51.859375 
L 25.78125 45.015625 
L 16.9375 45.015625 
L 16.9375 14.703125 
Q 16.9375 10.9375 17.40625 9.859375 
Q 17.875 8.796875 18.921875 8.15625 
Q 19.96875 7.515625 21.921875 7.515625 
Q 23.390625 7.515625 25.78125 7.859375 
z
" id="ArialMT-116"/>
        <path d="M 3.328125 25.921875 
Q 3.328125 40.328125 11.328125 47.265625 
Q 18.015625 53.03125 27.640625 53.03125 
Q 38.328125 53.03125 45.109375 46.015625 
Q 51.90625 39.015625 51.90625 26.65625 
Q 51.90625 16.65625 48.90625 10.90625 
Q 45.90625 5.171875 40.15625 2 
Q 34.421875 -1.171875 27.640625 -1.171875 
Q 16.75 -1.171875 10.03125 5.8125 
Q 3.328125 12.796875 3.328125 25.921875 
z
M 12.359375 25.921875 
Q 12.359375 15.96875 16.703125 11.015625 
Q 21.046875 6.0625 27.640625 6.0625 
Q 34.1875 6.0625 38.53125 11.03125 
Q 42.875 16.015625 42.875 26.21875 
Q 42.875 35.84375 38.5 40.796875 
Q 34.125 45.75 27.640625 45.75 
Q 21.046875 45.75 16.703125 40.8125 
Q 12.359375 35.890625 12.359375 25.921875 
z
" id="ArialMT-111"/>
        <path d="M 6.5 0 
L 6.5 51.859375 
L 14.40625 51.859375 
L 14.40625 44 
Q 17.4375 49.515625 20 51.265625 
Q 22.5625 53.03125 25.640625 53.03125 
Q 30.078125 53.03125 34.671875 50.203125 
L 31.640625 42.046875 
Q 28.421875 43.953125 25.203125 43.953125 
Q 22.3125 43.953125 20.015625 42.21875 
Q 17.71875 40.484375 16.75 37.40625 
Q 15.28125 32.71875 15.28125 27.15625 
L 15.28125 0 
z
" id="ArialMT-114"/>
       </defs>
       <use xlink:href="#ArialMT-65"/>
       <use x="59.324219" xlink:href="#ArialMT-86"/>
       <use x="120.523438" xlink:href="#ArialMT-45"/>
       <use x="153.824219" xlink:href="#ArialMT-84"/>
       <use x="214.908203" xlink:href="#ArialMT-47"/>
       <use x="242.691406" xlink:href="#ArialMT-118"/>
       <use x="292.691406" xlink:href="#ArialMT-101"/>
       <use x="348.306641" xlink:href="#ArialMT-99"/>
       <use x="398.306641" xlink:href="#ArialMT-116"/>
       <use x="426.089844" xlink:href="#ArialMT-111"/>
       <use x="481.705078" xlink:href="#ArialMT-114"/>
      </g>
     </g>
    </g>
    <g id="xtick_2">
     <g id="line2d_2">
      <g>
       <use style="fill:#808080;stroke:#808080;stroke-width:0.8;" x="192.789474" xlink:href="#m0ffaf76def" y="441"/>
      </g>
     </g>
     <g id="text_2">
      <!-- VIR-O/1645 -->
      <g transform="translate(146.300738 498.875891)rotate(-45)scale(0.12 -0.12)">
       <defs>
        <path d="M 9.328125 0 
L 9.328125 71.578125 
L 18.796875 71.578125 
L 18.796875 0 
z
" id="ArialMT-73"/>
        <path d="M 7.859375 0 
L 7.859375 71.578125 
L 39.59375 71.578125 
Q 49.171875 71.578125 54.140625 69.640625 
Q 59.125 67.71875 62.109375 62.828125 
Q 65.09375 57.953125 65.09375 52.046875 
Q 65.09375 44.4375 60.15625 39.203125 
Q 55.21875 33.984375 44.921875 32.5625 
Q 48.6875 30.765625 50.640625 29 
Q 54.78125 25.203125 58.5 19.484375 
L 70.953125 0 
L 59.03125 0 
L 49.5625 14.890625 
Q 45.40625 21.34375 42.71875 24.75 
Q 40.046875 28.171875 37.921875 29.53125 
Q 35.796875 30.90625 33.59375 31.453125 
Q 31.984375 31.78125 28.328125 31.78125 
L 17.328125 31.78125 
L 17.328125 0 
z
M 17.328125 39.984375 
L 37.703125 39.984375 
Q 44.1875 39.984375 47.84375 41.328125 
Q 51.515625 42.671875 53.421875 45.625 
Q 55.328125 48.578125 55.328125 52.046875 
Q 55.328125 57.125 51.640625 60.390625 
Q 47.953125 63.671875 39.984375 63.671875 
L 17.328125 63.671875 
z
" id="ArialMT-82"/>
        <path d="M 4.828125 34.859375 
Q 4.828125 52.6875 14.390625 62.765625 
Q 23.96875 72.859375 39.109375 72.859375 
Q 49.03125 72.859375 56.984375 68.109375 
Q 64.9375 63.375 69.109375 54.90625 
Q 73.296875 46.4375 73.296875 35.6875 
Q 73.296875 24.8125 68.890625 16.21875 
Q 64.5 7.625 56.4375 3.203125 
Q 48.390625 -1.21875 39.0625 -1.21875 
Q 28.953125 -1.21875 20.984375 3.65625 
Q 13.03125 8.546875 8.921875 16.984375 
Q 4.828125 25.4375 4.828125 34.859375 
z
M 14.59375 34.71875 
Q 14.59375 21.78125 21.546875 14.328125 
Q 28.515625 6.890625 39.015625 6.890625 
Q 49.703125 6.890625 56.609375 14.40625 
Q 63.53125 21.921875 63.53125 35.75 
Q 63.53125 44.484375 60.578125 51 
Q 57.625 57.515625 51.921875 61.109375 
Q 46.234375 64.703125 39.15625 64.703125 
Q 29.109375 64.703125 21.84375 57.78125 
Q 14.59375 50.875 14.59375 34.71875 
z
" id="ArialMT-79"/>
        <path d="M 37.25 0 
L 28.46875 0 
L 28.46875 56 
Q 25.296875 52.984375 20.140625 49.953125 
Q 14.984375 46.921875 10.890625 45.40625 
L 10.890625 53.90625 
Q 18.265625 57.375 23.78125 62.296875 
Q 29.296875 67.234375 31.59375 71.875 
L 37.25 71.875 
z
" id="ArialMT-49"/>
        <path d="M 49.75 54.046875 
L 41.015625 53.375 
Q 39.84375 58.546875 37.703125 60.890625 
Q 34.125 64.65625 28.90625 64.65625 
Q 24.703125 64.65625 21.53125 62.3125 
Q 17.390625 59.28125 14.984375 53.46875 
Q 12.59375 47.65625 12.5 36.921875 
Q 15.671875 41.75 20.265625 44.09375 
Q 24.859375 46.4375 29.890625 46.4375 
Q 38.671875 46.4375 44.84375 39.96875 
Q 51.03125 33.5 51.03125 23.25 
Q 51.03125 16.5 48.125 10.71875 
Q 45.21875 4.9375 40.140625 1.859375 
Q 35.0625 -1.21875 28.609375 -1.21875 
Q 17.625 -1.21875 10.6875 6.859375 
Q 3.765625 14.9375 3.765625 33.5 
Q 3.765625 54.25 11.421875 63.671875 
Q 18.109375 71.875 29.4375 71.875 
Q 37.890625 71.875 43.28125 67.140625 
Q 48.6875 62.40625 49.75 54.046875 
z
M 13.875 23.1875 
Q 13.875 18.65625 15.796875 14.5 
Q 17.71875 10.359375 21.1875 8.171875 
Q 24.65625 6 28.46875 6 
Q 34.03125 6 38.03125 10.484375 
Q 42.046875 14.984375 42.046875 22.703125 
Q 42.046875 30.125 38.078125 34.390625 
Q 34.125 38.671875 28.125 38.671875 
Q 22.171875 38.671875 18.015625 34.390625 
Q 13.875 30.125 13.875 23.1875 
z
" id="ArialMT-54"/>
        <path d="M 32.328125 0 
L 32.328125 17.140625 
L 1.265625 17.140625 
L 1.265625 25.203125 
L 33.9375 71.578125 
L 41.109375 71.578125 
L 41.109375 25.203125 
L 50.78125 25.203125 
L 50.78125 17.140625 
L 41.109375 17.140625 
L 41.109375 0 
z
M 32.328125 25.203125 
L 32.328125 57.46875 
L 9.90625 25.203125 
z
" id="ArialMT-52"/>
        <path d="M 4.15625 18.75 
L 13.375 19.53125 
Q 14.40625 12.796875 18.140625 9.390625 
Q 21.875 6 27.15625 6 
Q 33.5 6 37.890625 10.78125 
Q 42.28125 15.578125 42.28125 23.484375 
Q 42.28125 31 38.0625 35.34375 
Q 33.84375 39.703125 27 39.703125 
Q 22.75 39.703125 19.328125 37.765625 
Q 15.921875 35.84375 13.96875 32.765625 
L 5.71875 33.84375 
L 12.640625 70.609375 
L 48.25 70.609375 
L 48.25 62.203125 
L 19.671875 62.203125 
L 15.828125 42.96875 
Q 22.265625 47.46875 29.34375 47.46875 
Q 38.71875 47.46875 45.15625 40.96875 
Q 51.609375 34.46875 51.609375 24.265625 
Q 51.609375 14.546875 45.953125 7.46875 
Q 39.0625 -1.21875 27.15625 -1.21875 
Q 17.390625 -1.21875 11.203125 4.25 
Q 5.03125 9.71875 4.15625 18.75 
z
" id="ArialMT-53"/>
       </defs>
       <use xlink:href="#ArialMT-86"/>
       <use x="66.699219" xlink:href="#ArialMT-73"/>
       <use x="94.482422" xlink:href="#ArialMT-82"/>
       <use x="166.699219" xlink:href="#ArialMT-45"/>
       <use x="200" xlink:href="#ArialMT-79"/>
       <use x="277.783203" xlink:href="#ArialMT-47"/>
       <use x="305.566406" xlink:href="#ArialMT-49"/>
       <use x="361.181641" xlink:href="#ArialMT-54"/>
       <use x="416.796875" xlink:href="#ArialMT-52"/>
       <use x="472.412109" xlink:href="#ArialMT-53"/>
      </g>
     </g>
    </g>
    <g id="xtick_3">
     <g id="line2d_3">
      <g>
       <use style="fill:#808080;stroke:#808080;stroke-width:0.8;" x="251.526316" xlink:href="#m0ffaf76def" y="441"/>
      </g>
     </g>
     <g id="text_3">
      <!-- VIR-O/vector -->
      <g transform="translate(200.806872 503.106599)rotate(-45)scale(0.12 -0.12)">
       <use xlink:href="#ArialMT-86"/>
       <use x="66.699219" xlink:href="#ArialMT-73"/>
       <use x="94.482422" xlink:href="#ArialMT-82"/>
       <use x="166.699219" xlink:href="#ArialMT-45"/>
       <use x="200" xlink:href="#ArialMT-79"/>
       <use x="277.783203" xlink:href="#ArialMT-47"/>
       <use x="305.566406" xlink:href="#ArialMT-118"/>
       <use x="355.566406" xlink:href="#ArialMT-101"/>
       <use x="411.181641" xlink:href="#ArialMT-99"/>
       <use x="461.181641" xlink:href="#ArialMT-116"/>
       <use x="488.964844" xlink:href="#ArialMT-111"/>
       <use x="544.580078" xlink:href="#ArialMT-114"/>
      </g>
     </g>
    </g>
   </g>
   <g id="matplotlib.axis_2">
    <g id="ytick_1">
     <g id="line2d_4">
      <defs>
       <path d="M 0 0 
L -3.5 0 
" id="m59394af6fe" style="stroke:#808080;stroke-width:0.8;"/>
      </defs>
      <g>
       <use style="fill:#808080;stroke:#808080;stroke-width:0.8;" x="90" xlink:href="#m59394af6fe" y="407.705161"/>
      </g>
     </g>
     <g id="text_4">
      <!-- −30 -->
      <g transform="translate(61.895313 411.50438)scale(0.1 -0.1)">
       <defs>
        <path d="M 10.59375 35.5 
L 73.1875 35.5 
L 73.1875 27.203125 
L 10.59375 27.203125 
z
" id="DejaVuSans-8722"/>
        <path d="M 40.578125 39.3125 
Q 47.65625 37.796875 51.625 33 
Q 55.609375 28.21875 55.609375 21.1875 
Q 55.609375 10.40625 48.1875 4.484375 
Q 40.765625 -1.421875 27.09375 -1.421875 
Q 22.515625 -1.421875 17.65625 -0.515625 
Q 12.796875 0.390625 7.625 2.203125 
L 7.625 11.71875 
Q 11.71875 9.328125 16.59375 8.109375 
Q 21.484375 6.890625 26.8125 6.890625 
Q 36.078125 6.890625 40.9375 10.546875 
Q 45.796875 14.203125 45.796875 21.1875 
Q 45.796875 27.640625 41.28125 31.265625 
Q 36.765625 34.90625 28.71875 34.90625 
L 20.21875 34.90625 
L 20.21875 43.015625 
L 29.109375 43.015625 
Q 36.375 43.015625 40.234375 45.921875 
Q 44.09375 48.828125 44.09375 54.296875 
Q 44.09375 59.90625 40.109375 62.90625 
Q 36.140625 65.921875 28.71875 65.921875 
Q 24.65625 65.921875 20.015625 65.03125 
Q 15.375 64.15625 9.8125 62.3125 
L 9.8125 71.09375 
Q 15.4375 72.65625 20.34375 73.4375 
Q 25.25 74.21875 29.59375 74.21875 
Q 40.828125 74.21875 47.359375 69.109375 
Q 53.90625 64.015625 53.90625 55.328125 
Q 53.90625 49.265625 50.4375 45.09375 
Q 46.96875 40.921875 40.578125 39.3125 
z
" id="DejaVuSans-51"/>
        <path d="M 31.78125 66.40625 
Q 24.171875 66.40625 20.328125 58.90625 
Q 16.5 51.421875 16.5 36.375 
Q 16.5 21.390625 20.328125 13.890625 
Q 24.171875 6.390625 31.78125 6.390625 
Q 39.453125 6.390625 43.28125 13.890625 
Q 47.125 21.390625 47.125 36.375 
Q 47.125 51.421875 43.28125 58.90625 
Q 39.453125 66.40625 31.78125 66.40625 
z
M 31.78125 74.21875 
Q 44.046875 74.21875 50.515625 64.515625 
Q 56.984375 54.828125 56.984375 36.375 
Q 56.984375 17.96875 50.515625 8.265625 
Q 44.046875 -1.421875 31.78125 -1.421875 
Q 19.53125 -1.421875 13.0625 8.265625 
Q 6.59375 17.96875 6.59375 36.375 
Q 6.59375 54.828125 13.0625 64.515625 
Q 19.53125 74.21875 31.78125 74.21875 
z
" id="DejaVuSans-48"/>
       </defs>
       <use xlink:href="#DejaVuSans-8722"/>
       <use x="83.789062" xlink:href="#DejaVuSans-51"/>
       <use x="147.412109" xlink:href="#DejaVuSans-48"/>
      </g>
     </g>
    </g>
    <g id="ytick_2">
     <g id="line2d_5">
      <g>
       <use style="fill:#808080;stroke:#808080;stroke-width:0.8;" x="90" xlink:href="#m59394af6fe" y="360.318269"/>
      </g>
     </g>
     <g id="text_5">
      <!-- −20 -->
      <g transform="translate(61.895313 364.117488)scale(0.1 -0.1)">
       <defs>
        <path d="M 19.1875 8.296875 
L 53.609375 8.296875 
L 53.609375 0 
L 7.328125 0 
L 7.328125 8.296875 
Q 12.9375 14.109375 22.625 23.890625 
Q 32.328125 33.6875 34.8125 36.53125 
Q 39.546875 41.84375 41.421875 45.53125 
Q 43.3125 49.21875 43.3125 52.78125 
Q 43.3125 58.59375 39.234375 62.25 
Q 35.15625 65.921875 28.609375 65.921875 
Q 23.96875 65.921875 18.8125 64.3125 
Q 13.671875 62.703125 7.8125 59.421875 
L 7.8125 69.390625 
Q 13.765625 71.78125 18.9375 73 
Q 24.125 74.21875 28.421875 74.21875 
Q 39.75 74.21875 46.484375 68.546875 
Q 53.21875 62.890625 53.21875 53.421875 
Q 53.21875 48.921875 51.53125 44.890625 
Q 49.859375 40.875 45.40625 35.40625 
Q 44.1875 33.984375 37.640625 27.21875 
Q 31.109375 20.453125 19.1875 8.296875 
z
" id="DejaVuSans-50"/>
       </defs>
       <use xlink:href="#DejaVuSans-8722"/>
       <use x="83.789062" xlink:href="#DejaVuSans-50"/>
       <use x="147.412109" xlink:href="#DejaVuSans-48"/>
      </g>
     </g>
    </g>
    <g id="ytick_3">
     <g id="line2d_6">
      <g>
       <use style="fill:#808080;stroke:#808080;stroke-width:0.8;" x="90" xlink:href="#m59394af6fe" y="312.931378"/>
      </g>
     </g>
     <g id="text_6">
      <!-- −10 -->
      <g transform="translate(61.895313 316.730596)scale(0.1 -0.1)">
       <defs>
        <path d="M 12.40625 8.296875 
L 28.515625 8.296875 
L 28.515625 63.921875 
L 10.984375 60.40625 
L 10.984375 69.390625 
L 28.421875 72.90625 
L 38.28125 72.90625 
L 38.28125 8.296875 
L 54.390625 8.296875 
L 54.390625 0 
L 12.40625 0 
z
" id="DejaVuSans-49"/>
       </defs>
       <use xlink:href="#DejaVuSans-8722"/>
       <use x="83.789062" xlink:href="#DejaVuSans-49"/>
       <use x="147.412109" xlink:href="#DejaVuSans-48"/>
      </g>
     </g>
    </g>
    <g id="ytick_4">
     <g id="line2d_7">
      <g>
       <use style="fill:#808080;stroke:#808080;stroke-width:0.8;" x="90" xlink:href="#m59394af6fe" y="265.544486"/>
      </g>
     </g>
     <g id="text_7">
      <!-- 0 -->
      <g transform="translate(76.6375 269.343705)scale(0.1 -0.1)">
       <use xlink:href="#DejaVuSans-48"/>
      </g>
     </g>
    </g>
    <g id="ytick_5">
     <g id="line2d_8">
      <g>
       <use style="fill:#808080;stroke:#808080;stroke-width:0.8;" x="90" xlink:href="#m59394af6fe" y="218.157594"/>
      </g>
     </g>
     <g id="text_8">
      <!-- 10 -->
      <g transform="translate(70.275 221.956813)scale(0.1 -0.1)">
       <use xlink:href="#DejaVuSans-49"/>
       <use x="63.623047" xlink:href="#DejaVuSans-48"/>
      </g>
     </g>
    </g>
    <g id="ytick_6">
     <g id="line2d_9">
      <g>
       <use style="fill:#808080;stroke:#808080;stroke-width:0.8;" x="90" xlink:href="#m59394af6fe" y="170.770703"/>
      </g>
     </g>
     <g id="text_9">
      <!-- 20 -->
      <g transform="translate(70.275 174.569921)scale(0.1 -0.1)">
       <use xlink:href="#DejaVuSans-50"/>
       <use x="63.623047" xlink:href="#DejaVuSans-48"/>
      </g>
     </g>
    </g>
    <g id="ytick_7">
     <g id="line2d_10">
      <g>
       <use style="fill:#808080;stroke:#808080;stroke-width:0.8;" x="90" xlink:href="#m59394af6fe" y="123.383811"/>
      </g>
     </g>
     <g id="text_10">
      <!-- 30 -->
      <g transform="translate(70.275 127.18303)scale(0.1 -0.1)">
       <use xlink:href="#DejaVuSans-51"/>
       <use x="63.623047" xlink:href="#DejaVuSans-48"/>
      </g>
     </g>
    </g>
    <g id="ytick_8">
     <g id="line2d_11">
      <g>
       <use style="fill:#808080;stroke:#808080;stroke-width:0.8;" x="90" xlink:href="#m59394af6fe" y="75.996919"/>
      </g>
     </g>
     <g id="text_11">
      <!-- 40 -->
      <g transform="translate(70.275 79.796138)scale(0.1 -0.1)">
       <defs>
        <path d="M 37.796875 64.3125 
L 12.890625 25.390625 
L 37.796875 25.390625 
z
M 35.203125 72.90625 
L 47.609375 72.90625 
L 47.609375 25.390625 
L 58.015625 25.390625 
L 58.015625 17.1875 
L 47.609375 17.1875 
L 47.609375 0 
L 37.796875 0 
L 37.796875 17.1875 
L 4.890625 17.1875 
L 4.890625 26.703125 
z
" id="DejaVuSans-52"/>
       </defs>
       <use xlink:href="#DejaVuSans-52"/>
       <use x="63.623047" xlink:href="#DejaVuSans-48"/>
      </g>
     </g>
    </g>
    <g id="text_12">
     <!-- ABUW_1645 iModulon Activity -->
     <g transform="translate(54.106875 372.294844)rotate(-90)scale(0.18 -0.18)">
      <defs>
       <path d="M 7.328125 0 
L 7.328125 71.578125 
L 34.1875 71.578125 
Q 42.390625 71.578125 47.34375 69.40625 
Q 52.296875 67.234375 55.09375 62.71875 
Q 57.90625 58.203125 57.90625 53.265625 
Q 57.90625 48.6875 55.421875 44.625 
Q 52.9375 40.578125 47.90625 38.09375 
Q 54.390625 36.1875 57.875 31.59375 
Q 61.375 27 61.375 20.75 
Q 61.375 15.71875 59.25 11.390625 
Q 57.125 7.078125 54 4.734375 
Q 50.875 2.390625 46.15625 1.1875 
Q 41.453125 0 34.625 0 
z
M 16.796875 41.5 
L 32.28125 41.5 
Q 38.578125 41.5 41.3125 42.328125 
Q 44.921875 43.40625 46.75 45.890625 
Q 48.578125 48.390625 48.578125 52.15625 
Q 48.578125 55.71875 46.875 58.421875 
Q 45.171875 61.140625 41.984375 62.140625 
Q 38.8125 63.140625 31.109375 63.140625 
L 16.796875 63.140625 
z
M 16.796875 8.453125 
L 34.625 8.453125 
Q 39.203125 8.453125 41.0625 8.796875 
Q 44.34375 9.375 46.53125 10.734375 
Q 48.734375 12.109375 50.140625 14.71875 
Q 51.5625 17.328125 51.5625 20.75 
Q 51.5625 24.75 49.515625 27.703125 
Q 47.46875 30.671875 43.828125 31.859375 
Q 40.1875 33.0625 33.34375 33.0625 
L 16.796875 33.0625 
z
" id="ArialMT-66"/>
       <path d="M 54.6875 71.578125 
L 64.15625 71.578125 
L 64.15625 30.21875 
Q 64.15625 19.4375 61.71875 13.078125 
Q 59.28125 6.734375 52.90625 2.75 
Q 46.53125 -1.21875 36.1875 -1.21875 
Q 26.125 -1.21875 19.71875 2.25 
Q 13.328125 5.71875 10.59375 12.28125 
Q 7.859375 18.84375 7.859375 30.21875 
L 7.859375 71.578125 
L 17.328125 71.578125 
L 17.328125 30.28125 
Q 17.328125 20.953125 19.0625 16.53125 
Q 20.796875 12.109375 25.015625 9.71875 
Q 29.25 7.328125 35.359375 7.328125 
Q 45.796875 7.328125 50.234375 12.0625 
Q 54.6875 16.796875 54.6875 30.28125 
z
" id="ArialMT-85"/>
       <path d="M 20.21875 0 
L 1.21875 71.578125 
L 10.9375 71.578125 
L 21.828125 24.65625 
Q 23.578125 17.28125 24.859375 10.015625 
Q 27.59375 21.484375 28.078125 23.25 
L 41.703125 71.578125 
L 53.125 71.578125 
L 63.375 35.359375 
Q 67.234375 21.875 68.953125 10.015625 
Q 70.3125 16.796875 72.515625 25.59375 
L 83.734375 71.578125 
L 93.265625 71.578125 
L 73.640625 0 
L 64.5 0 
L 49.421875 54.546875 
Q 47.515625 61.375 47.171875 62.9375 
Q 46.046875 58.015625 45.0625 54.546875 
L 29.890625 0 
z
" id="ArialMT-87"/>
       <path d="M -1.515625 -19.875 
L -1.515625 -13.53125 
L 56.734375 -13.53125 
L 56.734375 -19.875 
z
" id="ArialMT-95"/>
       <path id="ArialMT-32"/>
       <path d="M 6.640625 61.46875 
L 6.640625 71.578125 
L 15.4375 71.578125 
L 15.4375 61.46875 
z
M 6.640625 0 
L 6.640625 51.859375 
L 15.4375 51.859375 
L 15.4375 0 
z
" id="ArialMT-105"/>
       <path d="M 7.421875 0 
L 7.421875 71.578125 
L 21.6875 71.578125 
L 38.625 20.90625 
Q 40.96875 13.8125 42.046875 10.296875 
Q 43.265625 14.203125 45.84375 21.78125 
L 62.984375 71.578125 
L 75.734375 71.578125 
L 75.734375 0 
L 66.609375 0 
L 66.609375 59.90625 
L 45.796875 0 
L 37.25 0 
L 16.546875 60.9375 
L 16.546875 0 
z
" id="ArialMT-77"/>
       <path d="M 40.234375 0 
L 40.234375 6.546875 
Q 35.296875 -1.171875 25.734375 -1.171875 
Q 19.53125 -1.171875 14.328125 2.25 
Q 9.125 5.671875 6.265625 11.796875 
Q 3.421875 17.921875 3.421875 25.875 
Q 3.421875 33.640625 6 39.96875 
Q 8.59375 46.296875 13.765625 49.65625 
Q 18.953125 53.03125 25.34375 53.03125 
Q 30.03125 53.03125 33.6875 51.046875 
Q 37.359375 49.078125 39.65625 45.90625 
L 39.65625 71.578125 
L 48.390625 71.578125 
L 48.390625 0 
z
M 12.453125 25.875 
Q 12.453125 15.921875 16.640625 10.984375 
Q 20.84375 6.0625 26.5625 6.0625 
Q 32.328125 6.0625 36.34375 10.765625 
Q 40.375 15.484375 40.375 25.140625 
Q 40.375 35.796875 36.265625 40.765625 
Q 32.171875 45.75 26.171875 45.75 
Q 20.3125 45.75 16.375 40.96875 
Q 12.453125 36.1875 12.453125 25.875 
z
" id="ArialMT-100"/>
       <path d="M 40.578125 0 
L 40.578125 7.625 
Q 34.515625 -1.171875 24.125 -1.171875 
Q 19.53125 -1.171875 15.546875 0.578125 
Q 11.578125 2.34375 9.640625 5 
Q 7.71875 7.671875 6.9375 11.53125 
Q 6.390625 14.109375 6.390625 19.734375 
L 6.390625 51.859375 
L 15.1875 51.859375 
L 15.1875 23.09375 
Q 15.1875 16.21875 15.71875 13.8125 
Q 16.546875 10.359375 19.234375 8.375 
Q 21.921875 6.390625 25.875 6.390625 
Q 29.828125 6.390625 33.296875 8.421875 
Q 36.765625 10.453125 38.203125 13.9375 
Q 39.65625 17.4375 39.65625 24.078125 
L 39.65625 51.859375 
L 48.4375 51.859375 
L 48.4375 0 
z
" id="ArialMT-117"/>
       <path d="M 6.390625 0 
L 6.390625 71.578125 
L 15.1875 71.578125 
L 15.1875 0 
z
" id="ArialMT-108"/>
       <path d="M 6.59375 0 
L 6.59375 51.859375 
L 14.5 51.859375 
L 14.5 44.484375 
Q 20.21875 53.03125 31 53.03125 
Q 35.6875 53.03125 39.625 51.34375 
Q 43.5625 49.65625 45.515625 46.921875 
Q 47.46875 44.1875 48.25 40.4375 
Q 48.734375 37.984375 48.734375 31.890625 
L 48.734375 0 
L 39.9375 0 
L 39.9375 31.546875 
Q 39.9375 36.921875 38.90625 39.578125 
Q 37.890625 42.234375 35.28125 43.8125 
Q 32.671875 45.40625 29.15625 45.40625 
Q 23.53125 45.40625 19.453125 41.84375 
Q 15.375 38.28125 15.375 28.328125 
L 15.375 0 
z
" id="ArialMT-110"/>
       <path d="M 6.203125 -19.96875 
L 5.21875 -11.71875 
Q 8.109375 -12.5 10.25 -12.5 
Q 13.1875 -12.5 14.9375 -11.515625 
Q 16.703125 -10.546875 17.828125 -8.796875 
Q 18.65625 -7.46875 20.515625 -2.25 
Q 20.75 -1.515625 21.296875 -0.09375 
L 1.609375 51.859375 
L 11.078125 51.859375 
L 21.875 21.828125 
Q 23.96875 16.109375 25.640625 9.8125 
Q 27.15625 15.875 29.25 21.625 
L 40.328125 51.859375 
L 49.125 51.859375 
L 29.390625 -0.875 
Q 26.21875 -9.421875 24.46875 -12.640625 
Q 22.125 -17 19.09375 -19.015625 
Q 16.0625 -21.046875 11.859375 -21.046875 
Q 9.328125 -21.046875 6.203125 -19.96875 
z
" id="ArialMT-121"/>
      </defs>
      <use xlink:href="#ArialMT-65"/>
      <use x="66.699219" xlink:href="#ArialMT-66"/>
      <use x="133.398438" xlink:href="#ArialMT-85"/>
      <use x="205.615234" xlink:href="#ArialMT-87"/>
      <use x="300" xlink:href="#ArialMT-95"/>
      <use x="355.615234" xlink:href="#ArialMT-49"/>
      <use x="411.230469" xlink:href="#ArialMT-54"/>
      <use x="466.845703" xlink:href="#ArialMT-52"/>
      <use x="522.460938" xlink:href="#ArialMT-53"/>
      <use x="578.076172" xlink:href="#ArialMT-32"/>
      <use x="605.859375" xlink:href="#ArialMT-105"/>
      <use x="628.076172" xlink:href="#ArialMT-77"/>
      <use x="711.376953" xlink:href="#ArialMT-111"/>
      <use x="766.992188" xlink:href="#ArialMT-100"/>
      <use x="822.607422" xlink:href="#ArialMT-117"/>
      <use x="878.222656" xlink:href="#ArialMT-108"/>
      <use x="900.439453" xlink:href="#ArialMT-111"/>
      <use x="956.054688" xlink:href="#ArialMT-110"/>
      <use x="1011.669922" xlink:href="#ArialMT-32"/>
      <use x="1033.953125" xlink:href="#ArialMT-65"/>
      <use x="1100.652344" xlink:href="#ArialMT-99"/>
      <use x="1150.652344" xlink:href="#ArialMT-116"/>
      <use x="1178.435547" xlink:href="#ArialMT-105"/>
      <use x="1200.652344" xlink:href="#ArialMT-118"/>
      <use x="1250.652344" xlink:href="#ArialMT-105"/>
      <use x="1272.869141" xlink:href="#ArialMT-116"/>
      <use x="1300.652344" xlink:href="#ArialMT-121"/>
     </g>
    </g>
   </g>
   <g id="line2d_12">
    <path clip-path="url(#p3679c12f34)" d="M 0 0 
" style="fill:none;stroke:#424242;stroke-linecap:square;stroke-width:2.7;"/>
   </g>
   <g id="line2d_13">
    <path clip-path="url(#p3679c12f34)" d="M 0 0 
" style="fill:none;stroke:#424242;stroke-linecap:square;stroke-width:2.7;"/>
   </g>
   <g id="line2d_14">
    <path clip-path="url(#p3679c12f34)" d="M 0 0 
" style="fill:none;stroke:#424242;stroke-linecap:square;stroke-width:2.7;"/>
   </g>
   <g id="patch_6">
    <path d="M 90 441 
L 90 60.48 
" style="fill:none;stroke:#808080;stroke-linecap:square;stroke-linejoin:miter;stroke-width:0.8;"/>
   </g>
   <g id="patch_7">
    <path d="M 266.210526 441 
L 266.210526 60.48 
" style="fill:none;stroke:#808080;stroke-linecap:square;stroke-linejoin:miter;stroke-width:0.8;"/>
   </g>
   <g id="patch_8">
    <path d="M 90 441 
L 266.210526 441 
" style="fill:none;stroke:#808080;stroke-linecap:square;stroke-linejoin:miter;stroke-width:0.8;"/>
   </g>
   <g id="patch_9">
    <path d="M 90 60.48 
L 266.210526 60.48 
" style="fill:none;stroke:#808080;stroke-linecap:square;stroke-linejoin:miter;stroke-width:0.8;"/>
   </g>
   <g id="PathCollection_1">
    <defs>
     <path d="M 0 3 
C 0.795609 3 1.55874 2.683901 2.12132 2.12132 
C 2.683901 1.55874 3 0.795609 3 0 
C 3 -0.795609 2.683901 -1.55874 2.12132 -2.12132 
C 1.55874 -2.683901 0.795609 -3 0 -3 
C -0.795609 -3 -1.55874 -2.683901 -2.12132 -2.12132 
C -2.683901 -1.55874 -3 -0.795609 -3 0 
C -3 0.795609 -2.683901 1.55874 -2.12132 2.12132 
C -1.55874 2.683901 -0.795609 3 0 3 
z
" id="m6bf597f1f6" style="stroke:#000000;"/>
    </defs>
    <g clip-path="url(#p3679c12f34)">
     <use style="stroke:#000000;" x="134.052632" xlink:href="#m6bf597f1f6" y="183.805536"/>
     <use style="stroke:#000000;" x="134.052632" xlink:href="#m6bf597f1f6" y="248.442441"/>
     <use style="stroke:#000000;" x="134.052632" xlink:href="#m6bf597f1f6" y="208.975186"/>
    </g>
   </g>
   <g id="PathCollection_2">
    <g clip-path="url(#p3679c12f34)">
     <use style="stroke:#000000;" x="192.789474" xlink:href="#m6bf597f1f6" y="192.332146"/>
     <use style="stroke:#000000;" x="192.789474" xlink:href="#m6bf597f1f6" y="177.812819"/>
     <use style="stroke:#000000;" x="192.789474" xlink:href="#m6bf597f1f6" y="202.104129"/>
    </g>
   </g>
   <g id="PathCollection_3">
    <g clip-path="url(#p3679c12f34)">
     <use style="stroke:#000000;" x="251.526316" xlink:href="#m6bf597f1f6" y="242.2318"/>
     <use style="stroke:#000000;" x="251.526316" xlink:href="#m6bf597f1f6" y="280.8718"/>
     <use style="stroke:#000000;" x="251.526316" xlink:href="#m6bf597f1f6" y="273.529858"/>
    </g>
   </g>
  </g>
  <g id="axes_2">
   <g id="patch_10">
    <path d="M 266.210526 441 
L 383.684211 441 
L 383.684211 60.48 
L 266.210526 60.48 
z
" style="fill:none;"/>
   </g>
   <g id="LineCollection_2">
    <path clip-path="url(#p961d5cf488)" d="M 266.210526 265.544486 
L 413.052632 265.544486 
" style="fill:none;stroke:#808080;stroke-width:1.5;"/>
   </g>
   <g id="patch_11">
    <path clip-path="url(#p961d5cf488)" d="M 272.084211 265.544486 
L 319.073684 265.544486 
L 319.073684 101.392777 
L 272.084211 101.392777 
z
" style="fill:#f3cfb6;"/>
   </g>
   <g id="patch_12">
    <path clip-path="url(#p961d5cf488)" d="M 330.821053 265.544486 
L 377.810526 265.544486 
L 377.810526 265.544486 
L 330.821053 265.544486 
z
" style="fill:#f3cfb6;"/>
   </g>
   <g id="matplotlib.axis_3">
    <g id="xtick_4">
     <g id="line2d_15">
      <g>
       <use style="fill:#808080;stroke:#808080;stroke-width:0.8;" x="295.578947" xlink:href="#m0ffaf76def" y="441"/>
      </g>
     </g>
     <g id="text_13">
      <!-- Biofilm -->
      <g transform="translate(268.432676 479.533427)rotate(-45)scale(0.12 -0.12)">
       <defs>
        <path d="M 8.6875 0 
L 8.6875 45.015625 
L 0.921875 45.015625 
L 0.921875 51.859375 
L 8.6875 51.859375 
L 8.6875 57.375 
Q 8.6875 62.59375 9.625 65.140625 
Q 10.890625 68.5625 14.078125 70.671875 
Q 17.28125 72.796875 23.046875 72.796875 
Q 26.765625 72.796875 31.25 71.921875 
L 29.9375 64.265625 
Q 27.203125 64.75 24.75 64.75 
Q 20.75 64.75 19.09375 63.03125 
Q 17.4375 61.328125 17.4375 56.640625 
L 17.4375 51.859375 
L 27.546875 51.859375 
L 27.546875 45.015625 
L 17.4375 45.015625 
L 17.4375 0 
z
" id="ArialMT-102"/>
        <path d="M 6.59375 0 
L 6.59375 51.859375 
L 14.453125 51.859375 
L 14.453125 44.578125 
Q 16.890625 48.390625 20.9375 50.703125 
Q 25 53.03125 30.171875 53.03125 
Q 35.9375 53.03125 39.625 50.640625 
Q 43.3125 48.25 44.828125 43.953125 
Q 50.984375 53.03125 60.84375 53.03125 
Q 68.5625 53.03125 72.703125 48.75 
Q 76.859375 44.484375 76.859375 35.59375 
L 76.859375 0 
L 68.109375 0 
L 68.109375 32.671875 
Q 68.109375 37.9375 67.25 40.25 
Q 66.40625 42.578125 64.15625 43.984375 
Q 61.921875 45.40625 58.890625 45.40625 
Q 53.421875 45.40625 49.796875 41.765625 
Q 46.1875 38.140625 46.1875 30.125 
L 46.1875 0 
L 37.40625 0 
L 37.40625 33.6875 
Q 37.40625 39.546875 35.25 42.46875 
Q 33.109375 45.40625 28.21875 45.40625 
Q 24.515625 45.40625 21.359375 43.453125 
Q 18.21875 41.5 16.796875 37.734375 
Q 15.375 33.984375 15.375 26.90625 
L 15.375 0 
z
" id="ArialMT-109"/>
       </defs>
       <use xlink:href="#ArialMT-66"/>
       <use x="66.699219" xlink:href="#ArialMT-105"/>
       <use x="88.916016" xlink:href="#ArialMT-111"/>
       <use x="144.53125" xlink:href="#ArialMT-102"/>
       <use x="172.314453" xlink:href="#ArialMT-105"/>
       <use x="194.53125" xlink:href="#ArialMT-108"/>
       <use x="216.748047" xlink:href="#ArialMT-109"/>
      </g>
     </g>
    </g>
    <g id="xtick_5">
     <g id="line2d_16">
      <g>
       <use style="fill:#808080;stroke:#808080;stroke-width:0.8;" x="354.315789" xlink:href="#m0ffaf76def" y="441"/>
      </g>
     </g>
     <g id="text_14">
      <!-- Planktonic -->
      <g transform="translate(313.481699 493.221246)rotate(-45)scale(0.12 -0.12)">
       <defs>
        <path d="M 7.71875 0 
L 7.71875 71.578125 
L 34.71875 71.578125 
Q 41.84375 71.578125 45.609375 70.90625 
Q 50.875 70.015625 54.4375 67.546875 
Q 58.015625 65.09375 60.1875 60.640625 
Q 62.359375 56.203125 62.359375 50.875 
Q 62.359375 41.75 56.546875 35.421875 
Q 50.734375 29.109375 35.546875 29.109375 
L 17.1875 29.109375 
L 17.1875 0 
z
M 17.1875 37.546875 
L 35.6875 37.546875 
Q 44.875 37.546875 48.734375 40.96875 
Q 52.59375 44.390625 52.59375 50.59375 
Q 52.59375 55.078125 50.3125 58.265625 
Q 48.046875 61.46875 44.34375 62.5 
Q 41.9375 63.140625 35.5 63.140625 
L 17.1875 63.140625 
z
" id="ArialMT-80"/>
        <path d="M 40.4375 6.390625 
Q 35.546875 2.25 31.03125 0.53125 
Q 26.515625 -1.171875 21.34375 -1.171875 
Q 12.796875 -1.171875 8.203125 3 
Q 3.609375 7.171875 3.609375 13.671875 
Q 3.609375 17.484375 5.34375 20.625 
Q 7.078125 23.78125 9.890625 25.6875 
Q 12.703125 27.59375 16.21875 28.5625 
Q 18.796875 29.25 24.03125 29.890625 
Q 34.671875 31.15625 39.703125 32.90625 
Q 39.75 34.71875 39.75 35.203125 
Q 39.75 40.578125 37.25 42.78125 
Q 33.890625 45.75 27.25 45.75 
Q 21.046875 45.75 18.09375 43.578125 
Q 15.140625 41.40625 13.71875 35.890625 
L 5.125 37.0625 
Q 6.296875 42.578125 8.984375 45.96875 
Q 11.671875 49.359375 16.75 51.1875 
Q 21.828125 53.03125 28.515625 53.03125 
Q 35.15625 53.03125 39.296875 51.46875 
Q 43.453125 49.90625 45.40625 47.53125 
Q 47.359375 45.171875 48.140625 41.546875 
Q 48.578125 39.3125 48.578125 33.453125 
L 48.578125 21.734375 
Q 48.578125 9.46875 49.140625 6.21875 
Q 49.703125 2.984375 51.375 0 
L 42.1875 0 
Q 40.828125 2.734375 40.4375 6.390625 
z
M 39.703125 26.03125 
Q 34.90625 24.078125 25.34375 22.703125 
Q 19.921875 21.921875 17.671875 20.9375 
Q 15.4375 19.96875 14.203125 18.09375 
Q 12.984375 16.21875 12.984375 13.921875 
Q 12.984375 10.40625 15.640625 8.0625 
Q 18.3125 5.71875 23.4375 5.71875 
Q 28.515625 5.71875 32.46875 7.9375 
Q 36.421875 10.15625 38.28125 14.015625 
Q 39.703125 17 39.703125 22.796875 
z
" id="ArialMT-97"/>
        <path d="M 6.640625 0 
L 6.640625 71.578125 
L 15.4375 71.578125 
L 15.4375 30.765625 
L 36.234375 51.859375 
L 47.609375 51.859375 
L 27.78125 32.625 
L 49.609375 0 
L 38.765625 0 
L 21.625 26.515625 
L 15.4375 20.5625 
L 15.4375 0 
z
" id="ArialMT-107"/>
       </defs>
       <use xlink:href="#ArialMT-80"/>
       <use x="66.699219" xlink:href="#ArialMT-108"/>
       <use x="88.916016" xlink:href="#ArialMT-97"/>
       <use x="144.53125" xlink:href="#ArialMT-110"/>
       <use x="200.146484" xlink:href="#ArialMT-107"/>
       <use x="250.146484" xlink:href="#ArialMT-116"/>
       <use x="277.929688" xlink:href="#ArialMT-111"/>
       <use x="333.544922" xlink:href="#ArialMT-110"/>
       <use x="389.160156" xlink:href="#ArialMT-105"/>
       <use x="411.376953" xlink:href="#ArialMT-99"/>
      </g>
     </g>
    </g>
   </g>
   <g id="matplotlib.axis_4">
    <g id="ytick_9"/>
    <g id="ytick_10"/>
    <g id="ytick_11"/>
    <g id="ytick_12"/>
    <g id="ytick_13"/>
    <g id="ytick_14"/>
    <g id="ytick_15"/>
    <g id="ytick_16"/>
   </g>
   <g id="line2d_17">
    <path clip-path="url(#p961d5cf488)" d="M 0 0 
" style="fill:none;stroke:#424242;stroke-linecap:square;stroke-width:2.7;"/>
   </g>
   <g id="line2d_18">
    <path clip-path="url(#p961d5cf488)" d="M 0 0 
" style="fill:none;stroke:#424242;stroke-linecap:square;stroke-width:2.7;"/>
   </g>
   <g id="patch_13">
    <path d="M 266.210526 441 
L 266.210526 60.48 
" style="fill:none;stroke:#808080;stroke-linecap:square;stroke-linejoin:miter;stroke-width:0.8;"/>
   </g>
   <g id="patch_14">
    <path d="M 383.684211 441 
L 383.684211 60.48 
" style="fill:none;stroke:#808080;stroke-linecap:square;stroke-linejoin:miter;stroke-width:0.8;"/>
   </g>
   <g id="patch_15">
    <path d="M 266.210526 441 
L 383.684211 441 
" style="fill:none;stroke:#808080;stroke-linecap:square;stroke-linejoin:miter;stroke-width:0.8;"/>
   </g>
   <g id="patch_16">
    <path d="M 266.210526 60.48 
L 383.684211 60.48 
" style="fill:none;stroke:#808080;stroke-linecap:square;stroke-linejoin:miter;stroke-width:0.8;"/>
   </g>
   <g id="PathCollection_4">
    <g clip-path="url(#p961d5cf488)">
     <use style="stroke:#000000;" x="295.578947" xlink:href="#m6bf597f1f6" y="95.463221"/>
     <use style="stroke:#000000;" x="295.578947" xlink:href="#m6bf597f1f6" y="98.740368"/>
     <use style="stroke:#000000;" x="295.578947" xlink:href="#m6bf597f1f6" y="109.974743"/>
    </g>
   </g>
   <g id="PathCollection_5">
    <g clip-path="url(#p961d5cf488)">
     <use style="stroke:#000000;" x="354.315789" xlink:href="#m6bf597f1f6" y="219.284576"/>
     <use style="stroke:#000000;" x="354.315789" xlink:href="#m6bf597f1f6" y="279.126628"/>
     <use style="stroke:#000000;" x="354.315789" xlink:href="#m6bf597f1f6" y="298.222254"/>
    </g>
   </g>
  </g>
  <g id="axes_3">
   <g id="patch_17">
    <path d="M 383.684211 441 
L 501.157895 441 
L 501.157895 60.48 
L 383.684211 60.48 
z
" style="fill:none;"/>
   </g>
   <g id="LineCollection_3">
    <path clip-path="url(#p664dd4bde2)" d="M 383.684211 265.544486 
L 530.526316 265.544486 
" style="fill:none;stroke:#808080;stroke-width:1.5;"/>
   </g>
   <g id="patch_18">
    <path clip-path="url(#p664dd4bde2)" d="M 389.557895 265.544486 
L 436.547368 265.544486 
L 436.547368 265.544486 
L 389.557895 265.544486 
z
" style="fill:#cfd6e4;"/>
   </g>
   <g id="patch_19">
    <path clip-path="url(#p664dd4bde2)" d="M 448.294737 265.544486 
L 495.284211 265.544486 
L 495.284211 198.903981 
L 448.294737 198.903981 
z
" style="fill:#cfd6e4;"/>
   </g>
   <g id="matplotlib.axis_5">
    <g id="xtick_6">
     <g id="line2d_19">
      <g>
       <use style="fill:#808080;stroke:#808080;stroke-width:0.8;" x="413.052632" xlink:href="#m0ffaf76def" y="441"/>
      </g>
     </g>
     <g id="text_15">
      <!-- WT -->
      <g transform="translate(398.174221 467.265566)rotate(-45)scale(0.12 -0.12)">
       <use xlink:href="#ArialMT-87"/>
       <use x="94.384766" xlink:href="#ArialMT-84"/>
      </g>
     </g>
    </g>
    <g id="xtick_7">
     <g id="line2d_20">
      <g>
       <use style="fill:#808080;stroke:#808080;stroke-width:0.8;" x="471.789474" xlink:href="#m0ffaf76def" y="441"/>
      </g>
     </g>
     <g id="text_16">
      <!-- vacJ::tn -->
      <g transform="translate(440.865926 483.310703)rotate(-45)scale(0.12 -0.12)">
       <defs>
        <path d="M 2.875 20.3125 
L 11.421875 21.484375 
Q 11.765625 13.28125 14.5 10.25 
Q 17.234375 7.234375 22.078125 7.234375 
Q 25.640625 7.234375 28.21875 8.859375 
Q 30.8125 10.5 31.78125 13.296875 
Q 32.765625 16.109375 32.765625 22.265625 
L 32.765625 71.578125 
L 42.234375 71.578125 
L 42.234375 22.796875 
Q 42.234375 13.8125 40.0625 8.875 
Q 37.890625 3.953125 33.171875 1.359375 
Q 28.46875 -1.21875 22.125 -1.21875 
Q 12.703125 -1.21875 7.6875 4.203125 
Q 2.6875 9.625 2.875 20.3125 
z
" id="ArialMT-74"/>
        <path d="M 9.03125 41.84375 
L 9.03125 51.859375 
L 19.046875 51.859375 
L 19.046875 41.84375 
z
M 9.03125 0 
L 9.03125 10.015625 
L 19.046875 10.015625 
L 19.046875 0 
z
" id="ArialMT-58"/>
       </defs>
       <use xlink:href="#ArialMT-118"/>
       <use x="50" xlink:href="#ArialMT-97"/>
       <use x="105.615234" xlink:href="#ArialMT-99"/>
       <use x="155.615234" xlink:href="#ArialMT-74"/>
       <use x="205.615234" xlink:href="#ArialMT-58"/>
       <use x="233.398438" xlink:href="#ArialMT-58"/>
       <use x="261.181641" xlink:href="#ArialMT-116"/>
       <use x="288.964844" xlink:href="#ArialMT-110"/>
      </g>
     </g>
    </g>
   </g>
   <g id="matplotlib.axis_6">
    <g id="ytick_17"/>
    <g id="ytick_18"/>
    <g id="ytick_19"/>
    <g id="ytick_20"/>
    <g id="ytick_21"/>
    <g id="ytick_22"/>
    <g id="ytick_23"/>
    <g id="ytick_24"/>
   </g>
   <g id="line2d_21">
    <path clip-path="url(#p664dd4bde2)" d="M 0 0 
" style="fill:none;stroke:#424242;stroke-linecap:square;stroke-width:2.7;"/>
   </g>
   <g id="line2d_22">
    <path clip-path="url(#p664dd4bde2)" d="M 0 0 
" style="fill:none;stroke:#424242;stroke-linecap:square;stroke-width:2.7;"/>
   </g>
   <g id="patch_20">
    <path d="M 383.684211 441 
L 383.684211 60.48 
" style="fill:none;stroke:#808080;stroke-linecap:square;stroke-linejoin:miter;stroke-width:0.8;"/>
   </g>
   <g id="patch_21">
    <path d="M 501.157895 441 
L 501.157895 60.48 
" style="fill:none;stroke:#808080;stroke-linecap:square;stroke-linejoin:miter;stroke-width:0.8;"/>
   </g>
   <g id="patch_22">
    <path d="M 383.684211 441 
L 501.157895 441 
" style="fill:none;stroke:#808080;stroke-linecap:square;stroke-linejoin:miter;stroke-width:0.8;"/>
   </g>
   <g id="patch_23">
    <path d="M 383.684211 60.48 
L 501.157895 60.48 
" style="fill:none;stroke:#808080;stroke-linecap:square;stroke-linejoin:miter;stroke-width:0.8;"/>
   </g>
   <g id="PathCollection_6">
    <g clip-path="url(#p664dd4bde2)">
     <use style="stroke:#000000;" x="413.052632" xlink:href="#m6bf597f1f6" y="262.236"/>
     <use style="stroke:#000000;" x="413.052632" xlink:href="#m6bf597f1f6" y="268.852971"/>
    </g>
   </g>
   <g id="PathCollection_7">
    <g clip-path="url(#p664dd4bde2)">
     <use style="stroke:#000000;" x="471.789474" xlink:href="#m6bf597f1f6" y="217.557343"/>
     <use style="stroke:#000000;" x="471.789474" xlink:href="#m6bf597f1f6" y="180.25062"/>
    </g>
   </g>
  </g>
  <g id="axes_4">
   <g id="patch_24">
    <path d="M 501.157895 441 
L 618.631579 441 
L 618.631579 60.48 
L 501.157895 60.48 
z
" style="fill:none;"/>
   </g>
   <g id="LineCollection_4">
    <path clip-path="url(#p02f7425317)" d="M 501.157895 265.544486 
L 648 265.544486 
" style="fill:none;stroke:#808080;stroke-width:1.5;"/>
   </g>
   <g id="patch_25">
    <path clip-path="url(#p02f7425317)" d="M 507.031579 265.544486 
L 554.021053 265.544486 
L 554.021053 265.544486 
L 507.031579 265.544486 
z
" style="fill:#efcfe3;"/>
   </g>
   <g id="patch_26">
    <path clip-path="url(#p02f7425317)" d="M 565.768421 265.544486 
L 612.757895 265.544486 
L 612.757895 133.11275 
L 565.768421 133.11275 
z
" style="fill:#efcfe3;"/>
   </g>
   <g id="matplotlib.axis_7">
    <g id="xtick_8">
     <g id="line2d_23">
      <g>
       <use style="fill:#808080;stroke:#808080;stroke-width:0.8;" x="530.526316" xlink:href="#m0ffaf76def" y="441"/>
      </g>
     </g>
     <g id="text_17">
      <!-- Untreated -->
      <g transform="translate(491.578874 491.334597)rotate(-45)scale(0.12 -0.12)">
       <use xlink:href="#ArialMT-85"/>
       <use x="72.216797" xlink:href="#ArialMT-110"/>
       <use x="127.832031" xlink:href="#ArialMT-116"/>
       <use x="155.615234" xlink:href="#ArialMT-114"/>
       <use x="188.916016" xlink:href="#ArialMT-101"/>
       <use x="244.53125" xlink:href="#ArialMT-97"/>
       <use x="300.146484" xlink:href="#ArialMT-116"/>
       <use x="327.929688" xlink:href="#ArialMT-101"/>
       <use x="383.544922" xlink:href="#ArialMT-100"/>
      </g>
     </g>
    </g>
    <g id="xtick_9">
     <g id="line2d_24">
      <g>
       <use style="fill:#808080;stroke:#808080;stroke-width:0.8;" x="589.263158" xlink:href="#m0ffaf76def" y="441"/>
      </g>
     </g>
     <g id="text_18">
      <!-- Azithromycin -->
      <g transform="translate(538.912294 502.638583)rotate(-45)scale(0.12 -0.12)">
       <defs>
        <path d="M 1.953125 0 
L 1.953125 7.125 
L 34.96875 45.015625 
Q 29.34375 44.734375 25.046875 44.734375 
L 3.90625 44.734375 
L 3.90625 51.859375 
L 46.296875 51.859375 
L 46.296875 46.046875 
L 18.21875 13.140625 
L 12.796875 7.125 
Q 18.703125 7.5625 23.875 7.5625 
L 47.859375 7.5625 
L 47.859375 0 
z
" id="ArialMT-122"/>
        <path d="M 6.59375 0 
L 6.59375 71.578125 
L 15.375 71.578125 
L 15.375 45.90625 
Q 21.53125 53.03125 30.90625 53.03125 
Q 36.671875 53.03125 40.921875 50.75 
Q 45.171875 48.484375 47 44.484375 
Q 48.828125 40.484375 48.828125 32.859375 
L 48.828125 0 
L 40.046875 0 
L 40.046875 32.859375 
Q 40.046875 39.453125 37.1875 42.453125 
Q 34.328125 45.453125 29.109375 45.453125 
Q 25.203125 45.453125 21.75 43.421875 
Q 18.3125 41.40625 16.84375 37.9375 
Q 15.375 34.46875 15.375 28.375 
L 15.375 0 
z
" id="ArialMT-104"/>
       </defs>
       <use xlink:href="#ArialMT-65"/>
       <use x="66.699219" xlink:href="#ArialMT-122"/>
       <use x="116.699219" xlink:href="#ArialMT-105"/>
       <use x="138.916016" xlink:href="#ArialMT-116"/>
       <use x="166.699219" xlink:href="#ArialMT-104"/>
       <use x="222.314453" xlink:href="#ArialMT-114"/>
       <use x="255.615234" xlink:href="#ArialMT-111"/>
       <use x="311.230469" xlink:href="#ArialMT-109"/>
       <use x="394.53125" xlink:href="#ArialMT-121"/>
       <use x="444.53125" xlink:href="#ArialMT-99"/>
       <use x="494.53125" xlink:href="#ArialMT-105"/>
       <use x="516.748047" xlink:href="#ArialMT-110"/>
      </g>
     </g>
    </g>
   </g>
   <g id="matplotlib.axis_8">
    <g id="ytick_25"/>
    <g id="ytick_26"/>
    <g id="ytick_27"/>
    <g id="ytick_28"/>
    <g id="ytick_29"/>
    <g id="ytick_30"/>
    <g id="ytick_31"/>
    <g id="ytick_32"/>
   </g>
   <g id="line2d_25">
    <path clip-path="url(#p02f7425317)" d="M 0 0 
" style="fill:none;stroke:#424242;stroke-linecap:square;stroke-width:2.7;"/>
   </g>
   <g id="line2d_26">
    <path clip-path="url(#p02f7425317)" d="M 0 0 
" style="fill:none;stroke:#424242;stroke-linecap:square;stroke-width:2.7;"/>
   </g>
   <g id="patch_27">
    <path d="M 501.157895 441 
L 501.157895 60.48 
" style="fill:none;stroke:#808080;stroke-linecap:square;stroke-linejoin:miter;stroke-width:0.8;"/>
   </g>
   <g id="patch_28">
    <path d="M 618.631579 441 
L 618.631579 60.48 
" style="fill:none;stroke:#808080;stroke-linecap:square;stroke-linejoin:miter;stroke-width:0.8;"/>
   </g>
   <g id="patch_29">
    <path d="M 501.157895 441 
L 618.631579 441 
" style="fill:none;stroke:#808080;stroke-linecap:square;stroke-linejoin:miter;stroke-width:0.8;"/>
   </g>
   <g id="patch_30">
    <path d="M 501.157895 60.48 
L 618.631579 60.48 
" style="fill:none;stroke:#808080;stroke-linecap:square;stroke-linejoin:miter;stroke-width:0.8;"/>
   </g>
   <g id="PathCollection_8">
    <g clip-path="url(#p02f7425317)">
     <use style="stroke:#000000;" x="530.526316" xlink:href="#m6bf597f1f6" y="270.270939"/>
     <use style="stroke:#000000;" x="530.526316" xlink:href="#m6bf597f1f6" y="260.818032"/>
    </g>
   </g>
   <g id="PathCollection_9">
    <g clip-path="url(#p02f7425317)">
     <use style="stroke:#000000;" x="589.263158" xlink:href="#m6bf597f1f6" y="128.503295"/>
     <use style="stroke:#000000;" x="589.263158" xlink:href="#m6bf597f1f6" y="137.722204"/>
    </g>
   </g>
  </g>
  <g id="axes_5">
   <g id="patch_31">
    <path d="M 618.631579 441 
L 648 441 
L 648 60.48 
L 618.631579 60.48 
z
" style="fill:none;"/>
   </g>
   <g id="LineCollection_5">
    <path clip-path="url(#p35c08eaa05)" d="M 574.578947 265.544486 
L 692.052632 265.544486 
" style="fill:none;stroke:#808080;stroke-width:1.5;"/>
   </g>
   <g id="PolyCollection_1">
    <defs>
     <path d="M 633.346678 -80.296364 
L 633.284901 -80.296364 
L 633.271634 -83.790579 
L 633.254372 -87.284793 
L 633.232554 -90.779008 
L 633.205689 -94.273223 
L 633.173345 -97.767438 
L 633.135085 -101.261653 
L 633.090363 -104.755868 
L 633.038387 -108.250083 
L 632.978001 -111.744298 
L 632.907608 -115.238512 
L 632.82521 -118.732727 
L 632.728563 -122.226942 
L 632.615465 -125.721157 
L 632.484122 -129.215372 
L 632.333514 -132.709587 
L 632.16364 -136.203802 
L 631.975575 -139.698017 
L 631.771248 -143.192231 
L 631.552973 -146.686446 
L 631.322809 -150.180661 
L 631.081888 -153.674876 
L 630.829896 -157.169091 
L 630.564842 -160.663306 
L 630.283229 -164.157521 
L 629.980582 -167.651736 
L 629.652252 -171.14595 
L 629.294301 -174.640165 
L 628.904255 -178.13438 
L 628.481565 -181.628595 
L 628.027669 -185.12281 
L 627.545676 -188.617025 
L 627.03981 -192.11124 
L 626.514787 -195.605455 
L 625.975389 -199.099669 
L 625.426383 -202.593884 
L 624.872898 -206.088099 
L 624.321194 -209.582314 
L 623.779637 -213.076529 
L 623.259593 -216.570744 
L 622.775888 -220.064959 
L 622.346579 -223.559174 
L 621.991887 -227.053388 
L 621.732358 -230.547603 
L 621.586515 -234.041818 
L 621.568421 -237.536033 
L 621.685606 -241.030248 
L 621.937767 -244.524463 
L 622.316498 -248.018678 
L 622.806058 -251.512893 
L 623.385034 -255.007107 
L 624.028563 -258.501322 
L 624.710728 -261.995537 
L 625.406781 -265.489752 
L 626.094927 -268.983967 
L 626.757518 -272.478182 
L 627.381649 -275.972397 
L 627.959209 -279.466612 
L 628.486504 -282.960826 
L 628.963583 -286.455041 
L 629.393375 -289.949256 
L 629.780751 -293.443471 
L 630.131597 -296.937686 
L 630.451972 -300.431901 
L 630.747405 -303.926116 
L 631.022388 -307.420331 
L 631.280074 -310.914545 
L 631.522169 -314.40876 
L 631.748994 -317.902975 
L 631.959669 -321.39719 
L 632.15235 -324.891405 
L 632.324512 -328.38562 
L 632.473222 -331.879835 
L 632.595418 -335.37405 
L 632.688206 -338.868264 
L 632.749185 -342.362479 
L 632.776817 -345.856694 
L 632.770831 -349.350909 
L 632.732621 -352.845124 
L 632.665584 -356.339339 
L 632.575289 -359.833554 
L 632.46942 -363.327769 
L 632.357397 -366.821983 
L 632.249687 -370.316198 
L 632.156837 -373.810413 
L 632.088347 -377.304628 
L 632.05158 -380.798843 
L 632.050877 -384.293058 
L 632.087061 -387.787273 
L 632.157431 -391.281488 
L 632.256239 -394.775702 
L 632.375577 -398.269917 
L 632.506487 -401.764132 
L 632.64011 -405.258347 
L 632.768665 -408.752562 
L 632.886131 -412.246777 
L 632.98858 -415.740992 
L 633.074146 -419.235207 
L 633.14275 -422.729421 
L 633.195641 -426.223636 
L 633.435937 -426.223636 
L 633.435937 -426.223636 
L 633.488829 -422.729421 
L 633.557433 -419.235207 
L 633.642999 -415.740992 
L 633.745447 -412.246777 
L 633.862914 -408.752562 
L 633.991469 -405.258347 
L 634.125092 -401.764132 
L 634.256002 -398.269917 
L 634.37534 -394.775702 
L 634.474148 -391.281488 
L 634.544518 -387.787273 
L 634.580702 -384.293058 
L 634.579999 -380.798843 
L 634.543232 -377.304628 
L 634.474742 -373.810413 
L 634.381891 -370.316198 
L 634.274182 -366.821983 
L 634.162159 -363.327769 
L 634.05629 -359.833554 
L 633.965995 -356.339339 
L 633.898958 -352.845124 
L 633.860748 -349.350909 
L 633.854762 -345.856694 
L 633.882394 -342.362479 
L 633.943372 -338.868264 
L 634.036161 -335.37405 
L 634.158357 -331.879835 
L 634.307067 -328.38562 
L 634.479229 -324.891405 
L 634.67191 -321.39719 
L 634.882584 -317.902975 
L 635.10941 -314.40876 
L 635.351505 -310.914545 
L 635.609191 -307.420331 
L 635.884174 -303.926116 
L 636.179607 -300.431901 
L 636.499982 -296.937686 
L 636.850828 -293.443471 
L 637.238204 -289.949256 
L 637.667995 -286.455041 
L 638.145075 -282.960826 
L 638.67237 -279.466612 
L 639.24993 -275.972397 
L 639.874061 -272.478182 
L 640.536652 -268.983967 
L 641.224798 -265.489752 
L 641.920851 -261.995537 
L 642.603016 -258.501322 
L 643.246545 -255.007107 
L 643.825521 -251.512893 
L 644.315081 -248.018678 
L 644.693812 -244.524463 
L 644.945973 -241.030248 
L 645.063158 -237.536033 
L 645.045064 -234.041818 
L 644.899221 -230.547603 
L 644.639692 -227.053388 
L 644.285 -223.559174 
L 643.855691 -220.064959 
L 643.371986 -216.570744 
L 642.851942 -213.076529 
L 642.310385 -209.582314 
L 641.75868 -206.088099 
L 641.205196 -202.593884 
L 640.65619 -199.099669 
L 640.116792 -195.605455 
L 639.591769 -192.11124 
L 639.085903 -188.617025 
L 638.60391 -185.12281 
L 638.150014 -181.628595 
L 637.727324 -178.13438 
L 637.337278 -174.640165 
L 636.979327 -171.14595 
L 636.650997 -167.651736 
L 636.34835 -164.157521 
L 636.066737 -160.663306 
L 635.801683 -157.169091 
L 635.54969 -153.674876 
L 635.30877 -150.180661 
L 635.078606 -146.686446 
L 634.860331 -143.192231 
L 634.656004 -139.698017 
L 634.467939 -136.203802 
L 634.298065 -132.709587 
L 634.147456 -129.215372 
L 634.016114 -125.721157 
L 633.903016 -122.226942 
L 633.806369 -118.732727 
L 633.723971 -115.238512 
L 633.653578 -111.744298 
L 633.593192 -108.250083 
L 633.541216 -104.755868 
L 633.496494 -101.261653 
L 633.458234 -97.767438 
L 633.42589 -94.273223 
L 633.399025 -90.779008 
L 633.377206 -87.284793 
L 633.359945 -83.790579 
L 633.346678 -80.296364 
z
" id="m0c46079a90" style="stroke:#848484;stroke-width:1.5;"/>
    </defs>
    <g clip-path="url(#p35c08eaa05)">
     <use style="fill:#edeacc;stroke:#848484;stroke-width:1.5;" x="0" xlink:href="#m0c46079a90" y="504"/>
    </g>
   </g>
   <g id="matplotlib.axis_9">
    <g id="xtick_10">
     <g id="line2d_27">
      <g>
       <use style="fill:#808080;stroke:#808080;stroke-width:0.8;" x="633.315789" xlink:href="#m0ffaf76def" y="441"/>
      </g>
     </g>
     <g id="text_19">
      <!-- Other(116) -->
      <g transform="translate(591.129357 494.582869)rotate(-45)scale(0.12 -0.12)">
       <defs>
        <path d="M 23.390625 -21.046875 
Q 16.109375 -11.859375 11.078125 0.4375 
Q 6.0625 12.75 6.0625 25.921875 
Q 6.0625 37.546875 9.8125 48.1875 
Q 14.203125 60.546875 23.390625 72.796875 
L 29.6875 72.796875 
Q 23.78125 62.640625 21.875 58.296875 
Q 18.890625 51.5625 17.1875 44.234375 
Q 15.09375 35.109375 15.09375 25.875 
Q 15.09375 2.390625 29.6875 -21.046875 
z
" id="ArialMT-40"/>
        <path d="M 12.359375 -21.046875 
L 6.0625 -21.046875 
Q 20.65625 2.390625 20.65625 25.875 
Q 20.65625 35.0625 18.5625 44.09375 
Q 16.890625 51.421875 13.921875 58.15625 
Q 12.015625 62.546875 6.0625 72.796875 
L 12.359375 72.796875 
Q 21.53125 60.546875 25.921875 48.1875 
Q 29.6875 37.546875 29.6875 25.921875 
Q 29.6875 12.75 24.625 0.4375 
Q 19.578125 -11.859375 12.359375 -21.046875 
z
" id="ArialMT-41"/>
       </defs>
       <use xlink:href="#ArialMT-79"/>
       <use x="77.783203" xlink:href="#ArialMT-116"/>
       <use x="105.566406" xlink:href="#ArialMT-104"/>
       <use x="161.181641" xlink:href="#ArialMT-101"/>
       <use x="216.796875" xlink:href="#ArialMT-114"/>
       <use x="250.097656" xlink:href="#ArialMT-40"/>
       <use x="283.398438" xlink:href="#ArialMT-49"/>
       <use x="331.638672" xlink:href="#ArialMT-49"/>
       <use x="387.253906" xlink:href="#ArialMT-54"/>
       <use x="442.869141" xlink:href="#ArialMT-41"/>
      </g>
     </g>
    </g>
   </g>
   <g id="matplotlib.axis_10">
    <g id="ytick_33"/>
    <g id="ytick_34"/>
    <g id="ytick_35"/>
    <g id="ytick_36"/>
    <g id="ytick_37"/>
    <g id="ytick_38"/>
    <g id="ytick_39"/>
    <g id="ytick_40"/>
   </g>
   <g id="line2d_28">
    <path clip-path="url(#p35c08eaa05)" d="M 633.315789 360.22416 
L 633.315789 178.723633 
" style="fill:none;stroke:#848484;stroke-linecap:square;stroke-width:1.5;"/>
   </g>
   <g id="line2d_29">
    <path clip-path="url(#p35c08eaa05)" d="M 633.315789 295.043761 
L 633.315789 244.638743 
" style="fill:none;stroke:#848484;stroke-linecap:square;stroke-width:4.5;"/>
   </g>
   <g id="patch_32">
    <path d="M 618.631579 441 
L 618.631579 60.48 
" style="fill:none;stroke:#808080;stroke-linecap:square;stroke-linejoin:miter;stroke-width:0.8;"/>
   </g>
   <g id="patch_33">
    <path d="M 648 441 
L 648 60.48 
" style="fill:none;stroke:#808080;stroke-linecap:square;stroke-linejoin:miter;stroke-width:0.8;"/>
   </g>
   <g id="patch_34">
    <path d="M 618.631579 441 
L 648 441 
" style="fill:none;stroke:#808080;stroke-linecap:square;stroke-linejoin:miter;stroke-width:0.8;"/>
   </g>
   <g id="patch_35">
    <path d="M 618.631579 60.48 
L 648 60.48 
" style="fill:none;stroke:#808080;stroke-linecap:square;stroke-linejoin:miter;stroke-width:0.8;"/>
   </g>
   <g id="PathCollection_10">
    <defs>
     <path d="M 0 1.5 
C 0.397805 1.5 0.77937 1.341951 1.06066 1.06066 
C 1.341951 0.77937 1.5 0.397805 1.5 0 
C 1.5 -0.397805 1.341951 -0.77937 1.06066 -1.06066 
C 0.77937 -1.341951 0.397805 -1.5 0 -1.5 
C -0.397805 -1.5 -0.77937 -1.341951 -1.06066 -1.06066 
C -1.341951 -0.77937 -1.5 -0.397805 -1.5 0 
C -1.5 0.397805 -1.341951 0.77937 -1.06066 1.06066 
C -0.77937 1.341951 -0.397805 1.5 0 1.5 
z
" id="m84c413a7c2" style="stroke:#848484;"/>
    </defs>
    <g clip-path="url(#p35c08eaa05)">
     <use style="fill:#ffffff;stroke:#848484;" x="633.315789" xlink:href="#m84c413a7c2" y="266.759769"/>
    </g>
   </g>
  </g>
 </g>
 <defs>
  <clipPath id="p3679c12f34">
   <rect height="380.52" width="176.210526" x="90" y="60.48"/>
  </clipPath>
  <clipPath id="p961d5cf488">
   <rect height="380.52" width="117.473684" x="266.210526" y="60.48"/>
  </clipPath>
  <clipPath id="p664dd4bde2">
   <rect height="380.52" width="117.473684" x="383.684211" y="60.48"/>
  </clipPath>
  <clipPath id="p02f7425317">
   <rect height="380.52" width="117.473684" x="501.157895" y="60.48"/>
  </clipPath>
  <clipPath id="p35c08eaa05">
   <rect height="380.52" width="29.368421" x="618.631579" y="60.48"/>
  </clipPath>
 </defs>
</svg>
