<?xml version="1.0" encoding="utf-8" standalone="no"?>
<!DOCTYPE svg PUBLIC "-//W3C//DTD SVG 1.1//EN"
  "http://www.w3.org/Graphics/SVG/1.1/DTD/svg11.dtd">
<!-- Created with matplotlib (https://matplotlib.org/) -->
<svg height="288pt" version="1.1" viewBox="0 0 432 288" width="432pt" xmlns="http://www.w3.org/2000/svg" xmlns:xlink="http://www.w3.org/1999/xlink">
 <metadata>
  <rdf:RDF xmlns:cc="http://creativecommons.org/ns#" xmlns:dc="http://purl.org/dc/elements/1.1/" xmlns:rdf="http://www.w3.org/1999/02/22-rdf-syntax-ns#">
   <cc:Work>
    <dc:type rdf:resource="http://purl.org/dc/dcmitype/StillImage"/>
    <dc:date>2022-03-11T15:38:42.685129</dc:date>
    <dc:format>image/svg+xml</dc:format>
    <dc:creator>
     <cc:Agent>
      <dc:title>Matplotlib v3.3.4, https://matplotlib.org/</dc:title>
     </cc:Agent>
    </dc:creator>
   </cc:Work>
  </rdf:RDF>
 </metadata>
 <defs>
  <style type="text/css">*{stroke-linecap:butt;stroke-linejoin:round;}</style>
 </defs>
 <g id="figure_1">
  <g id="patch_1">
   <path d="M 0 288 
L 432 288 
L 432 0 
L 0 0 
z
" style="fill:none;"/>
  </g>
  <g id="axes_1">
   <g id="patch_2">
    <path d="M 54 252 
L 388.8 252 
L 388.8 34.56 
L 54 34.56 
z
" style="fill:none;"/>
   </g>
   <g id="PathCollection_1">
    <defs>
     <path d="M 0 3 
C 0.795609 3 1.55874 2.683901 2.12132 2.12132 
C 2.683901 1.55874 3 0.795609 3 0 
C 3 -0.795609 2.683901 -1.55874 2.12132 -2.12132 
C 1.55874 -2.683901 0.795609 -3 0 -3 
C -0.795609 -3 -1.55874 -2.683901 -2.12132 -2.12132 
C -2.683901 -1.55874 -3 -0.795609 -3 0 
C -3 0.795609 -2.683901 1.55874 -2.12132 2.12132 
C -1.55874 2.683901 -0.795609 3 0 3 
z
" id="m38df55fa46" style="stroke:#000000;"/>
    </defs>
    <g clip-path="url(#p32712eaa41)">
     <use style="stroke:#000000;" x="262.574029" xlink:href="#m38df55fa46" y="152.36157"/>
     <use style="stroke:#000000;" x="248.838201" xlink:href="#m38df55fa46" y="157.018022"/>
     <use style="stroke:#000000;" x="291.983068" xlink:href="#m38df55fa46" y="149.583959"/>
     <use style="stroke:#000000;" x="249.794346" xlink:href="#m38df55fa46" y="162.605063"/>
     <use style="stroke:#000000;" x="251.182729" xlink:href="#m38df55fa46" y="164.649077"/>
     <use style="stroke:#000000;" x="249.911757" xlink:href="#m38df55fa46" y="163.459464"/>
     <use style="stroke:#000000;" x="250.603481" xlink:href="#m38df55fa46" y="161.792089"/>
     <use style="stroke:#000000;" x="228.688306" xlink:href="#m38df55fa46" y="158.83652"/>
     <use style="stroke:#000000;" x="228.636209" xlink:href="#m38df55fa46" y="160.232351"/>
     <use style="stroke:#000000;" x="237.355979" xlink:href="#m38df55fa46" y="165.989271"/>
     <use style="stroke:#000000;" x="229.955227" xlink:href="#m38df55fa46" y="161.486827"/>
     <use style="stroke:#000000;" x="252.37499" xlink:href="#m38df55fa46" y="162.959748"/>
     <use style="stroke:#000000;" x="178.839697" xlink:href="#m38df55fa46" y="210.203709"/>
     <use style="stroke:#000000;" x="178.937302" xlink:href="#m38df55fa46" y="210.681866"/>
     <use style="stroke:#000000;" x="83.64456" xlink:href="#m38df55fa46" y="224.683201"/>
     <use style="stroke:#000000;" x="196.149535" xlink:href="#m38df55fa46" y="161.616531"/>
     <use style="stroke:#000000;" x="246.770616" xlink:href="#m38df55fa46" y="162.609291"/>
     <use style="stroke:#000000;" x="248.371167" xlink:href="#m38df55fa46" y="163.293098"/>
     <use style="stroke:#000000;" x="81.9" xlink:href="#m38df55fa46" y="233.88"/>
     <use style="stroke:#000000;" x="186.083812" xlink:href="#m38df55fa46" y="165.188434"/>
     <use style="stroke:#000000;" x="250.559107" xlink:href="#m38df55fa46" y="161.796215"/>
     <use style="stroke:#000000;" x="227.938683" xlink:href="#m38df55fa46" y="164.076245"/>
     <use style="stroke:#000000;" x="240.332115" xlink:href="#m38df55fa46" y="159.296971"/>
     <use style="stroke:#000000;" x="251.985073" xlink:href="#m38df55fa46" y="169.123765"/>
     <use style="stroke:#000000;" x="258.802048" xlink:href="#m38df55fa46" y="160.958534"/>
     <use style="stroke:#000000;" x="222.793012" xlink:href="#m38df55fa46" y="135.611381"/>
     <use style="stroke:#000000;" x="218.596851" xlink:href="#m38df55fa46" y="131.780875"/>
     <use style="stroke:#000000;" x="221.508821" xlink:href="#m38df55fa46" y="124.794709"/>
     <use style="stroke:#000000;" x="239.50698" xlink:href="#m38df55fa46" y="154.930497"/>
     <use style="stroke:#000000;" x="229.868187" xlink:href="#m38df55fa46" y="152.664601"/>
     <use style="stroke:#000000;" x="248.134842" xlink:href="#m38df55fa46" y="158.238582"/>
     <use style="stroke:#000000;" x="251.498202" xlink:href="#m38df55fa46" y="169.22712"/>
     <use style="stroke:#000000;" x="251.069761" xlink:href="#m38df55fa46" y="162.138551"/>
     <use style="stroke:#000000;" x="247.740556" xlink:href="#m38df55fa46" y="171.965182"/>
     <use style="stroke:#000000;" x="251.914633" xlink:href="#m38df55fa46" y="169.002136"/>
     <use style="stroke:#000000;" x="263.091263" xlink:href="#m38df55fa46" y="170.694351"/>
     <use style="stroke:#000000;" x="218.230114" xlink:href="#m38df55fa46" y="167.437202"/>
     <use style="stroke:#000000;" x="332.753418" xlink:href="#m38df55fa46" y="153.780007"/>
     <use style="stroke:#000000;" x="200.135704" xlink:href="#m38df55fa46" y="168.162061"/>
     <use style="stroke:#000000;" x="215.924729" xlink:href="#m38df55fa46" y="134.70291"/>
     <use style="stroke:#000000;" x="197.423734" xlink:href="#m38df55fa46" y="136.4365"/>
     <use style="stroke:#000000;" x="219.419276" xlink:href="#m38df55fa46" y="154.686963"/>
     <use style="stroke:#000000;" x="265.807883" xlink:href="#m38df55fa46" y="182.24917"/>
     <use style="stroke:#000000;" x="136.249999" xlink:href="#m38df55fa46" y="214.05087"/>
     <use style="stroke:#000000;" x="265.892077" xlink:href="#m38df55fa46" y="152.443136"/>
     <use style="stroke:#000000;" x="168.495309" xlink:href="#m38df55fa46" y="189.747387"/>
     <use style="stroke:#000000;" x="165.787117" xlink:href="#m38df55fa46" y="194.425013"/>
     <use style="stroke:#000000;" x="136.592395" xlink:href="#m38df55fa46" y="213.93667"/>
     <use style="stroke:#000000;" x="151.107232" xlink:href="#m38df55fa46" y="208.928689"/>
     <use style="stroke:#000000;" x="158.083752" xlink:href="#m38df55fa46" y="210.409846"/>
     <use style="stroke:#000000;" x="125.501776" xlink:href="#m38df55fa46" y="208.433485"/>
     <use style="stroke:#000000;" x="154.705241" xlink:href="#m38df55fa46" y="204.46128"/>
     <use style="stroke:#000000;" x="140.155853" xlink:href="#m38df55fa46" y="214.140938"/>
     <use style="stroke:#000000;" x="267.828182" xlink:href="#m38df55fa46" y="99.692873"/>
     <use style="stroke:#000000;" x="267.832732" xlink:href="#m38df55fa46" y="104.730248"/>
     <use style="stroke:#000000;" x="268.242309" xlink:href="#m38df55fa46" y="106.916164"/>
     <use style="stroke:#000000;" x="270.147854" xlink:href="#m38df55fa46" y="139.32458"/>
     <use style="stroke:#000000;" x="268.168697" xlink:href="#m38df55fa46" y="125.915291"/>
     <use style="stroke:#000000;" x="276.2259" xlink:href="#m38df55fa46" y="122.698761"/>
     <use style="stroke:#000000;" x="266.387631" xlink:href="#m38df55fa46" y="118.103613"/>
     <use style="stroke:#000000;" x="268.00257" xlink:href="#m38df55fa46" y="123.047297"/>
     <use style="stroke:#000000;" x="268.010757" xlink:href="#m38df55fa46" y="101.292676"/>
     <use style="stroke:#000000;" x="258.291298" xlink:href="#m38df55fa46" y="126.650574"/>
     <use style="stroke:#000000;" x="247.629992" xlink:href="#m38df55fa46" y="149.944198"/>
     <use style="stroke:#000000;" x="252.915729" xlink:href="#m38df55fa46" y="137.10294"/>
     <use style="stroke:#000000;" x="267.298621" xlink:href="#m38df55fa46" y="111.689338"/>
     <use style="stroke:#000000;" x="266.044041" xlink:href="#m38df55fa46" y="112.072988"/>
     <use style="stroke:#000000;" x="263.700054" xlink:href="#m38df55fa46" y="114.846253"/>
     <use style="stroke:#000000;" x="248.901139" xlink:href="#m38df55fa46" y="172.21853"/>
     <use style="stroke:#000000;" x="257.332238" xlink:href="#m38df55fa46" y="153.407765"/>
     <use style="stroke:#000000;" x="244.885858" xlink:href="#m38df55fa46" y="163.752975"/>
     <use style="stroke:#000000;" x="271.617185" xlink:href="#m38df55fa46" y="158.380079"/>
     <use style="stroke:#000000;" x="272.847312" xlink:href="#m38df55fa46" y="154.749666"/>
     <use style="stroke:#000000;" x="243.598182" xlink:href="#m38df55fa46" y="150.799471"/>
     <use style="stroke:#000000;" x="282.186854" xlink:href="#m38df55fa46" y="146.062155"/>
     <use style="stroke:#000000;" x="271.956708" xlink:href="#m38df55fa46" y="124.612208"/>
     <use style="stroke:#000000;" x="277.670522" xlink:href="#m38df55fa46" y="112.916304"/>
     <use style="stroke:#000000;" x="286.780103" xlink:href="#m38df55fa46" y="122.382346"/>
     <use style="stroke:#000000;" x="256.486655" xlink:href="#m38df55fa46" y="149.078834"/>
     <use style="stroke:#000000;" x="260.764172" xlink:href="#m38df55fa46" y="173.616934"/>
     <use style="stroke:#000000;" x="257.888139" xlink:href="#m38df55fa46" y="166.203392"/>
     <use style="stroke:#000000;" x="251.748894" xlink:href="#m38df55fa46" y="161.485981"/>
     <use style="stroke:#000000;" x="248.997263" xlink:href="#m38df55fa46" y="164.766866"/>
     <use style="stroke:#000000;" x="258.263897" xlink:href="#m38df55fa46" y="158.90113"/>
     <use style="stroke:#000000;" x="269.575975" xlink:href="#m38df55fa46" y="167.570597"/>
     <use style="stroke:#000000;" x="276.794113" xlink:href="#m38df55fa46" y="148.800501"/>
     <use style="stroke:#000000;" x="276.813809" xlink:href="#m38df55fa46" y="161.224727"/>
     <use style="stroke:#000000;" x="251.72861" xlink:href="#m38df55fa46" y="152.749667"/>
     <use style="stroke:#000000;" x="249.227286" xlink:href="#m38df55fa46" y="170.752762"/>
     <use style="stroke:#000000;" x="250.163339" xlink:href="#m38df55fa46" y="165.876841"/>
     <use style="stroke:#000000;" x="263.347612" xlink:href="#m38df55fa46" y="162.505298"/>
     <use style="stroke:#000000;" x="262.150648" xlink:href="#m38df55fa46" y="146.571512"/>
     <use style="stroke:#000000;" x="266.059307" xlink:href="#m38df55fa46" y="142.481982"/>
     <use style="stroke:#000000;" x="216.334243" xlink:href="#m38df55fa46" y="161.83886"/>
     <use style="stroke:#000000;" x="284.411914" xlink:href="#m38df55fa46" y="164.413986"/>
     <use style="stroke:#000000;" x="261.127973" xlink:href="#m38df55fa46" y="158.257564"/>
     <use style="stroke:#000000;" x="253.536745" xlink:href="#m38df55fa46" y="166.57655"/>
     <use style="stroke:#000000;" x="257.328933" xlink:href="#m38df55fa46" y="165.69602"/>
     <use style="stroke:#000000;" x="299.18268" xlink:href="#m38df55fa46" y="153.204941"/>
     <use style="stroke:#000000;" x="266.010825" xlink:href="#m38df55fa46" y="160.238417"/>
     <use style="stroke:#000000;" x="234.735332" xlink:href="#m38df55fa46" y="166.01443"/>
     <use style="stroke:#000000;" x="243.499785" xlink:href="#m38df55fa46" y="158.790067"/>
     <use style="stroke:#000000;" x="237.231328" xlink:href="#m38df55fa46" y="161.619177"/>
     <use style="stroke:#000000;" x="259.090797" xlink:href="#m38df55fa46" y="163.027758"/>
     <use style="stroke:#000000;" x="247.285226" xlink:href="#m38df55fa46" y="158.063085"/>
     <use style="stroke:#000000;" x="269.802029" xlink:href="#m38df55fa46" y="158.576605"/>
     <use style="stroke:#000000;" x="271.097856" xlink:href="#m38df55fa46" y="156.813869"/>
     <use style="stroke:#000000;" x="265.041689" xlink:href="#m38df55fa46" y="158.677017"/>
     <use style="stroke:#000000;" x="235.704468" xlink:href="#m38df55fa46" y="167.575829"/>
     <use style="stroke:#000000;" x="277.0326" xlink:href="#m38df55fa46" y="161.668508"/>
     <use style="stroke:#000000;" x="236.17107" xlink:href="#m38df55fa46" y="168.382521"/>
     <use style="stroke:#000000;" x="243.282013" xlink:href="#m38df55fa46" y="167.464771"/>
     <use style="stroke:#000000;" x="236.496778" xlink:href="#m38df55fa46" y="169.402624"/>
     <use style="stroke:#000000;" x="237.564096" xlink:href="#m38df55fa46" y="167.589845"/>
     <use style="stroke:#000000;" x="255.815098" xlink:href="#m38df55fa46" y="167.566791"/>
     <use style="stroke:#000000;" x="265.576605" xlink:href="#m38df55fa46" y="164.852292"/>
     <use style="stroke:#000000;" x="235.169552" xlink:href="#m38df55fa46" y="161.400555"/>
     <use style="stroke:#000000;" x="336.149346" xlink:href="#m38df55fa46" y="155.746757"/>
     <use style="stroke:#000000;" x="280.329828" xlink:href="#m38df55fa46" y="155.692664"/>
     <use style="stroke:#000000;" x="360.9" xlink:href="#m38df55fa46" y="67.974298"/>
     <use style="stroke:#000000;" x="339.481299" xlink:href="#m38df55fa46" y="92.93308"/>
     <use style="stroke:#000000;" x="332.692285" xlink:href="#m38df55fa46" y="60.913974"/>
     <use style="stroke:#000000;" x="321.732214" xlink:href="#m38df55fa46" y="58.154986"/>
     <use style="stroke:#000000;" x="298.221557" xlink:href="#m38df55fa46" y="58.424629"/>
     <use style="stroke:#000000;" x="289.768278" xlink:href="#m38df55fa46" y="52.68"/>
     <use style="stroke:#000000;" x="255.159778" xlink:href="#m38df55fa46" y="162.495546"/>
     <use style="stroke:#000000;" x="245.586379" xlink:href="#m38df55fa46" y="163.757301"/>
     <use style="stroke:#000000;" x="251.612735" xlink:href="#m38df55fa46" y="162.442164"/>
     <use style="stroke:#000000;" x="248.022441" xlink:href="#m38df55fa46" y="161.074635"/>
     <use style="stroke:#000000;" x="153.681925" xlink:href="#m38df55fa46" y="165.521693"/>
     <use style="stroke:#000000;" x="154.650139" xlink:href="#m38df55fa46" y="166.534254"/>
     <use style="stroke:#000000;" x="245.569579" xlink:href="#m38df55fa46" y="162.903413"/>
     <use style="stroke:#000000;" x="255.176578" xlink:href="#m38df55fa46" y="163.349433"/>
     <use style="stroke:#000000;" x="227.184137" xlink:href="#m38df55fa46" y="167.676946"/>
     <use style="stroke:#000000;" x="213.61412" xlink:href="#m38df55fa46" y="176.769849"/>
     <use style="stroke:#000000;" x="248.290156" xlink:href="#m38df55fa46" y="173.681507"/>
     <use style="stroke:#000000;" x="227.596932" xlink:href="#m38df55fa46" y="178.377556"/>
     <use style="stroke:#000000;" x="235.26193" xlink:href="#m38df55fa46" y="180.544872"/>
     <use style="stroke:#000000;" x="240.340107" xlink:href="#m38df55fa46" y="180.732251"/>
    </g>
   </g>
   <g id="matplotlib.axis_1">
    <g id="xtick_1">
     <g id="line2d_1">
      <defs>
       <path d="M 0 0 
L 0 3.5 
" id="m14dbc61b32" style="stroke:#000000;stroke-width:0.8;"/>
      </defs>
      <g>
       <use style="stroke:#000000;stroke-width:0.8;" x="79.85446" xlink:href="#m14dbc61b32" y="252"/>
      </g>
     </g>
     <g id="text_1">
      <!-- −60 -->
      <g transform="translate(69.302117 266.598437)scale(0.1 -0.1)">
       <defs>
        <path d="M 10.59375 35.5 
L 73.1875 35.5 
L 73.1875 27.203125 
L 10.59375 27.203125 
z
" id="DejaVuSans-8722"/>
        <path d="M 33.015625 40.375 
Q 26.375 40.375 22.484375 35.828125 
Q 18.609375 31.296875 18.609375 23.390625 
Q 18.609375 15.53125 22.484375 10.953125 
Q 26.375 6.390625 33.015625 6.390625 
Q 39.65625 6.390625 43.53125 10.953125 
Q 47.40625 15.53125 47.40625 23.390625 
Q 47.40625 31.296875 43.53125 35.828125 
Q 39.65625 40.375 33.015625 40.375 
z
M 52.59375 71.296875 
L 52.59375 62.3125 
Q 48.875 64.0625 45.09375 64.984375 
Q 41.3125 65.921875 37.59375 65.921875 
Q 27.828125 65.921875 22.671875 59.328125 
Q 17.53125 52.734375 16.796875 39.40625 
Q 19.671875 43.65625 24.015625 45.921875 
Q 28.375 48.1875 33.59375 48.1875 
Q 44.578125 48.1875 50.953125 41.515625 
Q 57.328125 34.859375 57.328125 23.390625 
Q 57.328125 12.15625 50.6875 5.359375 
Q 44.046875 -1.421875 33.015625 -1.421875 
Q 20.359375 -1.421875 13.671875 8.265625 
Q 6.984375 17.96875 6.984375 36.375 
Q 6.984375 53.65625 15.1875 63.9375 
Q 23.390625 74.21875 37.203125 74.21875 
Q 40.921875 74.21875 44.703125 73.484375 
Q 48.484375 72.75 52.59375 71.296875 
z
" id="DejaVuSans-54"/>
        <path d="M 31.78125 66.40625 
Q 24.171875 66.40625 20.328125 58.90625 
Q 16.5 51.421875 16.5 36.375 
Q 16.5 21.390625 20.328125 13.890625 
Q 24.171875 6.390625 31.78125 6.390625 
Q 39.453125 6.390625 43.28125 13.890625 
Q 47.125 21.390625 47.125 36.375 
Q 47.125 51.421875 43.28125 58.90625 
Q 39.453125 66.40625 31.78125 66.40625 
z
M 31.78125 74.21875 
Q 44.046875 74.21875 50.515625 64.515625 
Q 56.984375 54.828125 56.984375 36.375 
Q 56.984375 17.96875 50.515625 8.265625 
Q 44.046875 -1.421875 31.78125 -1.421875 
Q 19.53125 -1.421875 13.0625 8.265625 
Q 6.59375 17.96875 6.59375 36.375 
Q 6.59375 54.828125 13.0625 64.515625 
Q 19.53125 74.21875 31.78125 74.21875 
z
" id="DejaVuSans-48"/>
       </defs>
       <use xlink:href="#DejaVuSans-8722"/>
       <use x="83.789062" xlink:href="#DejaVuSans-54"/>
       <use x="147.412109" xlink:href="#DejaVuSans-48"/>
      </g>
     </g>
    </g>
    <g id="xtick_2">
     <g id="line2d_2">
      <g>
       <use style="stroke:#000000;stroke-width:0.8;" x="136.694" xlink:href="#m14dbc61b32" y="252"/>
      </g>
     </g>
     <g id="text_2">
      <!-- −40 -->
      <g transform="translate(126.141656 266.598437)scale(0.1 -0.1)">
       <defs>
        <path d="M 37.796875 64.3125 
L 12.890625 25.390625 
L 37.796875 25.390625 
z
M 35.203125 72.90625 
L 47.609375 72.90625 
L 47.609375 25.390625 
L 58.015625 25.390625 
L 58.015625 17.1875 
L 47.609375 17.1875 
L 47.609375 0 
L 37.796875 0 
L 37.796875 17.1875 
L 4.890625 17.1875 
L 4.890625 26.703125 
z
" id="DejaVuSans-52"/>
       </defs>
       <use xlink:href="#DejaVuSans-8722"/>
       <use x="83.789062" xlink:href="#DejaVuSans-52"/>
       <use x="147.412109" xlink:href="#DejaVuSans-48"/>
      </g>
     </g>
    </g>
    <g id="xtick_3">
     <g id="line2d_3">
      <g>
       <use style="stroke:#000000;stroke-width:0.8;" x="193.533539" xlink:href="#m14dbc61b32" y="252"/>
      </g>
     </g>
     <g id="text_3">
      <!-- −20 -->
      <g transform="translate(182.981195 266.598437)scale(0.1 -0.1)">
       <defs>
        <path d="M 19.1875 8.296875 
L 53.609375 8.296875 
L 53.609375 0 
L 7.328125 0 
L 7.328125 8.296875 
Q 12.9375 14.109375 22.625 23.890625 
Q 32.328125 33.6875 34.8125 36.53125 
Q 39.546875 41.84375 41.421875 45.53125 
Q 43.3125 49.21875 43.3125 52.78125 
Q 43.3125 58.59375 39.234375 62.25 
Q 35.15625 65.921875 28.609375 65.921875 
Q 23.96875 65.921875 18.8125 64.3125 
Q 13.671875 62.703125 7.8125 59.421875 
L 7.8125 69.390625 
Q 13.765625 71.78125 18.9375 73 
Q 24.125 74.21875 28.421875 74.21875 
Q 39.75 74.21875 46.484375 68.546875 
Q 53.21875 62.890625 53.21875 53.421875 
Q 53.21875 48.921875 51.53125 44.890625 
Q 49.859375 40.875 45.40625 35.40625 
Q 44.1875 33.984375 37.640625 27.21875 
Q 31.109375 20.453125 19.1875 8.296875 
z
" id="DejaVuSans-50"/>
       </defs>
       <use xlink:href="#DejaVuSans-8722"/>
       <use x="83.789062" xlink:href="#DejaVuSans-50"/>
       <use x="147.412109" xlink:href="#DejaVuSans-48"/>
      </g>
     </g>
    </g>
    <g id="xtick_4">
     <g id="line2d_4">
      <g>
       <use style="stroke:#000000;stroke-width:0.8;" x="250.373079" xlink:href="#m14dbc61b32" y="252"/>
      </g>
     </g>
     <g id="text_4">
      <!-- 0 -->
      <g transform="translate(247.191829 266.598437)scale(0.1 -0.1)">
       <use xlink:href="#DejaVuSans-48"/>
      </g>
     </g>
    </g>
    <g id="xtick_5">
     <g id="line2d_5">
      <g>
       <use style="stroke:#000000;stroke-width:0.8;" x="307.212618" xlink:href="#m14dbc61b32" y="252"/>
      </g>
     </g>
     <g id="text_5">
      <!-- 20 -->
      <g transform="translate(300.850118 266.598437)scale(0.1 -0.1)">
       <use xlink:href="#DejaVuSans-50"/>
       <use x="63.623047" xlink:href="#DejaVuSans-48"/>
      </g>
     </g>
    </g>
    <g id="xtick_6">
     <g id="line2d_6">
      <g>
       <use style="stroke:#000000;stroke-width:0.8;" x="364.052157" xlink:href="#m14dbc61b32" y="252"/>
      </g>
     </g>
     <g id="text_6">
      <!-- 40 -->
      <g transform="translate(357.689657 266.598437)scale(0.1 -0.1)">
       <use xlink:href="#DejaVuSans-52"/>
       <use x="63.623047" xlink:href="#DejaVuSans-48"/>
      </g>
     </g>
    </g>
    <g id="text_7">
     <!-- GacA-GacS iModulon Activity -->
     <g transform="translate(148.957812 280.276563)scale(0.1 -0.1)">
      <defs>
       <path d="M 59.515625 10.40625 
L 59.515625 29.984375 
L 43.40625 29.984375 
L 43.40625 38.09375 
L 69.28125 38.09375 
L 69.28125 6.78125 
Q 63.578125 2.734375 56.6875 0.65625 
Q 49.8125 -1.421875 42 -1.421875 
Q 24.90625 -1.421875 15.25 8.5625 
Q 5.609375 18.5625 5.609375 36.375 
Q 5.609375 54.25 15.25 64.234375 
Q 24.90625 74.21875 42 74.21875 
Q 49.125 74.21875 55.546875 72.453125 
Q 61.96875 70.703125 67.390625 67.28125 
L 67.390625 56.78125 
Q 61.921875 61.421875 55.765625 63.765625 
Q 49.609375 66.109375 42.828125 66.109375 
Q 29.4375 66.109375 22.71875 58.640625 
Q 16.015625 51.171875 16.015625 36.375 
Q 16.015625 21.625 22.71875 14.15625 
Q 29.4375 6.6875 42.828125 6.6875 
Q 48.046875 6.6875 52.140625 7.59375 
Q 56.25 8.5 59.515625 10.40625 
z
" id="DejaVuSans-71"/>
       <path d="M 34.28125 27.484375 
Q 23.390625 27.484375 19.1875 25 
Q 14.984375 22.515625 14.984375 16.5 
Q 14.984375 11.71875 18.140625 8.90625 
Q 21.296875 6.109375 26.703125 6.109375 
Q 34.1875 6.109375 38.703125 11.40625 
Q 43.21875 16.703125 43.21875 25.484375 
L 43.21875 27.484375 
z
M 52.203125 31.203125 
L 52.203125 0 
L 43.21875 0 
L 43.21875 8.296875 
Q 40.140625 3.328125 35.546875 0.953125 
Q 30.953125 -1.421875 24.3125 -1.421875 
Q 15.921875 -1.421875 10.953125 3.296875 
Q 6 8.015625 6 15.921875 
Q 6 25.140625 12.171875 29.828125 
Q 18.359375 34.515625 30.609375 34.515625 
L 43.21875 34.515625 
L 43.21875 35.40625 
Q 43.21875 41.609375 39.140625 45 
Q 35.0625 48.390625 27.6875 48.390625 
Q 23 48.390625 18.546875 47.265625 
Q 14.109375 46.140625 10.015625 43.890625 
L 10.015625 52.203125 
Q 14.9375 54.109375 19.578125 55.046875 
Q 24.21875 56 28.609375 56 
Q 40.484375 56 46.34375 49.84375 
Q 52.203125 43.703125 52.203125 31.203125 
z
" id="DejaVuSans-97"/>
       <path d="M 48.78125 52.59375 
L 48.78125 44.1875 
Q 44.96875 46.296875 41.140625 47.34375 
Q 37.3125 48.390625 33.40625 48.390625 
Q 24.65625 48.390625 19.8125 42.84375 
Q 14.984375 37.3125 14.984375 27.296875 
Q 14.984375 17.28125 19.8125 11.734375 
Q 24.65625 6.203125 33.40625 6.203125 
Q 37.3125 6.203125 41.140625 7.25 
Q 44.96875 8.296875 48.78125 10.40625 
L 48.78125 2.09375 
Q 45.015625 0.34375 40.984375 -0.53125 
Q 36.96875 -1.421875 32.421875 -1.421875 
Q 20.0625 -1.421875 12.78125 6.34375 
Q 5.515625 14.109375 5.515625 27.296875 
Q 5.515625 40.671875 12.859375 48.328125 
Q 20.21875 56 33.015625 56 
Q 37.15625 56 41.109375 55.140625 
Q 45.0625 54.296875 48.78125 52.59375 
z
" id="DejaVuSans-99"/>
       <path d="M 34.1875 63.1875 
L 20.796875 26.90625 
L 47.609375 26.90625 
z
M 28.609375 72.90625 
L 39.796875 72.90625 
L 67.578125 0 
L 57.328125 0 
L 50.6875 18.703125 
L 17.828125 18.703125 
L 11.1875 0 
L 0.78125 0 
z
" id="DejaVuSans-65"/>
       <path d="M 4.890625 31.390625 
L 31.203125 31.390625 
L 31.203125 23.390625 
L 4.890625 23.390625 
z
" id="DejaVuSans-45"/>
       <path d="M 53.515625 70.515625 
L 53.515625 60.890625 
Q 47.90625 63.578125 42.921875 64.890625 
Q 37.9375 66.21875 33.296875 66.21875 
Q 25.25 66.21875 20.875 63.09375 
Q 16.5 59.96875 16.5 54.203125 
Q 16.5 49.359375 19.40625 46.890625 
Q 22.3125 44.4375 30.421875 42.921875 
L 36.375 41.703125 
Q 47.40625 39.59375 52.65625 34.296875 
Q 57.90625 29 57.90625 20.125 
Q 57.90625 9.515625 50.796875 4.046875 
Q 43.703125 -1.421875 29.984375 -1.421875 
Q 24.8125 -1.421875 18.96875 -0.25 
Q 13.140625 0.921875 6.890625 3.21875 
L 6.890625 13.375 
Q 12.890625 10.015625 18.65625 8.296875 
Q 24.421875 6.59375 29.984375 6.59375 
Q 38.421875 6.59375 43.015625 9.90625 
Q 47.609375 13.234375 47.609375 19.390625 
Q 47.609375 24.75 44.3125 27.78125 
Q 41.015625 30.8125 33.5 32.328125 
L 27.484375 33.5 
Q 16.453125 35.6875 11.515625 40.375 
Q 6.59375 45.0625 6.59375 53.421875 
Q 6.59375 63.09375 13.40625 68.65625 
Q 20.21875 74.21875 32.171875 74.21875 
Q 37.3125 74.21875 42.625 73.28125 
Q 47.953125 72.359375 53.515625 70.515625 
z
" id="DejaVuSans-83"/>
       <path id="DejaVuSans-32"/>
       <path d="M 9.421875 54.6875 
L 18.40625 54.6875 
L 18.40625 0 
L 9.421875 0 
z
M 9.421875 75.984375 
L 18.40625 75.984375 
L 18.40625 64.59375 
L 9.421875 64.59375 
z
" id="DejaVuSans-105"/>
       <path d="M 9.8125 72.90625 
L 24.515625 72.90625 
L 43.109375 23.296875 
L 61.8125 72.90625 
L 76.515625 72.90625 
L 76.515625 0 
L 66.890625 0 
L 66.890625 64.015625 
L 48.09375 14.015625 
L 38.1875 14.015625 
L 19.390625 64.015625 
L 19.390625 0 
L 9.8125 0 
z
" id="DejaVuSans-77"/>
       <path d="M 30.609375 48.390625 
Q 23.390625 48.390625 19.1875 42.75 
Q 14.984375 37.109375 14.984375 27.296875 
Q 14.984375 17.484375 19.15625 11.84375 
Q 23.34375 6.203125 30.609375 6.203125 
Q 37.796875 6.203125 41.984375 11.859375 
Q 46.1875 17.53125 46.1875 27.296875 
Q 46.1875 37.015625 41.984375 42.703125 
Q 37.796875 48.390625 30.609375 48.390625 
z
M 30.609375 56 
Q 42.328125 56 49.015625 48.375 
Q 55.71875 40.765625 55.71875 27.296875 
Q 55.71875 13.875 49.015625 6.21875 
Q 42.328125 -1.421875 30.609375 -1.421875 
Q 18.84375 -1.421875 12.171875 6.21875 
Q 5.515625 13.875 5.515625 27.296875 
Q 5.515625 40.765625 12.171875 48.375 
Q 18.84375 56 30.609375 56 
z
" id="DejaVuSans-111"/>
       <path d="M 45.40625 46.390625 
L 45.40625 75.984375 
L 54.390625 75.984375 
L 54.390625 0 
L 45.40625 0 
L 45.40625 8.203125 
Q 42.578125 3.328125 38.25 0.953125 
Q 33.9375 -1.421875 27.875 -1.421875 
Q 17.96875 -1.421875 11.734375 6.484375 
Q 5.515625 14.40625 5.515625 27.296875 
Q 5.515625 40.1875 11.734375 48.09375 
Q 17.96875 56 27.875 56 
Q 33.9375 56 38.25 53.625 
Q 42.578125 51.265625 45.40625 46.390625 
z
M 14.796875 27.296875 
Q 14.796875 17.390625 18.875 11.75 
Q 22.953125 6.109375 30.078125 6.109375 
Q 37.203125 6.109375 41.296875 11.75 
Q 45.40625 17.390625 45.40625 27.296875 
Q 45.40625 37.203125 41.296875 42.84375 
Q 37.203125 48.484375 30.078125 48.484375 
Q 22.953125 48.484375 18.875 42.84375 
Q 14.796875 37.203125 14.796875 27.296875 
z
" id="DejaVuSans-100"/>
       <path d="M 8.5 21.578125 
L 8.5 54.6875 
L 17.484375 54.6875 
L 17.484375 21.921875 
Q 17.484375 14.15625 20.5 10.265625 
Q 23.53125 6.390625 29.59375 6.390625 
Q 36.859375 6.390625 41.078125 11.03125 
Q 45.3125 15.671875 45.3125 23.6875 
L 45.3125 54.6875 
L 54.296875 54.6875 
L 54.296875 0 
L 45.3125 0 
L 45.3125 8.40625 
Q 42.046875 3.421875 37.71875 1 
Q 33.40625 -1.421875 27.6875 -1.421875 
Q 18.265625 -1.421875 13.375 4.4375 
Q 8.5 10.296875 8.5 21.578125 
z
M 31.109375 56 
z
" id="DejaVuSans-117"/>
       <path d="M 9.421875 75.984375 
L 18.40625 75.984375 
L 18.40625 0 
L 9.421875 0 
z
" id="DejaVuSans-108"/>
       <path d="M 54.890625 33.015625 
L 54.890625 0 
L 45.90625 0 
L 45.90625 32.71875 
Q 45.90625 40.484375 42.875 44.328125 
Q 39.84375 48.1875 33.796875 48.1875 
Q 26.515625 48.1875 22.3125 43.546875 
Q 18.109375 38.921875 18.109375 30.90625 
L 18.109375 0 
L 9.078125 0 
L 9.078125 54.6875 
L 18.109375 54.6875 
L 18.109375 46.1875 
Q 21.34375 51.125 25.703125 53.5625 
Q 30.078125 56 35.796875 56 
Q 45.21875 56 50.046875 50.171875 
Q 54.890625 44.34375 54.890625 33.015625 
z
" id="DejaVuSans-110"/>
       <path d="M 18.3125 70.21875 
L 18.3125 54.6875 
L 36.8125 54.6875 
L 36.8125 47.703125 
L 18.3125 47.703125 
L 18.3125 18.015625 
Q 18.3125 11.328125 20.140625 9.421875 
Q 21.96875 7.515625 27.59375 7.515625 
L 36.8125 7.515625 
L 36.8125 0 
L 27.59375 0 
Q 17.1875 0 13.234375 3.875 
Q 9.28125 7.765625 9.28125 18.015625 
L 9.28125 47.703125 
L 2.6875 47.703125 
L 2.6875 54.6875 
L 9.28125 54.6875 
L 9.28125 70.21875 
z
" id="DejaVuSans-116"/>
       <path d="M 2.984375 54.6875 
L 12.5 54.6875 
L 29.59375 8.796875 
L 46.6875 54.6875 
L 56.203125 54.6875 
L 35.6875 0 
L 23.484375 0 
z
" id="DejaVuSans-118"/>
       <path d="M 32.171875 -5.078125 
Q 28.375 -14.84375 24.75 -17.8125 
Q 21.140625 -20.796875 15.09375 -20.796875 
L 7.90625 -20.796875 
L 7.90625 -13.28125 
L 13.1875 -13.28125 
Q 16.890625 -13.28125 18.9375 -11.515625 
Q 21 -9.765625 23.484375 -3.21875 
L 25.09375 0.875 
L 2.984375 54.6875 
L 12.5 54.6875 
L 29.59375 11.921875 
L 46.6875 54.6875 
L 56.203125 54.6875 
z
" id="DejaVuSans-121"/>
      </defs>
      <use xlink:href="#DejaVuSans-71"/>
      <use x="77.490234" xlink:href="#DejaVuSans-97"/>
      <use x="138.769531" xlink:href="#DejaVuSans-99"/>
      <use x="193.75" xlink:href="#DejaVuSans-65"/>
      <use x="259.908203" xlink:href="#DejaVuSans-45"/>
      <use x="299.617188" xlink:href="#DejaVuSans-71"/>
      <use x="377.107422" xlink:href="#DejaVuSans-97"/>
      <use x="438.386719" xlink:href="#DejaVuSans-99"/>
      <use x="493.367188" xlink:href="#DejaVuSans-83"/>
      <use x="556.84375" xlink:href="#DejaVuSans-32"/>
      <use x="588.630859" xlink:href="#DejaVuSans-105"/>
      <use x="616.414062" xlink:href="#DejaVuSans-77"/>
      <use x="702.693359" xlink:href="#DejaVuSans-111"/>
      <use x="763.875" xlink:href="#DejaVuSans-100"/>
      <use x="827.351562" xlink:href="#DejaVuSans-117"/>
      <use x="890.730469" xlink:href="#DejaVuSans-108"/>
      <use x="918.513672" xlink:href="#DejaVuSans-111"/>
      <use x="979.695312" xlink:href="#DejaVuSans-110"/>
      <use x="1043.074219" xlink:href="#DejaVuSans-32"/>
      <use x="1074.861328" xlink:href="#DejaVuSans-65"/>
      <use x="1141.519531" xlink:href="#DejaVuSans-99"/>
      <use x="1196.5" xlink:href="#DejaVuSans-116"/>
      <use x="1235.708984" xlink:href="#DejaVuSans-105"/>
      <use x="1263.492188" xlink:href="#DejaVuSans-118"/>
      <use x="1322.671875" xlink:href="#DejaVuSans-105"/>
      <use x="1350.455078" xlink:href="#DejaVuSans-116"/>
      <use x="1389.664062" xlink:href="#DejaVuSans-121"/>
     </g>
    </g>
   </g>
   <g id="matplotlib.axis_2">
    <g id="ytick_1">
     <g id="line2d_7">
      <defs>
       <path d="M 0 0 
L -3.5 0 
" id="m726fffc807" style="stroke:#000000;stroke-width:0.8;"/>
      </defs>
      <g>
       <use style="stroke:#000000;stroke-width:0.8;" x="54" xlink:href="#m726fffc807" y="226.85997"/>
      </g>
     </g>
     <g id="text_8">
      <!-- −20 -->
      <g transform="translate(25.895312 230.659188)scale(0.1 -0.1)">
       <use xlink:href="#DejaVuSans-8722"/>
       <use x="83.789062" xlink:href="#DejaVuSans-50"/>
       <use x="147.412109" xlink:href="#DejaVuSans-48"/>
      </g>
     </g>
    </g>
    <g id="ytick_2">
     <g id="line2d_8">
      <g>
       <use style="stroke:#000000;stroke-width:0.8;" x="54" xlink:href="#m726fffc807" y="194.993196"/>
      </g>
     </g>
     <g id="text_9">
      <!-- −10 -->
      <g transform="translate(25.895312 198.792415)scale(0.1 -0.1)">
       <defs>
        <path d="M 12.40625 8.296875 
L 28.515625 8.296875 
L 28.515625 63.921875 
L 10.984375 60.40625 
L 10.984375 69.390625 
L 28.421875 72.90625 
L 38.28125 72.90625 
L 38.28125 8.296875 
L 54.390625 8.296875 
L 54.390625 0 
L 12.40625 0 
z
" id="DejaVuSans-49"/>
       </defs>
       <use xlink:href="#DejaVuSans-8722"/>
       <use x="83.789062" xlink:href="#DejaVuSans-49"/>
       <use x="147.412109" xlink:href="#DejaVuSans-48"/>
      </g>
     </g>
    </g>
    <g id="ytick_3">
     <g id="line2d_9">
      <g>
       <use style="stroke:#000000;stroke-width:0.8;" x="54" xlink:href="#m726fffc807" y="163.126423"/>
      </g>
     </g>
     <g id="text_10">
      <!-- 0 -->
      <g transform="translate(40.6375 166.925642)scale(0.1 -0.1)">
       <use xlink:href="#DejaVuSans-48"/>
      </g>
     </g>
    </g>
    <g id="ytick_4">
     <g id="line2d_10">
      <g>
       <use style="stroke:#000000;stroke-width:0.8;" x="54" xlink:href="#m726fffc807" y="131.25965"/>
      </g>
     </g>
     <g id="text_11">
      <!-- 10 -->
      <g transform="translate(34.275 135.058869)scale(0.1 -0.1)">
       <use xlink:href="#DejaVuSans-49"/>
       <use x="63.623047" xlink:href="#DejaVuSans-48"/>
      </g>
     </g>
    </g>
    <g id="ytick_5">
     <g id="line2d_11">
      <g>
       <use style="stroke:#000000;stroke-width:0.8;" x="54" xlink:href="#m726fffc807" y="99.392877"/>
      </g>
     </g>
     <g id="text_12">
      <!-- 20 -->
      <g transform="translate(34.275 103.192096)scale(0.1 -0.1)">
       <use xlink:href="#DejaVuSans-50"/>
       <use x="63.623047" xlink:href="#DejaVuSans-48"/>
      </g>
     </g>
    </g>
    <g id="ytick_6">
     <g id="line2d_12">
      <g>
       <use style="stroke:#000000;stroke-width:0.8;" x="54" xlink:href="#m726fffc807" y="67.526104"/>
      </g>
     </g>
     <g id="text_13">
      <!-- 30 -->
      <g transform="translate(34.275 71.325322)scale(0.1 -0.1)">
       <defs>
        <path d="M 40.578125 39.3125 
Q 47.65625 37.796875 51.625 33 
Q 55.609375 28.21875 55.609375 21.1875 
Q 55.609375 10.40625 48.1875 4.484375 
Q 40.765625 -1.421875 27.09375 -1.421875 
Q 22.515625 -1.421875 17.65625 -0.515625 
Q 12.796875 0.390625 7.625 2.203125 
L 7.625 11.71875 
Q 11.71875 9.328125 16.59375 8.109375 
Q 21.484375 6.890625 26.8125 6.890625 
Q 36.078125 6.890625 40.9375 10.546875 
Q 45.796875 14.203125 45.796875 21.1875 
Q 45.796875 27.640625 41.28125 31.265625 
Q 36.765625 34.90625 28.71875 34.90625 
L 20.21875 34.90625 
L 20.21875 43.015625 
L 29.109375 43.015625 
Q 36.375 43.015625 40.234375 45.921875 
Q 44.09375 48.828125 44.09375 54.296875 
Q 44.09375 59.90625 40.109375 62.90625 
Q 36.140625 65.921875 28.71875 65.921875 
Q 24.65625 65.921875 20.015625 65.03125 
Q 15.375 64.15625 9.8125 62.3125 
L 9.8125 71.09375 
Q 15.4375 72.65625 20.34375 73.4375 
Q 25.25 74.21875 29.59375 74.21875 
Q 40.828125 74.21875 47.359375 69.109375 
Q 53.90625 64.015625 53.90625 55.328125 
Q 53.90625 49.265625 50.4375 45.09375 
Q 46.96875 40.921875 40.578125 39.3125 
z
" id="DejaVuSans-51"/>
       </defs>
       <use xlink:href="#DejaVuSans-51"/>
       <use x="63.623047" xlink:href="#DejaVuSans-48"/>
      </g>
     </g>
    </g>
    <g id="ytick_7">
     <g id="line2d_13">
      <g>
       <use style="stroke:#000000;stroke-width:0.8;" x="54" xlink:href="#m726fffc807" y="35.659331"/>
      </g>
     </g>
     <g id="text_14">
      <!-- 40 -->
      <g transform="translate(34.275 39.458549)scale(0.1 -0.1)">
       <use xlink:href="#DejaVuSans-52"/>
       <use x="63.623047" xlink:href="#DejaVuSans-48"/>
      </g>
     </g>
    </g>
    <g id="text_15">
     <!-- PaaX iModulon Activity -->
     <g transform="translate(19.815625 200.222969)rotate(-90)scale(0.1 -0.1)">
      <defs>
       <path d="M 19.671875 64.796875 
L 19.671875 37.40625 
L 32.078125 37.40625 
Q 38.96875 37.40625 42.71875 40.96875 
Q 46.484375 44.53125 46.484375 51.125 
Q 46.484375 57.671875 42.71875 61.234375 
Q 38.96875 64.796875 32.078125 64.796875 
z
M 9.8125 72.90625 
L 32.078125 72.90625 
Q 44.34375 72.90625 50.609375 67.359375 
Q 56.890625 61.8125 56.890625 51.125 
Q 56.890625 40.328125 50.609375 34.8125 
Q 44.34375 29.296875 32.078125 29.296875 
L 19.671875 29.296875 
L 19.671875 0 
L 9.8125 0 
z
" id="DejaVuSans-80"/>
       <path d="M 6.296875 72.90625 
L 16.890625 72.90625 
L 35.015625 45.796875 
L 53.21875 72.90625 
L 63.8125 72.90625 
L 40.375 37.890625 
L 65.375 0 
L 54.78125 0 
L 34.28125 31 
L 13.625 0 
L 2.984375 0 
L 29 38.921875 
z
" id="DejaVuSans-88"/>
      </defs>
      <use xlink:href="#DejaVuSans-80"/>
      <use x="55.802734" xlink:href="#DejaVuSans-97"/>
      <use x="117.082031" xlink:href="#DejaVuSans-97"/>
      <use x="178.361328" xlink:href="#DejaVuSans-88"/>
      <use x="246.867188" xlink:href="#DejaVuSans-32"/>
      <use x="278.654297" xlink:href="#DejaVuSans-105"/>
      <use x="306.4375" xlink:href="#DejaVuSans-77"/>
      <use x="392.716797" xlink:href="#DejaVuSans-111"/>
      <use x="453.898438" xlink:href="#DejaVuSans-100"/>
      <use x="517.375" xlink:href="#DejaVuSans-117"/>
      <use x="580.753906" xlink:href="#DejaVuSans-108"/>
      <use x="608.537109" xlink:href="#DejaVuSans-111"/>
      <use x="669.71875" xlink:href="#DejaVuSans-110"/>
      <use x="733.097656" xlink:href="#DejaVuSans-32"/>
      <use x="764.884766" xlink:href="#DejaVuSans-65"/>
      <use x="831.542969" xlink:href="#DejaVuSans-99"/>
      <use x="886.523438" xlink:href="#DejaVuSans-116"/>
      <use x="925.732422" xlink:href="#DejaVuSans-105"/>
      <use x="953.515625" xlink:href="#DejaVuSans-118"/>
      <use x="1012.695312" xlink:href="#DejaVuSans-105"/>
      <use x="1040.478516" xlink:href="#DejaVuSans-116"/>
      <use x="1079.6875" xlink:href="#DejaVuSans-121"/>
     </g>
    </g>
   </g>
   <g id="LineCollection_1">
    <path clip-path="url(#p32712eaa41)" d="M 54 163.126423 
L 388.8 163.126423 
" style="fill:none;stroke:#808080;stroke-width:0.5;"/>
   </g>
   <g id="LineCollection_2">
    <path clip-path="url(#p32712eaa41)" d="M 250.373079 252 
L 250.373079 34.56 
" style="fill:none;stroke:#808080;stroke-width:0.5;"/>
   </g>
   <g id="patch_3">
    <path d="M 54 252 
L 54 34.56 
" style="fill:none;stroke:#000000;stroke-linecap:square;stroke-linejoin:miter;stroke-width:0.8;"/>
   </g>
   <g id="patch_4">
    <path d="M 388.8 252 
L 388.8 34.56 
" style="fill:none;stroke:#000000;stroke-linecap:square;stroke-linejoin:miter;stroke-width:0.8;"/>
   </g>
   <g id="patch_5">
    <path d="M 54 252 
L 388.8 252 
" style="fill:none;stroke:#000000;stroke-linecap:square;stroke-linejoin:miter;stroke-width:0.8;"/>
   </g>
   <g id="patch_6">
    <path d="M 54 34.56 
L 388.8 34.56 
" style="fill:none;stroke:#000000;stroke-linecap:square;stroke-linejoin:miter;stroke-width:0.8;"/>
   </g>
   <g id="line2d_14">
    <path clip-path="url(#p32712eaa41)" d="M 81.9 235.707125 
L 360.9 98.582437 
" style="fill:none;stroke:#000000;stroke-dasharray:3.7,1.6;stroke-dashoffset:0;"/>
   </g>
   <g id="legend_1">
    <g id="patch_7">
     <path d="M 61 68.435937 
L 179.853125 68.435937 
Q 181.853125 68.435937 181.853125 66.435937 
L 181.853125 41.56 
Q 181.853125 39.56 179.853125 39.56 
L 61 39.56 
Q 59 39.56 59 41.56 
L 59 66.435937 
Q 59 68.435937 61 68.435937 
z
" style="fill:#ffffff;opacity:0.8;stroke:#cccccc;stroke-linejoin:miter;"/>
    </g>
    <g id="line2d_15">
     <path d="M 63 54.297188 
L 83 54.297188 
" style="fill:none;stroke:#000000;stroke-dasharray:3.7,1.6;stroke-dashoffset:0;"/>
    </g>
    <g id="line2d_16"/>
    <g id="text_16">
     <!-- Pearson R = 0.71 -->
     <g transform="translate(91 51.158438)scale(0.1 -0.1)">
      <defs>
       <path d="M 56.203125 29.59375 
L 56.203125 25.203125 
L 14.890625 25.203125 
Q 15.484375 15.921875 20.484375 11.0625 
Q 25.484375 6.203125 34.421875 6.203125 
Q 39.59375 6.203125 44.453125 7.46875 
Q 49.3125 8.734375 54.109375 11.28125 
L 54.109375 2.78125 
Q 49.265625 0.734375 44.1875 -0.34375 
Q 39.109375 -1.421875 33.890625 -1.421875 
Q 20.796875 -1.421875 13.15625 6.1875 
Q 5.515625 13.8125 5.515625 26.8125 
Q 5.515625 40.234375 12.765625 48.109375 
Q 20.015625 56 32.328125 56 
Q 43.359375 56 49.78125 48.890625 
Q 56.203125 41.796875 56.203125 29.59375 
z
M 47.21875 32.234375 
Q 47.125 39.59375 43.09375 43.984375 
Q 39.0625 48.390625 32.421875 48.390625 
Q 24.90625 48.390625 20.390625 44.140625 
Q 15.875 39.890625 15.1875 32.171875 
z
" id="DejaVuSans-101"/>
       <path d="M 41.109375 46.296875 
Q 39.59375 47.171875 37.8125 47.578125 
Q 36.03125 48 33.890625 48 
Q 26.265625 48 22.1875 43.046875 
Q 18.109375 38.09375 18.109375 28.8125 
L 18.109375 0 
L 9.078125 0 
L 9.078125 54.6875 
L 18.109375 54.6875 
L 18.109375 46.1875 
Q 20.953125 51.171875 25.484375 53.578125 
Q 30.03125 56 36.53125 56 
Q 37.453125 56 38.578125 55.875 
Q 39.703125 55.765625 41.0625 55.515625 
z
" id="DejaVuSans-114"/>
       <path d="M 44.28125 53.078125 
L 44.28125 44.578125 
Q 40.484375 46.53125 36.375 47.5 
Q 32.28125 48.484375 27.875 48.484375 
Q 21.1875 48.484375 17.84375 46.4375 
Q 14.5 44.390625 14.5 40.28125 
Q 14.5 37.15625 16.890625 35.375 
Q 19.28125 33.59375 26.515625 31.984375 
L 29.59375 31.296875 
Q 39.15625 29.25 43.1875 25.515625 
Q 47.21875 21.78125 47.21875 15.09375 
Q 47.21875 7.46875 41.1875 3.015625 
Q 35.15625 -1.421875 24.609375 -1.421875 
Q 20.21875 -1.421875 15.453125 -0.5625 
Q 10.6875 0.296875 5.421875 2 
L 5.421875 11.28125 
Q 10.40625 8.6875 15.234375 7.390625 
Q 20.0625 6.109375 24.8125 6.109375 
Q 31.15625 6.109375 34.5625 8.28125 
Q 37.984375 10.453125 37.984375 14.40625 
Q 37.984375 18.0625 35.515625 20.015625 
Q 33.0625 21.96875 24.703125 23.78125 
L 21.578125 24.515625 
Q 13.234375 26.265625 9.515625 29.90625 
Q 5.8125 33.546875 5.8125 39.890625 
Q 5.8125 47.609375 11.28125 51.796875 
Q 16.75 56 26.8125 56 
Q 31.78125 56 36.171875 55.265625 
Q 40.578125 54.546875 44.28125 53.078125 
z
" id="DejaVuSans-115"/>
       <path d="M 44.390625 34.1875 
Q 47.5625 33.109375 50.5625 29.59375 
Q 53.5625 26.078125 56.59375 19.921875 
L 66.609375 0 
L 56 0 
L 46.6875 18.703125 
Q 43.0625 26.03125 39.671875 28.421875 
Q 36.28125 30.8125 30.421875 30.8125 
L 19.671875 30.8125 
L 19.671875 0 
L 9.8125 0 
L 9.8125 72.90625 
L 32.078125 72.90625 
Q 44.578125 72.90625 50.734375 67.671875 
Q 56.890625 62.453125 56.890625 51.90625 
Q 56.890625 45.015625 53.6875 40.46875 
Q 50.484375 35.9375 44.390625 34.1875 
z
M 19.671875 64.796875 
L 19.671875 38.921875 
L 32.078125 38.921875 
Q 39.203125 38.921875 42.84375 42.21875 
Q 46.484375 45.515625 46.484375 51.90625 
Q 46.484375 58.296875 42.84375 61.546875 
Q 39.203125 64.796875 32.078125 64.796875 
z
" id="DejaVuSans-82"/>
       <path d="M 10.59375 45.40625 
L 73.1875 45.40625 
L 73.1875 37.203125 
L 10.59375 37.203125 
z
M 10.59375 25.484375 
L 73.1875 25.484375 
L 73.1875 17.1875 
L 10.59375 17.1875 
z
" id="DejaVuSans-61"/>
       <path d="M 10.6875 12.40625 
L 21 12.40625 
L 21 0 
L 10.6875 0 
z
" id="DejaVuSans-46"/>
       <path d="M 8.203125 72.90625 
L 55.078125 72.90625 
L 55.078125 68.703125 
L 28.609375 0 
L 18.3125 0 
L 43.21875 64.59375 
L 8.203125 64.59375 
z
" id="DejaVuSans-55"/>
      </defs>
      <use xlink:href="#DejaVuSans-80"/>
      <use x="56.677734" xlink:href="#DejaVuSans-101"/>
      <use x="118.201172" xlink:href="#DejaVuSans-97"/>
      <use x="179.480469" xlink:href="#DejaVuSans-114"/>
      <use x="220.59375" xlink:href="#DejaVuSans-115"/>
      <use x="272.693359" xlink:href="#DejaVuSans-111"/>
      <use x="333.875" xlink:href="#DejaVuSans-110"/>
      <use x="397.253906" xlink:href="#DejaVuSans-32"/>
      <use x="429.041016" xlink:href="#DejaVuSans-82"/>
      <use x="498.523438" xlink:href="#DejaVuSans-32"/>
      <use x="530.310547" xlink:href="#DejaVuSans-61"/>
      <use x="614.099609" xlink:href="#DejaVuSans-32"/>
      <use x="645.886719" xlink:href="#DejaVuSans-48"/>
      <use x="709.509766" xlink:href="#DejaVuSans-46"/>
      <use x="741.296875" xlink:href="#DejaVuSans-55"/>
      <use x="804.919922" xlink:href="#DejaVuSans-49"/>
     </g>
     <!-- p-value &lt; 1e-10 -->
     <g transform="translate(91 62.35625)scale(0.1 -0.1)">
      <defs>
       <path d="M 18.109375 8.203125 
L 18.109375 -20.796875 
L 9.078125 -20.796875 
L 9.078125 54.6875 
L 18.109375 54.6875 
L 18.109375 46.390625 
Q 20.953125 51.265625 25.265625 53.625 
Q 29.59375 56 35.59375 56 
Q 45.5625 56 51.78125 48.09375 
Q 58.015625 40.1875 58.015625 27.296875 
Q 58.015625 14.40625 51.78125 6.484375 
Q 45.5625 -1.421875 35.59375 -1.421875 
Q 29.59375 -1.421875 25.265625 0.953125 
Q 20.953125 3.328125 18.109375 8.203125 
z
M 48.6875 27.296875 
Q 48.6875 37.203125 44.609375 42.84375 
Q 40.53125 48.484375 33.40625 48.484375 
Q 26.265625 48.484375 22.1875 42.84375 
Q 18.109375 37.203125 18.109375 27.296875 
Q 18.109375 17.390625 22.1875 11.75 
Q 26.265625 6.109375 33.40625 6.109375 
Q 40.53125 6.109375 44.609375 11.75 
Q 48.6875 17.390625 48.6875 27.296875 
z
" id="DejaVuSans-112"/>
       <path d="M 73.1875 49.21875 
L 22.796875 31.296875 
L 73.1875 13.484375 
L 73.1875 4.59375 
L 10.59375 27.296875 
L 10.59375 35.40625 
L 73.1875 58.109375 
z
" id="DejaVuSans-60"/>
      </defs>
      <use xlink:href="#DejaVuSans-112"/>
      <use x="63.476562" xlink:href="#DejaVuSans-45"/>
      <use x="96.935547" xlink:href="#DejaVuSans-118"/>
      <use x="156.115234" xlink:href="#DejaVuSans-97"/>
      <use x="217.394531" xlink:href="#DejaVuSans-108"/>
      <use x="245.177734" xlink:href="#DejaVuSans-117"/>
      <use x="308.556641" xlink:href="#DejaVuSans-101"/>
      <use x="370.080078" xlink:href="#DejaVuSans-32"/>
      <use x="401.867188" xlink:href="#DejaVuSans-60"/>
      <use x="485.65625" xlink:href="#DejaVuSans-32"/>
      <use x="517.443359" xlink:href="#DejaVuSans-49"/>
      <use x="581.066406" xlink:href="#DejaVuSans-101"/>
      <use x="642.589844" xlink:href="#DejaVuSans-45"/>
      <use x="678.673828" xlink:href="#DejaVuSans-49"/>
      <use x="742.296875" xlink:href="#DejaVuSans-48"/>
     </g>
    </g>
   </g>
  </g>
 </g>
 <defs>
  <clipPath id="p32712eaa41">
   <rect height="217.44" width="334.8" x="54" y="34.56"/>
  </clipPath>
 </defs>
</svg>
