<?xml version="1.0" encoding="utf-8" standalone="no"?>
<!DOCTYPE svg PUBLIC "-//W3C//DTD SVG 1.1//EN"
  "http://www.w3.org/Graphics/SVG/1.1/DTD/svg11.dtd">
<!-- Created with matplotlib (https://matplotlib.org/) -->
<svg height="144pt" version="1.1" viewBox="0 0 703.2 144" width="703.2pt" xmlns="http://www.w3.org/2000/svg" xmlns:xlink="http://www.w3.org/1999/xlink">
 <metadata>
  <rdf:RDF xmlns:cc="http://creativecommons.org/ns#" xmlns:dc="http://purl.org/dc/elements/1.1/" xmlns:rdf="http://www.w3.org/1999/02/22-rdf-syntax-ns#">
   <cc:Work>
    <dc:type rdf:resource="http://purl.org/dc/dcmitype/StillImage"/>
    <dc:date>2022-04-10T11:41:31.795326</dc:date>
    <dc:format>image/svg+xml</dc:format>
    <dc:creator>
     <cc:Agent>
      <dc:title>Matplotlib v3.3.4, https://matplotlib.org/</dc:title>
     </cc:Agent>
    </dc:creator>
   </cc:Work>
  </rdf:RDF>
 </metadata>
 <defs>
  <style type="text/css">*{stroke-linecap:butt;stroke-linejoin:round;}</style>
 </defs>
 <g id="figure_1">
  <g id="patch_1">
   <path d="M 0 144 
L 703.2 144 
L 703.2 0 
L 0 0 
z
" style="fill:none;"/>
  </g>
  <g id="axes_1">
   <g id="patch_2">
    <path d="M 87.9 126 
L 632.88 126 
L 632.88 17.28 
L 87.9 17.28 
z
" style="fill:none;"/>
   </g>
   <g id="patch_3">
    <path clip-path="url(#p5fb638e881)" d="M 556.940164 80.684937 
L 565.874262 80.684937 
L 565.874262 115.537653 
L 556.940164 115.537653 
z
" style="fill:#d62728;"/>
   </g>
   <g id="patch_4">
    <path clip-path="url(#p5fb638e881)" d="M 565.874262 80.684937 
L 574.808361 80.684937 
L 574.808361 80.684937 
L 565.874262 80.684937 
z
" style="fill:#ff7f0e;"/>
   </g>
   <g id="patch_5">
    <path clip-path="url(#p5fb638e881)" d="M 574.808361 80.684937 
L 583.742459 80.684937 
L 583.742459 80.760248 
L 574.808361 80.760248 
z
" style="fill:#2ca02c;"/>
   </g>
   <g id="patch_6">
    <path clip-path="url(#p5fb638e881)" d="M 101.301148 80.684937 
L 110.235246 80.684937 
L 110.235246 80.684937 
L 101.301148 80.684937 
z
" style="fill:#1f77b4;"/>
   </g>
   <g id="patch_7">
    <path clip-path="url(#p5fb638e881)" d="M 110.235246 80.684937 
L 119.169344 80.684937 
L 119.169344 76.733288 
L 110.235246 76.733288 
z
" style="fill:#1f77b4;"/>
   </g>
   <g id="patch_8">
    <path clip-path="url(#p5fb638e881)" d="M 119.169344 80.684937 
L 128.103443 80.684937 
L 128.103443 78.860839 
L 119.169344 78.860839 
z
" style="fill:#1f77b4;"/>
   </g>
   <g id="patch_9">
    <path clip-path="url(#p5fb638e881)" d="M 128.103443 80.684937 
L 137.037541 80.684937 
L 137.037541 80.684937 
L 128.103443 80.684937 
z
" style="fill:#1f77b4;"/>
   </g>
   <g id="patch_10">
    <path clip-path="url(#p5fb638e881)" d="M 137.037541 80.684937 
L 145.971639 80.684937 
L 145.971639 81.856916 
L 137.037541 81.856916 
z
" style="fill:#1f77b4;"/>
   </g>
   <g id="patch_11">
    <path clip-path="url(#p5fb638e881)" d="M 145.971639 80.684937 
L 154.905738 80.684937 
L 154.905738 76.095573 
L 145.971639 76.095573 
z
" style="fill:#1f77b4;"/>
   </g>
   <g id="patch_12">
    <path clip-path="url(#p5fb638e881)" d="M 154.905738 80.684937 
L 163.839836 80.684937 
L 163.839836 71.692792 
L 154.905738 71.692792 
z
" style="fill:#1f77b4;"/>
   </g>
   <g id="patch_13">
    <path clip-path="url(#p5fb638e881)" d="M 163.839836 80.684937 
L 172.773934 80.684937 
L 172.773934 80.866111 
L 163.839836 80.866111 
z
" style="fill:#1f77b4;"/>
   </g>
   <g id="patch_14">
    <path clip-path="url(#p5fb638e881)" d="M 172.773934 80.684937 
L 181.708033 80.684937 
L 181.708033 80.144379 
L 172.773934 80.144379 
z
" style="fill:#1f77b4;"/>
   </g>
   <g id="patch_15">
    <path clip-path="url(#p5fb638e881)" d="M 181.708033 80.684937 
L 190.642131 80.684937 
L 190.642131 83.508498 
L 181.708033 83.508498 
z
" style="fill:#1f77b4;"/>
   </g>
   <g id="patch_16">
    <path clip-path="url(#p5fb638e881)" d="M 190.642131 80.684937 
L 199.57623 80.684937 
L 199.57623 80.684937 
L 190.642131 80.684937 
z
" style="fill:#1f77b4;"/>
   </g>
   <g id="patch_17">
    <path clip-path="url(#p5fb638e881)" d="M 199.57623 80.684937 
L 208.510328 80.684937 
L 208.510328 80.940915 
L 199.57623 80.940915 
z
" style="fill:#1f77b4;"/>
   </g>
   <g id="patch_18">
    <path clip-path="url(#p5fb638e881)" d="M 208.510328 80.684937 
L 217.444426 80.684937 
L 217.444426 80.684937 
L 208.510328 80.684937 
z
" style="fill:#1f77b4;"/>
   </g>
   <g id="patch_19">
    <path clip-path="url(#p5fb638e881)" d="M 217.444426 80.684937 
L 226.378525 80.684937 
L 226.378525 80.684937 
L 217.444426 80.684937 
z
" style="fill:#1f77b4;"/>
   </g>
   <g id="patch_20">
    <path clip-path="url(#p5fb638e881)" d="M 226.378525 80.684937 
L 235.312623 80.684937 
L 235.312623 108.121568 
L 226.378525 108.121568 
z
" style="fill:#1f77b4;"/>
   </g>
   <g id="patch_21">
    <path clip-path="url(#p5fb638e881)" d="M 235.312623 80.684937 
L 244.246721 80.684937 
L 244.246721 88.769104 
L 235.312623 88.769104 
z
" style="fill:#1f77b4;"/>
   </g>
   <g id="patch_22">
    <path clip-path="url(#p5fb638e881)" d="M 244.246721 80.684937 
L 253.18082 80.684937 
L 253.18082 55.340521 
L 244.246721 55.340521 
z
" style="fill:#1f77b4;"/>
   </g>
   <g id="patch_23">
    <path clip-path="url(#p5fb638e881)" d="M 253.18082 80.684937 
L 262.114918 80.684937 
L 262.114918 80.684937 
L 253.18082 80.684937 
z
" style="fill:#1f77b4;"/>
   </g>
   <g id="patch_24">
    <path clip-path="url(#p5fb638e881)" d="M 262.114918 80.684937 
L 271.049016 80.684937 
L 271.049016 81.081375 
L 262.114918 81.081375 
z
" style="fill:#1f77b4;"/>
   </g>
   <g id="patch_25">
    <path clip-path="url(#p5fb638e881)" d="M 271.049016 80.684937 
L 279.983115 80.684937 
L 279.983115 80.684937 
L 271.049016 80.684937 
z
" style="fill:#1f77b4;"/>
   </g>
   <g id="patch_26">
    <path clip-path="url(#p5fb638e881)" d="M 279.983115 80.684937 
L 288.917213 80.684937 
L 288.917213 91.390317 
L 279.983115 91.390317 
z
" style="fill:#1f77b4;"/>
   </g>
   <g id="patch_27">
    <path clip-path="url(#p5fb638e881)" d="M 288.917213 80.684937 
L 297.851311 80.684937 
L 297.851311 94.042196 
L 288.917213 94.042196 
z
" style="fill:#1f77b4;"/>
   </g>
   <g id="patch_28">
    <path clip-path="url(#p5fb638e881)" d="M 297.851311 80.684937 
L 306.78541 80.684937 
L 306.78541 81.922826 
L 297.851311 81.922826 
z
" style="fill:#1f77b4;"/>
   </g>
   <g id="patch_29">
    <path clip-path="url(#p5fb638e881)" d="M 306.78541 80.684937 
L 315.719508 80.684937 
L 315.719508 85.773141 
L 306.78541 85.773141 
z
" style="fill:#1f77b4;"/>
   </g>
   <g id="patch_30">
    <path clip-path="url(#p5fb638e881)" d="M 315.719508 80.684937 
L 324.653607 80.684937 
L 324.653607 85.033542 
L 315.719508 85.033542 
z
" style="fill:#1f77b4;"/>
   </g>
   <g id="patch_31">
    <path clip-path="url(#p5fb638e881)" d="M 324.653607 80.684937 
L 333.587705 80.684937 
L 333.587705 83.893946 
L 324.653607 83.893946 
z
" style="fill:#1f77b4;"/>
   </g>
   <g id="patch_32">
    <path clip-path="url(#p5fb638e881)" d="M 333.587705 80.684937 
L 342.521803 80.684937 
L 342.521803 80.301847 
L 333.587705 80.301847 
z
" style="fill:#1f77b4;"/>
   </g>
   <g id="patch_33">
    <path clip-path="url(#p5fb638e881)" d="M 342.521803 80.684937 
L 351.455902 80.684937 
L 351.455902 80.684937 
L 342.521803 80.684937 
z
" style="fill:#1f77b4;"/>
   </g>
   <g id="patch_34">
    <path clip-path="url(#p5fb638e881)" d="M 351.455902 80.684937 
L 360.39 80.684937 
L 360.39 80.302392 
L 351.455902 80.302392 
z
" style="fill:#1f77b4;"/>
   </g>
   <g id="patch_35">
    <path clip-path="url(#p5fb638e881)" d="M 360.39 80.684937 
L 369.324098 80.684937 
L 369.324098 80.001989 
L 360.39 80.001989 
z
" style="fill:#1f77b4;"/>
   </g>
   <g id="patch_36">
    <path clip-path="url(#p5fb638e881)" d="M 369.324098 80.684937 
L 378.258197 80.684937 
L 378.258197 82.576813 
L 369.324098 82.576813 
z
" style="fill:#1f77b4;"/>
   </g>
   <g id="patch_37">
    <path clip-path="url(#p5fb638e881)" d="M 378.258197 80.684937 
L 387.192295 80.684937 
L 387.192295 78.886598 
L 378.258197 78.886598 
z
" style="fill:#1f77b4;"/>
   </g>
   <g id="patch_38">
    <path clip-path="url(#p5fb638e881)" d="M 387.192295 80.684937 
L 396.126393 80.684937 
L 396.126393 78.21578 
L 387.192295 78.21578 
z
" style="fill:#1f77b4;"/>
   </g>
   <g id="patch_39">
    <path clip-path="url(#p5fb638e881)" d="M 396.126393 80.684937 
L 405.060492 80.684937 
L 405.060492 80.684937 
L 396.126393 80.684937 
z
" style="fill:#1f77b4;"/>
   </g>
   <g id="patch_40">
    <path clip-path="url(#p5fb638e881)" d="M 405.060492 80.684937 
L 413.99459 80.684937 
L 413.99459 81.835999 
L 405.060492 81.835999 
z
" style="fill:#1f77b4;"/>
   </g>
   <g id="patch_41">
    <path clip-path="url(#p5fb638e881)" d="M 413.99459 80.684937 
L 422.928689 80.684937 
L 422.928689 80.064718 
L 413.99459 80.064718 
z
" style="fill:#1f77b4;"/>
   </g>
   <g id="patch_42">
    <path clip-path="url(#p5fb638e881)" d="M 422.928689 80.684937 
L 431.862787 80.684937 
L 431.862787 80.684937 
L 422.928689 80.684937 
z
" style="fill:#1f77b4;"/>
   </g>
   <g id="patch_43">
    <path clip-path="url(#p5fb638e881)" d="M 431.862787 80.684937 
L 440.796885 80.684937 
L 440.796885 83.354325 
L 431.862787 83.354325 
z
" style="fill:#1f77b4;"/>
   </g>
   <g id="patch_44">
    <path clip-path="url(#p5fb638e881)" d="M 440.796885 80.684937 
L 449.730984 80.684937 
L 449.730984 80.684937 
L 440.796885 80.684937 
z
" style="fill:#1f77b4;"/>
   </g>
   <g id="patch_45">
    <path clip-path="url(#p5fb638e881)" d="M 449.730984 80.684937 
L 458.665082 80.684937 
L 458.665082 82.904589 
L 449.730984 82.904589 
z
" style="fill:#1f77b4;"/>
   </g>
   <g id="patch_46">
    <path clip-path="url(#p5fb638e881)" d="M 458.665082 80.684937 
L 467.59918 80.684937 
L 467.59918 79.322383 
L 458.665082 79.322383 
z
" style="fill:#1f77b4;"/>
   </g>
   <g id="patch_47">
    <path clip-path="url(#p5fb638e881)" d="M 467.59918 80.684937 
L 476.533279 80.684937 
L 476.533279 69.548508 
L 467.59918 69.548508 
z
" style="fill:#1f77b4;"/>
   </g>
   <g id="patch_48">
    <path clip-path="url(#p5fb638e881)" d="M 476.533279 80.684937 
L 485.467377 80.684937 
L 485.467377 80.684937 
L 476.533279 80.684937 
z
" style="fill:#1f77b4;"/>
   </g>
   <g id="patch_49">
    <path clip-path="url(#p5fb638e881)" d="M 485.467377 80.684937 
L 494.401475 80.684937 
L 494.401475 79.55599 
L 485.467377 79.55599 
z
" style="fill:#1f77b4;"/>
   </g>
   <g id="patch_50">
    <path clip-path="url(#p5fb638e881)" d="M 494.401475 80.684937 
L 503.335574 80.684937 
L 503.335574 81.476531 
L 494.401475 81.476531 
z
" style="fill:#1f77b4;"/>
   </g>
   <g id="patch_51">
    <path clip-path="url(#p5fb638e881)" d="M 503.335574 80.684937 
L 512.269672 80.684937 
L 512.269672 81.284721 
L 503.335574 81.284721 
z
" style="fill:#1f77b4;"/>
   </g>
   <g id="patch_52">
    <path clip-path="url(#p5fb638e881)" d="M 512.269672 80.684937 
L 521.20377 80.684937 
L 521.20377 83.153375 
L 512.269672 83.153375 
z
" style="fill:#1f77b4;"/>
   </g>
   <g id="patch_53">
    <path clip-path="url(#p5fb638e881)" d="M 521.20377 80.684937 
L 530.137869 80.684937 
L 530.137869 80.684937 
L 521.20377 80.684937 
z
" style="fill:#1f77b4;"/>
   </g>
   <g id="patch_54">
    <path clip-path="url(#p5fb638e881)" d="M 530.137869 80.684937 
L 539.071967 80.684937 
L 539.071967 80.725329 
L 530.137869 80.725329 
z
" style="fill:#1f77b4;"/>
   </g>
   <g id="patch_55">
    <path clip-path="url(#p5fb638e881)" d="M 539.071967 80.684937 
L 548.006066 80.684937 
L 548.006066 83.414012 
L 539.071967 83.414012 
z
" style="fill:#1f77b4;"/>
   </g>
   <g id="patch_56">
    <path clip-path="url(#p5fb638e881)" d="M 548.006066 80.684937 
L 556.940164 80.684937 
L 556.940164 83.235437 
L 548.006066 83.235437 
z
" style="fill:#1f77b4;"/>
   </g>
   <g id="patch_57">
    <path clip-path="url(#p5fb638e881)" d="M 583.742459 80.684937 
L 592.676557 80.684937 
L 592.676557 80.684937 
L 583.742459 80.684937 
z
" style="fill:#1f77b4;"/>
   </g>
   <g id="patch_58">
    <path clip-path="url(#p5fb638e881)" d="M 592.676557 80.684937 
L 601.610656 80.684937 
L 601.610656 80.76676 
L 592.676557 80.76676 
z
" style="fill:#1f77b4;"/>
   </g>
   <g id="patch_59">
    <path clip-path="url(#p5fb638e881)" d="M 601.610656 80.684937 
L 610.544754 80.684937 
L 610.544754 84.818845 
L 601.610656 84.818845 
z
" style="fill:#1f77b4;"/>
   </g>
   <g id="patch_60">
    <path clip-path="url(#p5fb638e881)" d="M 610.544754 80.684937 
L 619.478852 80.684937 
L 619.478852 85.292129 
L 610.544754 85.292129 
z
" style="fill:#1f77b4;"/>
   </g>
   <g id="matplotlib.axis_1"/>
   <g id="matplotlib.axis_2">
    <g id="ytick_1">
     <g id="line2d_1">
      <defs>
       <path d="M 0 0 
L -3.5 0 
" id="mb4131a0e25" style="stroke:#000000;stroke-width:0.8;"/>
      </defs>
      <g>
       <use style="stroke:#000000;stroke-width:0.8;" x="87.9" xlink:href="#mb4131a0e25" y="117.783943"/>
      </g>
     </g>
     <g id="text_1">
      <!-- −20 -->
      <g transform="translate(59.795313 121.583161)scale(0.1 -0.1)">
       <defs>
        <path d="M 10.59375 35.5 
L 73.1875 35.5 
L 73.1875 27.203125 
L 10.59375 27.203125 
z
" id="DejaVuSans-8722"/>
        <path d="M 19.1875 8.296875 
L 53.609375 8.296875 
L 53.609375 0 
L 7.328125 0 
L 7.328125 8.296875 
Q 12.9375 14.109375 22.625 23.890625 
Q 32.328125 33.6875 34.8125 36.53125 
Q 39.546875 41.84375 41.421875 45.53125 
Q 43.3125 49.21875 43.3125 52.78125 
Q 43.3125 58.59375 39.234375 62.25 
Q 35.15625 65.921875 28.609375 65.921875 
Q 23.96875 65.921875 18.8125 64.3125 
Q 13.671875 62.703125 7.8125 59.421875 
L 7.8125 69.390625 
Q 13.765625 71.78125 18.9375 73 
Q 24.125 74.21875 28.421875 74.21875 
Q 39.75 74.21875 46.484375 68.546875 
Q 53.21875 62.890625 53.21875 53.421875 
Q 53.21875 48.921875 51.53125 44.890625 
Q 49.859375 40.875 45.40625 35.40625 
Q 44.1875 33.984375 37.640625 27.21875 
Q 31.109375 20.453125 19.1875 8.296875 
z
" id="DejaVuSans-50"/>
        <path d="M 31.78125 66.40625 
Q 24.171875 66.40625 20.328125 58.90625 
Q 16.5 51.421875 16.5 36.375 
Q 16.5 21.390625 20.328125 13.890625 
Q 24.171875 6.390625 31.78125 6.390625 
Q 39.453125 6.390625 43.28125 13.890625 
Q 47.125 21.390625 47.125 36.375 
Q 47.125 51.421875 43.28125 58.90625 
Q 39.453125 66.40625 31.78125 66.40625 
z
M 31.78125 74.21875 
Q 44.046875 74.21875 50.515625 64.515625 
Q 56.984375 54.828125 56.984375 36.375 
Q 56.984375 17.96875 50.515625 8.265625 
Q 44.046875 -1.421875 31.78125 -1.421875 
Q 19.53125 -1.421875 13.0625 8.265625 
Q 6.59375 17.96875 6.59375 36.375 
Q 6.59375 54.828125 13.0625 64.515625 
Q 19.53125 74.21875 31.78125 74.21875 
z
" id="DejaVuSans-48"/>
       </defs>
       <use xlink:href="#DejaVuSans-8722"/>
       <use x="83.789062" xlink:href="#DejaVuSans-50"/>
       <use x="147.412109" xlink:href="#DejaVuSans-48"/>
      </g>
     </g>
    </g>
    <g id="ytick_2">
     <g id="line2d_2">
      <g>
       <use style="stroke:#000000;stroke-width:0.8;" x="87.9" xlink:href="#mb4131a0e25" y="80.684937"/>
      </g>
     </g>
     <g id="text_2">
      <!-- 0 -->
      <g transform="translate(74.5375 84.484155)scale(0.1 -0.1)">
       <use xlink:href="#DejaVuSans-48"/>
      </g>
     </g>
    </g>
    <g id="ytick_3">
     <g id="line2d_3">
      <g>
       <use style="stroke:#000000;stroke-width:0.8;" x="87.9" xlink:href="#mb4131a0e25" y="43.585931"/>
      </g>
     </g>
     <g id="text_3">
      <!-- 20 -->
      <g transform="translate(68.175 47.385149)scale(0.1 -0.1)">
       <use xlink:href="#DejaVuSans-50"/>
       <use x="63.623047" xlink:href="#DejaVuSans-48"/>
      </g>
     </g>
    </g>
    <g id="text_4">
     <!-- HGT iModulon -->
     <g transform="translate(39.862313 113.4225)rotate(-90)scale(0.12 -0.12)">
      <defs>
       <path d="M 9.8125 72.90625 
L 19.671875 72.90625 
L 19.671875 43.015625 
L 55.515625 43.015625 
L 55.515625 72.90625 
L 65.375 72.90625 
L 65.375 0 
L 55.515625 0 
L 55.515625 34.71875 
L 19.671875 34.71875 
L 19.671875 0 
L 9.8125 0 
z
" id="DejaVuSans-72"/>
       <path d="M 59.515625 10.40625 
L 59.515625 29.984375 
L 43.40625 29.984375 
L 43.40625 38.09375 
L 69.28125 38.09375 
L 69.28125 6.78125 
Q 63.578125 2.734375 56.6875 0.65625 
Q 49.8125 -1.421875 42 -1.421875 
Q 24.90625 -1.421875 15.25 8.5625 
Q 5.609375 18.5625 5.609375 36.375 
Q 5.609375 54.25 15.25 64.234375 
Q 24.90625 74.21875 42 74.21875 
Q 49.125 74.21875 55.546875 72.453125 
Q 61.96875 70.703125 67.390625 67.28125 
L 67.390625 56.78125 
Q 61.921875 61.421875 55.765625 63.765625 
Q 49.609375 66.109375 42.828125 66.109375 
Q 29.4375 66.109375 22.71875 58.640625 
Q 16.015625 51.171875 16.015625 36.375 
Q 16.015625 21.625 22.71875 14.15625 
Q 29.4375 6.6875 42.828125 6.6875 
Q 48.046875 6.6875 52.140625 7.59375 
Q 56.25 8.5 59.515625 10.40625 
z
" id="DejaVuSans-71"/>
       <path d="M -0.296875 72.90625 
L 61.375 72.90625 
L 61.375 64.59375 
L 35.5 64.59375 
L 35.5 0 
L 25.59375 0 
L 25.59375 64.59375 
L -0.296875 64.59375 
z
" id="DejaVuSans-84"/>
       <path id="DejaVuSans-32"/>
       <path d="M 9.421875 54.6875 
L 18.40625 54.6875 
L 18.40625 0 
L 9.421875 0 
z
M 9.421875 75.984375 
L 18.40625 75.984375 
L 18.40625 64.59375 
L 9.421875 64.59375 
z
" id="DejaVuSans-105"/>
       <path d="M 9.8125 72.90625 
L 24.515625 72.90625 
L 43.109375 23.296875 
L 61.8125 72.90625 
L 76.515625 72.90625 
L 76.515625 0 
L 66.890625 0 
L 66.890625 64.015625 
L 48.09375 14.015625 
L 38.1875 14.015625 
L 19.390625 64.015625 
L 19.390625 0 
L 9.8125 0 
z
" id="DejaVuSans-77"/>
       <path d="M 30.609375 48.390625 
Q 23.390625 48.390625 19.1875 42.75 
Q 14.984375 37.109375 14.984375 27.296875 
Q 14.984375 17.484375 19.15625 11.84375 
Q 23.34375 6.203125 30.609375 6.203125 
Q 37.796875 6.203125 41.984375 11.859375 
Q 46.1875 17.53125 46.1875 27.296875 
Q 46.1875 37.015625 41.984375 42.703125 
Q 37.796875 48.390625 30.609375 48.390625 
z
M 30.609375 56 
Q 42.328125 56 49.015625 48.375 
Q 55.71875 40.765625 55.71875 27.296875 
Q 55.71875 13.875 49.015625 6.21875 
Q 42.328125 -1.421875 30.609375 -1.421875 
Q 18.84375 -1.421875 12.171875 6.21875 
Q 5.515625 13.875 5.515625 27.296875 
Q 5.515625 40.765625 12.171875 48.375 
Q 18.84375 56 30.609375 56 
z
" id="DejaVuSans-111"/>
       <path d="M 45.40625 46.390625 
L 45.40625 75.984375 
L 54.390625 75.984375 
L 54.390625 0 
L 45.40625 0 
L 45.40625 8.203125 
Q 42.578125 3.328125 38.25 0.953125 
Q 33.9375 -1.421875 27.875 -1.421875 
Q 17.96875 -1.421875 11.734375 6.484375 
Q 5.515625 14.40625 5.515625 27.296875 
Q 5.515625 40.1875 11.734375 48.09375 
Q 17.96875 56 27.875 56 
Q 33.9375 56 38.25 53.625 
Q 42.578125 51.265625 45.40625 46.390625 
z
M 14.796875 27.296875 
Q 14.796875 17.390625 18.875 11.75 
Q 22.953125 6.109375 30.078125 6.109375 
Q 37.203125 6.109375 41.296875 11.75 
Q 45.40625 17.390625 45.40625 27.296875 
Q 45.40625 37.203125 41.296875 42.84375 
Q 37.203125 48.484375 30.078125 48.484375 
Q 22.953125 48.484375 18.875 42.84375 
Q 14.796875 37.203125 14.796875 27.296875 
z
" id="DejaVuSans-100"/>
       <path d="M 8.5 21.578125 
L 8.5 54.6875 
L 17.484375 54.6875 
L 17.484375 21.921875 
Q 17.484375 14.15625 20.5 10.265625 
Q 23.53125 6.390625 29.59375 6.390625 
Q 36.859375 6.390625 41.078125 11.03125 
Q 45.3125 15.671875 45.3125 23.6875 
L 45.3125 54.6875 
L 54.296875 54.6875 
L 54.296875 0 
L 45.3125 0 
L 45.3125 8.40625 
Q 42.046875 3.421875 37.71875 1 
Q 33.40625 -1.421875 27.6875 -1.421875 
Q 18.265625 -1.421875 13.375 4.4375 
Q 8.5 10.296875 8.5 21.578125 
z
M 31.109375 56 
z
" id="DejaVuSans-117"/>
       <path d="M 9.421875 75.984375 
L 18.40625 75.984375 
L 18.40625 0 
L 9.421875 0 
z
" id="DejaVuSans-108"/>
       <path d="M 54.890625 33.015625 
L 54.890625 0 
L 45.90625 0 
L 45.90625 32.71875 
Q 45.90625 40.484375 42.875 44.328125 
Q 39.84375 48.1875 33.796875 48.1875 
Q 26.515625 48.1875 22.3125 43.546875 
Q 18.109375 38.921875 18.109375 30.90625 
L 18.109375 0 
L 9.078125 0 
L 9.078125 54.6875 
L 18.109375 54.6875 
L 18.109375 46.1875 
Q 21.34375 51.125 25.703125 53.5625 
Q 30.078125 56 35.796875 56 
Q 45.21875 56 50.046875 50.171875 
Q 54.890625 44.34375 54.890625 33.015625 
z
" id="DejaVuSans-110"/>
      </defs>
      <use xlink:href="#DejaVuSans-72"/>
      <use x="75.195312" xlink:href="#DejaVuSans-71"/>
      <use x="149.060547" xlink:href="#DejaVuSans-84"/>
      <use x="210.144531" xlink:href="#DejaVuSans-32"/>
      <use x="241.931641" xlink:href="#DejaVuSans-105"/>
      <use x="269.714844" xlink:href="#DejaVuSans-77"/>
      <use x="355.994141" xlink:href="#DejaVuSans-111"/>
      <use x="417.175781" xlink:href="#DejaVuSans-100"/>
      <use x="480.652344" xlink:href="#DejaVuSans-117"/>
      <use x="544.03125" xlink:href="#DejaVuSans-108"/>
      <use x="571.814453" xlink:href="#DejaVuSans-111"/>
      <use x="632.996094" xlink:href="#DejaVuSans-110"/>
     </g>
     <!-- Activity -->
     <g transform="translate(53.299688 94.079062)rotate(-90)scale(0.12 -0.12)">
      <defs>
       <path d="M 34.1875 63.1875 
L 20.796875 26.90625 
L 47.609375 26.90625 
z
M 28.609375 72.90625 
L 39.796875 72.90625 
L 67.578125 0 
L 57.328125 0 
L 50.6875 18.703125 
L 17.828125 18.703125 
L 11.1875 0 
L 0.78125 0 
z
" id="DejaVuSans-65"/>
       <path d="M 48.78125 52.59375 
L 48.78125 44.1875 
Q 44.96875 46.296875 41.140625 47.34375 
Q 37.3125 48.390625 33.40625 48.390625 
Q 24.65625 48.390625 19.8125 42.84375 
Q 14.984375 37.3125 14.984375 27.296875 
Q 14.984375 17.28125 19.8125 11.734375 
Q 24.65625 6.203125 33.40625 6.203125 
Q 37.3125 6.203125 41.140625 7.25 
Q 44.96875 8.296875 48.78125 10.40625 
L 48.78125 2.09375 
Q 45.015625 0.34375 40.984375 -0.53125 
Q 36.96875 -1.421875 32.421875 -1.421875 
Q 20.0625 -1.421875 12.78125 6.34375 
Q 5.515625 14.109375 5.515625 27.296875 
Q 5.515625 40.671875 12.859375 48.328125 
Q 20.21875 56 33.015625 56 
Q 37.15625 56 41.109375 55.140625 
Q 45.0625 54.296875 48.78125 52.59375 
z
" id="DejaVuSans-99"/>
       <path d="M 18.3125 70.21875 
L 18.3125 54.6875 
L 36.8125 54.6875 
L 36.8125 47.703125 
L 18.3125 47.703125 
L 18.3125 18.015625 
Q 18.3125 11.328125 20.140625 9.421875 
Q 21.96875 7.515625 27.59375 7.515625 
L 36.8125 7.515625 
L 36.8125 0 
L 27.59375 0 
Q 17.1875 0 13.234375 3.875 
Q 9.28125 7.765625 9.28125 18.015625 
L 9.28125 47.703125 
L 2.6875 47.703125 
L 2.6875 54.6875 
L 9.28125 54.6875 
L 9.28125 70.21875 
z
" id="DejaVuSans-116"/>
       <path d="M 2.984375 54.6875 
L 12.5 54.6875 
L 29.59375 8.796875 
L 46.6875 54.6875 
L 56.203125 54.6875 
L 35.6875 0 
L 23.484375 0 
z
" id="DejaVuSans-118"/>
       <path d="M 32.171875 -5.078125 
Q 28.375 -14.84375 24.75 -17.8125 
Q 21.140625 -20.796875 15.09375 -20.796875 
L 7.90625 -20.796875 
L 7.90625 -13.28125 
L 13.1875 -13.28125 
Q 16.890625 -13.28125 18.9375 -11.515625 
Q 21 -9.765625 23.484375 -3.21875 
L 25.09375 0.875 
L 2.984375 54.6875 
L 12.5 54.6875 
L 29.59375 11.921875 
L 46.6875 54.6875 
L 56.203125 54.6875 
z
" id="DejaVuSans-121"/>
      </defs>
      <use xlink:href="#DejaVuSans-65"/>
      <use x="66.658203" xlink:href="#DejaVuSans-99"/>
      <use x="121.638672" xlink:href="#DejaVuSans-116"/>
      <use x="160.847656" xlink:href="#DejaVuSans-105"/>
      <use x="188.630859" xlink:href="#DejaVuSans-118"/>
      <use x="247.810547" xlink:href="#DejaVuSans-105"/>
      <use x="275.59375" xlink:href="#DejaVuSans-116"/>
      <use x="314.802734" xlink:href="#DejaVuSans-121"/>
     </g>
    </g>
   </g>
   <g id="PathCollection_1">
    <defs>
     <path d="M 0 1.581139 
C 0.419323 1.581139 0.821528 1.41454 1.118034 1.118034 
C 1.41454 0.821528 1.581139 0.419323 1.581139 0 
C 1.581139 -0.419323 1.41454 -0.821528 1.118034 -1.118034 
C 0.821528 -1.41454 0.419323 -1.581139 0 -1.581139 
C -0.419323 -1.581139 -0.821528 -1.41454 -1.118034 -1.118034 
C -1.41454 -0.821528 -1.581139 -0.419323 -1.581139 0 
C -1.581139 0.419323 -1.41454 0.821528 -1.118034 1.118034 
C -0.821528 1.41454 -0.419323 1.581139 0 1.581139 
z
" id="m805bb805c4" style="stroke:#000000;"/>
    </defs>
    <g clip-path="url(#p5fb638e881)">
     <use style="stroke:#000000;" x="105.768197" xlink:href="#m805bb805c4" y="81.307456"/>
     <use style="stroke:#000000;" x="105.768197" xlink:href="#m805bb805c4" y="80.507399"/>
     <use style="stroke:#000000;" x="105.768197" xlink:href="#m805bb805c4" y="81.048787"/>
     <use style="stroke:#000000;" x="105.768197" xlink:href="#m805bb805c4" y="79.876106"/>
     <use style="stroke:#000000;" x="114.702295" xlink:href="#m805bb805c4" y="75.395503"/>
     <use style="stroke:#000000;" x="114.702295" xlink:href="#m805bb805c4" y="74.722599"/>
     <use style="stroke:#000000;" x="114.702295" xlink:href="#m805bb805c4" y="80.716801"/>
     <use style="stroke:#000000;" x="114.702295" xlink:href="#m805bb805c4" y="76.098247"/>
     <use style="stroke:#000000;" x="123.636393" xlink:href="#m805bb805c4" y="80.581014"/>
     <use style="stroke:#000000;" x="123.636393" xlink:href="#m805bb805c4" y="79.966736"/>
     <use style="stroke:#000000;" x="123.636393" xlink:href="#m805bb805c4" y="76.034766"/>
     <use style="stroke:#000000;" x="132.570492" xlink:href="#m805bb805c4" y="80.335726"/>
     <use style="stroke:#000000;" x="132.570492" xlink:href="#m805bb805c4" y="81.034147"/>
     <use style="stroke:#000000;" x="141.50459" xlink:href="#m805bb805c4" y="81.217106"/>
     <use style="stroke:#000000;" x="141.50459" xlink:href="#m805bb805c4" y="82.496725"/>
     <use style="stroke:#000000;" x="150.438689" xlink:href="#m805bb805c4" y="75.043659"/>
     <use style="stroke:#000000;" x="150.438689" xlink:href="#m805bb805c4" y="77.147487"/>
     <use style="stroke:#000000;" x="159.372787" xlink:href="#m805bb805c4" y="69.955972"/>
     <use style="stroke:#000000;" x="159.372787" xlink:href="#m805bb805c4" y="73.429612"/>
     <use style="stroke:#000000;" x="168.306885" xlink:href="#m805bb805c4" y="81.218823"/>
     <use style="stroke:#000000;" x="168.306885" xlink:href="#m805bb805c4" y="80.5134"/>
     <use style="stroke:#000000;" x="177.240984" xlink:href="#m805bb805c4" y="81.869955"/>
     <use style="stroke:#000000;" x="177.240984" xlink:href="#m805bb805c4" y="76.858006"/>
     <use style="stroke:#000000;" x="177.240984" xlink:href="#m805bb805c4" y="81.705176"/>
     <use style="stroke:#000000;" x="186.175082" xlink:href="#m805bb805c4" y="80.868274"/>
     <use style="stroke:#000000;" x="186.175082" xlink:href="#m805bb805c4" y="85.275512"/>
     <use style="stroke:#000000;" x="186.175082" xlink:href="#m805bb805c4" y="84.38171"/>
     <use style="stroke:#000000;" x="195.10918" xlink:href="#m805bb805c4" y="78.136533"/>
     <use style="stroke:#000000;" x="195.10918" xlink:href="#m805bb805c4" y="82.940238"/>
     <use style="stroke:#000000;" x="195.10918" xlink:href="#m805bb805c4" y="80.978039"/>
     <use style="stroke:#000000;" x="204.043279" xlink:href="#m805bb805c4" y="81.450478"/>
     <use style="stroke:#000000;" x="204.043279" xlink:href="#m805bb805c4" y="82.510168"/>
     <use style="stroke:#000000;" x="204.043279" xlink:href="#m805bb805c4" y="78.862098"/>
     <use style="stroke:#000000;" x="212.977377" xlink:href="#m805bb805c4" y="81.699302"/>
     <use style="stroke:#000000;" x="212.977377" xlink:href="#m805bb805c4" y="79.910229"/>
     <use style="stroke:#000000;" x="212.977377" xlink:href="#m805bb805c4" y="80.445278"/>
     <use style="stroke:#000000;" x="221.911475" xlink:href="#m805bb805c4" y="89.219056"/>
     <use style="stroke:#000000;" x="221.911475" xlink:href="#m805bb805c4" y="94.880778"/>
     <use style="stroke:#000000;" x="221.911475" xlink:href="#m805bb805c4" y="57.954976"/>
     <use style="stroke:#000000;" x="230.845574" xlink:href="#m805bb805c4" y="106.692474"/>
     <use style="stroke:#000000;" x="230.845574" xlink:href="#m805bb805c4" y="109.550662"/>
     <use style="stroke:#000000;" x="239.779672" xlink:href="#m805bb805c4" y="88.158066"/>
     <use style="stroke:#000000;" x="239.779672" xlink:href="#m805bb805c4" y="86.498303"/>
     <use style="stroke:#000000;" x="239.779672" xlink:href="#m805bb805c4" y="91.650944"/>
     <use style="stroke:#000000;" x="248.71377" xlink:href="#m805bb805c4" y="106.764085"/>
     <use style="stroke:#000000;" x="248.71377" xlink:href="#m805bb805c4" y="26.34"/>
     <use style="stroke:#000000;" x="248.71377" xlink:href="#m805bb805c4" y="32.917479"/>
     <use style="stroke:#000000;" x="257.647869" xlink:href="#m805bb805c4" y="77.881621"/>
     <use style="stroke:#000000;" x="257.647869" xlink:href="#m805bb805c4" y="81.696877"/>
     <use style="stroke:#000000;" x="257.647869" xlink:href="#m805bb805c4" y="82.476312"/>
     <use style="stroke:#000000;" x="266.581967" xlink:href="#m805bb805c4" y="82.335263"/>
     <use style="stroke:#000000;" x="266.581967" xlink:href="#m805bb805c4" y="81.439393"/>
     <use style="stroke:#000000;" x="266.581967" xlink:href="#m805bb805c4" y="79.469467"/>
     <use style="stroke:#000000;" x="275.516066" xlink:href="#m805bb805c4" y="78.503338"/>
     <use style="stroke:#000000;" x="275.516066" xlink:href="#m805bb805c4" y="83.049072"/>
     <use style="stroke:#000000;" x="275.516066" xlink:href="#m805bb805c4" y="80.502401"/>
     <use style="stroke:#000000;" x="284.450164" xlink:href="#m805bb805c4" y="92.394544"/>
     <use style="stroke:#000000;" x="284.450164" xlink:href="#m805bb805c4" y="89.391388"/>
     <use style="stroke:#000000;" x="284.450164" xlink:href="#m805bb805c4" y="92.385018"/>
     <use style="stroke:#000000;" x="293.384262" xlink:href="#m805bb805c4" y="93.095318"/>
     <use style="stroke:#000000;" x="293.384262" xlink:href="#m805bb805c4" y="94.847345"/>
     <use style="stroke:#000000;" x="293.384262" xlink:href="#m805bb805c4" y="94.183924"/>
     <use style="stroke:#000000;" x="302.318361" xlink:href="#m805bb805c4" y="81.363459"/>
     <use style="stroke:#000000;" x="302.318361" xlink:href="#m805bb805c4" y="81.591515"/>
     <use style="stroke:#000000;" x="302.318361" xlink:href="#m805bb805c4" y="82.813504"/>
     <use style="stroke:#000000;" x="311.252459" xlink:href="#m805bb805c4" y="75.49108"/>
     <use style="stroke:#000000;" x="311.252459" xlink:href="#m805bb805c4" y="90.615696"/>
     <use style="stroke:#000000;" x="311.252459" xlink:href="#m805bb805c4" y="91.212647"/>
     <use style="stroke:#000000;" x="320.186557" xlink:href="#m805bb805c4" y="89.925621"/>
     <use style="stroke:#000000;" x="320.186557" xlink:href="#m805bb805c4" y="90.923697"/>
     <use style="stroke:#000000;" x="320.186557" xlink:href="#m805bb805c4" y="74.25131"/>
     <use style="stroke:#000000;" x="329.120656" xlink:href="#m805bb805c4" y="81.206798"/>
     <use style="stroke:#000000;" x="329.120656" xlink:href="#m805bb805c4" y="86.581094"/>
     <use style="stroke:#000000;" x="338.054754" xlink:href="#m805bb805c4" y="82.506696"/>
     <use style="stroke:#000000;" x="338.054754" xlink:href="#m805bb805c4" y="78.096998"/>
     <use style="stroke:#000000;" x="346.988852" xlink:href="#m805bb805c4" y="80.975661"/>
     <use style="stroke:#000000;" x="346.988852" xlink:href="#m805bb805c4" y="80.394212"/>
     <use style="stroke:#000000;" x="355.922951" xlink:href="#m805bb805c4" y="77.946696"/>
     <use style="stroke:#000000;" x="355.922951" xlink:href="#m805bb805c4" y="82.658089"/>
     <use style="stroke:#000000;" x="364.857049" xlink:href="#m805bb805c4" y="77.658298"/>
     <use style="stroke:#000000;" x="364.857049" xlink:href="#m805bb805c4" y="82.34568"/>
     <use style="stroke:#000000;" x="373.791148" xlink:href="#m805bb805c4" y="83.216053"/>
     <use style="stroke:#000000;" x="373.791148" xlink:href="#m805bb805c4" y="81.937573"/>
     <use style="stroke:#000000;" x="382.725246" xlink:href="#m805bb805c4" y="77.129755"/>
     <use style="stroke:#000000;" x="382.725246" xlink:href="#m805bb805c4" y="80.643441"/>
     <use style="stroke:#000000;" x="391.659344" xlink:href="#m805bb805c4" y="80.380956"/>
     <use style="stroke:#000000;" x="391.659344" xlink:href="#m805bb805c4" y="76.050604"/>
     <use style="stroke:#000000;" x="400.593443" xlink:href="#m805bb805c4" y="81.308445"/>
     <use style="stroke:#000000;" x="400.593443" xlink:href="#m805bb805c4" y="80.475746"/>
     <use style="stroke:#000000;" x="400.593443" xlink:href="#m805bb805c4" y="80.270619"/>
     <use style="stroke:#000000;" x="409.527541" xlink:href="#m805bb805c4" y="79.554425"/>
     <use style="stroke:#000000;" x="409.527541" xlink:href="#m805bb805c4" y="83.055008"/>
     <use style="stroke:#000000;" x="409.527541" xlink:href="#m805bb805c4" y="82.898564"/>
     <use style="stroke:#000000;" x="418.461639" xlink:href="#m805bb805c4" y="80.207303"/>
     <use style="stroke:#000000;" x="418.461639" xlink:href="#m805bb805c4" y="79.922132"/>
     <use style="stroke:#000000;" x="427.395738" xlink:href="#m805bb805c4" y="81.094409"/>
     <use style="stroke:#000000;" x="427.395738" xlink:href="#m805bb805c4" y="80.275464"/>
     <use style="stroke:#000000;" x="436.329836" xlink:href="#m805bb805c4" y="85.988618"/>
     <use style="stroke:#000000;" x="436.329836" xlink:href="#m805bb805c4" y="80.720032"/>
     <use style="stroke:#000000;" x="445.263934" xlink:href="#m805bb805c4" y="78.85618"/>
     <use style="stroke:#000000;" x="445.263934" xlink:href="#m805bb805c4" y="82.513693"/>
     <use style="stroke:#000000;" x="454.198033" xlink:href="#m805bb805c4" y="83.159237"/>
     <use style="stroke:#000000;" x="454.198033" xlink:href="#m805bb805c4" y="82.649941"/>
     <use style="stroke:#000000;" x="463.132131" xlink:href="#m805bb805c4" y="77.666882"/>
     <use style="stroke:#000000;" x="463.132131" xlink:href="#m805bb805c4" y="80.977885"/>
     <use style="stroke:#000000;" x="472.06623" xlink:href="#m805bb805c4" y="70.055936"/>
     <use style="stroke:#000000;" x="472.06623" xlink:href="#m805bb805c4" y="69.041079"/>
     <use style="stroke:#000000;" x="481.000328" xlink:href="#m805bb805c4" y="79.237109"/>
     <use style="stroke:#000000;" x="481.000328" xlink:href="#m805bb805c4" y="82.132765"/>
     <use style="stroke:#000000;" x="489.934426" xlink:href="#m805bb805c4" y="78.292072"/>
     <use style="stroke:#000000;" x="489.934426" xlink:href="#m805bb805c4" y="80.819907"/>
     <use style="stroke:#000000;" x="498.868525" xlink:href="#m805bb805c4" y="78.927826"/>
     <use style="stroke:#000000;" x="498.868525" xlink:href="#m805bb805c4" y="84.025237"/>
     <use style="stroke:#000000;" x="507.802623" xlink:href="#m805bb805c4" y="81.025557"/>
     <use style="stroke:#000000;" x="507.802623" xlink:href="#m805bb805c4" y="81.543886"/>
     <use style="stroke:#000000;" x="516.736721" xlink:href="#m805bb805c4" y="80.689751"/>
     <use style="stroke:#000000;" x="516.736721" xlink:href="#m805bb805c4" y="85.616999"/>
     <use style="stroke:#000000;" x="525.67082" xlink:href="#m805bb805c4" y="78.334348"/>
     <use style="stroke:#000000;" x="525.67082" xlink:href="#m805bb805c4" y="83.035525"/>
     <use style="stroke:#000000;" x="534.604918" xlink:href="#m805bb805c4" y="83.611546"/>
     <use style="stroke:#000000;" x="534.604918" xlink:href="#m805bb805c4" y="77.839112"/>
     <use style="stroke:#000000;" x="543.539016" xlink:href="#m805bb805c4" y="81.253705"/>
     <use style="stroke:#000000;" x="543.539016" xlink:href="#m805bb805c4" y="85.57432"/>
     <use style="stroke:#000000;" x="552.473115" xlink:href="#m805bb805c4" y="81.650523"/>
     <use style="stroke:#000000;" x="552.473115" xlink:href="#m805bb805c4" y="84.820352"/>
     <use style="stroke:#000000;" x="561.407213" xlink:href="#m805bb805c4" y="114.135306"/>
     <use style="stroke:#000000;" x="561.407213" xlink:href="#m805bb805c4" y="116.94"/>
     <use style="stroke:#000000;" x="570.341311" xlink:href="#m805bb805c4" y="80.00601"/>
     <use style="stroke:#000000;" x="570.341311" xlink:href="#m805bb805c4" y="81.363863"/>
     <use style="stroke:#000000;" x="579.27541" xlink:href="#m805bb805c4" y="80.50234"/>
     <use style="stroke:#000000;" x="579.27541" xlink:href="#m805bb805c4" y="81.018156"/>
     <use style="stroke:#000000;" x="588.209508" xlink:href="#m805bb805c4" y="80.535242"/>
     <use style="stroke:#000000;" x="588.209508" xlink:href="#m805bb805c4" y="80.834632"/>
     <use style="stroke:#000000;" x="597.143607" xlink:href="#m805bb805c4" y="81.188452"/>
     <use style="stroke:#000000;" x="597.143607" xlink:href="#m805bb805c4" y="80.345068"/>
     <use style="stroke:#000000;" x="606.077705" xlink:href="#m805bb805c4" y="83.21464"/>
     <use style="stroke:#000000;" x="606.077705" xlink:href="#m805bb805c4" y="86.423049"/>
     <use style="stroke:#000000;" x="615.011803" xlink:href="#m805bb805c4" y="85.837122"/>
     <use style="stroke:#000000;" x="615.011803" xlink:href="#m805bb805c4" y="84.747136"/>
    </g>
   </g>
   <g id="LineCollection_1">
    <path clip-path="url(#p5fb638e881)" d="M 101.301148 126 
L 101.301148 17.28 
" style="fill:none;stroke:#d3d3d3;"/>
    <path clip-path="url(#p5fb638e881)" d="M 128.103443 126 
L 128.103443 17.28 
" style="fill:none;stroke:#d3d3d3;"/>
    <path clip-path="url(#p5fb638e881)" d="M 172.773934 126 
L 172.773934 17.28 
" style="fill:none;stroke:#d3d3d3;"/>
    <path clip-path="url(#p5fb638e881)" d="M 199.57623 126 
L 199.57623 17.28 
" style="fill:none;stroke:#d3d3d3;"/>
    <path clip-path="url(#p5fb638e881)" d="M 217.444426 126 
L 217.444426 17.28 
" style="fill:none;stroke:#d3d3d3;"/>
    <path clip-path="url(#p5fb638e881)" d="M 235.312623 126 
L 235.312623 17.28 
" style="fill:none;stroke:#d3d3d3;"/>
    <path clip-path="url(#p5fb638e881)" d="M 271.049016 126 
L 271.049016 17.28 
" style="fill:none;stroke:#d3d3d3;"/>
    <path clip-path="url(#p5fb638e881)" d="M 324.653607 126 
L 324.653607 17.28 
" style="fill:none;stroke:#d3d3d3;"/>
    <path clip-path="url(#p5fb638e881)" d="M 396.126393 126 
L 396.126393 17.28 
" style="fill:none;stroke:#d3d3d3;"/>
    <path clip-path="url(#p5fb638e881)" d="M 413.99459 126 
L 413.99459 17.28 
" style="fill:none;stroke:#d3d3d3;"/>
    <path clip-path="url(#p5fb638e881)" d="M 440.796885 126 
L 440.796885 17.28 
" style="fill:none;stroke:#d3d3d3;"/>
    <path clip-path="url(#p5fb638e881)" d="M 476.533279 126 
L 476.533279 17.28 
" style="fill:none;stroke:#d3d3d3;"/>
    <path clip-path="url(#p5fb638e881)" d="M 512.269672 126 
L 512.269672 17.28 
" style="fill:none;stroke:#d3d3d3;"/>
    <path clip-path="url(#p5fb638e881)" d="M 556.940164 126 
L 556.940164 17.28 
" style="fill:none;stroke:#d3d3d3;"/>
    <path clip-path="url(#p5fb638e881)" d="M 583.742459 126 
L 583.742459 17.28 
" style="fill:none;stroke:#d3d3d3;"/>
    <path clip-path="url(#p5fb638e881)" d="M 619.478852 126 
L 619.478852 17.28 
" style="fill:none;stroke:#d3d3d3;"/>
   </g>
   <g id="LineCollection_2">
    <path clip-path="url(#p5fb638e881)" d="M 87.9 80.684937 
L 632.88 80.684937 
" style="fill:none;stroke:#000000;stroke-width:1.5;"/>
   </g>
   <g id="patch_61">
    <path d="M 87.9 126 
L 87.9 17.28 
" style="fill:none;stroke:#000000;stroke-linecap:square;stroke-linejoin:miter;stroke-width:0.8;"/>
   </g>
   <g id="patch_62">
    <path d="M 632.88 126 
L 632.88 17.28 
" style="fill:none;stroke:#000000;stroke-linecap:square;stroke-linejoin:miter;stroke-width:0.8;"/>
   </g>
   <g id="patch_63">
    <path d="M 87.9 126 
L 632.88 126 
" style="fill:none;stroke:#000000;stroke-linecap:square;stroke-linejoin:miter;stroke-width:0.8;"/>
   </g>
   <g id="patch_64">
    <path d="M 87.9 17.28 
L 632.88 17.28 
" style="fill:none;stroke:#000000;stroke-linecap:square;stroke-linejoin:miter;stroke-width:0.8;"/>
   </g>
   <g id="text_5">
    <!-- AB0057_PGcoculture -->
    <g transform="translate(48.106341 207.410134)rotate(-45)scale(0.1 -0.1)">
     <defs>
      <path d="M 19.671875 34.8125 
L 19.671875 8.109375 
L 35.5 8.109375 
Q 43.453125 8.109375 47.28125 11.40625 
Q 51.125 14.703125 51.125 21.484375 
Q 51.125 28.328125 47.28125 31.5625 
Q 43.453125 34.8125 35.5 34.8125 
z
M 19.671875 64.796875 
L 19.671875 42.828125 
L 34.28125 42.828125 
Q 41.5 42.828125 45.03125 45.53125 
Q 48.578125 48.25 48.578125 53.8125 
Q 48.578125 59.328125 45.03125 62.0625 
Q 41.5 64.796875 34.28125 64.796875 
z
M 9.8125 72.90625 
L 35.015625 72.90625 
Q 46.296875 72.90625 52.390625 68.21875 
Q 58.5 63.53125 58.5 54.890625 
Q 58.5 48.1875 55.375 44.234375 
Q 52.25 40.28125 46.1875 39.3125 
Q 53.46875 37.75 57.5 32.78125 
Q 61.53125 27.828125 61.53125 20.40625 
Q 61.53125 10.640625 54.890625 5.3125 
Q 48.25 0 35.984375 0 
L 9.8125 0 
z
" id="DejaVuSans-66"/>
      <path d="M 10.796875 72.90625 
L 49.515625 72.90625 
L 49.515625 64.59375 
L 19.828125 64.59375 
L 19.828125 46.734375 
Q 21.96875 47.46875 24.109375 47.828125 
Q 26.265625 48.1875 28.421875 48.1875 
Q 40.625 48.1875 47.75 41.5 
Q 54.890625 34.8125 54.890625 23.390625 
Q 54.890625 11.625 47.5625 5.09375 
Q 40.234375 -1.421875 26.90625 -1.421875 
Q 22.3125 -1.421875 17.546875 -0.640625 
Q 12.796875 0.140625 7.71875 1.703125 
L 7.71875 11.625 
Q 12.109375 9.234375 16.796875 8.0625 
Q 21.484375 6.890625 26.703125 6.890625 
Q 35.15625 6.890625 40.078125 11.328125 
Q 45.015625 15.765625 45.015625 23.390625 
Q 45.015625 31 40.078125 35.4375 
Q 35.15625 39.890625 26.703125 39.890625 
Q 22.75 39.890625 18.8125 39.015625 
Q 14.890625 38.140625 10.796875 36.28125 
z
" id="DejaVuSans-53"/>
      <path d="M 8.203125 72.90625 
L 55.078125 72.90625 
L 55.078125 68.703125 
L 28.609375 0 
L 18.3125 0 
L 43.21875 64.59375 
L 8.203125 64.59375 
z
" id="DejaVuSans-55"/>
      <path d="M 50.984375 -16.609375 
L 50.984375 -23.578125 
L -0.984375 -23.578125 
L -0.984375 -16.609375 
z
" id="DejaVuSans-95"/>
      <path d="M 19.671875 64.796875 
L 19.671875 37.40625 
L 32.078125 37.40625 
Q 38.96875 37.40625 42.71875 40.96875 
Q 46.484375 44.53125 46.484375 51.125 
Q 46.484375 57.671875 42.71875 61.234375 
Q 38.96875 64.796875 32.078125 64.796875 
z
M 9.8125 72.90625 
L 32.078125 72.90625 
Q 44.34375 72.90625 50.609375 67.359375 
Q 56.890625 61.8125 56.890625 51.125 
Q 56.890625 40.328125 50.609375 34.8125 
Q 44.34375 29.296875 32.078125 29.296875 
L 19.671875 29.296875 
L 19.671875 0 
L 9.8125 0 
z
" id="DejaVuSans-80"/>
      <path d="M 41.109375 46.296875 
Q 39.59375 47.171875 37.8125 47.578125 
Q 36.03125 48 33.890625 48 
Q 26.265625 48 22.1875 43.046875 
Q 18.109375 38.09375 18.109375 28.8125 
L 18.109375 0 
L 9.078125 0 
L 9.078125 54.6875 
L 18.109375 54.6875 
L 18.109375 46.1875 
Q 20.953125 51.171875 25.484375 53.578125 
Q 30.03125 56 36.53125 56 
Q 37.453125 56 38.578125 55.875 
Q 39.703125 55.765625 41.0625 55.515625 
z
" id="DejaVuSans-114"/>
      <path d="M 56.203125 29.59375 
L 56.203125 25.203125 
L 14.890625 25.203125 
Q 15.484375 15.921875 20.484375 11.0625 
Q 25.484375 6.203125 34.421875 6.203125 
Q 39.59375 6.203125 44.453125 7.46875 
Q 49.3125 8.734375 54.109375 11.28125 
L 54.109375 2.78125 
Q 49.265625 0.734375 44.1875 -0.34375 
Q 39.109375 -1.421875 33.890625 -1.421875 
Q 20.796875 -1.421875 13.15625 6.1875 
Q 5.515625 13.8125 5.515625 26.8125 
Q 5.515625 40.234375 12.765625 48.109375 
Q 20.015625 56 32.328125 56 
Q 43.359375 56 49.78125 48.890625 
Q 56.203125 41.796875 56.203125 29.59375 
z
M 47.21875 32.234375 
Q 47.125 39.59375 43.09375 43.984375 
Q 39.0625 48.390625 32.421875 48.390625 
Q 24.90625 48.390625 20.390625 44.140625 
Q 15.875 39.890625 15.1875 32.171875 
z
" id="DejaVuSans-101"/>
     </defs>
     <use xlink:href="#DejaVuSans-65"/>
     <use x="68.408203" xlink:href="#DejaVuSans-66"/>
     <use x="137.011719" xlink:href="#DejaVuSans-48"/>
     <use x="200.634766" xlink:href="#DejaVuSans-48"/>
     <use x="264.257812" xlink:href="#DejaVuSans-53"/>
     <use x="327.880859" xlink:href="#DejaVuSans-55"/>
     <use x="391.503906" xlink:href="#DejaVuSans-95"/>
     <use x="441.503906" xlink:href="#DejaVuSans-80"/>
     <use x="501.806641" xlink:href="#DejaVuSans-71"/>
     <use x="579.296875" xlink:href="#DejaVuSans-99"/>
     <use x="634.277344" xlink:href="#DejaVuSans-111"/>
     <use x="695.458984" xlink:href="#DejaVuSans-99"/>
     <use x="750.439453" xlink:href="#DejaVuSans-117"/>
     <use x="813.818359" xlink:href="#DejaVuSans-108"/>
     <use x="841.601562" xlink:href="#DejaVuSans-116"/>
     <use x="880.810547" xlink:href="#DejaVuSans-117"/>
     <use x="944.189453" xlink:href="#DejaVuSans-114"/>
     <use x="983.052734" xlink:href="#DejaVuSans-101"/>
    </g>
   </g>
   <g id="text_6">
    <!-- AB5075_AZI -->
    <g transform="translate(114.718994 176.409026)rotate(-45)scale(0.1 -0.1)">
     <defs>
      <path d="M 5.609375 72.90625 
L 62.890625 72.90625 
L 62.890625 65.375 
L 16.796875 8.296875 
L 64.015625 8.296875 
L 64.015625 0 
L 4.5 0 
L 4.5 7.515625 
L 50.59375 64.59375 
L 5.609375 64.59375 
z
" id="DejaVuSans-90"/>
      <path d="M 9.8125 72.90625 
L 19.671875 72.90625 
L 19.671875 0 
L 9.8125 0 
z
" id="DejaVuSans-73"/>
     </defs>
     <use xlink:href="#DejaVuSans-65"/>
     <use x="68.408203" xlink:href="#DejaVuSans-66"/>
     <use x="137.011719" xlink:href="#DejaVuSans-53"/>
     <use x="200.634766" xlink:href="#DejaVuSans-48"/>
     <use x="264.257812" xlink:href="#DejaVuSans-55"/>
     <use x="327.880859" xlink:href="#DejaVuSans-53"/>
     <use x="391.503906" xlink:href="#DejaVuSans-95"/>
     <use x="441.503906" xlink:href="#DejaVuSans-65"/>
     <use x="509.912109" xlink:href="#DejaVuSans-90"/>
     <use x="578.417969" xlink:href="#DejaVuSans-73"/>
    </g>
   </g>
   <g id="text_7">
    <!-- AB5075_VIR-O_AV-T -->
    <g transform="translate(123.788623 203.075791)rotate(-45)scale(0.1 -0.1)">
     <defs>
      <path d="M 28.609375 0 
L 0.78125 72.90625 
L 11.078125 72.90625 
L 34.1875 11.53125 
L 57.328125 72.90625 
L 67.578125 72.90625 
L 39.796875 0 
z
" id="DejaVuSans-86"/>
      <path d="M 44.390625 34.1875 
Q 47.5625 33.109375 50.5625 29.59375 
Q 53.5625 26.078125 56.59375 19.921875 
L 66.609375 0 
L 56 0 
L 46.6875 18.703125 
Q 43.0625 26.03125 39.671875 28.421875 
Q 36.28125 30.8125 30.421875 30.8125 
L 19.671875 30.8125 
L 19.671875 0 
L 9.8125 0 
L 9.8125 72.90625 
L 32.078125 72.90625 
Q 44.578125 72.90625 50.734375 67.671875 
Q 56.890625 62.453125 56.890625 51.90625 
Q 56.890625 45.015625 53.6875 40.46875 
Q 50.484375 35.9375 44.390625 34.1875 
z
M 19.671875 64.796875 
L 19.671875 38.921875 
L 32.078125 38.921875 
Q 39.203125 38.921875 42.84375 42.21875 
Q 46.484375 45.515625 46.484375 51.90625 
Q 46.484375 58.296875 42.84375 61.546875 
Q 39.203125 64.796875 32.078125 64.796875 
z
" id="DejaVuSans-82"/>
      <path d="M 4.890625 31.390625 
L 31.203125 31.390625 
L 31.203125 23.390625 
L 4.890625 23.390625 
z
" id="DejaVuSans-45"/>
      <path d="M 39.40625 66.21875 
Q 28.65625 66.21875 22.328125 58.203125 
Q 16.015625 50.203125 16.015625 36.375 
Q 16.015625 22.609375 22.328125 14.59375 
Q 28.65625 6.59375 39.40625 6.59375 
Q 50.140625 6.59375 56.421875 14.59375 
Q 62.703125 22.609375 62.703125 36.375 
Q 62.703125 50.203125 56.421875 58.203125 
Q 50.140625 66.21875 39.40625 66.21875 
z
M 39.40625 74.21875 
Q 54.734375 74.21875 63.90625 63.9375 
Q 73.09375 53.65625 73.09375 36.375 
Q 73.09375 19.140625 63.90625 8.859375 
Q 54.734375 -1.421875 39.40625 -1.421875 
Q 24.03125 -1.421875 14.8125 8.828125 
Q 5.609375 19.09375 5.609375 36.375 
Q 5.609375 53.65625 14.8125 63.9375 
Q 24.03125 74.21875 39.40625 74.21875 
z
" id="DejaVuSans-79"/>
     </defs>
     <use xlink:href="#DejaVuSans-65"/>
     <use x="68.408203" xlink:href="#DejaVuSans-66"/>
     <use x="137.011719" xlink:href="#DejaVuSans-53"/>
     <use x="200.634766" xlink:href="#DejaVuSans-48"/>
     <use x="264.257812" xlink:href="#DejaVuSans-55"/>
     <use x="327.880859" xlink:href="#DejaVuSans-53"/>
     <use x="391.503906" xlink:href="#DejaVuSans-95"/>
     <use x="441.503906" xlink:href="#DejaVuSans-86"/>
     <use x="509.912109" xlink:href="#DejaVuSans-73"/>
     <use x="539.404297" xlink:href="#DejaVuSans-82"/>
     <use x="604.886719" xlink:href="#DejaVuSans-45"/>
     <use x="643.720703" xlink:href="#DejaVuSans-79"/>
     <use x="722.431641" xlink:href="#DejaVuSans-95"/>
     <use x="772.431641" xlink:href="#DejaVuSans-65"/>
     <use x="834.464844" xlink:href="#DejaVuSans-86"/>
     <use x="896.998047" xlink:href="#DejaVuSans-45"/>
     <use x="923.957031" xlink:href="#DejaVuSans-84"/>
    </g>
   </g>
   <g id="text_8">
    <!-- AB5075_VIR-O_LSO -->
    <g transform="translate(147.161327 202.038332)rotate(-45)scale(0.1 -0.1)">
     <defs>
      <path d="M 9.8125 72.90625 
L 19.671875 72.90625 
L 19.671875 8.296875 
L 55.171875 8.296875 
L 55.171875 0 
L 9.8125 0 
z
" id="DejaVuSans-76"/>
      <path d="M 53.515625 70.515625 
L 53.515625 60.890625 
Q 47.90625 63.578125 42.921875 64.890625 
Q 37.9375 66.21875 33.296875 66.21875 
Q 25.25 66.21875 20.875 63.09375 
Q 16.5 59.96875 16.5 54.203125 
Q 16.5 49.359375 19.40625 46.890625 
Q 22.3125 44.4375 30.421875 42.921875 
L 36.375 41.703125 
Q 47.40625 39.59375 52.65625 34.296875 
Q 57.90625 29 57.90625 20.125 
Q 57.90625 9.515625 50.796875 4.046875 
Q 43.703125 -1.421875 29.984375 -1.421875 
Q 24.8125 -1.421875 18.96875 -0.25 
Q 13.140625 0.921875 6.890625 3.21875 
L 6.890625 13.375 
Q 12.890625 10.015625 18.65625 8.296875 
Q 24.421875 6.59375 29.984375 6.59375 
Q 38.421875 6.59375 43.015625 9.90625 
Q 47.609375 13.234375 47.609375 19.390625 
Q 47.609375 24.75 44.3125 27.78125 
Q 41.015625 30.8125 33.5 32.328125 
L 27.484375 33.5 
Q 16.453125 35.6875 11.515625 40.375 
Q 6.59375 45.0625 6.59375 53.421875 
Q 6.59375 63.09375 13.40625 68.65625 
Q 20.21875 74.21875 32.171875 74.21875 
Q 37.3125 74.21875 42.625 73.28125 
Q 47.953125 72.359375 53.515625 70.515625 
z
" id="DejaVuSans-83"/>
     </defs>
     <use xlink:href="#DejaVuSans-65"/>
     <use x="68.408203" xlink:href="#DejaVuSans-66"/>
     <use x="137.011719" xlink:href="#DejaVuSans-53"/>
     <use x="200.634766" xlink:href="#DejaVuSans-48"/>
     <use x="264.257812" xlink:href="#DejaVuSans-55"/>
     <use x="327.880859" xlink:href="#DejaVuSans-53"/>
     <use x="391.503906" xlink:href="#DejaVuSans-95"/>
     <use x="441.503906" xlink:href="#DejaVuSans-86"/>
     <use x="509.912109" xlink:href="#DejaVuSans-73"/>
     <use x="539.404297" xlink:href="#DejaVuSans-82"/>
     <use x="604.886719" xlink:href="#DejaVuSans-45"/>
     <use x="643.720703" xlink:href="#DejaVuSans-79"/>
     <use x="722.431641" xlink:href="#DejaVuSans-95"/>
     <use x="772.431641" xlink:href="#DejaVuSans-76"/>
     <use x="828.144531" xlink:href="#DejaVuSans-83"/>
     <use x="891.621094" xlink:href="#DejaVuSans-79"/>
    </g>
   </g>
   <g id="text_9">
    <!-- AB5075_Zinc -->
    <g transform="translate(187.248144 179.94456)rotate(-45)scale(0.1 -0.1)">
     <use xlink:href="#DejaVuSans-65"/>
     <use x="68.408203" xlink:href="#DejaVuSans-66"/>
     <use x="137.011719" xlink:href="#DejaVuSans-53"/>
     <use x="200.634766" xlink:href="#DejaVuSans-48"/>
     <use x="264.257812" xlink:href="#DejaVuSans-55"/>
     <use x="327.880859" xlink:href="#DejaVuSans-53"/>
     <use x="391.503906" xlink:href="#DejaVuSans-95"/>
     <use x="441.503906" xlink:href="#DejaVuSans-90"/>
     <use x="510.009766" xlink:href="#DejaVuSans-105"/>
     <use x="537.792969" xlink:href="#DejaVuSans-110"/>
     <use x="601.171875" xlink:href="#DejaVuSans-99"/>
    </g>
   </g>
   <g id="text_10">
    <!-- AB5075_biofilm+abx -->
    <g transform="translate(186.209215 207.785785)rotate(-45)scale(0.1 -0.1)">
     <defs>
      <path d="M 48.6875 27.296875 
Q 48.6875 37.203125 44.609375 42.84375 
Q 40.53125 48.484375 33.40625 48.484375 
Q 26.265625 48.484375 22.1875 42.84375 
Q 18.109375 37.203125 18.109375 27.296875 
Q 18.109375 17.390625 22.1875 11.75 
Q 26.265625 6.109375 33.40625 6.109375 
Q 40.53125 6.109375 44.609375 11.75 
Q 48.6875 17.390625 48.6875 27.296875 
z
M 18.109375 46.390625 
Q 20.953125 51.265625 25.265625 53.625 
Q 29.59375 56 35.59375 56 
Q 45.5625 56 51.78125 48.09375 
Q 58.015625 40.1875 58.015625 27.296875 
Q 58.015625 14.40625 51.78125 6.484375 
Q 45.5625 -1.421875 35.59375 -1.421875 
Q 29.59375 -1.421875 25.265625 0.953125 
Q 20.953125 3.328125 18.109375 8.203125 
L 18.109375 0 
L 9.078125 0 
L 9.078125 75.984375 
L 18.109375 75.984375 
z
" id="DejaVuSans-98"/>
      <path d="M 37.109375 75.984375 
L 37.109375 68.5 
L 28.515625 68.5 
Q 23.6875 68.5 21.796875 66.546875 
Q 19.921875 64.59375 19.921875 59.515625 
L 19.921875 54.6875 
L 34.71875 54.6875 
L 34.71875 47.703125 
L 19.921875 47.703125 
L 19.921875 0 
L 10.890625 0 
L 10.890625 47.703125 
L 2.296875 47.703125 
L 2.296875 54.6875 
L 10.890625 54.6875 
L 10.890625 58.5 
Q 10.890625 67.625 15.140625 71.796875 
Q 19.390625 75.984375 28.609375 75.984375 
z
" id="DejaVuSans-102"/>
      <path d="M 52 44.1875 
Q 55.375 50.25 60.0625 53.125 
Q 64.75 56 71.09375 56 
Q 79.640625 56 84.28125 50.015625 
Q 88.921875 44.046875 88.921875 33.015625 
L 88.921875 0 
L 79.890625 0 
L 79.890625 32.71875 
Q 79.890625 40.578125 77.09375 44.375 
Q 74.3125 48.1875 68.609375 48.1875 
Q 61.625 48.1875 57.5625 43.546875 
Q 53.515625 38.921875 53.515625 30.90625 
L 53.515625 0 
L 44.484375 0 
L 44.484375 32.71875 
Q 44.484375 40.625 41.703125 44.40625 
Q 38.921875 48.1875 33.109375 48.1875 
Q 26.21875 48.1875 22.15625 43.53125 
Q 18.109375 38.875 18.109375 30.90625 
L 18.109375 0 
L 9.078125 0 
L 9.078125 54.6875 
L 18.109375 54.6875 
L 18.109375 46.1875 
Q 21.1875 51.21875 25.484375 53.609375 
Q 29.78125 56 35.6875 56 
Q 41.65625 56 45.828125 52.96875 
Q 50 49.953125 52 44.1875 
z
" id="DejaVuSans-109"/>
      <path d="M 46 62.703125 
L 46 35.5 
L 73.1875 35.5 
L 73.1875 27.203125 
L 46 27.203125 
L 46 0 
L 37.796875 0 
L 37.796875 27.203125 
L 10.59375 27.203125 
L 10.59375 35.5 
L 37.796875 35.5 
L 37.796875 62.703125 
z
" id="DejaVuSans-43"/>
      <path d="M 34.28125 27.484375 
Q 23.390625 27.484375 19.1875 25 
Q 14.984375 22.515625 14.984375 16.5 
Q 14.984375 11.71875 18.140625 8.90625 
Q 21.296875 6.109375 26.703125 6.109375 
Q 34.1875 6.109375 38.703125 11.40625 
Q 43.21875 16.703125 43.21875 25.484375 
L 43.21875 27.484375 
z
M 52.203125 31.203125 
L 52.203125 0 
L 43.21875 0 
L 43.21875 8.296875 
Q 40.140625 3.328125 35.546875 0.953125 
Q 30.953125 -1.421875 24.3125 -1.421875 
Q 15.921875 -1.421875 10.953125 3.296875 
Q 6 8.015625 6 15.921875 
Q 6 25.140625 12.171875 29.828125 
Q 18.359375 34.515625 30.609375 34.515625 
L 43.21875 34.515625 
L 43.21875 35.40625 
Q 43.21875 41.609375 39.140625 45 
Q 35.0625 48.390625 27.6875 48.390625 
Q 23 48.390625 18.546875 47.265625 
Q 14.109375 46.140625 10.015625 43.890625 
L 10.015625 52.203125 
Q 14.9375 54.109375 19.578125 55.046875 
Q 24.21875 56 28.609375 56 
Q 40.484375 56 46.34375 49.84375 
Q 52.203125 43.703125 52.203125 31.203125 
z
" id="DejaVuSans-97"/>
      <path d="M 54.890625 54.6875 
L 35.109375 28.078125 
L 55.90625 0 
L 45.3125 0 
L 29.390625 21.484375 
L 13.484375 0 
L 2.875 0 
L 24.125 28.609375 
L 4.6875 54.6875 
L 15.28125 54.6875 
L 29.78125 35.203125 
L 44.28125 54.6875 
z
" id="DejaVuSans-120"/>
     </defs>
     <use xlink:href="#DejaVuSans-65"/>
     <use x="68.408203" xlink:href="#DejaVuSans-66"/>
     <use x="137.011719" xlink:href="#DejaVuSans-53"/>
     <use x="200.634766" xlink:href="#DejaVuSans-48"/>
     <use x="264.257812" xlink:href="#DejaVuSans-55"/>
     <use x="327.880859" xlink:href="#DejaVuSans-53"/>
     <use x="391.503906" xlink:href="#DejaVuSans-95"/>
     <use x="441.503906" xlink:href="#DejaVuSans-98"/>
     <use x="504.980469" xlink:href="#DejaVuSans-105"/>
     <use x="532.763672" xlink:href="#DejaVuSans-111"/>
     <use x="593.945312" xlink:href="#DejaVuSans-102"/>
     <use x="629.150391" xlink:href="#DejaVuSans-105"/>
     <use x="656.933594" xlink:href="#DejaVuSans-108"/>
     <use x="684.716797" xlink:href="#DejaVuSans-109"/>
     <use x="782.128906" xlink:href="#DejaVuSans-43"/>
     <use x="865.917969" xlink:href="#DejaVuSans-97"/>
     <use x="927.197266" xlink:href="#DejaVuSans-98"/>
     <use x="990.673828" xlink:href="#DejaVuSans-120"/>
    </g>
   </g>
   <g id="text_11">
    <!-- AB5075_gigAB -->
    <g transform="translate(253.26737 185.398121)rotate(-45)scale(0.1 -0.1)">
     <defs>
      <path d="M 45.40625 27.984375 
Q 45.40625 37.75 41.375 43.109375 
Q 37.359375 48.484375 30.078125 48.484375 
Q 22.859375 48.484375 18.828125 43.109375 
Q 14.796875 37.75 14.796875 27.984375 
Q 14.796875 18.265625 18.828125 12.890625 
Q 22.859375 7.515625 30.078125 7.515625 
Q 37.359375 7.515625 41.375 12.890625 
Q 45.40625 18.265625 45.40625 27.984375 
z
M 54.390625 6.78125 
Q 54.390625 -7.171875 48.1875 -13.984375 
Q 42 -20.796875 29.203125 -20.796875 
Q 24.46875 -20.796875 20.265625 -20.09375 
Q 16.0625 -19.390625 12.109375 -17.921875 
L 12.109375 -9.1875 
Q 16.0625 -11.328125 19.921875 -12.34375 
Q 23.78125 -13.375 27.78125 -13.375 
Q 36.625 -13.375 41.015625 -8.765625 
Q 45.40625 -4.15625 45.40625 5.171875 
L 45.40625 9.625 
Q 42.625 4.78125 38.28125 2.390625 
Q 33.9375 0 27.875 0 
Q 17.828125 0 11.671875 7.65625 
Q 5.515625 15.328125 5.515625 27.984375 
Q 5.515625 40.671875 11.671875 48.328125 
Q 17.828125 56 27.875 56 
Q 33.9375 56 38.28125 53.609375 
Q 42.625 51.21875 45.40625 46.390625 
L 45.40625 54.6875 
L 54.390625 54.6875 
z
" id="DejaVuSans-103"/>
     </defs>
     <use xlink:href="#DejaVuSans-65"/>
     <use x="68.408203" xlink:href="#DejaVuSans-66"/>
     <use x="137.011719" xlink:href="#DejaVuSans-53"/>
     <use x="200.634766" xlink:href="#DejaVuSans-48"/>
     <use x="264.257812" xlink:href="#DejaVuSans-55"/>
     <use x="327.880859" xlink:href="#DejaVuSans-53"/>
     <use x="391.503906" xlink:href="#DejaVuSans-95"/>
     <use x="441.503906" xlink:href="#DejaVuSans-103"/>
     <use x="504.980469" xlink:href="#DejaVuSans-105"/>
     <use x="532.763672" xlink:href="#DejaVuSans-103"/>
     <use x="596.240234" xlink:href="#DejaVuSans-65"/>
     <use x="664.648438" xlink:href="#DejaVuSans-66"/>
    </g>
   </g>
   <g id="text_12">
    <!-- AB5075_med -->
    <g transform="translate(320.709402 180.494778)rotate(-45)scale(0.1 -0.1)">
     <use xlink:href="#DejaVuSans-65"/>
     <use x="68.408203" xlink:href="#DejaVuSans-66"/>
     <use x="137.011719" xlink:href="#DejaVuSans-53"/>
     <use x="200.634766" xlink:href="#DejaVuSans-48"/>
     <use x="264.257812" xlink:href="#DejaVuSans-55"/>
     <use x="327.880859" xlink:href="#DejaVuSans-53"/>
     <use x="391.503906" xlink:href="#DejaVuSans-95"/>
     <use x="441.503906" xlink:href="#DejaVuSans-109"/>
     <use x="538.916016" xlink:href="#DejaVuSans-101"/>
     <use x="600.439453" xlink:href="#DejaVuSans-100"/>
    </g>
   </g>
   <g id="text_13">
    <!-- AYE_adeB -->
    <g transform="translate(377.691286 168.183386)rotate(-45)scale(0.1 -0.1)">
     <defs>
      <path d="M -0.203125 72.90625 
L 10.40625 72.90625 
L 30.609375 42.921875 
L 50.6875 72.90625 
L 61.28125 72.90625 
L 35.5 34.71875 
L 35.5 0 
L 25.59375 0 
L 25.59375 34.71875 
z
" id="DejaVuSans-89"/>
      <path d="M 9.8125 72.90625 
L 55.90625 72.90625 
L 55.90625 64.59375 
L 19.671875 64.59375 
L 19.671875 43.015625 
L 54.390625 43.015625 
L 54.390625 34.71875 
L 19.671875 34.71875 
L 19.671875 8.296875 
L 56.78125 8.296875 
L 56.78125 0 
L 9.8125 0 
z
" id="DejaVuSans-69"/>
     </defs>
     <use xlink:href="#DejaVuSans-65"/>
     <use x="60.658203" xlink:href="#DejaVuSans-89"/>
     <use x="121.742188" xlink:href="#DejaVuSans-69"/>
     <use x="184.925781" xlink:href="#DejaVuSans-95"/>
     <use x="234.925781" xlink:href="#DejaVuSans-97"/>
     <use x="296.205078" xlink:href="#DejaVuSans-100"/>
     <use x="359.681641" xlink:href="#DejaVuSans-101"/>
     <use x="421.205078" xlink:href="#DejaVuSans-66"/>
    </g>
   </g>
   <g id="text_14">
    <!-- COL -->
    <g transform="translate(420.415514 147.991068)rotate(-45)scale(0.1 -0.1)">
     <defs>
      <path d="M 64.40625 67.28125 
L 64.40625 56.890625 
Q 59.421875 61.53125 53.78125 63.8125 
Q 48.140625 66.109375 41.796875 66.109375 
Q 29.296875 66.109375 22.65625 58.46875 
Q 16.015625 50.828125 16.015625 36.375 
Q 16.015625 21.96875 22.65625 14.328125 
Q 29.296875 6.6875 41.796875 6.6875 
Q 48.140625 6.6875 53.78125 8.984375 
Q 59.421875 11.28125 64.40625 15.921875 
L 64.40625 5.609375 
Q 59.234375 2.09375 53.4375 0.328125 
Q 47.65625 -1.421875 41.21875 -1.421875 
Q 24.65625 -1.421875 15.125 8.703125 
Q 5.609375 18.84375 5.609375 36.375 
Q 5.609375 53.953125 15.125 64.078125 
Q 24.65625 74.21875 41.21875 74.21875 
Q 47.75 74.21875 53.53125 72.484375 
Q 59.328125 70.75 64.40625 67.28125 
z
" id="DejaVuSans-67"/>
     </defs>
     <use xlink:href="#DejaVuSans-67"/>
     <use x="69.824219" xlink:href="#DejaVuSans-79"/>
     <use x="148.535156" xlink:href="#DejaVuSans-76"/>
    </g>
   </g>
   <g id="text_15">
    <!-- H2O2 -->
    <g transform="translate(446.246765 153.429161)rotate(-45)scale(0.1 -0.1)">
     <use xlink:href="#DejaVuSans-72"/>
     <use x="75.195312" xlink:href="#DejaVuSans-50"/>
     <use x="138.818359" xlink:href="#DejaVuSans-79"/>
     <use x="217.529297" xlink:href="#DejaVuSans-50"/>
    </g>
   </g>
   <g id="text_16">
    <!-- MRP -->
    <g transform="translate(486.587087 148.825233)rotate(-45)scale(0.1 -0.1)">
     <use xlink:href="#DejaVuSans-77"/>
     <use x="86.279297" xlink:href="#DejaVuSans-82"/>
     <use x="155.761719" xlink:href="#DejaVuSans-80"/>
    </g>
   </g>
   <g id="text_17">
    <!-- growth -->
    <g transform="translate(517.468873 158.146889)rotate(-45)scale(0.1 -0.1)">
     <defs>
      <path d="M 4.203125 54.6875 
L 13.1875 54.6875 
L 24.421875 12.015625 
L 35.59375 54.6875 
L 46.1875 54.6875 
L 57.421875 12.015625 
L 68.609375 54.6875 
L 77.59375 54.6875 
L 63.28125 0 
L 52.6875 0 
L 40.921875 44.828125 
L 29.109375 0 
L 18.5 0 
z
" id="DejaVuSans-119"/>
      <path d="M 54.890625 33.015625 
L 54.890625 0 
L 45.90625 0 
L 45.90625 32.71875 
Q 45.90625 40.484375 42.875 44.328125 
Q 39.84375 48.1875 33.796875 48.1875 
Q 26.515625 48.1875 22.3125 43.546875 
Q 18.109375 38.921875 18.109375 30.90625 
L 18.109375 0 
L 9.078125 0 
L 9.078125 75.984375 
L 18.109375 75.984375 
L 18.109375 46.1875 
Q 21.34375 51.125 25.703125 53.5625 
Q 30.078125 56 35.796875 56 
Q 45.21875 56 50.046875 50.171875 
Q 54.890625 44.34375 54.890625 33.015625 
z
" id="DejaVuSans-104"/>
     </defs>
     <use xlink:href="#DejaVuSans-103"/>
     <use x="63.476562" xlink:href="#DejaVuSans-114"/>
     <use x="102.339844" xlink:href="#DejaVuSans-111"/>
     <use x="163.521484" xlink:href="#DejaVuSans-119"/>
     <use x="245.308594" xlink:href="#DejaVuSans-116"/>
     <use x="284.517578" xlink:href="#DejaVuSans-104"/>
    </g>
   </g>
   <g id="text_18">
    <!-- mutants -->
    <g transform="translate(548.393626 162.958529)rotate(-45)scale(0.1 -0.1)">
     <defs>
      <path d="M 44.28125 53.078125 
L 44.28125 44.578125 
Q 40.484375 46.53125 36.375 47.5 
Q 32.28125 48.484375 27.875 48.484375 
Q 21.1875 48.484375 17.84375 46.4375 
Q 14.5 44.390625 14.5 40.28125 
Q 14.5 37.15625 16.890625 35.375 
Q 19.28125 33.59375 26.515625 31.984375 
L 29.59375 31.296875 
Q 39.15625 29.25 43.1875 25.515625 
Q 47.21875 21.78125 47.21875 15.09375 
Q 47.21875 7.46875 41.1875 3.015625 
Q 35.15625 -1.421875 24.609375 -1.421875 
Q 20.21875 -1.421875 15.453125 -0.5625 
Q 10.6875 0.296875 5.421875 2 
L 5.421875 11.28125 
Q 10.40625 8.6875 15.234375 7.390625 
Q 20.0625 6.109375 24.8125 6.109375 
Q 31.15625 6.109375 34.5625 8.28125 
Q 37.984375 10.453125 37.984375 14.40625 
Q 37.984375 18.0625 35.515625 20.015625 
Q 33.0625 21.96875 24.703125 23.78125 
L 21.578125 24.515625 
Q 13.234375 26.265625 9.515625 29.90625 
Q 5.8125 33.546875 5.8125 39.890625 
Q 5.8125 47.609375 11.28125 51.796875 
Q 16.75 56 26.8125 56 
Q 31.78125 56 36.171875 55.265625 
Q 40.578125 54.546875 44.28125 53.078125 
z
" id="DejaVuSans-115"/>
     </defs>
     <use xlink:href="#DejaVuSans-109"/>
     <use x="97.412109" xlink:href="#DejaVuSans-117"/>
     <use x="160.791016" xlink:href="#DejaVuSans-116"/>
     <use x="200" xlink:href="#DejaVuSans-97"/>
     <use x="261.279297" xlink:href="#DejaVuSans-110"/>
     <use x="324.658203" xlink:href="#DejaVuSans-116"/>
     <use x="363.867188" xlink:href="#DejaVuSans-115"/>
    </g>
   </g>
   <g id="text_19">
    <!-- vacJ_LL-37 -->
    <g transform="translate(571.544501 170.755486)rotate(-45)scale(0.1 -0.1)">
     <defs>
      <path d="M 9.8125 72.90625 
L 19.671875 72.90625 
L 19.671875 5.078125 
Q 19.671875 -8.109375 14.671875 -14.0625 
Q 9.671875 -20.015625 -1.421875 -20.015625 
L -5.171875 -20.015625 
L -5.171875 -11.71875 
L -2.09375 -11.71875 
Q 4.4375 -11.71875 7.125 -8.046875 
Q 9.8125 -4.390625 9.8125 5.078125 
z
" id="DejaVuSans-74"/>
      <path d="M 40.578125 39.3125 
Q 47.65625 37.796875 51.625 33 
Q 55.609375 28.21875 55.609375 21.1875 
Q 55.609375 10.40625 48.1875 4.484375 
Q 40.765625 -1.421875 27.09375 -1.421875 
Q 22.515625 -1.421875 17.65625 -0.515625 
Q 12.796875 0.390625 7.625 2.203125 
L 7.625 11.71875 
Q 11.71875 9.328125 16.59375 8.109375 
Q 21.484375 6.890625 26.8125 6.890625 
Q 36.078125 6.890625 40.9375 10.546875 
Q 45.796875 14.203125 45.796875 21.1875 
Q 45.796875 27.640625 41.28125 31.265625 
Q 36.765625 34.90625 28.71875 34.90625 
L 20.21875 34.90625 
L 20.21875 43.015625 
L 29.109375 43.015625 
Q 36.375 43.015625 40.234375 45.921875 
Q 44.09375 48.828125 44.09375 54.296875 
Q 44.09375 59.90625 40.109375 62.90625 
Q 36.140625 65.921875 28.71875 65.921875 
Q 24.65625 65.921875 20.015625 65.03125 
Q 15.375 64.15625 9.8125 62.3125 
L 9.8125 71.09375 
Q 15.4375 72.65625 20.34375 73.4375 
Q 25.25 74.21875 29.59375 74.21875 
Q 40.828125 74.21875 47.359375 69.109375 
Q 53.90625 64.015625 53.90625 55.328125 
Q 53.90625 49.265625 50.4375 45.09375 
Q 46.96875 40.921875 40.578125 39.3125 
z
" id="DejaVuSans-51"/>
     </defs>
     <use xlink:href="#DejaVuSans-118"/>
     <use x="59.179688" xlink:href="#DejaVuSans-97"/>
     <use x="120.458984" xlink:href="#DejaVuSans-99"/>
     <use x="175.439453" xlink:href="#DejaVuSans-74"/>
     <use x="204.931641" xlink:href="#DejaVuSans-95"/>
     <use x="254.931641" xlink:href="#DejaVuSans-76"/>
     <use x="310.644531" xlink:href="#DejaVuSans-76"/>
     <use x="364.607422" xlink:href="#DejaVuSans-45"/>
     <use x="400.691406" xlink:href="#DejaVuSans-51"/>
     <use x="464.314453" xlink:href="#DejaVuSans-55"/>
    </g>
   </g>
   <g id="legend_1">
    <g id="patch_65">
     <path d="M 517.506563 69.314375 
L 625.88 69.314375 
Q 627.88 69.314375 627.88 67.314375 
L 627.88 24.28 
Q 627.88 22.28 625.88 22.28 
L 517.506563 22.28 
Q 515.506563 22.28 515.506563 24.28 
L 515.506563 67.314375 
Q 515.506563 69.314375 517.506563 69.314375 
z
" style="fill:#ffffff;opacity:0.8;stroke:#cccccc;stroke-linejoin:miter;"/>
    </g>
    <g id="patch_66">
     <path d="M 519.506563 33.878438 
L 539.506563 33.878438 
L 539.506563 26.878438 
L 519.506563 26.878438 
z
" style="fill:#d62728;"/>
    </g>
    <g id="text_20">
     <!-- mutants - R7 -->
     <g transform="translate(547.506563 33.878438)scale(0.1 -0.1)">
      <use xlink:href="#DejaVuSans-109"/>
      <use x="97.412109" xlink:href="#DejaVuSans-117"/>
      <use x="160.791016" xlink:href="#DejaVuSans-116"/>
      <use x="200" xlink:href="#DejaVuSans-97"/>
      <use x="261.279297" xlink:href="#DejaVuSans-110"/>
      <use x="324.658203" xlink:href="#DejaVuSans-116"/>
      <use x="363.867188" xlink:href="#DejaVuSans-115"/>
      <use x="415.966797" xlink:href="#DejaVuSans-32"/>
      <use x="447.753906" xlink:href="#DejaVuSans-45"/>
      <use x="483.837891" xlink:href="#DejaVuSans-32"/>
      <use x="515.625" xlink:href="#DejaVuSans-82"/>
      <use x="585.107422" xlink:href="#DejaVuSans-55"/>
     </g>
    </g>
    <g id="patch_67">
     <path d="M 519.506563 48.556563 
L 539.506563 48.556563 
L 539.506563 41.556563 
L 519.506563 41.556563 
z
" style="fill:#ff7f0e;"/>
    </g>
    <g id="text_21">
     <!-- mutants - WT -->
     <g transform="translate(547.506563 48.556563)scale(0.1 -0.1)">
      <defs>
       <path d="M 3.328125 72.90625 
L 13.28125 72.90625 
L 28.609375 11.28125 
L 43.890625 72.90625 
L 54.984375 72.90625 
L 70.3125 11.28125 
L 85.59375 72.90625 
L 95.609375 72.90625 
L 77.296875 0 
L 64.890625 0 
L 49.515625 63.28125 
L 33.984375 0 
L 21.578125 0 
z
" id="DejaVuSans-87"/>
      </defs>
      <use xlink:href="#DejaVuSans-109"/>
      <use x="97.412109" xlink:href="#DejaVuSans-117"/>
      <use x="160.791016" xlink:href="#DejaVuSans-116"/>
      <use x="200" xlink:href="#DejaVuSans-97"/>
      <use x="261.279297" xlink:href="#DejaVuSans-110"/>
      <use x="324.658203" xlink:href="#DejaVuSans-116"/>
      <use x="363.867188" xlink:href="#DejaVuSans-115"/>
      <use x="415.966797" xlink:href="#DejaVuSans-32"/>
      <use x="447.753906" xlink:href="#DejaVuSans-45"/>
      <use x="483.837891" xlink:href="#DejaVuSans-32"/>
      <use x="515.625" xlink:href="#DejaVuSans-87"/>
      <use x="614.501953" xlink:href="#DejaVuSans-84"/>
     </g>
    </g>
    <g id="patch_68">
     <path d="M 519.506563 63.234688 
L 539.506563 63.234688 
L 539.506563 56.234688 
L 519.506563 56.234688 
z
" style="fill:#2ca02c;"/>
    </g>
    <g id="text_22">
     <!-- mutants - gacA -->
     <g transform="translate(547.506563 63.234688)scale(0.1 -0.1)">
      <use xlink:href="#DejaVuSans-109"/>
      <use x="97.412109" xlink:href="#DejaVuSans-117"/>
      <use x="160.791016" xlink:href="#DejaVuSans-116"/>
      <use x="200" xlink:href="#DejaVuSans-97"/>
      <use x="261.279297" xlink:href="#DejaVuSans-110"/>
      <use x="324.658203" xlink:href="#DejaVuSans-116"/>
      <use x="363.867188" xlink:href="#DejaVuSans-115"/>
      <use x="415.966797" xlink:href="#DejaVuSans-32"/>
      <use x="447.753906" xlink:href="#DejaVuSans-45"/>
      <use x="483.837891" xlink:href="#DejaVuSans-32"/>
      <use x="515.625" xlink:href="#DejaVuSans-103"/>
      <use x="579.101562" xlink:href="#DejaVuSans-97"/>
      <use x="640.380859" xlink:href="#DejaVuSans-99"/>
      <use x="695.361328" xlink:href="#DejaVuSans-65"/>
     </g>
    </g>
   </g>
  </g>
 </g>
 <defs>
  <clipPath id="p5fb638e881">
   <rect height="108.72" width="544.98" x="87.9" y="17.28"/>
  </clipPath>
 </defs>
</svg>
